<svg width="241" height="29" viewBox="0 0 241 29" fill="none" xmlns="http://www.w3.org/2000/svg">
<path d="M76.6482 14.2283C72.4421 10.5409 68.0941 6.95451 64.3838 2.86536C63.6162 2.38998 62.9713 2.42574 62.2086 2.86957C58.4982 6.16571 54.3403 9.04115 51.1353 12.7559C49.3186 12.1564 44.8358 6.67054 43.4427 6.67054C42.793 6.67054 41.9027 7.39624 41.9388 7.98732C42.0254 9.45975 46.8234 12.657 48.0168 14.0159C48.2021 14.2262 48.4836 14.283 48.3754 14.6469H27.6845C30.4636 11.6284 34.725 9.53337 37.7063 6.79254C38.4402 6.11733 40.3772 4.35041 39.138 3.48168C37.8146 2.55405 35.8246 5.03614 34.9079 5.71346C31.3347 8.3428 27.6652 10.8649 24.1955 13.6057L23.5891 13.2839C22.8552 12.1459 21.6281 11.2982 20.7113 10.3306C18.2811 7.77066 15.7714 4.36093 13.1318 2.02187C11.7843 0.827095 9.85217 0.970133 10.1265 2.74336C10.2829 3.76354 15.0496 8.13877 16.1299 9.28726C17.078 10.2927 17.8455 11.4307 18.7888 12.432C19.0583 12.7159 21.2599 14.4029 20.9471 14.6448C15.295 14.5796 9.62839 14.7331 3.97383 14.6553C2.6817 14.6364 -0.239421 13.856 0.015636 15.9931C0.256255 18.0019 5.83142 17.3499 7.60238 17.3709C10.7112 17.4109 13.8609 17.3688 16.9673 17.3709C26.2744 17.3793 35.5816 17.3835 44.8888 17.3793C45.0957 17.3772 45.4566 17.5539 45.4927 17.699C45.6997 18.5867 39.5735 22.8315 42.7761 23.6435C44.1068 23.9821 44.5712 23.3763 45.3748 22.6401C46.9822 21.1656 48.2791 19.0831 49.9249 17.5728C50.3484 17.3036 51.3446 17.2931 51.8619 17.3835C52.1675 17.4361 55.3942 20.0591 55.9621 20.5282C57.9737 22.1815 59.9227 23.9569 61.8573 25.6817C63.0146 26.7145 63.1735 28.025 65.2283 26.7482C67.8415 25.1243 71.3329 20.6418 73.7583 18.4289C74.0663 18.1471 74.9229 17.2931 75.1924 17.1585C75.907 16.7988 78.7488 16.9292 79.7882 16.9502C99.8415 17.3646 119.81 16.3907 139.929 16.7525C140.848 16.9039 142.973 19.935 143.781 20.747C144.289 21.2581 146.004 22.8673 146.536 23.1744C147.847 23.9358 149.332 23.391 148.856 22.0006C148.601 21.2518 143.625 16.9923 143.904 16.7483L164.116 16.3276C162.443 18.3154 160.826 20.3894 159.058 22.3162C157.997 23.471 154.094 26.4348 154.347 27.903C154.638 29.6026 156.452 29.0494 157.501 28.107C160.632 25.301 163.197 21.5505 166.048 18.5404C167.415 17.0975 167.939 15.7134 169.773 17.3751C171.399 18.8496 173.606 21.1382 175.177 22.7474C176.217 23.8117 179.434 28.0018 180.483 28.4204C181.977 29.0178 182.737 27.9808 181.967 26.6956C180.584 24.3881 176.686 21.4706 174.941 19.1652L172.778 16.3255C177.552 16.2014 182.304 16.0541 187.105 16.1046C190.798 16.1425 194.706 16.5695 198.392 16.5421C199.999 16.5295 202.379 16.0436 203.941 16.092C204.92 16.1214 205.384 16.8177 206.094 16.7525C206.681 16.6978 206.828 16.1572 207.189 16.0121C207.995 15.686 214.008 16.113 215.498 16.1235C222.827 16.1782 230.303 15.7723 237.671 15.7638C238.164 15.7638 238.498 16.0415 238.867 16.0625C239.73 16.1151 240.397 15.1181 240.05 14.4239C238.08 11.437 235.796 9.05798 233.265 6.46019C231.956 5.11608 230.065 2.96633 228.722 1.80731C227.307 0.583092 226.621 0.814475 225.108 1.81152C223.13 3.11567 220.945 5.61039 218.975 7.17748C218.13 7.84849 212.716 11.8998 212.119 11.9145C209.627 8.54684 206.304 5.78077 203.207 2.86536C202.533 2.23222 200.926 -0.142605 199.958 0.00674108C198.854 0.179226 199.771 1.45393 200.103 2.00294C201.734 4.69748 205.064 7.23217 207.037 9.82364L209.829 13.3785H205.618L194.188 1.70424C193.216 0.782924 191.527 1.09424 192.302 2.50987C193.89 5.40846 198.474 9.19471 200.919 11.8051C201.26 12.1711 201.806 12.6991 201.888 13.1661H197.918C197.62 13.1661 194.436 9.76685 193.955 9.26833C192.028 7.27424 190.083 4.69328 188.055 2.85695C186.914 1.82414 185.403 1.11317 185.702 3.22085C188.57 6.68947 191.602 10.0403 194.67 13.3743C192.309 14.262 189.722 13.6015 187.343 13.5762C181.852 13.5173 176.315 13.5005 170.848 13.795L180.572 3.47326C181.248 2.39839 181.14 1.01431 179.41 1.17838C178.262 1.28776 176.715 3.59106 175.894 4.43245C173.387 7.00289 170.916 9.60699 168.319 12.1122C166.178 9.7942 163.851 7.58766 161.71 5.27384C160.725 4.21158 158.038 0.198156 156.536 0.330674C155.035 0.463193 155.571 1.87673 156.067 2.63188C158.112 5.74291 162.16 9.46395 164.912 12.2532C165.254 12.6002 166.144 12.8337 166.031 13.5868C157.804 13.49 149.628 13.7424 141.413 13.9696C139.804 12.3078 138.045 10.7239 136.442 9.06009C134.368 6.90823 131.724 3.14091 129.558 1.40555C128.211 0.324364 126.637 1.3109 127.566 2.93688C128.446 4.47662 132.563 8.80136 134.036 10.3222C135.208 11.5317 137.008 12.4845 137.638 14.0096H131.021C127.792 10.7323 124.897 7.16065 121.639 3.91079C121.216 3.48799 119.024 1.29827 118.761 1.16786C117.135 0.358022 115.9 1.48759 116.738 2.93688C117.52 4.28941 120.698 6.87037 121.99 8.22921C123.793 10.1244 125.477 12.1206 127.291 14.0075H123.562C123.28 14.0075 120.299 10.7997 119.837 10.3222C117.698 8.0988 115.294 4.77111 112.982 2.85274C111.41 1.54859 109.478 2.35211 110.388 4.281C113.066 7.38362 116.297 10.3159 118.99 13.3764C119.178 13.5889 119.454 13.6414 119.348 14.0096H113.694C111.023 11.4055 108.817 8.47322 106.237 5.80391C105.506 5.04876 102.534 1.89776 101.795 1.69162C100.33 1.28144 99.8246 2.56667 98.867 3.35547C95.0243 6.51909 91.0781 9.58595 87.4664 12.9557C86.7397 12.9557 79.4538 4.79424 78.3253 3.70044C77.6708 3.06519 74.3671 -0.226743 73.7318 1.79259C73.188 3.51954 75.7458 4.86155 76.8815 6.01426C79.538 8.7067 81.9851 11.5716 84.6993 14.2199H76.6385L76.6482 14.2283ZM220.279 8.84763C222.31 7.15434 224.386 5.50101 226.301 3.70044L227.004 3.51323L235.334 12.7559L215.365 13.1766C215.105 12.9831 216.015 12.2784 216.2 12.1206C217.504 11.0079 218.955 9.94985 220.276 8.84763H220.279ZM90.2456 14.4366L101.434 4.75428L110.215 13.9149L90.2456 14.4366ZM53.6714 14.4366C53.4139 14.2367 55.6589 11.9881 55.9525 11.6999C56.7345 10.9364 62.6706 5.59777 63.1759 5.59356L72.4373 13.9128L53.6714 14.4345V14.4366ZM55.8346 16.9628H71.2342L63.6884 24.0999L55.8346 16.9628Z" fill="#161111"/>
</svg>
