<svg width="216" height="55" viewBox="0 0 216 55" fill="none" xmlns="http://www.w3.org/2000/svg">
<path d="M0.738691 28.5101C0.895731 28.56 1.17567 28.5133 1.37368 28.6379L0.977665 27.476L1.37368 27.7345C1.42489 27.2673 0.769416 26.4793 0.264157 26.3142V26.0619L0.564581 26.0058L0.421197 25.414L0.895731 25.5417C-0.0260262 24.4172 1.57851 24.8035 1.66386 24.7536C1.74238 24.7069 1.72531 24.4671 1.9438 24.4079C2.20667 24.3363 2.75631 24.5854 2.98163 24.573C3.04991 24.5699 3.84535 24.2522 3.87949 24.2241C4.02971 24.0995 3.94094 23.5949 4.08091 23.3177C4.26527 22.9564 6.43651 21.1093 6.95202 20.5424C7.46752 19.9755 7.94547 19.0317 8.58728 18.4835C8.90136 18.2156 9.53976 18.3184 9.18813 17.873L9.33493 17.7359C9.77532 17.9477 10.0245 16.8513 10.2328 16.6395C12.9946 13.8268 15.8657 11.0608 18.6754 8.33843C18.7949 8.22318 19.1056 7.55349 19.225 7.48496L19.6825 7.60644C19.6723 7.42267 19.5221 7.29496 19.6006 7.09872C19.8327 6.51936 21.3485 5.73754 21.4441 5.03047L21.7274 5.13637C21.6933 4.38881 23.0555 3.98077 23.1715 3.85306C23.2193 3.80011 23.6563 2.97156 23.7519 2.83139C23.8475 2.69122 24.4825 2.4981 24.6156 2.25515L23.9806 2.44827C23.728 2.17104 25.435 1.60726 25.6534 1.28643L25.4213 1.86579L23.8202 3.6101C24.2367 3.28616 24.8239 3.00894 25.1857 2.65696C25.295 2.55106 25.2847 2.32679 25.4042 2.24269C25.592 2.11498 26.029 2.47941 26.2031 2.12432L25.7286 1.80349C26.2406 1.59791 26.8551 1.54185 27.357 1.40479C27.4901 1.36742 27.4799 1.16495 27.5823 1.15249C28.1012 1.09331 28.6884 1.6571 28.8557 1.15249C29.5078 1.25217 30.5592 1.26774 31.1908 1.15249C31.3205 1.13069 31.2318 0.918878 31.5288 0.88773C32.512 0.781825 33.7205 1.04659 34.714 1.0279C36.5575 0.993634 39.4798 0.906419 41.2209 0.68215C41.4599 0.651002 41.8252 0.763136 41.9003 0.750677C42.0163 0.731988 41.9515 0.529523 41.9788 0.513949C42.0505 0.473456 42.2041 0.672806 42.3714 0.697724C43.4058 0.856581 44.3276 0.485915 45.2322 0.442307C47.1133 0.358207 49.3528 0.675921 51.2954 0.641657C52.4527 0.622968 53.8046 0.411159 54.9517 0.376896C58.1403 0.283451 61.6327 0.39247 64.9988 0L65.1354 0.227383C69.5564 0.143283 74.1549 0.0716414 78.5247 0.233613C79.8015 0.280336 81.2559 0.666576 82.5054 0.644772C83.195 0.632313 83.929 0.180661 84.2567 0.893959L84.3386 0.504604C85.8954 0.436078 87.476 0.610509 89.0259 0.616739C92.8188 0.626083 96.7277 0.411159 100.504 0.367551C101.132 0.361322 102.156 0.806744 102.412 0.249187L103.371 0.632313L103.689 0.246072C104.034 0.925108 104.447 0.429848 104.829 0.401815C105.071 0.383125 105.245 0.57936 105.44 0.57936C105.519 0.57936 106.276 0.336403 106.314 0.376896L105.997 0.890845C106.526 1.19921 109.028 0.97183 109.154 1.04659C109.216 1.08396 109.226 1.28954 109.332 1.34561C109.632 1.50447 112.326 1.04659 112.92 1.02167C113.388 0.999864 114.084 1.03101 114.664 1.01544C115.433 0.996749 116.477 1.18364 117.194 1.02167C117.334 0.99052 117.317 0.856581 117.303 0.766251L117.46 1.02478C118.02 0.473456 119.29 1.24594 119.608 0.638542C120.229 1.17741 121.328 0.510834 121.998 0.504604C122.513 0.498375 121.902 1.04347 122.714 0.897074L122.554 0.510834C123.011 0.345747 123.445 0.532638 123.882 0.498375C134.609 -0.333288 145.888 0.299025 156.717 0.261647C158.13 0.255417 159.588 0.323943 161.015 0.308369C161.613 0.30214 162.497 -0.10279 162.609 0.383125L162.777 0.115249C164.364 0.517064 166.163 0.230498 167.87 0.246072C168.737 0.255417 169.803 0.448537 170.731 0.436078C171.759 0.420504 172.923 0.140168 173.927 0.239843C174.275 0.274106 175.002 0.560671 175.76 0.573131C176.217 0.57936 177.32 0.39247 177.402 0.404929C177.692 0.454767 178.075 1.10888 178.535 0.376896C178.897 0.88773 181.768 0.750677 181.96 0.893959C182.082 1.4266 180.99 0.981175 180.686 1.21479L182.277 1.66955L181.96 1.85956C182.246 2.18973 182.782 2.33925 183.079 2.63204C183.274 2.82516 183.335 3.05254 183.605 3.35468C184.011 3.80945 184.329 4.52275 185.07 4.63177L184.984 5.01178C185.302 5.07096 185.882 5.19867 186.104 5.3731C186.558 5.73754 187.435 7.17036 187.941 7.72481C188.726 8.5845 190.583 10.0516 191.143 10.8739C191.286 11.0857 191.225 11.4408 191.276 11.4844C191.423 11.5997 191.717 11.5623 191.802 11.637C191.976 11.7897 191.597 12.123 192.123 11.8893C192.963 13.1228 194.215 14.1165 195.246 15.2253C197.268 17.4057 198.978 19.6079 201.217 21.7478C201.405 21.9254 201.344 22.2337 201.706 22.187L201.388 22.5701C202.242 22.377 202.167 23.0654 202.388 23.19C203.614 23.8815 204.068 25.6289 205.485 26.4824C205.604 26.9808 206.048 27.3981 206.099 27.9246C206.11 28.0149 206.052 28.2921 205.85 28.2485L205.529 27.8623L205.847 29.0241L205.372 28.5693C204.522 28.7469 205.854 29.6377 205.529 30.0551L205.215 29.9243C204.915 30.3759 205.365 30.5254 205.372 30.9584L204.737 30.8307L205.055 31.3446C204.454 31.4599 203.935 31.5689 203.542 31.0892L200.255 34.7461C196.431 39.0009 192.28 43.1312 188.221 47.1275C187.753 47.5885 187.395 48.6414 186.579 48.6382L186.896 48.8283C186.087 49.0276 186.404 50.0648 185.623 49.6693C185.841 50.0586 185.507 50.3826 185.141 50.6193C185.059 50.6722 184.861 50.5757 184.841 50.5913C184.749 50.6567 184.643 51.7687 183.711 51.6067L184.028 51.9275C183.663 52.1954 183.124 52.5318 182.803 52.8121C182.68 52.918 182.929 53.2731 182.28 53.1548L182.601 53.3448L182.427 53.6563L181.168 53.7995C181.007 53.6064 181.905 53.1548 181.249 53.1548L180.686 54.1858L179.443 54.0736C179.071 54.7838 177.6 55.6404 178.46 54.1889C178.334 54.0518 175.214 54.1484 174.756 54.1577C169.157 54.2481 163.617 54.2512 157.994 54.3041C156.376 54.3197 154.314 54.5782 152.736 54.4568C152.453 54.435 152.272 54.3727 152.098 54.1858L151.917 54.4505C151.306 54.3166 150.668 54.5907 150.186 54.1858L150.043 54.435L147.878 54.4443L147.8 54.1858C147.646 54.6437 147.022 54.4941 146.684 54.1889C146.499 54.1795 146.629 55.061 146.209 54.3166C145.673 54.7932 144.898 54.2138 144.13 54.2481C143.792 54.2636 143.068 54.5004 142.563 54.4412C142.519 54.435 142.321 54.0923 141.829 54.1889L141.986 54.5751C141.037 54.544 140.003 54.516 139.057 54.4319C137.684 54.3073 137.312 54.3166 136.012 54.2917C135.189 54.2761 134.127 54.1795 133.308 54.0581C133.052 54.4069 133.547 54.435 133.844 54.3228L134.021 54.7028C133.468 54.516 133.192 54.843 132.673 54.8461C131.683 54.8555 130.269 54.4599 129.194 54.7028C129.071 54.7309 128.996 55.3632 128.679 54.6935C128.426 54.6842 128.05 54.9427 127.883 54.9583C127.808 54.9645 127.883 54.6997 127.579 54.6873C127.023 54.6655 125.685 55.2479 125.739 54.7028L125.582 54.9583H125.265L125.186 54.6997L125.094 54.9396C124.766 54.7589 124.462 54.9645 124.244 54.9614C124.203 54.9614 123.851 54.2418 123.913 54.9614H123.592L123.506 54.706C123.179 54.9146 123.124 54.9365 122.714 54.8306C123.114 54.1515 122.056 54.9084 121.967 54.9333C121.264 55.1296 121.332 54.7589 121.165 54.7122C120.215 54.4412 120.328 54.8181 120.226 54.8368C119.574 54.9583 115.016 54.7558 114.118 54.653C113.889 54.6281 113.681 54.4069 113.401 54.4443L113.637 54.7028C113.002 54.7246 112.442 54.3602 111.804 54.4755C111.698 54.4941 111.752 54.8181 111.326 54.706L111.244 54.4443L110.848 54.7028L110.609 54.4443V54.7028L110.049 54.4381C109.769 54.4381 109.649 54.7091 109.482 54.762C108.724 54.9894 108.659 54.5814 108.588 54.572C108.359 54.5409 107.874 54.4755 107.656 54.4537C106.98 54.3851 106.28 54.5191 105.594 54.3135C105.191 54.6094 106.14 54.5564 105.829 54.8306C105.536 55.086 104.672 54.8492 104.313 54.8368C104.061 54.8274 101.958 54.9365 102.962 54.2481C103.166 54.1079 103.532 54.5564 103.439 54.0581C102.535 54.0176 101.801 53.8681 100.889 54.0581C101.337 53.6033 100.271 53.7715 100.094 53.9958L100.729 54.1889C100.346 54.2263 99.5715 53.9989 99.2404 54.0705C99.1072 54.0986 99.1277 54.301 98.9434 54.3602C98.1411 54.625 96.8814 54.2792 96.004 54.2387C95.427 54.2138 94.7374 54.2418 94.2526 54.2605C94.0103 54.2699 93.7303 54.3259 93.4913 54.3073C93.1056 54.2792 93.0919 53.9086 92.6071 54.3166V53.9272H92.1292L92.4467 54.3135C91.9448 54.0954 91.4601 53.8463 90.8558 53.9272L90.9309 54.1827L91.3303 54.3135H88.2237C88.1964 54.3135 88.0871 54.1297 87.9096 54.1172C87.6774 54.0986 86.6089 54.2138 86.5509 54.1827L86.7113 53.9272L86.3119 53.7995C85.9432 54.5814 85.0795 54.1204 84.5981 54.2107C84.1509 54.2917 84.0894 54.8056 83.7651 53.9272C83.6934 54.7278 82.7273 54.2481 82.181 54.2512C80.6106 54.2574 78.9993 54.4194 77.5791 54.2699C72.506 53.7404 66.6955 54.9707 61.4722 54.3851C60.472 54.4973 59.458 54.4194 58.4509 54.4443C49.5406 54.6592 40.3913 54.7122 31.4605 54.6312C30.5012 54.6219 29.1356 54.7558 28.2378 54.6592C27.4696 54.5782 25.6432 54.354 25.8788 53.541C25.3189 53.9086 25.0901 53.7466 24.6088 53.4133L24.9263 53.8649C23.8987 54.4381 24.0352 53.6033 23.8099 53.2544C23.7212 53.1174 23.4685 53.0862 23.3593 52.9461C23.093 52.6066 22.9803 51.9026 22.3795 52.1206C22.6663 51.9369 22.2737 51.4946 22.1166 51.4852C21.9835 51.4759 21.8196 51.6223 21.5841 51.5475C20.7954 51.2952 17.7297 47.3331 16.9616 46.5077C16.4154 45.919 15.6951 45.268 15.1044 44.6388C11.5403 40.82 7.78843 36.9264 4.6408 33.2665C4.2994 32.8709 3.84535 32.4442 3.73952 31.9925L3.42544 32.248L1.51365 29.7312L1.83114 29.6035C1.21323 29.4384 0.837694 29.0334 0.718207 28.507C0.0968747 28.3139 -0.142099 27.7314 0.0832191 27.2175C0.400713 27.1926 0.141256 27.5259 0.277812 27.7065C0.578237 28.1052 0.530442 27.6878 0.718207 28.507L0.738691 28.5101ZM139.135 0.380011H138.5V0.635428H139.135V0.380011ZM59.3454 0.510834H58.3895V0.638542C58.7616 0.601164 59.2156 0.890845 59.3454 0.510834ZM105.689 0.766251H104.894V0.893959L105.689 1.02478V0.766251ZM105.372 1.28331H104.419V1.41102H105.372V1.28331ZM95.4987 1.67267C95.1539 1.60414 94.8501 1.42971 94.7033 1.79726L95.4987 1.92809V1.67267ZM142.956 3.08992H142.478L142.638 3.47616H142.956V3.08992ZM61.2572 3.34845L59.0279 3.22075L59.3488 3.73469H59.5058C59.4205 3.30485 60.274 3.49174 60.7041 3.47928C60.8953 3.47305 61.2947 3.57584 61.2572 3.35157V3.34845ZM60.1408 4.12094C59.5092 4.29848 59.3522 4.43242 58.5499 4.25176L58.8674 4.50718L57.3653 4.37324L57.1844 4.64111C56.3138 4.23618 55.4467 4.70341 54.6444 4.61308C54.542 4.60062 54.5864 4.41373 54.4669 4.38881C54.3406 4.36078 53.907 4.48849 53.6953 4.37947L53.7739 4.638C53.115 4.53521 52.3776 4.73767 51.7835 4.74079C47.2704 4.78128 42.665 4.92768 38.2576 4.79063C37.3666 4.76259 37.5987 4.72833 37.1003 4.63488C36.3288 4.4916 34.3623 5.04916 33.6249 4.37947C33.4713 4.84358 33.2119 4.54455 32.8227 4.57882C32.7202 4.58816 32.6247 4.68784 32.5154 4.69407C31.2284 4.77817 29.8969 4.66915 28.6065 4.83112C28.2275 5.39491 27.4423 5.78115 27.0054 6.24526C22.9496 10.5873 18.3238 15.0291 14.2783 19.4086C13.8447 19.8789 13.0766 20.2216 13.0254 20.2745C12.9434 20.3586 13.0561 20.5922 12.9605 20.7324C12.7591 21.0408 11.315 22.1808 10.919 22.5359C9.61828 23.7102 7.66552 25.4015 6.62428 26.8935C6.43652 27.1614 6.06781 27.585 6.22144 27.8591C6.56966 28.3606 8.08202 29.4072 8.30393 29.8059C9.54318 32.0143 11.8066 33.8677 13.6296 35.8362C15.5483 37.9076 17.3201 40.0382 19.0509 42.1563C21.0037 44.5422 22.7619 46.8877 24.7146 49.2768C25.0628 49.7035 25.6705 50.1583 25.9231 50.6224C26.2167 51.1613 25.9334 51.7531 27.3843 51.4759C27.5721 51.4416 27.5345 51.4198 28.0364 51.345C31.4434 50.8436 34.6355 50.9744 38.1142 50.9183C38.7253 50.909 38.9199 50.9277 39.5242 50.9463C39.5959 50.9463 39.5754 50.7252 39.6983 50.7034C41.0161 50.4573 42.7981 50.8062 44.133 50.7595C44.5597 50.7439 45.2835 50.3483 45.4029 50.8311C49.0558 50.4604 53.0365 50.4853 56.8771 50.448C57.1844 50.448 58.1334 50.2829 58.2836 50.3203C58.4031 50.3483 58.3758 50.557 58.4543 50.557C58.9767 50.5539 60.6222 50.1209 61.066 50.3483C61.1411 50.3888 61.025 50.5944 61.1718 50.5757C61.3289 50.5757 61.107 50.3421 61.4791 50.3047C62.6774 50.1832 64.0907 50.557 65.2958 50.3047L65.4733 50.5757L65.9513 50.1863L66.1117 50.448L66.5078 50.1894L66.8253 50.5757L66.9038 50.1894L67.3715 50.3296L67.5456 50.0586H67.7812V50.4449C68.027 50.4916 67.8699 50.2673 68.0577 50.1894C68.5356 49.9932 68.7132 50.2642 68.9931 50.2704C70.3279 50.3016 71.6867 50.2642 73.0352 50.3171L72.4002 50.5726C73.3288 50.6099 74.2573 50.6567 75.1893 50.638C75.3293 50.638 75.6297 50.6193 75.5854 50.4449C75.0152 50.4729 74.4554 50.4293 73.9023 50.3171C73.636 50.2642 73.438 50.448 73.5165 50.0555C74.3393 50.1022 75.2884 49.8966 76.0189 50.2798C76.176 50.3608 76.3023 50.2704 76.2238 50.5694L74.6329 50.9557C75.0665 50.8062 75.4625 51.1488 75.6946 51.1768C76.2033 51.236 77.8078 51.1862 78.3336 51.0741C80.3478 50.6411 82.8809 50.7844 85.0658 50.6535C85.6496 50.6193 86.6601 50.3826 87.2678 50.3576C87.7594 50.3389 88.0393 50.4885 88.49 50.5694L88.3261 50.314C89.0635 50.4822 89.6268 50.557 90.3983 50.4417L90.1594 50.7003C90.8831 50.937 91.0572 50.4262 91.1118 50.4417C91.2382 50.4729 91.3747 50.6535 91.5898 50.6567C91.7571 50.6567 92.7949 50.2891 93.2626 50.2362C94.2561 50.1271 95.5363 50.638 95.864 50.5726C96.26 50.4916 96.0313 50.4449 96.8745 50.4012C98.6737 50.3078 100.722 50.2362 102.583 50.3047C102.948 50.3171 103.272 50.3514 103.614 50.4449L103.296 50.7003C104.238 50.7158 105.204 50.747 106.096 50.4511L106.239 50.7003C107.28 50.3109 108.738 50.6068 109.916 50.3296L110.073 50.5788C110.65 50.3576 111.152 50.4355 111.735 50.5726V50.1863L112.053 50.2486L111.974 50.5726L112.336 50.3826L112.213 50.1894H112.613C112.575 50.4916 113.971 50.4137 114.371 50.3888C114.897 50.3545 116.583 49.9216 116.747 49.9153C118.433 49.8499 120.328 49.9153 122.001 49.8717C122.947 49.8468 123.933 49.8904 124.875 49.8593C125.893 49.825 126.9 49.6879 127.907 49.6879L127.982 50.0586C128.166 50.0337 128.279 49.5758 128.617 49.8032C128.976 50.043 128.207 50.0243 128.3 50.1894C128.948 50.2611 128.795 49.7316 129.563 49.7378C129.805 49.7378 129.959 49.9278 130.283 49.9403C132.56 50.0275 134.506 49.5883 137.101 49.9652C138.698 50.1957 138.832 50.2611 140.477 50.2486C143.614 50.2237 146.639 50.1334 149.705 50.2175C150.89 50.2517 152.299 50.4978 153.395 50.1957L153.528 50.4386C159.161 49.744 164.968 50.4791 170.584 50.3888C171.079 50.3794 171.964 49.8343 172.175 50.4511C172.322 50.4698 172.206 50.2642 172.281 50.2237C172.663 50.0275 175.282 50.5601 176.006 50.5601C176.729 50.5601 177.597 50.3452 178.382 50.448C179.017 50.3483 179.102 49.6817 179.42 49.3547C182.482 46.2024 185.763 43.3181 188.712 40.1067C190.214 38.4683 192.167 36.8174 193.478 35.341C193.946 34.8146 194.646 34.3567 194.898 33.8334L195.342 33.8054L195.246 33.416L195.82 33.2914C195.298 32.6716 196.636 32.899 196.322 32.4099C197.196 32.2417 196.735 31.3571 197.718 31.3478L197.565 31.0986C198.206 31.2232 197.967 30.8276 198.2 30.6469C198.247 30.6095 198.456 30.6999 198.49 30.6718C199.135 30.1579 199.661 28.9369 200.538 28.4572C200.579 27.9713 199.992 27.9027 199.794 27.6816C199.596 27.4604 199.534 27.1676 199.312 26.9371C198.78 26.3858 197.363 25.3922 197.066 24.844C196.902 24.5418 197.124 24.3643 197.066 24.2833C197.039 24.2459 196.752 24.1961 196.633 24.0497C196.458 23.8441 196.179 23.3177 196.052 23.2243C195.854 23.0779 195.533 23.1152 195.499 23.0903C195.482 23.0779 195.663 22.8816 195.578 22.7165C195.513 22.5857 194.697 21.7104 194.509 21.508C192.491 19.3214 190.091 17.2002 188.289 14.8048C188.193 14.6771 188.18 14.4747 188.166 14.3252L187.852 14.5806L187.128 13.1509C186.852 13.1695 185.199 11.4065 185.165 11.282C185.131 11.1574 185.336 10.9923 185.278 10.8646C185.24 10.7836 184.267 10.4285 184.506 10.0641L184.192 10.1949C184.117 10.0298 183.841 9.07042 183.786 9.02681C183.632 8.90222 182.984 8.60631 182.772 8.36646C182.697 8.28236 182.933 8.09236 182.888 8.02072C182.868 7.98645 182.311 7.69677 182.175 7.56906C181.741 7.16725 180.14 5.50392 179.935 5.13014C179.788 4.86227 179.822 4.00257 179.177 3.92782C178.72 3.87486 177.214 4.0306 176.627 4.07733C175.289 4.18323 173.933 4.0306 172.793 4.0088C171.021 3.97454 169.352 4.29848 167.536 4.15208L167.382 4.39504C166.795 4.04306 166.583 4.31094 166.109 4.32963C159.752 4.59128 153.423 4.36389 147.025 4.30783C145.308 4.29225 144.642 4.54144 142.993 4.14274C142.635 4.05552 142.515 4.2175 141.856 4.01815C141.255 3.83437 140.713 3.62568 140.071 3.61633C140.207 3.2114 141.156 3.59764 141.344 3.23321H139.675L139.753 3.61633L138.944 3.6724L138.797 4.26422C137.329 4.22372 135.919 4.36078 134.424 4.3234C133.185 4.29225 131.744 4.14897 130.44 4.12405C129.477 4.10536 128.436 4.29225 127.402 4.12405L127.095 4.39504C127.013 4.4075 126.985 3.86863 126.695 4.13651C126.579 4.24241 127.228 4.59439 126.449 4.52898C126.046 4.49472 125.906 4.3857 125.657 4.13651L125.5 4.39504C125.336 4.1552 124.333 3.95896 124.135 4.0711C123.984 4.1552 124.08 4.43553 123.827 4.39504L123.745 4.00569L122.916 4.62554C119.748 4.84046 116.631 4.88096 113.473 4.90899L113.394 4.65046C113.234 4.74079 113.408 4.89965 113.084 4.92456C112.425 4.9744 111.479 4.78128 110.844 4.78128C109.291 4.77817 107.755 4.79686 106.232 4.79063C105.478 4.78751 104.59 4.83112 103.88 4.7439C103.59 4.70964 103.597 4.39193 103.125 4.78128C103.173 4.24553 102.395 4.72833 101.927 4.79374C99.7525 5.09588 96.5707 4.77817 94.2663 4.83735C93.6552 4.85292 92.0848 5.29212 91.9653 4.79063L91.7332 4.78128C91.583 4.78751 91.7161 5.00866 91.5488 5.04293C90.4325 5.27654 87.9267 5.10211 86.6601 5.08965C85.4618 5.07719 84.482 4.9526 83.4374 4.92768C83.3623 4.92768 83.3862 5.14883 83.2667 5.17064C83.1472 5.19244 81.0135 5.25162 80.8974 5.23916C80.7165 5.21736 80.2897 4.94637 79.8425 4.87161C79.1973 4.76571 78.5043 5.08342 77.9034 4.89653C77.7566 4.84981 77.7839 4.66603 77.7191 4.65046C77.2104 4.53521 77.4357 5.0367 76.968 4.8903L76.0701 4.63488L76.0462 4.13651C75.5922 4.24864 76.0462 4.55701 75.64 4.76882C75.2713 4.96194 74.1993 5.02735 74.2949 4.58816C74.7114 4.14585 74.6056 4.74702 74.9299 4.77817L75.0972 4.20815C75.0665 3.98388 71.3248 4.12716 70.8742 4.13651C68.6449 4.18946 66.6204 4.36078 64.4833 4.27979C64.019 4.2611 63.5035 4.46668 62.9778 4.19881L62.7388 3.62256L61.8751 3.74715L62.5135 3.48862C62.3974 3.12419 61.5542 3.1491 61.4005 3.42633L61.718 3.74715H60.7621L60.7758 4.07421C60.5539 4.18323 60.2637 4.09602 60.1272 4.13339C60.2227 4.04929 60.0521 3.62256 59.8882 3.61945C59.4136 3.61633 59.8438 4.37947 60.1272 4.13339L60.1408 4.12094ZM86.1002 3.34845C84.4274 3.17402 82.7921 3.37649 81.1637 3.53846C81.3446 3.74092 81.6041 3.74715 81.8772 3.74404C82.7136 3.73781 83.8095 3.51354 84.5844 3.46682C85.0283 3.43878 85.8237 3.69732 86.0968 3.34845H86.1002ZM56.3206 3.60387C56.167 3.20517 55.7471 3.4637 55.3647 3.47616V3.60387H56.3206ZM57.9115 3.34845H56.959V3.47616L57.9115 3.60699V3.34845ZM76.7666 4.43553C76.9782 4.29537 77.6542 4.12405 77.6576 4.05552C77.6747 3.72535 76.7597 4.10536 76.6403 4.10536L76.5481 4.63488C76.7837 4.68472 76.6744 4.49472 76.7666 4.43242V4.43553ZM204.908 26.7035V26.5135L204.512 26.0588L204.283 26.3671L204.672 26.7004H204.908V26.7035ZM204.269 26.9621C204.328 26.6724 204.126 26.4201 203.795 26.3173C203.737 26.607 203.938 26.8593 204.269 26.9621ZM1.53413 28.7687L1.0596 28.831L1.53413 29.1549V28.7687ZM74.3154 50.965L72.7245 51.0927C73.1581 51.0927 74.0593 51.3824 74.3154 50.965ZM25.4247 51.7375C25.5203 51.6659 25.3359 51.4167 25.1857 51.3544L24.7863 51.4821C24.7863 51.7001 25.3086 51.8247 25.4213 51.7375H25.4247ZM123.049 51.8683C122.516 51.8278 119.864 51.6908 119.707 51.8683C119.755 52.2452 120.335 52.3916 120.751 52.3667C120.967 52.3543 121.117 52.1736 121.352 52.1642C121.485 52.158 123.67 52.3138 123.052 51.8652L123.049 51.8683ZM29.4053 51.9992C28.8284 52.1923 28.1832 51.9774 27.7393 51.9992C27.4833 52.0116 27.2751 52.2079 27.0941 52.211C26.8039 52.2172 26.623 51.7967 26.2236 52.32C26.2099 52.6439 28.2071 52.401 28.4904 52.3543C28.7055 52.3169 29.3439 52.2016 29.4019 51.9992H29.4053ZM26.2202 52.7685L25.8071 52.1362C24.5507 52.0833 25.3257 52.918 26.2202 52.7685ZM26.5376 52.9025H25.7422V53.1579C26.046 53.1766 26.4421 53.1921 26.5376 52.9025ZM105.372 54.3228C104.791 54.1297 104.443 54.4879 103.781 54.3851C103.924 54.6935 105.799 54.6842 105.372 54.3228Z" fill="black"/>
<path d="M106.645 0.766575V0.380335L107.096 0.492469L107.202 0.249512H107.437C107.481 0.620178 108.284 0.835102 108.082 0.249512C108.745 0.342957 109.557 0.187215 109.987 0.766575H106.642H106.645Z" fill="black"/>
<path d="M123.049 51.8683C123.667 52.3137 121.482 52.1611 121.349 52.1673C121.114 52.1767 120.967 52.3573 120.748 52.3698C120.332 52.3947 119.752 52.2483 119.704 51.8714C119.864 51.6939 122.513 51.8309 123.046 51.8714L123.049 51.8683Z" fill="black"/>
<path d="M86.0993 3.34822C85.8262 3.70019 85.0308 3.44166 84.5869 3.46658C83.8086 3.5133 82.7161 3.73757 81.8797 3.7438C81.6032 3.7438 81.3437 3.74069 81.1662 3.53822C82.7946 3.37625 84.4299 3.17067 86.1027 3.34822H86.0993Z" fill="black"/>
<path d="M29.406 51.9991C29.3446 52.2016 28.7096 52.32 28.4945 52.3542C28.2112 52.401 26.214 52.647 26.2277 52.32C26.6271 51.7967 26.808 52.2172 27.0982 52.2109C27.2792 52.2078 27.4874 52.0116 27.7434 51.9991C28.1873 51.9773 28.8325 52.1923 29.4094 51.9991H29.406Z" fill="black"/>
<path d="M26.2208 52.7685C25.3298 52.918 24.5514 52.0833 25.8078 52.1362L26.2208 52.7685Z" fill="black"/>
<path d="M105.372 54.3228C105.795 54.681 103.924 54.6935 103.781 54.3851C104.443 54.4879 104.791 54.1297 105.372 54.3228Z" fill="black"/>
<path d="M61.256 3.3486C61.2935 3.57287 60.8941 3.47008 60.7029 3.47631C60.2693 3.48876 59.4159 3.30499 59.5046 3.73172H59.3476L59.0267 3.21777L61.256 3.34548V3.3486Z" fill="black"/>
<path d="M76.7673 4.43557C76.6751 4.49787 76.7843 4.68788 76.5488 4.63804L76.6409 4.10852C76.7604 4.10852 77.6754 3.72851 77.6583 4.05868C77.6583 4.12409 76.9789 4.29852 76.7673 4.43869V4.43557Z" fill="black"/>
<path d="M74.3159 50.9648C74.0564 51.3822 73.1585 51.0894 72.725 51.0926L74.3159 50.9648Z" fill="black"/>
<path d="M204.908 26.7034H204.673L204.283 26.3701L204.512 26.0586L204.908 26.5134V26.7034Z" fill="black"/>
<path d="M95.4996 1.67268V1.9281L94.7042 1.79727C94.851 1.42972 95.1548 1.60104 95.4996 1.67268Z" fill="black"/>
<path d="M204.269 26.9622C203.938 26.8594 203.737 26.6071 203.795 26.3174C204.126 26.4202 204.327 26.6725 204.269 26.9622Z" fill="black"/>
<path d="M26.5387 52.9023C26.4431 53.1951 26.0471 53.1764 25.7433 53.1578V52.9023H26.5387Z" fill="black"/>
<path d="M139.132 0.379883H138.497V0.6353H139.132V0.379883Z" fill="black"/>
<path d="M56.3211 3.6039H55.3652V3.47619C55.7476 3.46373 56.1641 3.2052 56.3211 3.6039Z" fill="black"/>
<path d="M25.4251 51.7376C25.3091 51.8248 24.7936 51.7002 24.7902 51.4822L25.1896 51.3545C25.3398 51.4199 25.5242 51.666 25.4286 51.7376H25.4251Z" fill="black"/>
<path d="M59.3457 0.510742C59.216 0.890753 58.7654 0.601073 58.3898 0.638451V0.510742H59.3457Z" fill="black"/>
<path d="M105.689 0.766113V1.02465L104.894 0.893822V0.766113H105.689Z" fill="black"/>
<path d="M142.956 3.09033V3.47657H142.642L142.478 3.09033H142.956Z" fill="black"/>
<path d="M57.9112 3.34863V3.60405L56.9587 3.47634V3.34863H57.9112Z" fill="black"/>
<path d="M105.368 1.2832H104.416V1.41091H105.368V1.2832Z" fill="black"/>
<path d="M1.53453 28.7686V29.1548L1.06 28.834L1.53453 28.7686Z" fill="black"/>
<path d="M28.5575 3.22088L4.20618 27.7314L25.901 53.1668H189.276L214.513 28.1939L187.505 1.8335L28.5575 3.22088Z" fill="black" stroke="black"/>
</svg>
