<svg width="14" height="15" viewBox="0 0 14 15" fill="none" xmlns="http://www.w3.org/2000/svg">
<g clip-path="url(#clip0_62_16912)">
<path d="M8.34833 0.54806C8.55271 0.790891 8.70548 1.44108 8.94805 1.73644C10.838 4.03987 12.504 5.25699 13.6354 8.11348C13.7324 8.35829 14.2991 8.39992 13.7892 9.2751C13.08 8.87864 12.9944 9.6329 12.6578 9.91141C10.6192 11.5993 8.7127 13.2446 6.29834 14.4043C5.94119 14.5757 5.94222 15.103 5.08548 14.9821C4.97813 14.9672 4.14719 14.2546 3.99855 14.1149C3.34825 13.4984 2.06933 12.0424 1.50677 11.3357C1.23633 10.9957 0.194823 9.5655 0.0544407 9.26717C-0.368769 8.36721 1.69877 5.73968 2.30674 4.9319C3.47831 3.37382 5.05864 1.95846 6.24054 0.391459C6.93728 -0.179441 7.77958 -0.12691 8.34626 0.54806H8.34833ZM9.78415 4.68411C9.71808 4.58896 9.459 4.51463 9.33823 4.34712C8.72509 3.49176 7.98189 2.20129 7.33262 1.43712C7.22321 1.30926 7.09625 1.13085 6.88567 1.18041L1.40665 8.67645L5.29502 13.429L5.71823 13.5113L12.5412 8.41776L11.5967 6.91419C10.2817 6.60892 10.3591 5.5137 9.78415 4.6851V4.68411Z" fill="black"/>
<path d="M7.82629 6.56753C8.50343 7.21574 7.14709 9.79172 5.88262 9.03449C5.06098 8.01658 6.78169 5.56746 7.82629 6.56753Z" fill="black"/>
</g>
<defs>
<clipPath id="clip0_62_16912">
<rect width="14" height="15" fill="white"/>
</clipPath>
</defs>
</svg>
