<svg width="15" height="15" viewBox="0 0 15 15" fill="none" xmlns="http://www.w3.org/2000/svg">
<path d="M3.68439 4.67775C3.31506 5.20397 2.98891 5.75315 2.57413 6.25449C2.22185 6.68025 1.80706 7.06965 1.48546 7.51263C0.996816 8.18428 0.739991 9.04345 1.11955 9.76389C1.30364 10.115 1.6207 10.402 1.88775 10.713C2.33094 11.2306 2.6389 11.8219 3.07414 12.3443C3.72984 13.1326 4.64578 13.7364 5.54694 14.3276C5.63444 14.385 5.72762 14.4444 5.83672 14.4616C5.94467 14.4779 6.05377 14.4511 6.15718 14.4195C7.1288 14.1277 7.89813 13.4943 8.55838 12.8274C9.21749 12.1596 9.80614 11.4344 10.5777 10.8584C11.1437 10.4355 11.796 10.1026 12.3903 9.70648C12.9074 9.36205 13.3801 8.96978 13.796 8.53924C14.0369 8.29048 14.2676 8.00728 14.2858 7.68676C14.3108 7.22847 13.904 6.84481 13.5346 6.50803C12.2653 5.34844 11.1312 4.08264 10.155 2.73648C9.82773 2.28393 9.51181 1.82086 9.1118 1.41041C8.91407 1.20758 8.69702 1.01718 8.45156 0.855489C8.35155 0.790429 8.22996 0.693797 8.10837 0.658397C7.91291 0.600991 7.76631 0.689013 7.56972 0.76077C7.07198 0.943511 6.82311 1.19323 6.47423 1.5367C5.99581 2.00743 5.52307 2.4839 5.07306 2.97471C4.58441 3.50859 4.04462 4.07403 3.68552 4.67871L3.68439 4.67775Z" fill="#1D1D1B"/>
<path d="M0.73659 7.31356C0.983187 6.95669 1.47525 6.50032 1.67525 6.22286C1.81957 6.02289 1.3082 5.85355 1.96958 5.85929C2.07867 5.30915 2.66732 4.89392 3.05483 4.43563C3.93895 3.38989 4.65828 2.50871 5.6299 1.53951C5.74695 1.42279 6.21514 1.15489 6.23219 1.12523C6.28674 1.03625 6.09355 0.88126 6.12651 0.821941C6.14582 0.787497 6.73675 0.385658 6.83334 0.337819C7.05948 0.224922 7.64814 -0.0247929 7.88905 0.00199637C7.98337 0.0125207 8.88681 0.515777 8.91976 0.558831C8.93908 0.583707 8.81521 0.772189 8.91521 0.959714C9.01976 1.15681 9.40955 1.58161 9.5891 1.77774C11.588 3.96681 13.6597 5.61244 14.8972 8.19378C15.0858 8.58797 14.9938 8.77262 14.7915 9.1295L14.6529 8.90466C14.5051 8.81089 13.996 9.3218 13.8517 9.45671C12.4608 10.7608 10.9846 11.8582 9.38909 13.035C8.48339 13.7038 8.46975 13.6521 7.3379 14.1066C6.62424 14.3926 6.35265 15.1973 5.28216 14.9552C5.41967 14.3582 5.02193 14.5457 4.65488 14.2788C3.37643 13.3498 1.31274 10.9263 0.494538 9.6672C0.447946 9.59448 0.247941 9.57056 0.172939 9.45862C-0.311165 8.73531 0.33317 7.89527 0.735454 7.31165L0.73659 7.31356ZM2.02071 8.47603C1.9548 8.543 1.60139 8.5076 1.51388 8.67695C1.72298 8.83673 1.72753 9.13045 1.8673 9.29693C2.60255 10.1724 3.56735 11.1693 4.42532 12.0266C4.66738 12.2686 5.35262 12.6839 5.47535 12.8216C5.6674 13.0379 5.56172 13.4454 6.13901 13.5363L13.6915 8.12203C13.154 8.04644 13.079 7.51448 12.7312 7.26286C12.5574 7.13656 12.3062 7.20641 12.2505 7.11838C12.1664 6.98731 12.2187 6.79978 12.1392 6.68784C12.0596 6.5759 11.4857 6.41325 11.3482 6.2439C11.23 6.09848 11.0255 5.64784 10.8744 5.40865C10.1016 4.18017 8.91294 3.20236 8.03451 2.0619C7.86632 1.84376 7.85723 1.36155 7.39927 1.13097C6.87766 1.56439 6.69584 2.09156 6.30606 2.59769C4.88329 4.44137 3.42984 6.1444 2.11276 8.05027C2.0264 8.1756 2.09458 8.4014 2.02071 8.47698V8.47603Z" fill="#1D1D1B"/>
<path d="M2.02075 8.47614C2.09461 8.40055 2.02643 8.17476 2.1128 8.04942C3.43101 6.14355 4.88332 4.44052 6.30609 2.59684C6.69701 2.09071 6.87769 1.56354 7.3993 1.13013C7.85726 1.36071 7.86636 1.84291 8.03454 2.06106C8.91297 3.20151 10.1028 4.17932 10.8744 5.40781C11.0255 5.647 11.2301 6.09763 11.3483 6.24306C11.4846 6.4124 12.0619 6.57888 12.1392 6.68699C12.2165 6.79511 12.1665 6.98646 12.2506 7.11754C12.3074 7.20556 12.5574 7.13572 12.7313 7.26201C13.0779 7.51364 13.1529 8.0456 13.6915 8.12118L6.13904 13.5355C5.56175 13.4446 5.66743 13.037 5.47538 12.8208C5.35265 12.683 4.66854 12.2678 4.42536 12.0257C3.56738 11.1694 2.60372 10.1725 1.86733 9.29608C1.72756 9.12961 1.72301 8.83588 1.51392 8.6761C1.60142 8.50675 1.95484 8.54311 2.02075 8.47518V8.47614ZM6.49246 6.84964C6.47996 6.86495 6.63678 7.06874 6.60609 7.21417C6.52768 7.58635 5.52879 8.84258 6.4845 9.10664C6.62882 9.14683 7.69703 9.09803 7.75158 9.05498C7.92658 8.91816 7.71976 8.79857 7.77431 8.68471C7.91977 8.37951 8.15159 8.11448 8.3516 7.61697C8.43455 7.40935 8.80843 7.37299 8.63228 6.89748C8.55274 6.68125 8.0425 6.38274 7.76976 6.38274C7.63112 6.38274 6.53109 6.80085 6.49132 6.84869L6.49246 6.84964Z" fill="#1D1D1B"/>
<path d="M7.50153 9.43755C8.63876 9.43755 9.56067 8.71191 9.56067 7.8168C9.56067 6.92168 8.63876 6.19604 7.50153 6.19604C6.36429 6.19604 5.44238 6.92168 5.44238 7.8168C5.44238 8.71191 6.36429 9.43755 7.50153 9.43755Z" fill="#1D1D1B"/>
<path d="M8.02648 7.1346C8.47081 7.50774 7.58101 8.99072 6.75144 8.55443C6.21166 7.96794 7.34123 6.55863 8.02648 7.1346Z" fill="white"/>
</svg>
