<svg width="212" height="55" viewBox="0 0 212 55" fill="none" xmlns="http://www.w3.org/2000/svg">
<path d="M0.756467 28.5101C0.917287 28.56 1.20396 28.5133 1.40674 28.6379L1.00119 27.476L1.40674 27.7345C1.45918 27.2673 0.787932 26.4793 0.270514 26.3142V26.0619L0.578168 26.0058L0.431333 25.414L0.917287 25.5417C-0.0266526 24.4172 1.6165 24.8035 1.7039 24.7536C1.78431 24.7069 1.76683 24.4671 1.99058 24.4079C2.25978 24.3363 2.82265 24.5854 3.05339 24.573C3.12331 24.5699 3.93789 24.2522 3.97285 24.2241C4.12668 24.0995 4.03578 23.5949 4.17912 23.3177C4.36791 22.9564 6.59141 21.1093 7.11932 20.5424C7.64722 19.9755 8.13667 19.0317 8.79393 18.4835C9.11557 18.2156 9.76934 18.3184 9.40924 17.873L9.55957 17.7359C10.0106 17.9477 10.2658 16.8513 10.479 16.6395C13.3074 13.8268 16.2476 11.0608 19.1248 8.33843C19.2472 8.22318 19.5653 7.55349 19.6877 7.48496L20.1562 7.60644C20.1457 7.42267 19.9918 7.29496 20.0723 7.09872C20.31 6.51936 21.8622 5.73754 21.9601 5.03047L22.2503 5.13637C22.2154 4.38881 23.6103 3.98077 23.7292 3.85306C23.7781 3.80011 24.2256 2.97156 24.3235 2.83139C24.4214 2.69122 25.0716 2.4981 25.208 2.25515L24.5577 2.44827C24.299 2.17104 26.047 1.60726 26.2708 1.28643L26.0331 1.86579L24.3934 3.6101C24.8199 3.28616 25.4212 3.00894 25.7918 2.65696C25.9037 2.55106 25.8932 2.32679 26.0156 2.24269C26.2079 2.11498 26.6554 2.47941 26.8337 2.12432L26.3477 1.80349C26.8721 1.59791 27.5014 1.54185 28.0153 1.40479C28.1517 1.36742 28.1412 1.16495 28.2461 1.15249C28.7775 1.09331 29.3788 1.6571 29.5501 1.15249C30.2179 1.25217 31.2947 1.26774 31.9414 1.15249C32.0743 1.13069 31.9834 0.918878 32.2875 0.88773C33.2944 0.781825 34.532 1.04659 35.5494 1.0279C37.4372 0.993634 40.4299 0.906419 42.2129 0.68215C42.4576 0.651002 42.8317 0.763136 42.9086 0.750677C43.0275 0.731988 42.961 0.529523 42.989 0.513949C43.0624 0.473456 43.2197 0.672806 43.3911 0.697724C44.4504 0.856581 45.3943 0.485915 46.3208 0.442307C48.2471 0.358207 50.5405 0.675921 52.5298 0.641657C53.715 0.622968 55.0994 0.411159 56.2741 0.376896C59.5394 0.283451 63.1159 0.39247 66.563 0L66.7029 0.227383C71.2303 0.143283 75.9395 0.0716414 80.4144 0.233613C81.722 0.280336 83.2113 0.666576 84.4909 0.644772C85.1971 0.632313 85.9487 0.180661 86.2844 0.893959L86.3683 0.504604C87.9625 0.436078 89.5811 0.610509 91.1684 0.616739C95.0525 0.626083 99.0555 0.411159 102.922 0.367551C103.565 0.361322 104.614 0.806744 104.876 0.249187L105.859 0.632313L106.184 0.246072C106.537 0.925108 106.96 0.429848 107.352 0.401815C107.6 0.383125 107.778 0.57936 107.977 0.57936C108.058 0.57936 108.834 0.336403 108.872 0.376896L108.547 0.890845C109.089 1.19921 111.652 0.97183 111.781 1.04659C111.844 1.08396 111.855 1.28954 111.963 1.34561C112.271 1.50447 115.029 1.04659 115.637 1.02167C116.116 0.999864 116.83 1.03101 117.424 1.01544C118.21 0.996749 119.28 1.18364 120.014 1.02167C120.158 0.99052 120.14 0.856581 120.126 0.766251L120.287 1.02478C120.86 0.473456 122.161 1.24594 122.486 0.638542C123.122 1.17741 124.248 0.510834 124.933 0.504604C125.461 0.498375 124.836 1.04347 125.668 0.897074L125.503 0.510834C125.972 0.345747 126.416 0.532638 126.863 0.498375C137.848 -0.333288 149.399 0.299025 160.488 0.261647C161.936 0.255417 163.429 0.323943 164.89 0.308369C165.502 0.30214 166.407 -0.10279 166.523 0.383125L166.694 0.115249C168.32 0.517064 170.162 0.230498 171.91 0.246072C172.798 0.255417 173.889 0.448537 174.84 0.436078C175.892 0.420504 177.084 0.140168 178.112 0.239843C178.469 0.274106 179.213 0.560671 179.99 0.573131C180.458 0.57936 181.587 0.39247 181.671 0.404929C181.968 0.454767 182.36 1.10888 182.832 0.376896C183.202 0.88773 186.143 0.750677 186.338 0.893959C186.464 1.4266 185.346 0.981175 185.034 1.21479L186.664 1.66955L186.338 1.85956C186.632 2.18973 187.181 2.33925 187.485 2.63204C187.684 2.82516 187.747 3.05254 188.024 3.35468C188.44 3.80945 188.765 4.52275 189.523 4.63177L189.436 5.01178C189.761 5.07096 190.355 5.19867 190.583 5.3731C191.048 5.73754 191.946 7.17036 192.464 7.72481C193.268 8.5845 195.169 10.0516 195.743 10.8739C195.89 11.0857 195.827 11.4408 195.879 11.4844C196.03 11.5997 196.33 11.5623 196.418 11.637C196.596 11.7897 196.208 12.123 196.746 11.8893C197.606 13.1228 198.889 14.1165 199.945 15.2253C202.015 17.4057 203.766 19.6079 206.06 21.7478C206.252 21.9254 206.189 22.2337 206.56 22.187L206.235 22.5701C207.109 22.377 207.032 23.0654 207.259 23.19C208.514 23.8815 208.979 25.6289 210.43 26.4824C210.552 26.9808 211.007 27.3981 211.059 27.9246C211.07 28.0149 211.01 28.2921 210.804 28.2485L210.475 27.8623L210.8 29.0241L210.314 28.5693C209.444 28.7469 210.807 29.6377 210.475 30.0551L210.154 29.9243C209.846 30.3759 210.307 30.5254 210.314 30.9584L209.664 30.8307L209.989 31.3446C209.374 31.4599 208.843 31.5689 208.441 31.0892L205.074 34.7461C201.158 39.0009 196.907 43.1312 192.75 47.1275C192.271 47.5885 191.904 48.6414 191.069 48.6382L191.394 48.8283C190.565 49.0276 190.89 50.0648 190.09 49.6693C190.313 50.0586 189.971 50.3826 189.597 50.6193C189.513 50.6722 189.31 50.5757 189.289 50.5913C189.195 50.6567 189.086 51.7687 188.132 51.6067L188.457 51.9275C188.083 52.1954 187.531 52.5318 187.202 52.8121C187.076 52.918 187.331 53.2731 186.667 53.1548L186.996 53.3448L186.817 53.6563L185.527 53.7995C185.363 53.6064 186.282 53.1548 185.611 53.1548L185.034 54.1858L183.762 54.0736C183.381 54.7838 181.874 55.6404 182.755 54.1889C182.626 54.0518 179.43 54.1484 178.962 54.1577C173.228 54.2481 167.554 54.2512 161.796 54.3041C160.139 54.3197 158.027 54.5782 156.412 54.4568C156.122 54.435 155.937 54.3727 155.758 54.1858L155.573 54.4505C154.947 54.3166 154.293 54.5907 153.8 54.1858L153.654 54.435L151.437 54.4443L151.357 54.1858C151.199 54.6437 150.56 54.4941 150.214 54.1889C150.025 54.1795 150.158 55.061 149.728 54.3166C149.179 54.7932 148.385 54.2138 147.598 54.2481C147.252 54.2636 146.511 54.5004 145.994 54.4412C145.948 54.435 145.746 54.0923 145.242 54.1889L145.403 54.5751C144.431 54.544 143.372 54.516 142.403 54.4319C140.998 54.3073 140.617 54.3166 139.285 54.2917C138.442 54.2761 137.355 54.1795 136.516 54.0581C136.254 54.4069 136.761 54.435 137.065 54.3228L137.247 54.7028C136.68 54.516 136.397 54.843 135.866 54.8461C134.852 54.8555 133.404 54.4599 132.303 54.7028C132.177 54.7309 132.1 55.3632 131.775 54.6935C131.517 54.6842 131.132 54.9427 130.961 54.9583C130.884 54.9645 130.961 54.6997 130.649 54.6873C130.08 54.6655 128.709 55.2479 128.765 54.7028L128.604 54.9583H128.279L128.199 54.6997L128.104 54.9396C127.769 54.7589 127.458 54.9645 127.234 54.9614C127.192 54.9614 126.832 54.2418 126.895 54.9614H126.566L126.479 54.706C126.143 54.9146 126.087 54.9365 125.668 54.8306C126.077 54.1515 124.993 54.9084 124.902 54.9333C124.182 55.1296 124.252 54.7589 124.08 54.7122C123.108 54.4412 123.224 54.8181 123.119 54.8368C122.451 54.9583 117.784 54.7558 116.864 54.653C116.63 54.6281 116.417 54.4069 116.13 54.4443L116.372 54.7028C115.721 54.7246 115.148 54.3602 114.494 54.4755C114.386 54.4941 114.442 54.8181 114.005 54.706L113.921 54.4443L113.515 54.7028L113.271 54.4443V54.7028L112.697 54.4381C112.41 54.4381 112.288 54.7091 112.117 54.762C111.341 54.9894 111.274 54.5814 111.201 54.572C110.967 54.5409 110.47 54.4755 110.246 54.4537C109.554 54.3851 108.837 54.5191 108.135 54.3135C107.722 54.6094 108.694 54.5564 108.376 54.8306C108.075 55.086 107.191 54.8492 106.824 54.8368C106.565 54.8274 104.411 54.9365 105.439 54.2481C105.649 54.1079 106.023 54.5564 105.929 54.0581C105.002 54.0176 104.251 53.8681 103.317 54.0581C103.775 53.6033 102.684 53.7715 102.503 53.9958L103.153 54.1889C102.761 54.2263 101.968 53.9989 101.629 54.0705C101.492 54.0986 101.513 54.301 101.324 54.3602C100.503 54.625 99.2128 54.2792 98.3143 54.2387C97.7235 54.2138 97.0173 54.2418 96.5208 54.2605C96.2726 54.2699 95.9859 54.3259 95.7412 54.3073C95.3462 54.2792 95.3322 53.9086 94.8357 54.3166V53.9272H94.3463L94.6714 54.3135C94.1575 54.0954 93.6611 53.8463 93.0423 53.9272L93.1192 54.1827L93.5282 54.3135H90.3468C90.3188 54.3135 90.2069 54.1297 90.0251 54.1172C89.7874 54.0986 88.6931 54.2138 88.6337 54.1827L88.798 53.9272L88.389 53.7995C88.0114 54.5814 87.1269 54.1204 86.634 54.2107C86.176 54.2917 86.113 54.8056 85.7809 53.9272C85.7075 54.7278 84.7181 54.2481 84.1587 54.2512C82.5505 54.2574 80.9004 54.4194 79.446 54.2699C74.2509 53.7404 68.3006 54.9707 62.9516 54.3851C61.9272 54.4973 60.8889 54.4194 59.8575 54.4443C50.7328 54.6592 41.3633 54.7122 32.2176 54.6312C31.2352 54.6219 29.8368 54.7558 28.9173 54.6592C28.1307 54.5782 26.2603 54.354 26.5015 53.541C25.9282 53.9086 25.6939 53.7466 25.201 53.4133L25.5261 53.8649C24.4738 54.4381 24.6137 53.6033 24.3829 53.2544C24.292 53.1174 24.0333 53.0862 23.9214 52.9461C23.6487 52.6066 23.5334 51.9026 22.9181 52.1206C23.2117 51.9369 22.8097 51.4946 22.6489 51.4852C22.5125 51.4759 22.3447 51.6223 22.1035 51.5475C21.2959 51.2952 18.1564 47.3331 17.3698 46.5077C16.8104 45.919 16.0728 45.268 15.4679 44.6388C11.818 40.82 7.97585 36.9264 4.75248 33.2665C4.40287 32.8709 3.93789 32.4442 3.82951 31.9925L3.50788 32.248L1.55008 29.7312L1.87521 29.6035C1.24242 29.4384 0.857853 29.0334 0.735491 28.507C0.099206 28.3139 -0.145519 27.7314 0.0852218 27.2175C0.410356 27.1926 0.144655 27.5259 0.284498 27.7065C0.592152 28.1052 0.543207 27.6878 0.735491 28.507L0.756467 28.5101ZM142.484 0.380011H141.833V0.635428H142.484V0.380011ZM60.7735 0.510834H59.7946V0.638542C60.1757 0.601164 60.6407 0.890845 60.7735 0.510834ZM108.233 0.766251H107.418V0.893959L108.233 1.02478V0.766251ZM107.908 1.28331H106.932V1.41102H107.908V1.28331ZM97.7969 1.67267C97.4438 1.60414 97.1327 1.42971 96.9823 1.79726L97.7969 1.92809V1.67267ZM146.396 3.08992H145.906L146.071 3.47616H146.396V3.08992ZM62.7313 3.34845L60.4484 3.22075L60.777 3.73469H60.9378C60.8504 3.30485 61.7245 3.49174 62.165 3.47928C62.3607 3.47305 62.7698 3.57584 62.7313 3.35157V3.34845ZM61.5881 4.12094C60.9413 4.29848 60.7805 4.43242 59.9589 4.25176L60.2841 4.50718L58.7458 4.37324L58.5605 4.64111C57.669 4.23618 56.781 4.70341 55.9594 4.61308C55.8545 4.60062 55.9 4.41373 55.7776 4.38881C55.6483 4.36078 55.2043 4.48849 54.9875 4.37947L55.0679 4.638C54.3932 4.53521 53.638 4.73767 53.0297 4.74079C48.4079 4.78128 43.6917 4.92768 39.1783 4.79063C38.2658 4.76259 38.5035 4.72833 37.9931 4.63488C37.203 4.4916 35.1893 5.04916 34.4341 4.37947C34.2768 4.84358 34.0111 4.54455 33.6125 4.57882C33.5077 4.58816 33.4098 4.68784 33.2979 4.69407C31.9799 4.77817 30.6164 4.66915 29.2949 4.83112C28.9068 5.39491 28.1027 5.78115 27.6552 6.24526C23.5019 10.5873 18.7647 15.0291 14.6219 19.4086C14.1779 19.8789 13.3913 20.2216 13.3388 20.2745C13.2549 20.3586 13.3703 20.5922 13.2724 20.7324C13.0661 21.0408 11.5873 22.1808 11.1818 22.5359C9.84975 23.7102 7.85 25.4015 6.78369 26.8935C6.59141 27.1614 6.21383 27.585 6.37116 27.8591C6.72776 28.3606 8.27652 29.4072 8.50376 29.8059C9.77283 32.0143 12.0907 33.8677 13.9576 35.8362C15.9224 37.9076 17.7369 40.0382 19.5094 42.1563C21.5091 44.5422 23.3096 46.8877 25.3094 49.2768C25.666 49.7035 26.2883 50.1583 26.547 50.6224C26.8476 51.1613 26.5575 51.7531 28.0433 51.4759C28.2356 51.4416 28.1971 51.4198 28.7111 51.345C32.2001 50.8436 35.469 50.9744 39.0315 50.9183C39.6573 50.909 39.8565 50.9277 40.4753 50.9463C40.5487 50.9463 40.5278 50.7252 40.6536 50.7034C42.0031 50.4573 43.8281 50.8062 45.195 50.7595C45.632 50.7439 46.3732 50.3483 46.4956 50.8311C50.2364 50.4604 54.3128 50.4853 58.2459 50.448C58.5605 50.448 59.5324 50.2829 59.6862 50.3203C59.8086 50.3483 59.7806 50.557 59.861 50.557C60.3959 50.5539 62.0811 50.1209 62.5355 50.3483C62.6125 50.3888 62.4936 50.5944 62.6439 50.5757C62.8047 50.5757 62.5775 50.3421 62.9586 50.3047C64.1857 50.1832 65.6331 50.557 66.8672 50.3047L67.049 50.5757L67.5384 50.1863L67.7027 50.448L68.1083 50.1894L68.4334 50.5757L68.5138 50.1894L68.9928 50.3296L69.1711 50.0586H69.4123V50.4449C69.664 50.4916 69.5032 50.2673 69.6955 50.1894C70.1849 49.9932 70.3667 50.2642 70.6534 50.2704C72.0204 50.3016 73.4118 50.2642 74.7928 50.3171L74.1425 50.5726C75.0934 50.6099 76.0444 50.6567 76.9988 50.638C77.1421 50.638 77.4498 50.6193 77.4043 50.4449C76.8205 50.4729 76.2471 50.4293 75.6808 50.3171C75.4081 50.2642 75.2053 50.448 75.2857 50.0555C76.1283 50.1022 77.1002 49.8966 77.8483 50.2798C78.0092 50.3608 78.1385 50.2704 78.0581 50.5694L76.4289 50.9557C76.8729 50.8062 77.2785 51.1488 77.5162 51.1768C78.0371 51.236 79.6803 51.1862 80.2187 51.0741C82.2813 50.6411 84.8754 50.7844 87.1129 50.6535C87.7107 50.6193 88.7456 50.3826 89.3679 50.3576C89.8713 50.3389 90.158 50.4885 90.6195 50.5694L90.4517 50.314C91.2068 50.4822 91.7837 50.557 92.5738 50.4417L92.3291 50.7003C93.0702 50.937 93.2485 50.4262 93.3045 50.4417C93.4338 50.4729 93.5737 50.6535 93.7939 50.6567C93.9652 50.6567 95.028 50.2891 95.507 50.2362C96.5243 50.1271 97.8354 50.638 98.171 50.5726C98.5765 50.4916 98.3423 50.4449 99.2058 50.4012C101.048 50.3078 103.146 50.2362 105.051 50.3047C105.425 50.3171 105.757 50.3514 106.107 50.4449L105.782 50.7003C106.747 50.7158 107.736 50.747 108.649 50.4511L108.796 50.7003C109.862 50.3109 111.355 50.6068 112.561 50.3296L112.722 50.5788C113.312 50.3576 113.826 50.4355 114.424 50.5726V50.1863L114.749 50.2486L114.669 50.5726L115.04 50.3826L114.914 50.1894H115.323C115.284 50.4916 116.714 50.4137 117.123 50.3888C117.662 50.3545 119.389 49.9216 119.556 49.9153C121.284 49.8499 123.224 49.9153 124.937 49.8717C125.905 49.8468 126.916 49.8904 127.881 49.8593C128.922 49.825 129.954 49.6879 130.985 49.6879L131.062 50.0586C131.251 50.0337 131.366 49.5758 131.712 49.8032C132.079 50.043 131.293 50.0243 131.387 50.1894C132.051 50.2611 131.894 49.7316 132.681 49.7378C132.929 49.7378 133.086 49.9278 133.418 49.9403C135.75 50.0275 137.743 49.5883 140.4 49.9652C142.036 50.1957 142.173 50.2611 143.858 50.2486C147.071 50.2237 150.168 50.1334 153.308 50.2175C154.521 50.2517 155.965 50.4978 157.087 50.1957L157.223 50.4386C162.992 49.744 168.938 50.4791 174.689 50.3888C175.196 50.3794 176.102 49.8343 176.319 50.4511C176.469 50.4698 176.35 50.2642 176.427 50.2237C176.819 50.0275 179.5 50.5601 180.241 50.5601C180.982 50.5601 181.87 50.3452 182.675 50.448C183.325 50.3483 183.412 49.6817 183.737 49.3547C186.873 46.2024 190.233 43.3181 193.254 40.1067C194.792 38.4683 196.792 36.8174 198.134 35.341C198.613 34.8146 199.33 34.3567 199.589 33.8334L200.043 33.8054L199.945 33.416L200.532 33.2914C199.998 32.6716 201.368 32.899 201.046 32.4099C201.941 32.2417 201.469 31.3571 202.476 31.3478L202.319 31.0986C202.976 31.2232 202.731 30.8276 202.969 30.6469C203.018 30.6095 203.231 30.6999 203.266 30.6718C203.927 30.1579 204.466 28.9369 205.364 28.4572C205.406 27.9713 204.805 27.9027 204.602 27.6816C204.399 27.4604 204.336 27.1676 204.109 26.9371C203.564 26.3858 202.113 25.3922 201.809 24.844C201.641 24.5418 201.868 24.3643 201.809 24.2833C201.781 24.2459 201.487 24.1961 201.365 24.0497C201.186 23.8441 200.9 23.3177 200.77 23.2243C200.567 23.0779 200.239 23.1152 200.204 23.0903C200.186 23.0779 200.372 22.8816 200.284 22.7165C200.218 22.5857 199.382 21.7104 199.19 21.508C197.124 19.3214 194.666 17.2002 192.82 14.8048C192.722 14.6771 192.708 14.4747 192.694 14.3252L192.373 14.5806L191.631 13.1509C191.348 13.1695 189.656 11.4065 189.621 11.282C189.586 11.1574 189.796 10.9923 189.737 10.8646C189.698 10.7836 188.702 10.4285 188.946 10.0641L188.625 10.1949C188.548 10.0298 188.265 9.07042 188.209 9.02681C188.052 8.90222 187.387 8.60631 187.17 8.36646C187.094 8.28236 187.335 8.09236 187.289 8.02072C187.268 7.98645 186.699 7.69677 186.559 7.56906C186.115 7.16725 184.475 5.50392 184.265 5.13014C184.115 4.86227 184.15 4.00257 183.489 3.92782C183.021 3.87486 181.479 4.0306 180.878 4.07733C179.507 4.18323 178.119 4.0306 176.951 4.0088C175.137 3.97454 173.427 4.29848 171.568 4.15208L171.41 4.39504C170.809 4.04306 170.592 4.31094 170.106 4.32963C163.596 4.59128 157.115 4.36389 150.563 4.30783C148.805 4.29225 148.123 4.54144 146.434 4.14274C146.067 4.05552 145.945 4.2175 145.27 4.01815C144.655 3.83437 144.099 3.62568 143.442 3.61633C143.581 3.2114 144.553 3.59764 144.746 3.23321H143.036L143.116 3.61633L142.288 3.6724L142.138 4.26422C140.634 4.22372 139.19 4.36078 137.659 4.3234C136.39 4.29225 134.915 4.14897 133.579 4.12405C132.593 4.10536 131.527 4.29225 130.468 4.12405L130.153 4.39504C130.069 4.4075 130.041 3.86863 129.744 4.13651C129.625 4.24241 130.289 4.59439 129.492 4.52898C129.08 4.49472 128.936 4.3857 128.681 4.13651L128.52 4.39504C128.353 4.1552 127.325 3.95896 127.122 4.0711C126.968 4.1552 127.066 4.43553 126.807 4.39504L126.723 4.00569L125.874 4.62554C122.63 4.84046 119.438 4.88096 116.204 4.90899L116.123 4.65046C115.959 4.74079 116.137 4.89965 115.805 4.92456C115.13 4.9744 114.162 4.78128 113.512 4.78128C111.921 4.77817 110.348 4.79686 108.789 4.79063C108.016 4.78751 107.107 4.83112 106.38 4.7439C106.083 4.70964 106.09 4.39193 105.607 4.78128C105.656 4.24553 104.859 4.72833 104.38 4.79374C102.153 5.09588 98.8947 4.77817 96.5348 4.83735C95.909 4.85292 94.3008 5.29212 94.1785 4.79063L93.9407 4.78128C93.7869 4.78751 93.9233 5.00866 93.752 5.04293C92.6087 5.27654 90.0426 5.10211 88.7456 5.08965C87.5185 5.07719 86.5151 4.9526 85.4453 4.92768C85.3684 4.92768 85.3929 5.14883 85.2705 5.17064C85.1481 5.19244 82.9631 5.25162 82.8442 5.23916C82.6589 5.21736 82.2219 4.94637 81.7639 4.87161C81.1032 4.76571 80.3935 5.08342 79.7782 4.89653C79.6278 4.84981 79.6558 4.66603 79.5894 4.65046C79.0685 4.53521 79.2992 5.0367 78.8202 4.8903L77.9008 4.63488L77.8763 4.13651C77.4113 4.24864 77.8763 4.55701 77.4603 4.76882C77.0827 4.96194 75.9849 5.02735 76.0828 4.58816C76.5093 4.14585 76.401 4.74702 76.7331 4.77817L76.9044 4.20815C76.8729 3.98388 73.0412 4.12716 72.5798 4.13651C70.2968 4.18946 68.2237 4.36078 66.0351 4.27979C65.5596 4.2611 65.0317 4.46668 64.4933 4.19881L64.2486 3.62256L63.3641 3.74715L64.0179 3.48862C63.899 3.12419 63.0355 3.1491 62.8782 3.42633L63.2033 3.74715H62.2244L62.2384 4.07421C62.0111 4.18323 61.714 4.09602 61.5741 4.13339C61.672 4.04929 61.4972 3.62256 61.3294 3.61945C60.8434 3.61633 61.2839 4.37947 61.5741 4.13339L61.5881 4.12094ZM88.1722 3.34845C86.4592 3.17402 84.7845 3.37649 83.1169 3.53846C83.3022 3.74092 83.5679 3.74715 83.8476 3.74404C84.7041 3.73781 85.8264 3.51354 86.62 3.46682C87.0745 3.43878 87.889 3.69732 88.1687 3.34845H88.1722ZM57.676 3.60387C57.5187 3.20517 57.0887 3.4637 56.6971 3.47616V3.60387H57.676ZM59.3052 3.34845H58.3298V3.47616L59.3052 3.60699V3.34845ZM78.614 4.43553C78.8307 4.29537 79.523 4.12405 79.5264 4.05552C79.5439 3.72535 78.607 4.10536 78.4846 4.10536L78.3902 4.63488C78.6315 4.68472 78.5196 4.49472 78.614 4.43242V4.43553ZM209.839 26.7035V26.5135L209.433 26.0588L209.199 26.3671L209.598 26.7004H209.839V26.7035ZM209.185 26.9621C209.245 26.6724 209.038 26.4201 208.699 26.3173C208.64 26.607 208.846 26.8593 209.185 26.9621ZM1.57105 28.7687L1.0851 28.831L1.57105 29.1549V28.7687ZM76.1038 50.965L74.4746 51.0927C74.9186 51.0927 75.8416 51.3824 76.1038 50.965ZM26.0366 51.7375C26.1344 51.6659 25.9457 51.4167 25.7918 51.3544L25.3828 51.4821C25.3828 51.7001 25.9177 51.8247 26.0331 51.7375H26.0366ZM126.01 51.8683C125.465 51.8278 122.748 51.6908 122.588 51.8683C122.636 52.2452 123.231 52.3916 123.657 52.3667C123.878 52.3543 124.031 52.1736 124.273 52.1642C124.409 52.158 126.646 52.3138 126.014 51.8652L126.01 51.8683ZM30.113 51.9992C29.5221 52.1923 28.8614 51.9774 28.4069 51.9992C28.1447 52.0116 27.9314 52.2079 27.7461 52.211C27.449 52.2172 27.2637 51.7967 26.8546 52.32C26.8407 52.6439 28.8859 52.401 29.176 52.3543C29.3963 52.3169 30.05 52.2016 30.1095 51.9992H30.113ZM26.8511 52.7685L26.4281 52.1362C25.1416 52.0833 25.9352 52.918 26.8511 52.7685ZM27.1763 52.9025H26.3617V53.1579C26.6728 53.1766 27.0784 53.1921 27.1763 52.9025ZM107.908 54.3228C107.313 54.1297 106.957 54.4879 106.278 54.3851C106.425 54.6935 108.345 54.6842 107.908 54.3228Z" fill="black"/>
</svg>
