<svg width="20" height="15" viewBox="0 0 20 15" fill="none" xmlns="http://www.w3.org/2000/svg">
<path d="M2.14686 1.97525C2.3923 2.12951 2.66006 2.21816 2.95013 2.24121C3.33034 2.52578 3.85692 2.69777 4.1104 3.12774C3.84711 3.21905 3.7882 3.27845 3.9319 3.30504C3.9667 3.65611 4.12379 3.83785 4.40493 3.85115C4.44777 4.04441 4.60128 4.07012 4.86636 3.92827C5.09931 3.95753 5.34029 4.50541 5.27156 4.72349C5.4938 4.73768 5.82135 4.84406 5.98558 4.98945C6.09 5.07278 6.17925 5.16144 6.25333 5.25541C6.41666 5.34318 6.53537 5.49034 6.61034 5.69867C6.72636 5.66055 6.81919 5.75187 6.78884 5.87598C6.93878 5.67562 7.14674 5.70577 7.4136 5.96463L7.42699 5.7625C7.61531 5.67119 7.78935 5.56126 7.94911 5.43271C8.07139 5.25896 8.22044 5.1703 8.39537 5.16676C8.55156 4.96817 8.67027 4.90878 8.75238 4.98945C8.79432 4.74122 8.83806 4.76516 8.93088 4.98945C9.08172 4.88573 9.24326 4.78466 9.41373 4.68626C9.24058 4.29352 9.25754 4.12863 9.46639 4.19157C9.46371 4.1375 9.49584 4.11001 9.55564 4.10292C9.84303 3.92473 9.8832 3.98235 9.86802 4.31835L10.0019 4.36888C9.91176 4.26781 9.95995 4.21551 10.0912 4.28023C10.0635 4.04264 10.1028 4.05327 10.2697 4.19157C10.5874 4.06303 10.557 4.29618 10.4482 4.54619C10.6392 4.64104 10.6418 4.6836 10.4624 4.77846C10.5347 4.97172 10.4705 5.21906 10.2697 5.52137C10.3848 5.6508 10.333 5.69867 10.1804 5.61002C10.0724 5.71818 9.98316 5.74743 9.91265 5.69867C9.84392 5.66587 9.7868 5.64991 9.73414 5.69867C10.0394 5.66676 9.98048 5.92651 9.79037 6.02403C9.60027 6.12155 9.81001 5.86091 9.80644 6.04087C9.80644 6.09141 9.70023 6.16056 9.64489 6.14194C9.51459 6.33343 9.30663 6.48148 9.02013 6.5852C9.07815 6.61446 9.07815 6.6446 9.02013 6.67386C8.84788 6.91765 8.71132 7.41588 8.93088 7.47173C9.04066 7.40879 9.23255 7.60737 9.19863 7.73769C9.24237 7.76429 9.24148 7.79443 9.19863 7.82634C9.33965 8.01961 9.34947 8.52316 9.09243 8.40702C8.87197 8.51252 8.37663 8.72883 8.21687 8.62422C7.95357 8.73947 7.71616 8.73947 7.50285 8.62422C7.41449 8.59851 7.32524 8.56305 7.2351 8.53557C7.16816 8.68096 7.02 8.67121 6.79241 8.5072C6.8647 8.83699 6.50859 9.09851 6.17568 8.99213C6.26493 9.13841 6.22566 9.23504 6.07483 9.33344C6.21406 9.51607 6.14355 9.70135 5.98558 9.86536C5.99986 10.0258 5.85081 10.0551 5.53932 9.95401C5.59198 10.1508 5.53218 10.3583 5.36081 10.5746C5.24836 10.7164 5.11448 10.6615 5.18231 10.4859C5.06628 10.4824 4.97703 10.3937 4.91456 10.22C4.78157 10.3459 4.61556 10.3423 4.41742 10.2084L4.28979 10.3973C4.31478 10.5152 4.31211 10.5444 4.20054 10.4859C4.10683 10.5418 4.04703 10.5418 4.02204 10.4859C3.93903 10.4372 3.84978 10.3787 3.75428 10.3086C3.47225 10.5444 3.28661 10.2936 3.48653 9.95401C3.40709 9.93628 3.40977 9.90614 3.48653 9.86536C3.63736 9.72972 3.78552 9.70047 3.93279 9.77671C3.93903 9.6322 3.96849 9.5143 4.02204 9.4221C3.99973 9.10649 4.23446 9.11093 4.4683 9.15614C4.32371 9.09319 4.29604 9.00366 4.4683 8.97883C4.31121 8.82369 4.5281 8.70312 4.73605 8.71287C4.72266 8.42209 5.11716 8.15525 5.27156 8.35826C5.46524 8.26872 5.61429 8.15081 5.71782 8.00365C5.57859 7.72351 5.55538 7.62776 5.75441 7.28733C5.6366 7.04708 5.8633 6.8751 5.98558 7.11712C6.06679 6.95489 5.94809 6.80684 5.62857 6.67386C5.45542 6.88042 5.16982 6.62864 5.45007 6.49655C5.65534 6.56747 5.62589 6.47882 5.36081 6.23059C5.33225 6.28822 5.3028 6.28822 5.27156 6.23059C5.01184 6.15435 4.76015 6.04974 4.55755 5.87598C4.40136 5.8485 4.36744 5.62775 4.4683 5.52137C4.27998 5.62775 4.21125 5.53023 4.28979 5.34406C4.14164 5.49477 4.08184 5.46552 4.11129 5.25541C3.93279 5.14016 3.87299 5.14016 3.93279 5.25541C4.04971 5.38396 3.99705 5.43626 3.84354 5.34406C3.83997 5.56392 3.74 5.53023 3.57578 5.43271C3.50616 5.34583 3.51063 5.29264 3.48653 5.25541C3.40442 5.15168 3.33302 5.06037 3.21877 4.98945C3.11792 4.97615 3.04741 4.90168 3.07419 4.80328C2.80018 4.71995 2.72878 4.60381 2.86177 4.45753C2.83588 4.29707 2.80822 4.29352 2.77252 4.45753C2.94566 4.6375 2.95816 4.71995 2.68326 4.72349C2.31287 4.42916 2.29323 4.35647 1.88 4.10292C1.83894 4.0781 1.40875 3.53554 1.25524 3.3937C1.2481 3.18714 1.12582 3.02401 0.887521 2.90345L0.898231 2.77313C0.634939 2.65345 0.85182 2.53908 1.07673 2.50717C1.09458 2.42738 1.12404 2.43004 1.16599 2.50717C1.24274 2.21461 1.3668 1.84848 1.79075 1.97525C1.65955 1.64901 2.16828 1.63837 2.14775 1.97525H2.14686Z" fill="#5D5D5D"/>
<path d="M15.0883 1.62064C15.249 1.70131 15.0946 1.99387 15.0883 1.97525C15.0714 1.91319 15.1767 1.66851 15.266 1.79795C15.2909 1.72082 15.3213 1.7217 15.3552 1.79795C15.4141 2.02046 15.4944 2.06745 15.5962 1.9389C15.6774 2.0249 15.7783 2.04883 15.8907 2.0639C16.0032 2.18447 16.1308 2.14724 16.1585 2.41852C16.0716 2.47407 16.0716 2.47407 16.1585 2.41852C16.2165 2.41763 16.2825 2.4265 16.337 2.41852C16.3673 2.41408 16.4209 2.42738 16.4262 2.41852C16.5494 2.23944 16.7217 2.62951 16.7832 2.77313C16.877 2.85912 16.877 2.97792 16.7832 3.12774C16.9341 3.07189 17.0599 3.15788 16.9617 3.30505C17.0287 3.43714 17.1179 3.52579 17.2295 3.571C17.1902 3.34139 17.2393 3.35026 17.408 3.48235C17.5803 3.29973 17.6865 3.40168 17.6713 3.63395C17.8462 3.63306 17.9069 3.67118 17.8543 3.74831C17.9167 3.80948 17.9185 3.98945 17.9435 4.01427C17.923 4.12863 18.0238 4.30062 18.2479 4.53023C18.0774 4.56037 18.1247 4.65434 18.3898 4.81215C18.5718 4.78732 18.6307 4.84672 18.5683 4.98945H18.6575C18.811 5.15523 18.9895 5.24389 19.193 5.25541C19.3385 5.41055 19.5108 5.55594 19.6393 5.69868C19.858 5.96729 19.7892 6.20222 19.4724 5.96729C19.4528 5.95222 19.8107 5.97084 19.907 6.05329C20.0186 6.40169 20.0463 6.43361 19.6393 6.58521L19.5304 6.75187C19.7089 6.82368 20.0159 6.95666 19.7276 7.03468C19.6571 7.3556 19.4563 7.68273 19.1038 7.73769C19.0877 7.82635 19.0574 7.915 19.0145 8.00365C19.0065 8.11713 18.9467 8.23504 18.836 8.35826C18.6816 8.53734 18.5058 8.83876 18.3005 9.06749C17.9846 9.24834 17.9337 9.21022 18.122 8.89018L18.0185 8.80685C18.0104 9.02227 16.8618 9.19072 16.8011 9.16323C16.4887 8.74036 16.2085 8.29709 16.9617 8.09231C16.7199 7.87511 17.0894 7.65968 17.283 7.80064C17.3348 7.60826 17.4267 7.53822 17.6204 7.53379C17.4517 7.32812 17.4999 7.15702 17.765 7.11712C17.6856 7.10028 17.6891 7.07102 17.765 7.02847C17.8177 6.67474 17.964 6.42918 18.205 6.29176C17.9346 6.23325 17.699 6.03556 17.4973 5.69868C17.2589 5.89017 16.9573 5.68626 16.8725 5.43272C16.818 5.7829 16.3905 5.67208 16.5155 5.34406C16.4985 5.23236 16.5994 5.21286 16.694 5.25541L16.4253 4.91055C16.1469 4.90966 15.8497 4.75807 15.5337 4.45753C15.2811 4.70133 14.834 4.10824 14.909 3.83696C14.8795 3.73058 14.8197 3.64193 14.7304 3.571C14.5421 3.55327 14.1575 3.35026 14.2842 3.12774L14.203 2.85646C13.9861 2.68891 13.954 2.57277 14.1057 2.50717C14.1512 2.33873 14.2824 2.22348 14.4627 2.24121C14.4306 1.9061 14.5992 1.67383 14.909 1.53199C15.0107 1.36089 15.124 1.4256 15.0875 1.62064H15.0883Z" fill="#5D5D5D"/>
<path d="M14.7311 10.8403C14.8676 10.8838 14.939 10.9432 14.9453 11.0176C15.3523 11.0176 15.5218 11.1417 15.1773 11.4609C15.255 11.4822 15.2523 11.5123 15.1773 11.5495C15.3246 11.7091 15.1773 11.7171 14.9988 11.7269C15.2095 11.8554 15.1568 12.0664 14.9096 12.0815C14.9105 12.2056 14.8159 12.2331 14.6249 12.1639L14.6418 12.2588C14.7578 12.3368 14.8801 12.4449 14.7311 12.5247C14.6606 12.7597 14.4401 12.7863 14.3741 12.5247C14.1982 12.4467 14.1982 12.476 14.3741 12.6134C14.6017 12.679 14.6552 12.8652 14.5526 13.0566C14.4535 13.0824 14.4258 13.1418 14.4633 13.234C14.5071 13.2747 14.798 13.8341 14.8194 13.9006C14.8971 14.1444 14.6516 13.9325 14.5526 13.9432C14.2964 13.8918 13.9626 13.7322 13.9278 13.4113C13.76 13.3253 13.5815 13.296 13.3923 13.3226C13.2432 13.3084 13.0942 13.3084 12.946 13.3226C12.7274 13.3785 12.3382 13.3315 12.3213 13.0566C12.3132 12.9015 12.3329 12.9157 12.232 12.7907C12.207 12.7065 12.2365 12.6772 12.3213 12.702C12.3266 12.6293 12.3561 12.6001 12.4105 12.6134C12.5239 12.6542 12.5239 12.5948 12.4105 12.4361C12.3311 12.4972 12.3097 12.4458 12.3213 12.3474C12.1508 12.1462 12.1205 11.9689 12.232 11.8155C12.1767 11.5939 12.2365 11.5859 12.4105 11.7269C12.44 11.6471 12.4703 11.6471 12.4998 11.7269C12.7149 11.8049 12.7729 11.6515 12.7675 11.4609C12.8184 11.2951 12.8961 11.2951 12.946 11.4609C13.0647 11.2597 13.2129 11.1417 13.3923 11.1063C13.3861 10.8412 13.5217 10.796 13.6601 11.0176C13.8207 11.0815 13.9698 11.1409 14.1063 11.1949C14.2393 11.0886 14.3196 10.9547 14.3464 10.796L14.5526 10.7517C14.7257 10.5841 14.7668 10.6018 14.7311 10.8403Z" fill="#5D5D5D"/>
<path d="M3.30734 10.2197C3.48853 10.2906 3.63758 10.3792 3.7536 10.4856C3.77056 10.4067 3.80001 10.4094 3.84285 10.4856C4.03653 10.7773 4.18558 10.8358 4.28911 10.6629C4.1829 10.5415 4.23556 10.4918 4.37836 10.5743C4.50332 10.3952 4.61934 10.4342 4.57829 10.6541C4.66932 10.7374 4.75144 10.8287 4.82462 10.9289C4.91744 11.0308 4.86836 11.0672 4.73537 11.0175C4.58097 11.1408 4.56758 11.2259 4.46762 11.3721C4.24359 11.3783 4.00618 11.4076 3.7536 11.4608C3.62687 11.6177 3.77592 11.6771 4.19986 11.6381C4.28465 11.6133 4.3141 11.6425 4.28911 11.7268C4.26412 11.7374 4.22485 11.7161 4.19986 11.7268C3.94728 12.0264 3.70808 12.201 3.30824 12.1088C3.22077 12.3305 3.10207 12.4989 2.95034 12.6133C2.94766 12.7445 2.80397 12.8704 2.68258 12.7906C2.6085 12.8659 2.513 12.9475 2.41483 12.8792C2.39251 12.9475 2.36217 12.9448 2.32558 12.8792C2.23722 12.8447 2.17742 12.7853 2.14707 12.7019C1.75347 12.9892 1.54641 12.9697 1.52767 12.6434C1.21172 12.7347 1.01268 12.6346 1.25456 12.3473C1.08141 12.4049 1.04749 12.3145 1.1653 12.17C1.47679 11.8783 1.71152 11.4998 1.88021 11.1062C2.05961 11.0645 2.14886 10.9759 2.14707 10.8402C2.20509 10.7808 2.36217 10.4475 2.50408 10.3083C2.80932 10.1585 3.07708 10.1292 3.30734 10.2197Z" fill="#5D5D5D"/>
<path d="M8.75135 9.51074C7.86151 9.01428 8.30866 8.51339 9.17976 8.40967C9.17351 8.57722 9.26901 8.61889 9.46536 8.53556C9.57871 8.43626 9.73669 8.50187 9.82237 8.62421C9.83933 8.54531 9.86878 8.54885 9.91162 8.62421C10.0241 8.45133 10.1562 8.45133 10.2686 8.62421C10.473 8.64726 10.4614 8.73857 10.2686 8.80151C10.3427 8.84141 10.4007 8.94425 10.4418 9.11003C10.7961 9.3157 11.0157 9.44513 10.5248 9.65524C10.4971 9.45666 10.3534 9.37864 10.0928 9.4212C9.97856 9.77581 9.70991 9.80595 9.28775 9.51162C9.24402 9.67741 9.09497 9.7368 8.84149 9.68893C8.76831 9.6251 8.77455 9.53822 8.75224 9.51162L8.75135 9.51074Z" fill="#5D5D5D"/>
<path d="M13.3927 0.290587C13.1847 0.562752 13.4239 0.735625 13.5266 0.378354C13.656 0.805661 13.6542 0.182431 13.9737 0.113281C14.0567 0.37924 14.353 0.345552 14.5958 0.290587L14.5521 0.467893C14.5922 0.496262 15.3544 0.160267 14.6422 0.823391C14.3691 0.795909 14.5021 0.586688 14.5637 0.659383C14.6752 0.79059 14.2129 0.943073 14.1067 0.734738C14.0817 0.871264 13.9425 0.902293 13.839 0.823391L13.6105 0.780838C13.5685 1.12481 13.1294 1.0663 12.8572 1.0007C12.7795 1.1585 12.709 1.06187 12.6787 0.912044C12.5002 0.929775 12.5395 0.806547 12.6787 0.734738C12.6787 0.699277 12.5796 0.636334 12.6073 0.574277C12.6216 0.541475 12.9491 0.308318 13.0366 0.37924L12.9455 0.203707C13.0705 0.177111 13.2963 0.238282 13.3927 0.203707C13.4703 0.22853 13.4695 0.258672 13.3927 0.29236V0.290587Z" fill="#5D5D5D"/>
<path d="M7.2343 8.53551C7.18164 9.04881 6.66309 9.09402 6.45156 9.26867C6.39266 9.31743 6.38641 9.44863 6.34178 9.51069C6.0892 9.75714 6.08474 9.64101 6.07403 9.33338C6.03654 8.71724 5.65633 9.10288 5.62866 9.06742V8.80146C6.1963 9.09313 5.78307 8.5488 6.29805 8.3582L6.16417 8.79969C6.4587 8.91937 6.50333 8.78639 6.69968 8.57895C6.35606 8.4832 6.48994 8.30146 6.79161 8.32717C6.93263 8.33958 7.16022 8.51246 7.23519 8.53462L7.2343 8.53551Z" fill="#5D5D5D"/>
<path d="M9.19813 7.82617C9.37128 7.88025 9.49088 7.9689 9.55514 8.09213V8.35809C9.74346 8.48664 9.6908 8.58415 9.46589 8.5354C9.39627 8.6932 9.32933 8.77565 9.37574 8.97866C9.03837 8.78185 8.96251 8.84391 9.10799 8.44674C8.97768 8.63469 8.48948 8.74373 8.40647 8.81288C8.38951 8.82706 8.44931 9.14887 8.39576 9.24462C8.4145 9.27122 8.90896 8.77919 8.70814 9.31111C8.31633 9.19941 8.7367 9.49285 8.75187 9.51058C8.33507 9.58416 8.39665 9.2198 8.27795 9.09036C8.26456 9.07618 8.0093 8.92724 7.94861 8.89001C7.61481 8.78894 7.96021 8.59036 8.21636 8.62405C8.40915 8.53185 8.67423 8.41305 8.87147 8.33859C8.99285 8.29249 9.10085 8.36961 9.1071 8.35898C9.14547 8.29603 9.11959 7.94674 9.19903 7.82617H9.19813Z" fill="#5D5D5D"/>
<path d="M4.02114 3.30474C4.21928 3.65315 4.39778 3.7418 4.55665 3.5707C4.54415 3.4918 4.60395 3.4918 4.73515 3.5707C5.10287 3.8668 5.43131 4.23914 5.80617 4.54588C5.8508 4.82957 5.45184 4.89872 5.27066 4.72319C5.22514 4.67443 4.97167 4.3934 4.95917 4.37212C4.90562 4.27992 5.03593 4.13276 5.00291 4.1035C4.93686 4.04322 4.60395 4.24003 4.43527 4.18329C4.33441 4.1496 4.32459 4.00244 4.26033 3.95457C3.99079 3.75421 3.84621 3.90226 3.93278 3.30474C3.95509 3.22761 3.98455 3.22939 4.02203 3.30474H4.02114Z" fill="#5D5D5D"/>
<path d="M4.64581 8.44694C4.90286 8.3707 4.95998 8.58878 4.73506 8.7129C4.73774 8.83081 4.73506 8.9496 4.73417 9.06751C4.57887 9.1074 4.6833 8.9434 4.63867 8.89641C4.57352 8.82726 4.47623 8.97708 4.46731 8.97886C4.41197 9.03737 4.41286 9.09588 4.46731 9.15616C4.44589 9.19694 4.11298 9.40616 4.02105 9.42212C4.05854 9.61982 4.02908 9.73773 3.9318 9.77673C3.77561 9.86716 3.72027 10.0551 3.48554 9.86539C3.50071 9.78028 3.44091 9.78028 3.30704 9.86539C3.35523 10.1438 2.8349 10.3246 2.95003 9.95404C3.49 9.42744 4.146 8.93808 4.64581 8.44694Z" fill="#5D5D5D"/>
<path d="M5.98489 7.11696C5.94651 7.13735 5.84655 7.06023 5.80371 7.17459C5.78854 7.2136 5.69125 7.97069 5.71714 8.00349C5.69215 8.08062 5.6618 8.07974 5.62789 8.00349H5.44938C5.48687 8.1808 5.46456 8.29428 5.27088 8.35811C5.08881 8.37406 4.93529 8.47069 5.09327 8.62318L4.73537 8.71272C4.73537 8.69853 4.67468 8.4769 4.64612 8.44676C4.72823 8.36608 4.80499 8.20562 4.91387 8.09215C4.98884 8.19232 5.0183 8.16307 5.00312 8.00349C5.14057 7.85988 5.65198 7.4237 5.67519 7.3847C5.84209 7.10455 5.60736 7.12494 5.53863 7.02831V6.93966C5.62699 6.89001 5.71625 6.86076 5.80639 6.85101C5.97775 6.812 6.11431 6.97778 5.98489 7.11696Z" fill="#5D5D5D"/>
<path d="M0.630019 12.9682C0.819232 12.9771 0.93169 13.0976 0.96739 13.3317C1.3235 13.1588 1.5868 13.5143 1.34403 13.7661C1.58144 13.8663 1.58233 13.9389 1.34403 14.032C1.23693 14.0613 0.895096 14.3024 0.808522 14.2093C0.754079 14.1508 0.978993 13.8352 0.450623 13.9434C0.357801 13.6996 0.706775 13.7457 0.717486 13.634C0.726411 13.5356 0.271227 13.3113 0.540767 12.9682C0.549692 12.8875 0.580931 12.8928 0.630019 12.9682Z" fill="#5D5D5D"/>
<path d="M2.14678 10.8402C2.66444 11.3234 1.90223 11.0805 1.87992 11.1062C1.83618 11.1558 1.95846 11.3597 1.94686 11.4227C1.93436 11.491 1.52827 11.5823 1.79067 11.991C1.44526 11.8748 1.47204 12.2232 1.16501 12.1692C0.875837 12.2339 0.90529 12.0858 1.25426 11.7259C1.56397 11.4351 1.87546 11.116 2.14678 10.8394V10.8402Z" fill="#5D5D5D"/>
<path d="M6.60924 5.16649C6.83147 5.27287 6.97963 5.73386 7.32325 5.6984C7.59904 5.6195 7.67936 5.82695 7.4125 5.96436C7.38305 5.97943 7.32593 6.1461 7.27862 6.13989C7.20276 6.13103 7.16617 5.90319 7.13582 5.88635C7.10547 5.8695 7.02336 5.99096 6.78774 5.87571L6.60924 5.6984C6.46019 5.67447 6.31828 5.60443 6.16298 5.60886C6.31738 5.42801 6.24955 5.35798 6.25223 5.25514C6.09961 5.18865 6.08622 5.11861 6.25223 5.07783C6.36469 5.02375 6.52266 5.06897 6.60924 5.16649Z" fill="#5D5D5D"/>
<path d="M14.6421 0.822599C14.6331 0.934302 14.551 1.08324 14.6421 1.26586C14.7617 1.38998 14.7108 1.43962 14.5528 1.35452C14.3921 1.21326 14.3921 1.21326 14.5528 1.35452C14.8072 1.35274 14.75 1.46445 14.6421 1.62048C14.7384 1.90417 14.3225 1.77473 14.1646 1.68165C13.7174 1.42101 13.5933 1.14884 14.1065 0.911252C13.8611 0.88643 13.9013 0.842103 14.1065 0.733946C14.285 0.685187 14.4662 0.616038 14.6412 0.556641C14.6385 0.644407 14.6492 0.734833 14.6412 0.822599H14.6421Z" fill="#5D5D5D"/>
<path d="M16.3382 10.4857C16.5952 10.5584 16.5791 10.6559 16.3382 10.7516C16.4158 10.7809 16.4158 10.811 16.3382 10.8403C16.3132 10.9174 16.2828 10.9165 16.2489 10.8403C16.1472 10.9192 16.1472 11.0079 16.2489 11.1063C16.3266 11.1311 16.3257 11.1612 16.2489 11.1949C15.9624 11.3899 15.8294 11.3439 15.9812 11.6373C15.7687 11.7162 15.7616 11.3598 15.5795 11.374C15.3671 11.3899 15.5295 11.593 15.5349 11.6382C15.5777 11.8687 15.5179 11.8979 15.3564 11.7268C15.2243 11.7712 15.1734 11.655 15.1779 11.5495C15.1699 11.5407 15.1797 11.4919 15.1779 11.4609C15.2787 11.2188 15.4278 11.1009 15.6241 11.1063C15.542 10.9201 15.6322 10.874 15.8116 10.8625C15.8741 10.6116 15.9526 10.3474 16.2489 10.397C16.3837 10.2676 16.4319 10.3155 16.3382 10.4857Z" fill="#5D5D5D"/>
<path d="M4.19951 11.7271C4.05849 12.0497 3.70773 12.1677 3.4855 12.3476C3.41231 12.3272 3.38375 12.3583 3.39624 12.4363C3.34983 12.4735 3.29361 12.5498 3.21774 12.6136C3.06334 12.712 2.97408 12.712 2.94999 12.6136L2.59387 12.2599C2.75185 12.2483 2.81165 12.2315 2.94999 12.3246C2.97587 12.3423 2.89644 12.4726 3.03835 12.4363C3.09547 11.6216 3.53637 12.0675 3.87106 12.001C3.89962 11.9957 3.97281 11.8263 4.19951 11.7279V11.7271Z" fill="#5D5D5D"/>
<path d="M4.46734 5.52107C4.41379 5.70281 4.437 5.87657 4.53696 6.04324C4.44771 5.9732 4.44235 5.91735 4.55659 5.87568C4.89843 5.71433 5.05016 6.04058 5.27061 6.23029C5.20188 6.41469 5.07425 6.41469 5.00285 6.23029C4.91271 6.28969 4.82346 6.31895 4.7351 6.31895C4.66905 6.26841 4.45663 6.30299 4.33703 6.13898C4.22458 5.98473 4.27545 5.7427 4.11034 5.60972C3.90506 5.40671 4.01662 5.26664 4.28884 5.34376C4.37898 5.39784 4.41647 5.42621 4.46734 5.52107Z" fill="#5D5D5D"/>
<path d="M18.1233 8.89014C18.0992 9.07719 18.1144 9.08783 18.3018 9.06744C18.1724 9.21195 17.885 9.38837 17.8556 9.42205C17.5941 9.86266 17.3861 9.98057 17.2308 9.77667C16.7676 9.94156 17.0086 9.26425 17.3183 9.08961C17.6003 9.06212 17.869 8.99563 18.1233 8.89014Z" fill="#5D5D5D"/>
<path d="M1.61152 1.62041C1.67846 1.4963 1.76593 1.40498 1.87928 1.53176C2.29787 1.53708 2.3059 1.65765 2.59329 1.88637C2.60489 2.15765 2.25324 2.20729 2.14703 1.97502C1.99888 1.98123 1.95603 1.81899 1.79003 1.97502C1.49103 2.02999 1.31253 1.85268 1.25452 1.44311C1.39107 1.42538 1.53477 1.608 1.61152 1.62041Z" fill="#5D5D5D"/>
<path d="M8.30514 4.54616C8.56397 4.56212 8.7514 5.02932 8.39439 5.16674C8.26141 5.40698 8.3453 5.49032 7.94813 5.43269C7.90351 5.39635 7.90351 5.33784 7.94813 5.25539C7.80801 5.21904 7.82854 5.15344 7.94813 5.07808C7.97312 4.98145 8.10789 4.61709 8.15074 4.56833C8.19358 4.51957 8.29532 4.5568 8.30514 4.54616Z" fill="#5D5D5D"/>
<path d="M19.6404 6.58499C19.6038 6.87489 20.0367 6.65769 19.9974 7.11691C19.9858 7.11159 19.8636 7.21886 19.8314 7.18695C19.785 7.14085 19.8805 6.99368 19.7306 7.02915C19.7591 7.41213 19.5182 7.73039 19.2834 8.00344C19.2567 8.03447 19.2209 8.06018 19.1942 8.09209C19.1228 8.17809 18.9095 8.27383 18.8372 8.35805C18.6417 7.81106 18.7836 8.1311 19.0157 8.00344L19.1049 7.73748C19.0978 7.67631 19.1629 7.61514 19.0157 7.47241C19.2745 7.72773 19.8305 7.02117 19.7297 6.94049C19.6922 6.91035 19.3745 7.03092 19.3709 6.63021C19.395 6.52826 19.5708 6.6107 19.6395 6.58499H19.6404Z" fill="#5D5D5D"/>
<path d="M5.80651 4.5459C5.94485 4.65937 6.12335 4.91292 6.25276 4.98916C6.33041 5.01399 6.32952 5.04413 6.25276 5.07782C6.19207 5.22498 6.04481 5.1115 5.98501 4.98916C5.93414 4.98207 5.83239 5.09555 5.5807 4.99803C5.3665 4.91469 5.38345 4.84289 5.271 4.7232L5.80651 4.5459Z" fill="#5D5D5D"/>
<path d="M0.00524902 1.70925C0.0436272 1.5683 0.505951 1.66493 0.273004 1.17822L0.4524 1.4433C0.598773 1.48142 0.513983 1.32095 0.555039 1.29258C0.569319 1.28283 0.848677 1.26776 0.897766 1.26688C0.963812 1.37858 0.833504 1.55854 0.719262 1.62149C0.747823 1.66936 0.807621 1.78727 0.897766 1.9761C0.910261 2.23585 0.668389 2.29082 0.540759 2.06475C0.383676 2.03816 0.294424 1.91936 0.273004 1.71014C0.237303 1.85021 0.0632626 1.82805 0.00524902 1.71014V1.70925Z" fill="#5D5D5D"/>
<path d="M15.6238 1.79777C15.854 2.14618 15.4533 2.14795 15.356 1.79777H15.2667C15.1793 1.83234 15.1204 1.77383 15.0882 1.62046C15.0445 1.59475 14.9428 1.53358 14.9097 1.53181C14.791 1.65504 14.7018 1.68518 14.642 1.62046C14.5161 1.57259 14.5715 1.44227 14.5527 1.3545C14.5822 1.3483 14.6206 1.26851 14.642 1.26585C15.2141 1.19582 15.273 1.47153 15.6238 1.79777Z" fill="#5D5D5D"/>
<path d="M15.3559 11.8157C15.5022 11.7714 15.5745 12.0001 15.4451 12.0817C15.4416 12.1047 15.2648 12.4939 15.247 12.5099C15.1988 12.5515 15.1078 12.5125 15.0881 12.525C14.9114 12.5843 14.6285 12.0835 14.9096 12.0817C14.9132 12.0143 14.9703 11.7865 14.9989 11.7271C15.1461 11.6189 15.2845 11.634 15.3559 11.8157Z" fill="#5D5D5D"/>
<path d="M11.2508 1.79806C11.3204 1.89469 11.4096 1.98334 11.5185 2.06402C11.5605 2.16242 11.5016 2.28033 11.34 2.41863C11.3998 2.59239 11.3088 2.62696 11.1615 2.50728C11.1481 2.60835 11.0294 2.60037 10.983 2.50728C10.8018 2.55161 10.6688 2.52856 10.626 2.32998C10.6242 2.32022 10.5144 2.31402 10.5359 2.24221C10.8277 2.30604 10.9241 1.97359 11.0999 1.82465C11.1553 1.77767 11.2383 1.80781 11.2508 1.79806Z" fill="#5D5D5D"/>
<path d="M13.928 13.4115C13.945 13.4265 14.0432 13.4124 14.103 13.4647C14.2556 13.5968 14.0914 13.7501 14.4627 13.5879L14.5528 13.9434C14.4332 13.9567 14.2609 14.056 14.1654 14.0391C14.0878 14.025 14.0878 13.8636 14.0128 13.8184C13.9048 13.7519 13.7826 13.7794 13.6603 13.6783C13.6987 13.6118 13.729 13.5232 13.7495 13.4124C13.7647 13.2714 13.8245 13.2714 13.928 13.4124V13.4115Z" fill="#5D5D5D"/>
<path d="M2.59322 1.88672C2.73067 1.99576 2.80921 2.13583 2.95023 2.24133C2.79939 2.58974 2.66373 2.30871 2.44774 2.26527C2.21747 2.21917 2.09877 2.56403 2.14696 1.97537C2.30137 1.96917 2.44596 1.92839 2.59322 1.88672Z" fill="#5D5D5D"/>
<path d="M12.4109 0.911476C12.5537 0.792681 12.6483 0.811298 12.6787 1.00013C12.8679 0.998356 12.859 1.12779 12.6787 1.17743C12.7519 1.30687 12.693 1.39552 12.5002 1.44339C12.5386 1.46999 12.5368 1.49925 12.5002 1.53205C12.3199 1.72354 12.1414 1.60563 11.9647 1.17743C11.9825 1.15704 11.9397 1.02495 11.9683 1.00368C11.995 0.984171 12.1164 1.08967 12.1789 1.08878C12.2458 1.08701 12.228 0.968214 12.2646 0.945164C12.3324 0.900838 12.4029 0.918568 12.4118 0.911476H12.4109Z" fill="#5D5D5D"/>
<path d="M7.94819 5.43268C7.83573 5.89279 7.73398 5.80236 7.41268 5.96459C7.4582 5.86796 7.32432 5.71903 7.32343 5.69864C7.31896 5.53197 7.39572 5.45307 7.50193 5.34402C7.66348 5.34048 7.81253 5.31122 7.94819 5.25537C7.9348 5.3059 7.96068 5.38037 7.94819 5.43268Z" fill="#5D5D5D"/>
<path d="M10.6257 2.68452C10.7033 2.70934 10.7024 2.73949 10.6257 2.77317C10.8666 2.80598 10.847 2.86715 10.6257 2.95048C10.7676 3.02052 10.7381 3.05066 10.5364 3.03913C10.6444 3.15438 10.606 3.24569 10.4472 3.21644C10.473 3.3441 10.4427 3.43275 10.3579 3.4824C10.4257 3.71556 10.1526 3.86095 10.0009 3.6597C9.78224 3.57194 9.84204 3.45403 10.1794 3.30509C10.2383 3.1996 10.3624 3.12335 10.3606 2.99481C10.3597 2.90349 9.98484 3.06396 10.3579 2.59587C10.4748 2.52051 10.6034 2.52761 10.6257 2.68452Z" fill="#5D5D5D"/>
<path d="M17.8556 9.42188C17.7521 9.5389 17.5745 10.1612 17.2309 10.2198C17.0381 10.1524 16.931 10.0602 17.1416 9.95379C16.9934 9.78447 17.0068 9.77383 17.2309 9.77649C17.5423 9.63287 17.6593 9.80042 17.4995 9.42188C17.6316 9.47063 17.7342 9.52471 17.8556 9.42188Z" fill="#5D5D5D"/>
<path d="M9.55492 3.65972C9.74235 3.53738 9.79501 3.65706 9.82267 3.83703C9.95655 4.01433 9.75931 4.21203 9.55492 4.10299C9.52368 4.13047 9.49423 4.16061 9.46567 4.19164C9.35857 4.1154 9.23986 3.9966 9.10866 3.83703C9.08367 3.91416 9.05332 3.91327 9.01941 3.83703C9.16489 3.6943 9.29163 3.55157 9.42193 3.39376C9.46388 3.37515 9.49512 3.58082 9.55492 3.65972Z" fill="#5D5D5D"/>
<path d="M17.1412 9.95385C17.1394 10.0469 17.1831 10.1409 17.2304 10.2198C17.0992 10.242 16.9903 10.1666 16.8743 10.1312C16.8797 10.218 16.8627 10.312 16.8743 10.3971C16.794 10.5398 16.3772 10.4113 16.4281 10.2198C16.0336 9.6214 16.9529 9.54516 17.1421 9.95385H17.1412Z" fill="#5D5D5D"/>
<path d="M9.01897 4.10278C9.14392 4.04604 9.16623 4.17105 9.10822 4.28009C9.15285 4.40686 9.18765 4.5886 9.10822 4.72335C9.13678 4.87495 9.07698 4.87495 8.92972 4.72335C8.78156 4.84303 8.63072 4.72069 8.66196 4.54605C8.5147 4.44853 8.48524 4.35988 8.57271 4.28009C8.66553 4.18789 8.74318 4.10544 8.84046 4.01413C8.97256 3.92636 9.03325 3.92636 9.01897 4.10278Z" fill="#5D5D5D"/>
<path d="M3.39618 9.95413C3.48097 10.0534 3.4533 10.252 3.30693 10.2201C3.0481 10.3282 2.77499 10.4258 2.50366 10.3087C2.60362 10.2112 2.80444 10.096 2.94992 9.95413L2.99365 10.041C3.08112 9.96034 3.21946 9.92842 3.30693 9.86548C3.41938 9.752 3.44527 9.80076 3.39618 9.95413Z" fill="#5D5D5D"/>
<path d="M12.0541 1.62035C12.1827 1.52637 12.2505 1.59198 12.3219 1.709C13.0734 1.92265 11.8453 2.71698 11.8756 1.8863C11.7435 2.08223 11.6775 2.02815 11.6971 1.79765C11.6971 1.73825 11.698 1.67974 11.6971 1.62035C11.7266 1.36325 11.9836 1.37034 12.0541 1.62035Z" fill="#5D5D5D"/>
<path d="M0.450763 12.7022C0.593566 12.6268 0.713163 12.5967 0.80777 12.6135C0.894344 12.5577 0.954142 12.5577 0.986273 12.6135C1.30312 12.805 0.855073 13.3166 0.629266 12.9682C0.599813 12.9708 0.569468 12.9682 0.540015 12.9682C0.505207 12.9682 0.440945 12.8839 0.40346 12.8813C0.384717 12.8795 0.285647 13.2084 0.0937564 13.0568C0.0312802 13.0063 0.315993 12.6898 0.360619 12.6144C0.484679 12.4956 0.53466 12.5515 0.449871 12.7031L0.450763 12.7022Z" fill="#5D5D5D"/>
<path d="M9.55505 3.65951C9.90581 3.54249 9.50775 3.28185 9.77908 3.1276C9.81656 3.10632 9.75051 3.62228 10.1798 3.3049C10.1147 3.42015 10.0058 3.55579 10.0013 3.65951C10.17 3.687 10.1611 3.75703 10.0013 3.83682C9.9674 4.03452 9.87725 4.03008 9.82281 3.83682C9.66662 3.86785 9.6336 3.76146 9.55505 3.65951Z" fill="#5D5D5D"/>
<path d="M1.25416 11.7271C1.56207 11.8902 1.10243 11.9611 1.07655 11.9948C0.997112 12.0994 1.16133 12.1615 1.1649 12.1703C1.19168 12.2306 1.22917 12.2865 1.25416 12.3476C1.30414 12.6047 1.24612 12.6535 0.986402 12.6136C0.931066 12.6233 0.852524 12.5985 0.807898 12.6136C0.709721 12.5223 0.840029 12.4753 0.932851 12.4584C0.941776 12.4567 0.835566 12.5657 0.807898 12.4363C1.0578 12.3068 1.08547 12.2075 0.807898 12.1269C0.888225 11.8804 1.15509 11.8201 1.25505 11.7271H1.25416Z" fill="#5D5D5D"/>
<path d="M11.4288 11.6386C11.7037 11.3504 11.9331 11.7848 11.7858 12.0818C11.9277 12.135 12.0902 12.2183 11.9643 12.3478C12.1714 12.3868 12.1651 12.4745 11.9643 12.5251C11.7858 12.4825 11.6234 12.4799 11.51 12.307C11.4083 12.1527 11.5306 12.0597 11.5181 11.9932C11.3985 11.9559 11.3297 11.9089 11.4288 11.8159C11.3351 11.7866 11.3315 11.682 11.4288 11.6386Z" fill="#5D5D5D"/>
<path d="M4.46742 11.3725C4.43886 11.415 4.31926 11.4461 4.31034 11.4744C4.27821 11.5755 4.46564 11.6491 4.28892 11.7271C4.26304 11.6943 4.22466 11.6704 4.19967 11.6385C3.79179 11.6615 3.64363 11.6021 3.75341 11.4611C3.81053 11.4 4.25947 11.1189 4.33533 11.1074L4.46742 11.3725Z" fill="#5D5D5D"/>
<path d="M12.3215 13.0569H12.442C12.5509 13.346 12.6027 13.1784 12.8579 13.1465L12.7678 13.322C12.8249 13.3318 12.8999 13.3087 12.9472 13.322C13.0328 13.127 13.3952 13.346 13.2149 13.4993C13.3131 13.5366 13.3336 13.6456 13.2149 13.6766C12.8311 13.775 13.0123 13.4701 12.89 13.4071C12.6982 13.3087 12.3777 13.4018 12.3224 13.3681C12.1618 13.2706 12.3295 13.1811 12.3224 13.0552L12.3215 13.0569Z" fill="#5D5D5D"/>
<path d="M2.861 4.45724C2.96275 4.57072 2.68964 4.66912 3.30726 4.54678L3.21801 4.98916H3.12875C2.98506 4.89164 2.81459 4.8287 2.6825 4.7232L2.77175 4.45724C2.79674 4.381 2.82708 4.38188 2.861 4.45724Z" fill="#5D5D5D"/>
<path d="M0.897631 2.77286L1.52239 3.12924L1.25464 3.39343C1.0449 3.19928 0.940472 3.12038 0.719128 2.95016C0.625413 2.76665 0.704847 2.70282 0.897631 2.77286Z" fill="#5D5D5D"/>
<path d="M16.8736 10.3972C16.8897 10.5204 17.0646 10.7563 16.6951 10.8405C16.5568 10.7261 16.4372 10.6082 16.3381 10.4859C16.331 10.4442 16.2917 10.4078 16.2488 10.3972C16.0837 10.196 16.2015 10.0949 16.4274 10.2199L16.8736 10.3972Z" fill="#5D5D5D"/>
<path d="M5.53824 9.95386C5.78101 9.82443 5.95505 9.9707 5.806 10.2198C5.64713 10.3767 5.53021 10.5753 5.35974 10.5744C5.31601 10.4007 5.22051 10.2491 5.27138 10.0416C5.44185 10.2172 5.51415 9.95031 5.53824 9.95386Z" fill="#5D5D5D"/>
<path d="M5.53845 9.95379L5.76247 9.42188L5.89724 9.95291L5.9856 9.86425C6.01059 9.78712 6.04094 9.78801 6.07485 9.86425C5.99542 9.96532 5.96061 10.0673 5.8071 10.2189C5.83566 9.93429 5.77318 10.1151 5.62413 10.077C5.55987 10.0611 5.54648 9.95379 5.53934 9.95291L5.53845 9.95379Z" fill="#5D5D5D"/>
<path d="M0.629691 2.59562C0.742148 2.72505 0.692167 2.77381 0.540439 2.68427C0.527944 2.67895 0.386034 2.788 0.369076 2.76849C0.35301 2.41477 -0.00578117 2.35182 0.361936 2.15235C0.334268 1.96973 0.411024 1.93072 0.540439 2.0637C0.830507 2.04774 0.914403 2.51672 0.629691 2.59562Z" fill="#5D5D5D"/>
<path d="M10.09 10.3086C10.1328 10.3556 10.1328 10.415 10.09 10.4859C10.2658 10.5312 10.2631 10.6109 10.09 10.6632C10.0472 10.7138 9.98825 10.7138 9.91149 10.6632C9.76423 10.5436 9.60625 10.4274 9.46523 10.3086C9.37331 10.2014 9.45542 10.1508 9.71246 10.1579C9.69372 10.0214 9.7321 10.0161 9.82224 10.1313C9.93202 9.83345 10.1444 10.087 10.09 10.3086Z" fill="#5D5D5D"/>
<path d="M2.59363 12.9681C2.67931 12.9858 2.67931 13.0452 2.59363 13.1454C2.43387 13.2881 2.30892 13.4406 2.14737 13.5887C1.95548 13.4043 1.92603 13.2864 2.05812 13.2341C1.89033 12.961 2.18932 12.9149 2.41513 12.9681C2.48028 12.8617 2.54811 12.8511 2.59363 12.9681Z" fill="#5D5D5D"/>
<path d="M19.9081 5.96469C19.9197 5.98597 19.8991 6.02409 19.9081 6.05334L19.6412 6.3193C19.7804 5.93455 19.2101 6.19785 19.3734 5.78738C19.3966 5.72887 19.7233 6.23331 19.6403 5.69873C19.7206 5.78827 19.817 5.79359 19.9081 5.96469Z" fill="#5D5D5D"/>
<path d="M9.46537 9.68781C9.7483 9.58852 9.98214 9.89172 9.82238 10.1311L9.46537 10.3084C9.2235 10.1054 9.34131 10.0415 9.28687 9.95377C9.31186 9.87664 9.3422 9.87753 9.37612 9.95377C9.47608 10.0336 9.47608 10.0336 9.37612 9.95377C9.22796 9.90147 9.35202 9.74455 9.46537 9.68781Z" fill="#5D5D5D"/>
<path d="M14.9101 12.0814C14.8994 12.2817 14.9101 12.3083 15.085 12.4085L15.0886 12.5246C14.9752 12.5982 14.8771 12.6913 14.7316 12.7019C14.6513 12.686 14.6548 12.6558 14.7316 12.6133C14.8324 12.4776 14.803 12.3597 14.6423 12.2587C14.496 12.2197 14.3826 12.2702 14.3755 12.2587C14.2211 12.0016 14.7155 12.0885 14.9101 12.0814Z" fill="#5D5D5D"/>
<path d="M5.36024 10.5747C5.37273 10.6243 5.3522 10.6953 5.36024 10.752C5.29687 10.8468 5.20761 10.9355 5.09248 11.0179C4.98627 11.0499 4.80866 11.2032 4.73547 11.0179C4.7685 10.9914 4.79973 10.9435 4.82473 10.9293C4.76403 10.8123 4.77742 10.7414 4.91398 10.6633C4.77207 10.4249 5.00412 10.2564 5.18173 10.486C5.19155 10.486 5.27902 10.5747 5.36024 10.5747Z" fill="#5D5D5D"/>
<path d="M15.3561 1.79764L15.4444 1.70898L15.49 1.97583L15.6238 1.79764C15.7042 1.87299 15.8175 1.98381 15.8916 2.0636C15.7872 2.3136 15.4016 2.33931 15.6256 2.0636C15.3677 2.10083 15.3132 2.0565 15.3561 1.79675V1.79764Z" fill="#5D5D5D"/>
<path d="M11.2508 11.1065C11.4748 11.2031 11.4721 11.2678 11.2508 11.3724C11.3811 11.4248 11.3633 11.6748 11.3401 11.8157C11.3151 11.8928 11.2847 11.892 11.2508 11.8157C11.2124 11.7909 11.1517 11.7971 11.0723 11.7271C11.0705 11.6588 11.0375 11.6659 10.983 11.7271C10.8822 11.6242 10.859 11.5232 10.8045 11.4611C10.7671 11.2607 10.8269 11.2315 10.983 11.3724C10.9884 11.2785 11.0187 11.1898 11.0723 11.1065C11.1009 10.8707 11.183 10.8813 11.2508 11.1065Z" fill="#5D5D5D"/>
<path d="M14.7311 12.5247C14.782 12.554 14.782 12.5841 14.7311 12.6134C14.7293 12.6427 14.7311 12.6728 14.7311 12.7021C14.7311 12.7145 14.6445 12.765 14.641 12.8404C14.6365 12.9556 14.7454 13.1267 14.7311 13.1444C14.7168 13.1622 14.6026 13.132 14.5517 13.1444C14.4741 13.1196 14.475 13.0895 14.5517 13.0558C14.5821 12.8466 14.2857 12.8811 14.3732 12.6125C14.2956 12.5877 14.2965 12.5576 14.3732 12.5239C14.4473 12.5522 14.6311 12.5044 14.7302 12.5239L14.7311 12.5247Z" fill="#5D5D5D"/>
<path d="M10.4474 10.6629C10.5929 10.7684 10.65 10.889 10.4474 10.9289H10.3581C10.2778 10.8686 10.1448 10.8526 9.91187 10.6629C9.96899 10.6549 10.0386 10.6744 10.0904 10.6629C10.1314 10.4626 10.4268 10.4705 10.4474 10.6629Z" fill="#5D5D5D"/>
<path d="M1.70069 13.5887C1.95506 13.5177 1.98005 13.7021 1.78994 13.8546C1.37135 14.1445 1.63821 13.953 1.34368 14.0319C1.33208 13.9477 1.36064 13.8422 1.34368 13.766C1.36867 13.6888 1.39902 13.6897 1.43293 13.766C1.58734 13.7615 1.61679 13.7323 1.52219 13.6773C1.45882 13.4406 1.532 13.4149 1.70069 13.5887Z" fill="#5D5D5D"/>
<path d="M12.0536 1.62051C11.9706 1.59303 11.8001 1.63913 11.6966 1.62051C11.685 1.06732 11.8358 1.32707 11.9643 1.17725C12.0875 1.2526 12.216 1.57175 12.0536 1.62051Z" fill="#5D5D5D"/>
<path d="M9.28696 9.51039C9.40031 9.44568 9.55471 9.5822 9.46546 9.6877C9.40834 9.78078 9.29856 9.89337 9.1977 9.86501C9.12452 9.80561 8.96833 9.79763 8.8407 9.6877C8.91031 9.49 9.09864 9.52635 9.28696 9.51039Z" fill="#5D5D5D"/>
<path d="M3.84258 5.34382C4.04162 5.26315 4.13087 5.38194 4.11034 5.69843C4.09874 5.77999 4.15764 5.94134 4.06571 5.96439C3.96486 5.73478 3.71763 5.61244 3.57483 5.43247C3.65426 5.37662 3.7569 5.37574 3.84258 5.34382Z" fill="#5D5D5D"/>
<path d="M1.07567 2.50692C0.891813 2.55834 0.933761 2.70905 0.897168 2.77288C0.850757 2.85533 0.818626 2.92005 0.718664 2.95019C0.550871 2.82164 0.555334 2.69043 0.540161 2.68423C0.574077 2.66207 0.599067 2.61419 0.629413 2.59558C0.620488 2.28263 0.943579 2.23298 1.07567 2.50692Z" fill="#5D5D5D"/>
<path d="M0.272375 1.70898C0.627597 1.78345 0.491042 1.86856 0.54013 2.0636C0.480332 2.08399 0.417856 2.12211 0.361627 2.15225C0.161703 2.20012 0.154563 2.03877 0.0938721 1.88629C0.126003 1.81005 0.185801 1.75065 0.272375 1.70898Z" fill="#5D5D5D"/>
<path d="M1.79019 13.4116C1.96691 13.3007 2.08651 13.3601 2.1472 13.5889C1.9678 13.7538 1.95709 13.7387 1.79019 13.8548L1.70094 13.5889C1.50102 13.4399 1.54118 13.3779 1.79019 13.4116Z" fill="#5D5D5D"/>
<path d="M10.8043 11.1066C10.9524 11.1518 11.1336 11.2209 10.9828 11.3725C10.9355 11.3929 10.8855 11.4709 10.8043 11.4612C10.6811 11.3202 10.4517 10.9993 10.358 10.9293H10.4473C10.5303 10.7023 10.7516 10.9479 10.8043 11.1066Z" fill="#5D5D5D"/>
<path d="M2.95016 12.6135C3.03138 12.5993 3.13223 12.6233 3.21792 12.6135C3.00193 12.7944 2.80289 12.9584 2.59315 13.1454C2.60208 13.0887 2.58066 13.0169 2.59315 12.9681C2.48159 12.8804 2.56459 12.8343 2.68241 12.7908C2.71543 12.789 2.73774 12.6507 2.95016 12.6135Z" fill="#5D5D5D"/>
<path d="M12.2325 12.3476C12.378 12.4026 12.4003 12.5843 12.3218 12.7022C12.2959 12.7341 12.2575 12.7581 12.2325 12.7909C12.1683 12.7111 12.0639 12.6907 11.9648 12.5249C11.9443 12.4903 11.9853 12.3813 11.9648 12.3476C11.9844 12.1579 12.1103 12.2456 12.2325 12.3476Z" fill="#5D5D5D"/>
<path d="M7.50208 8.62426C7.52171 8.62958 7.7136 8.51433 7.85551 8.71025C7.83766 8.42124 8.01259 8.57461 8.21609 8.62426C8.07061 8.69429 7.89568 8.71202 7.94833 8.89022C7.82249 8.81397 7.60293 8.80245 7.50208 8.62426Z" fill="#5D5D5D"/>
<path d="M5.27099 6.23048C5.30134 6.23492 5.33436 6.22339 5.36024 6.23048C5.5441 6.39095 5.51465 6.4202 5.27099 6.40779C5.24064 6.4991 5.18085 6.58775 5.09249 6.67375C4.94254 6.57623 4.88899 6.45478 4.82473 6.40779C4.72566 6.32534 4.89524 6.26063 5.00324 6.23048C5.08535 6.22605 5.19423 6.21985 5.27099 6.23048Z" fill="#5D5D5D"/>
<path d="M6.07381 9.3335C6.14254 9.44431 6.19341 9.54183 6.34157 9.5108C6.24161 9.65176 6.17824 9.73332 6.07381 9.86541H5.98456C5.96582 9.75637 6.07649 9.37605 6.07381 9.3335Z" fill="#5D5D5D"/>
<path d="M5.44918 6.49626C5.5179 6.55743 5.29031 6.5929 5.62768 6.67357C5.70533 6.69839 5.70444 6.72853 5.62768 6.76222C5.77405 6.8163 5.67498 6.9741 5.53843 6.93953V7.02818C5.25193 6.62481 5.36528 6.87304 5.18142 6.76222C5.06272 6.58758 5.28406 6.36594 5.44918 6.49626Z" fill="#5D5D5D"/>
<path d="M13.3928 13.3226L13.6142 13.0566C13.8391 13.077 13.8739 13.3616 13.9283 13.4113C13.8712 13.4192 13.8016 13.3997 13.7498 13.4113C13.8034 13.5815 13.7043 13.6231 13.5713 13.4999C13.5535 13.476 13.591 13.4192 13.4821 13.3226H13.3928Z" fill="#5D5D5D"/>
<path d="M16.3376 10.4858L16.7848 10.5754L16.6946 10.8405C16.6705 10.8458 16.6313 10.8431 16.6054 10.8405C16.4813 10.9406 16.3742 10.9007 16.3376 10.7518C16.3278 10.6658 16.3519 10.5665 16.3376 10.4858Z" fill="#5D5D5D"/>
<path d="M4.11077 5.2555C4.22323 5.27146 4.22501 5.30604 4.28928 5.34416C4.11613 5.4266 4.14023 5.46472 4.11077 5.61012C4.10542 5.63848 4.11434 5.66951 4.11077 5.69877L3.84302 5.34416C3.87515 5.33175 3.90906 5.25994 3.93227 5.2555C3.96886 5.12075 4.02063 5.15976 4.11077 5.2555Z" fill="#5D5D5D"/>
<path d="M4.28921 3.21639C4.40703 3.27668 4.61677 3.47526 4.73547 3.571C4.68549 3.58164 4.57125 3.55505 4.55697 3.571C4.38293 3.86356 4.05537 3.46639 4.11071 3.21639C4.14909 3.16941 4.20799 3.16941 4.28921 3.21639Z" fill="#5D5D5D"/>
<path d="M13.3928 13.3225C13.4142 13.3367 13.466 13.3083 13.482 13.3225C13.4517 13.3996 13.3241 13.3907 13.3035 13.4111C13.3214 13.5539 13.291 13.5831 13.2143 13.4998C13.1366 13.3154 13.0724 13.3588 12.9465 13.3225C12.9064 12.9617 13.2071 13.2019 13.3928 13.3225Z" fill="#5D5D5D"/>
<path d="M10.9829 2.50697C11.057 2.63995 10.7589 2.8075 10.6259 2.68427C10.4376 2.66566 10.4715 2.51406 10.6259 2.41831C10.6223 2.38906 10.6322 2.35714 10.6259 2.32966C10.7812 2.31459 10.9365 2.34384 10.9829 2.50697Z" fill="#5D5D5D"/>
<path d="M7.94833 5.07812C7.93495 5.12954 7.96172 5.20401 7.94833 5.25543C7.87336 5.44781 7.65113 5.53557 7.50208 5.34408C7.55741 5.28735 7.77697 5.25898 7.83052 5.0799L7.94833 5.07812Z" fill="#5D5D5D"/>
<path d="M1.25438 1.35455C1.22493 1.42991 1.19548 1.42991 1.16513 1.35455C1.00091 1.75526 0.851857 1.84392 0.718872 1.62051C0.75725 1.57441 0.789381 1.33416 0.897375 1.2659C1.0143 1.26413 1.19458 1.22423 1.25438 1.35455Z" fill="#5D5D5D"/>
<path d="M8.39431 4.45724C8.60405 4.30299 8.6692 4.42444 8.57281 4.63455C8.79326 4.62214 8.82985 4.83668 8.75131 4.98916C8.66028 5.0131 8.538 5.17977 8.39431 5.16647C8.69776 4.61859 8.44696 4.99537 8.30505 4.5459C8.33361 4.51398 8.36574 4.48739 8.39431 4.45724Z" fill="#5D5D5D"/>
<path d="M4.1104 3.12782C4.23 3.14821 4.23179 3.18721 4.28891 3.21647C4.23268 3.22533 4.15771 3.20317 4.1104 3.21647C4.16306 3.34679 4.14164 3.38757 4.02115 3.30512C3.99259 3.31044 3.96135 3.30246 3.9319 3.30512C3.84354 3.31221 3.75251 3.30158 3.66504 3.30512V3.1287C3.80606 3.14377 3.97742 3.10565 4.1104 3.1287V3.12782Z" fill="#5D5D5D"/>
<path d="M11.6966 1.79769C11.7412 1.80744 11.8269 1.85886 11.8751 1.88634C12.2053 2.29858 11.5672 2.6328 11.6073 2.1523C11.5716 2.10532 11.5716 2.04681 11.6073 1.975C11.5288 1.94485 11.4824 1.87305 11.5181 1.79769C11.5752 1.80567 11.6448 1.78617 11.6966 1.79769Z" fill="#5D5D5D"/>
<path d="M5.36016 10.752C5.36998 10.752 5.38515 10.8477 5.43245 10.8291C5.45655 10.8202 5.67254 10.3433 5.80642 10.4869C5.72252 10.9426 5.49136 10.8974 5.0924 11.0179C5.06831 10.7032 5.07188 10.7449 5.36016 10.752Z" fill="#5D5D5D"/>
<path d="M0.808452 12.436C0.872714 12.4555 0.985171 12.3917 0.987848 12.4803L0.808452 12.6133C0.618346 12.6772 0.69778 12.8332 0.451446 12.702C0.418423 12.5486 0.544267 12.3624 0.719201 12.436C0.749546 12.4413 0.783462 12.4289 0.808452 12.436Z" fill="#5D5D5D"/>
<path d="M11.5181 1.97494C11.5985 1.99622 11.5967 2.02636 11.5181 2.0636C11.3164 2.23647 11.2299 2.02813 11.2504 1.79764C11.2959 1.76129 11.3762 1.74356 11.4289 1.70898C11.4798 1.78611 11.5306 1.88895 11.5181 1.97494Z" fill="#5D5D5D"/>
<path d="M0.719067 12.4364L0.451312 12.7023C0.415612 12.6837 0.388836 12.6438 0.362061 12.6137C0.428999 12.502 0.442387 12.3575 0.452205 12.3477C0.504863 12.2981 0.669086 12.4275 0.719067 12.4364Z" fill="#5D5D5D"/>
<path d="M15.6242 11.9928C15.5689 12.0486 15.5332 12.0868 15.4457 12.0814C15.46 11.9839 15.3726 11.8882 15.3565 11.8155C15.2788 11.7889 15.2797 11.7596 15.3565 11.7268C15.41 11.71 15.493 11.6382 15.535 11.6382C15.7072 11.6807 15.6814 11.8563 15.6242 11.9928Z" fill="#5D5D5D"/>
<path d="M13.4819 13.7657C13.4391 13.7143 13.1508 14.2108 13.2141 13.6771C13.2213 13.6204 13.199 13.5352 13.2141 13.4998C13.2445 13.4262 13.2766 13.4377 13.3034 13.4111C13.315 13.5556 13.4069 13.6532 13.4819 13.7657Z" fill="#5D5D5D"/>
<path d="M1.87906 4.10282C1.99598 4.14715 1.96831 4.45389 1.83443 4.45566C1.64075 4.45744 1.71662 4.04165 1.87906 4.10282Z" fill="#5D5D5D"/>
<path d="M6.60981 5.16656C6.59107 5.1577 6.40007 5.12312 6.25281 5.07791V4.98926C6.31885 5.02827 6.57679 4.9538 6.60981 5.16656Z" fill="#5D5D5D"/>
<path d="M15.6237 11.9928C15.546 11.8846 15.5505 11.7623 15.5344 11.6382C15.8745 11.64 15.8084 11.8075 15.6237 11.9928Z" fill="#5D5D5D"/>
<path d="M10.6258 2.41834C10.6356 2.50256 10.6258 2.59742 10.6258 2.6843C10.5365 2.68519 10.3812 2.71001 10.358 2.59565C10.4357 2.49724 10.4535 2.4077 10.6258 2.41834Z" fill="#5D5D5D"/>
<path d="M14.5532 13.057V13.1456C14.513 13.1562 14.4782 13.1944 14.4639 13.2343C14.4068 13.1811 14.1712 13.1624 14.1962 13.1013C14.2604 12.9461 14.4336 12.9506 14.5532 13.057Z" fill="#5D5D5D"/>
<path d="M8.66229 4.54623C8.78099 4.67123 8.73101 4.71645 8.57303 4.63489C8.53376 4.54535 8.673 4.41148 8.39453 4.45758C8.45522 4.39464 8.51234 4.34056 8.57303 4.28027C8.68728 4.32903 8.64265 4.52318 8.66229 4.54623Z" fill="#5D5D5D"/>
<path d="M5.44918 6.49651C5.36349 6.41938 5.13858 6.6153 5.18142 6.76247C5.14304 6.73942 5.11984 6.69155 5.09217 6.67382C5.06718 6.4974 5.2082 6.47967 5.27067 6.40786C5.37063 6.25183 5.53129 6.34048 5.44918 6.49651Z" fill="#5D5D5D"/>
<path d="M12.6788 0.73407C12.6788 0.791694 12.6698 0.859071 12.6788 0.911376C12.727 0.936199 12.7252 0.965454 12.6788 1.00003L12.411 0.911376C12.4887 0.853751 12.5092 0.68797 12.6788 0.73407Z" fill="#5D5D5D"/>
<path d="M10.447 8.80156C10.6711 8.90617 10.7898 9.05422 10.804 9.24483C10.8567 9.28561 10.9156 9.31486 10.9825 9.33348H11.0718C11.3217 9.23862 11.6252 9.51611 11.3395 9.68809L10.7201 9.83437C10.605 10.0649 10.3747 10.0179 10.2534 9.84767C10.4649 10.337 10.4104 10.4904 10.09 10.3078C10.0677 10.1482 9.86333 10.1668 9.82227 10.1305C9.72052 10.0409 9.67858 9.8654 9.46526 9.68721C9.49829 9.78472 9.37601 9.90884 9.37601 9.95316H9.28676C9.27873 9.94075 9.21715 9.88047 9.19751 9.86451C9.25642 9.73685 9.31621 9.65795 9.46526 9.68721C9.41707 9.64731 9.38405 9.53206 9.28676 9.5099C9.2939 9.5099 9.31711 9.41504 9.39922 9.43543C9.50811 9.46291 9.52774 9.60033 9.73481 9.56309C10.0409 9.50724 9.78479 9.24306 10.0445 9.2404C10.3373 9.23774 10.5497 9.50635 10.58 9.50813C10.622 9.51079 10.7737 9.37426 10.622 9.28827C10.3542 9.13667 10.3462 9.28206 10.2676 8.80068C10.281 8.58614 10.3908 8.59234 10.4461 8.80068L10.447 8.80156Z" fill="#5D5D5D"/>
<path d="M16.6057 10.8405C16.5512 10.8981 16.4691 10.9522 16.4272 11.0178C16.3085 11.1933 16.2496 10.9761 16.3379 10.8405C16.3352 10.8112 16.3415 10.7811 16.3379 10.7518C16.4423 10.7031 16.5771 10.8378 16.6057 10.8405Z" fill="#5D5D5D"/>
<path d="M13.3928 0.202079C13.4151 0.194101 13.5312 -0.0842697 13.6597 0.0256599C13.815 0.157753 13.4651 0.267682 13.3928 0.290732V0.202079Z" fill="#5D5D5D"/>
<path d="M9.10845 3.92557C9.1504 4.03638 9.1504 4.14011 9.0192 4.10287C8.9951 4.08071 8.8764 4.07982 8.8407 4.01422C8.90496 3.95394 8.95762 3.8972 9.0192 3.83691H9.10845C9.1861 3.86174 9.18521 3.89188 9.10845 3.92557Z" fill="#5D5D5D"/>
<path d="M16.4274 11.0176C16.414 11.038 16.4533 11.1311 16.4077 11.1754C16.3622 11.2198 16.2676 11.1825 16.2489 11.1949V11.1063C16.1043 11.116 16.115 10.8705 16.2489 10.8403H16.3381C16.3444 10.9166 16.3408 10.9902 16.4274 11.0176Z" fill="#5D5D5D"/>
<path d="M5.00337 8.00342L5.09173 8.04774C5.16224 8.35448 4.87128 8.3864 4.91412 8.09207C4.94357 8.06193 4.97481 8.03356 5.00337 8.00342Z" fill="#5D5D5D"/>
<path d="M3.48567 5.25529C3.34376 5.19855 3.2429 5.06735 3.12866 4.98933H3.21791C3.49102 4.96185 3.42766 5.16664 3.48567 5.25529Z" fill="#5D5D5D"/>
<path d="M0.272679 1.70934C0.294099 1.89817 0.284282 1.90792 0.0941757 1.88665C0.080788 1.85207 -0.0236365 1.81572 0.00492407 1.70934C0.0897131 1.71998 0.195923 1.69338 0.272679 1.70934Z" fill="#5D5D5D"/>
<path d="M11.5183 1.79779C11.5406 1.85896 11.5879 1.91658 11.6075 1.97509C11.5825 2.05222 11.5522 2.05133 11.5183 1.97509C11.512 1.93609 11.3817 1.81818 11.429 1.70913V1.53271H11.5174C11.5334 1.6125 11.496 1.7375 11.5183 1.79779Z" fill="#5D5D5D"/>
<path d="M13.7494 13.4111C13.7887 13.6283 13.9538 13.7072 13.6602 13.6771C13.5602 13.5946 13.5923 13.529 13.5709 13.4998C13.6298 13.4794 13.6941 13.4235 13.7494 13.4111Z" fill="#5D5D5D"/>
<path d="M1.25413 1.4431C1.45048 1.75959 1.54866 1.70818 1.78964 1.97502C1.53527 2.2135 1.27108 2.25339 1.25234 2.59559C1.18183 2.61776 1.18183 2.51049 1.16488 2.50694C0.933713 2.46084 0.837321 2.08229 1.07562 1.97502C0.995297 1.95906 0.998867 1.92892 1.07562 1.88637C1.13988 1.80747 1.17023 1.71881 1.16488 1.62041C0.866774 1.65232 0.972091 1.46615 1.16488 1.35445C1.19433 1.36154 1.24074 1.34293 1.25413 1.35445C1.2693 1.36686 1.24074 1.42094 1.25413 1.4431Z" fill="#5D5D5D"/>
<path d="M13.4823 13.7661C13.5251 13.8308 13.7492 13.8619 13.6599 14.1207C13.493 14.0879 13.4823 13.908 13.4823 13.7661Z" fill="#5D5D5D"/>
<path d="M5.00323 6.23036L4.82473 6.40767C4.78902 6.38196 4.76493 6.34206 4.73547 6.31901C4.77921 6.20288 4.90594 6.23479 5.00323 6.23036Z" fill="#5D5D5D"/>
<path d="M11.0723 11.7269C11.0553 11.7118 10.9973 11.742 10.983 11.7269C10.992 11.6125 11.0277 11.4804 11.1606 11.4609V11.6817L11.0723 11.7269Z" fill="#5D5D5D"/>
<path d="M11.429 11.8158C11.4317 11.8335 11.5013 11.9018 11.5182 11.9931C11.1871 12.0179 11.2674 11.8273 11.2505 11.8158H11.3397C11.3647 11.7387 11.3951 11.7396 11.429 11.8158Z" fill="#5D5D5D"/>
<path d="M3.48577 12.3475C3.45364 12.3732 3.42865 12.4096 3.39652 12.4362L3.21802 12.2598H3.44025L3.48577 12.3475Z" fill="#5D5D5D"/>
<path d="M1.70072 1.35461C1.82389 1.45212 1.7623 1.55142 1.61147 1.53191C1.4642 1.2695 1.45617 1.20035 1.70072 1.35461Z" fill="#5D5D5D"/>
<path d="M1.87908 1.5318C1.83535 1.5318 1.70772 1.63641 1.61133 1.62045V1.5318L1.70058 1.35449C1.77823 1.40325 1.84517 1.43694 1.87908 1.5318Z" fill="#5D5D5D"/>
<path d="M17.9441 4.01429C18.1217 4.18894 18.3047 4.36802 18.4796 4.54621C18.518 4.64018 18.518 4.72883 18.4796 4.81217C18.4564 4.87511 18.4261 4.87334 18.3904 4.81217C17.9352 4.91235 17.5836 4.64018 18.1226 4.45578C18.0762 4.09851 17.7183 4.61979 17.6764 4.3228C17.6639 4.23326 17.7603 3.94603 17.9441 4.01429Z" fill="#5D5D5D"/>
<path d="M17.2305 3.03917C17.3099 3.08971 17.409 3.30159 17.4536 3.30336C17.5277 3.30691 17.6964 3.10123 17.4072 3.08527C17.5081 3.04449 17.4893 2.87073 17.4982 2.86098C17.5277 2.83173 18.2435 2.9913 18.2997 3.08439C18.4077 3.26347 18.0302 3.103 18.0516 3.29893C17.7696 3.26169 17.683 3.38847 17.6767 3.65886L18.1221 3.48244L17.8543 3.74751C17.8258 3.71914 17.5277 3.59148 17.4081 3.48155C17.2448 3.47003 17.0306 3.19875 16.9618 3.03829C16.8842 3.01346 16.8851 2.98332 16.9618 2.94963C17.0868 2.80779 17.2314 2.82375 17.2296 3.03829L17.2305 3.03917Z" fill="#5D5D5D"/>
<path d="M16.8736 2.86175L17.5876 2.59668C17.4216 2.86796 17.2083 2.63125 17.2306 3.03906C17.1449 2.98498 17.0066 2.98055 16.9629 2.9504C16.8334 3.07895 16.7736 3.01867 16.8736 2.86175Z" fill="#5D5D5D"/>
<path d="M19.0155 5.07796C19.07 5.13647 19.1342 5.19144 19.194 5.25527C18.8245 5.53186 18.8933 5.07708 18.6594 5.25527V4.98931C18.7701 4.94853 18.8888 4.97867 19.0155 5.07796Z" fill="#5D5D5D"/>
<path d="M16.8734 2.86171C16.9046 2.89539 16.9162 2.91844 16.9626 2.95036V3.03901C17.0001 3.23582 16.9323 3.25001 16.7841 3.12767C16.6994 3.08511 16.4459 3.22341 16.5155 2.99557C16.5441 2.90426 16.8573 3.03103 16.7841 2.77305C16.8109 2.72429 16.8404 2.72518 16.8734 2.77305C16.8877 2.79167 16.8582 2.84575 16.8734 2.86171Z" fill="#5D5D5D"/>
<path d="M18.7476 4.81221C18.8333 4.90175 18.9137 4.97001 19.0154 5.07817L18.9717 5.16505C18.8913 5.03561 18.7673 5.0365 18.6584 4.98952C18.6334 4.97888 18.595 5.00015 18.5691 4.98952C18.4103 4.91682 18.6263 4.74927 18.7476 4.81221Z" fill="#5D5D5D"/>
<path d="M18.7475 4.81207L18.569 4.98938C18.4806 4.95392 18.4226 4.9025 18.3905 4.81207C18.4208 4.80587 18.4557 4.82094 18.4798 4.81207C18.4744 4.71012 18.5039 4.65072 18.569 4.63477C18.627 4.69416 18.6877 4.75001 18.7475 4.81207Z" fill="#5D5D5D"/>
<path d="M16.4269 2.41857C16.4394 2.39818 16.4162 2.05864 16.6045 2.24126C16.6268 2.26254 16.7357 2.59056 16.8731 2.77318H16.7839L16.4269 2.41857Z" fill="#5D5D5D"/>
<path d="M18.5692 4.63455C18.5772 4.72586 18.5772 4.77728 18.4799 4.81186L18.3987 4.5982L18.4799 4.5459C18.5094 4.57604 18.5397 4.60441 18.5692 4.63455Z" fill="#5D5D5D"/>
<path d="M11.5184 3.39366C11.5273 3.31209 11.5585 3.31741 11.6076 3.39366C11.7299 3.18887 11.7665 3.16848 11.8754 3.39366C12.1422 3.46901 12.0592 3.68976 11.7861 3.65961C11.8781 3.77664 11.704 3.8511 11.6076 3.74827C11.4488 4.20394 11.2997 4.32185 11.1614 4.10288C11.0864 4.29348 11.0436 4.34933 10.8936 4.19153C10.7535 4.44153 10.6044 4.55944 10.4473 4.54614C10.4741 4.3715 10.3161 4.2855 10.2688 4.19153C10.1412 4.24916 10.1046 4.01157 10.1796 3.92557C10.2082 3.68178 10.3269 3.70749 10.5268 3.80146C10.7347 3.38124 11.09 2.93975 11.5184 3.39366Z" fill="#5D5D5D"/>
<path d="M9.10842 3.83707C9.3378 3.73423 9.45204 3.99665 9.46543 4.19168C9.46811 4.22626 9.33869 4.34239 9.37618 4.3681C9.86349 4.18282 9.54843 4.37608 9.54843 4.5853C9.54843 4.64736 9.80459 4.59594 9.73229 4.76615C9.60377 5.0392 9.13698 4.6181 9.19678 5.16686C9.01025 5.23247 8.9799 5.01261 8.92992 4.98956C8.70679 4.70853 8.70679 4.61988 8.92992 4.7236C8.98258 4.71207 9.07451 4.74044 9.10842 4.7236C9.04773 4.5525 9.07719 4.40445 9.19768 4.28033C9.09861 4.20143 9.0995 4.04895 9.10842 3.92572V3.83707Z" fill="#5D5D5D"/>
<path d="M10.8935 4.19154C10.9819 4.29615 11.031 4.37594 10.8935 4.4575C11.0497 4.48941 11.1095 4.54881 11.072 4.63481C11.0131 4.65165 10.9399 4.71725 10.8935 4.72346C10.8712 4.80236 10.8417 4.7997 10.8043 4.72346C10.7391 4.80147 10.6936 4.88481 10.715 4.98942C10.7989 4.96459 10.8293 4.99385 10.8043 5.07807C10.69 5.19598 10.5874 5.07984 10.5312 5.12151C10.4955 5.14811 10.3973 5.37949 10.2688 5.52134C10.2393 5.41318 10.3964 5.14367 10.3473 5.08782C10.3071 5.04172 10.1393 5.14101 10.1795 4.9903C10.5053 4.98853 10.3705 4.75626 10.4473 4.54527C10.4687 4.48764 10.7132 4.12948 10.7373 4.11707C10.8221 4.07452 10.8828 4.1942 10.8935 4.19065V4.19154Z" fill="#5D5D5D"/>
<path d="M4.91374 10.2199C4.94766 10.3697 4.94766 10.5178 4.91374 10.6631C4.89946 10.7403 5.02352 10.9069 5.00389 10.9282C4.98425 10.9495 4.86108 10.9096 4.82449 10.9282C4.47373 11.0053 4.60315 10.8121 4.50408 10.6756C4.45945 10.6135 4.38448 10.5851 4.37823 10.5736C4.15957 10.649 4.13547 10.5665 4.28898 10.3963C4.00605 9.66137 4.72096 10.1977 4.91374 10.219V10.2199Z" fill="#5D5D5D"/>
<path d="M9.19785 6.67377C8.98365 6.9681 9.10413 6.99204 9.1086 7.20569C9.16036 7.26775 9.18982 7.3564 9.19785 7.47165C9.2987 7.44683 9.41027 7.46012 9.4656 7.5603C9.56467 7.55676 9.6209 7.71988 9.64411 7.82626C10.1689 8.12945 9.40938 8.13477 9.19785 7.73761C8.9408 7.59488 8.96847 7.50445 8.93009 7.47165C8.74981 7.39984 8.73999 7.20037 8.90243 6.87413C8.74356 6.76509 8.8337 6.71899 9.01935 6.67377C9.0247 6.6454 9.01399 6.61349 9.01935 6.58512C9.14341 6.36881 9.24694 6.43884 9.19785 6.67377Z" fill="#5D5D5D"/>
<path d="M1.07567 1.97522C1.0837 2.13213 1.2033 2.32451 1.16492 2.50713C1.13993 2.50093 1.10602 2.50802 1.07567 2.50713C0.909663 2.50182 0.776678 2.50713 0.629413 2.59579C0.644586 2.4105 0.583894 2.2394 0.540161 2.06387C0.619595 2.03727 0.76329 2.01688 0.897168 1.97522C0.909663 1.73408 0.998915 1.74738 1.07567 1.97522Z" fill="#5D5D5D"/>
<path d="M5.44893 8.00371C5.53015 7.85832 5.59619 7.82995 5.62743 8.00371H5.71668C5.73007 8.02055 5.87555 7.96647 5.89608 8.04626C5.78005 8.22357 5.70954 8.38137 5.47749 8.42392C5.38377 8.44076 5.29363 8.35654 5.26953 8.35832C5.27132 7.89998 5.41055 8.04981 5.44803 8.00371H5.44893Z" fill="#5D5D5D"/>
<path d="M9.64382 6.23025C9.62865 6.24355 9.6456 6.35792 9.59295 6.40579C9.46621 6.52104 9.34929 6.4643 9.19756 6.67352L9.01906 6.58487C9.04494 6.43593 9.00656 6.24267 9.01906 6.23025C9.04405 6.20809 9.48584 6.37476 9.64382 6.1416C9.68041 6.16908 9.67952 6.19923 9.64382 6.23025Z" fill="#5D5D5D"/>
<path d="M5.18172 10.4858C5.12639 10.4875 4.92736 10.5877 4.91397 10.6631C4.74975 10.6613 4.59445 10.7198 4.64532 10.531C4.66942 10.4423 4.75778 10.5132 4.80151 10.4689C4.8149 10.4547 4.68459 10.2774 4.91397 10.2198C4.99965 10.2295 5.1612 10.109 5.18083 10.1311V10.4858H5.18172Z" fill="#5D5D5D"/>
<path d="M9.01949 6.67362C8.97398 6.92805 8.82314 7.23125 8.93024 7.4715C8.91953 7.46263 8.74014 7.60359 8.66338 7.42628C8.59823 7.27469 8.74638 7.28001 8.84099 7.29419L8.66338 7.20554L8.84188 6.8527C8.81243 6.80837 8.46256 7.11334 8.57413 6.71972C8.60269 6.62043 8.91328 6.69756 9.02128 6.67451L9.01949 6.67362Z" fill="#5D5D5D"/>
<path d="M10.0013 3.8367C10.029 3.75691 10.0584 3.75691 10.0906 3.8367C10.1254 3.9218 10.1593 4.03617 10.0906 4.10266C10.0049 4.19308 9.99774 4.22588 10.0013 4.36861C9.94151 4.39698 9.896 4.51844 9.73356 4.45638C9.8835 4.15407 9.83263 4.21613 9.55505 4.10266C9.62021 4.04592 9.80585 3.84467 9.82281 3.8367C9.84958 3.82428 9.94865 3.8367 10.0013 3.8367Z" fill="#5D5D5D"/>
<path d="M10.1794 5.60993C9.91964 5.9282 9.96249 5.94859 9.64386 6.2305V6.14185L9.734 6.09752C9.39306 5.99823 9.49838 5.78103 9.82147 5.96454C9.86877 5.84664 9.73668 5.74468 9.73311 5.69858C9.75453 5.49557 9.83843 5.51153 9.91161 5.69858C9.98926 5.68174 10.083 5.60816 10.1794 5.60993Z" fill="#5D5D5D"/>
<path d="M9.91152 7.91488C10.0633 8.0851 10.0633 8.17375 9.91152 8.18084C9.89457 8.44414 9.7598 8.44326 9.73302 8.18084C9.62503 8.31205 9.50543 8.25797 9.55452 8.09219C9.41975 8.02659 9.27516 7.96719 9.19751 7.82623V7.73758C9.32157 7.80673 9.83655 8.1507 9.73213 7.87233C9.72231 7.84574 9.6518 7.84662 9.64377 7.82623C9.59289 7.74112 9.59289 7.68173 9.64377 7.64893C9.73927 7.73669 9.82495 7.83953 9.91152 7.91488Z" fill="#5D5D5D"/>
<path d="M3.48599 9.954C3.544 10.3928 3.40209 10.2581 3.75374 10.3086C3.94385 10.3122 3.94028 10.4478 3.75374 10.4859C3.62165 10.4815 3.47349 10.4194 3.30748 10.4859C3.31284 10.399 3.29677 10.3068 3.30748 10.22C3.31551 10.1544 3.40387 10.0453 3.39673 9.954C3.42172 9.87687 3.45207 9.87776 3.48599 9.954Z" fill="#5D5D5D"/>
<path d="M4.02152 10.4859H4.20002L4.28928 10.6632C4.29285 10.6933 4.36871 10.7527 4.35978 10.7962C4.29909 11.0861 3.76269 10.7643 3.84302 10.4859C3.87604 10.3556 3.94387 10.3689 4.02152 10.4859Z" fill="#5D5D5D"/>
<path d="M3.75327 4.54619C3.69169 4.46197 3.50247 4.43183 3.57566 4.19158C3.91749 4.37953 3.82913 4.11889 3.88625 4.10027C4.31645 3.96374 3.88804 4.31747 3.93177 4.54531C3.79076 4.65878 3.77201 4.40967 3.82199 4.43538C3.82824 4.43892 3.82199 4.53556 3.75327 4.54531V4.54619Z" fill="#5D5D5D"/>
<path d="M8.93025 4.7232C8.93203 4.72764 8.84992 4.75512 8.85885 4.79501C9.032 4.78083 9.12392 4.91824 8.93025 4.98916C8.91329 4.98118 8.78209 4.98118 8.75175 4.98916C8.6375 4.88721 8.62501 4.75335 8.57324 4.63455L8.66249 4.5459C8.70176 4.592 8.86153 4.58047 8.93025 4.7232Z" fill="#5D5D5D"/>
<path d="M2.77156 4.45749C2.71712 4.39632 2.29139 3.90606 2.63679 4.01333C2.72069 4.03904 2.61359 4.12858 2.81262 4.19596C3.042 4.27397 3.0536 4.27043 2.86081 4.45749C2.84743 4.44241 2.78495 4.47256 2.77156 4.45749Z" fill="#5D5D5D"/>
<path d="M4.55649 5.8761C4.55649 5.95322 4.59576 6.12255 4.51187 6.14206C4.34586 5.93461 4.15754 5.62964 4.46724 5.52148C4.55738 5.68904 4.5556 5.67574 4.55649 5.8761Z" fill="#5D5D5D"/>
<path d="M4.02089 9.42188C4.20475 9.90503 4.06284 9.70113 3.93164 9.77649C4.01554 9.49368 3.71297 9.64173 3.66389 9.59918C3.42648 9.39085 3.94235 9.43517 4.02089 9.42188Z" fill="#5D5D5D"/>
<path d="M5.36025 6.23047C5.44771 6.25352 5.68512 6.38207 5.71636 6.45299C5.75385 6.67285 5.6039 6.58508 5.4495 6.49643C5.42005 6.47958 5.39506 6.36345 5.271 6.40777C5.30848 6.36522 5.32544 6.28189 5.36025 6.23047Z" fill="#5D5D5D"/>
<path d="M5.98482 7.11709C5.99106 6.95043 5.92056 6.92472 5.80631 6.85113C5.68493 6.95574 5.61174 6.92206 5.62781 6.76248V6.67383C5.86076 6.72879 6.33825 6.93269 5.98482 7.11709Z" fill="#5D5D5D"/>
<path d="M10.1796 3.92553C10.2072 3.97074 10.2233 4.10284 10.2688 4.19149C10.2313 4.26773 10.1305 4.25443 10.0903 4.28014C9.95017 4.27305 9.9591 4.14184 10.0903 4.10284C10.0751 4.01684 9.98588 3.94947 10.0903 3.83688C10.2295 3.71276 10.2822 3.76507 10.1796 3.92553Z" fill="#5D5D5D"/>
<path d="M3.93199 4.54603C3.95431 4.56199 3.97841 4.60454 4.02125 4.63469C4.09889 4.65951 4.098 4.68965 4.02125 4.72334C3.99715 4.70561 3.84096 4.76235 3.77402 4.70472C3.72315 4.6604 3.76599 4.56376 3.75349 4.54603C3.75885 4.15507 3.84274 4.48309 3.93199 4.54603Z" fill="#5D5D5D"/>
<path d="M4.11083 5.25551C4.06442 5.24842 3.97517 5.24665 3.93233 5.25551C3.49499 4.99576 3.91001 4.82466 4.11083 5.25551Z" fill="#5D5D5D"/>
<path d="M6.25274 5.07791C6.25185 5.13731 6.25452 5.19582 6.25274 5.25522C6.07602 5.26231 5.97784 5.16834 5.98498 4.98926C6.1028 5.0061 6.16259 5.04954 6.25274 5.07791Z" fill="#5D5D5D"/>
<path d="M9.91168 5.69836C9.85902 5.70989 9.7903 5.69127 9.73318 5.69836C9.72247 5.54677 9.743 5.38098 9.91079 5.34375V5.69836H9.91168Z" fill="#5D5D5D"/>
<path d="M4.37802 10.5743C4.32626 10.5565 4.2852 10.631 4.28877 10.6629C3.90856 10.6656 3.95765 10.6629 4.19952 10.4856C4.22183 10.4688 4.23879 10.4058 4.28877 10.397C4.30216 10.4315 4.35571 10.5353 4.37802 10.5743Z" fill="#5D5D5D"/>
<path d="M4.02112 4.63477C4.03808 4.64629 4.39954 4.67111 4.19873 4.89984C4.01755 5.1064 4.0354 4.73317 4.02112 4.72342V4.63477Z" fill="#5D5D5D"/>
<path d="M3.75366 10.3083C3.92949 10.3331 4.06872 10.2179 4.02142 10.4856C3.96251 10.4856 3.90182 10.4892 3.84291 10.4856C3.81346 10.4838 3.78312 10.4865 3.75366 10.4856V10.3083Z" fill="#5D5D5D"/>
<path d="M6.78812 5.87598C6.70423 5.8352 6.64532 5.78733 6.60962 5.69867C6.63282 5.70222 6.98091 5.47616 6.78812 5.87598Z" fill="#5D5D5D"/>
<path d="M10.0905 4.103C10.1003 4.15797 10.0842 4.22357 10.0905 4.28031C10.0565 4.30247 10.0289 4.35566 10.0012 4.36896L9.91284 4.32375C9.8941 4.1163 9.87893 4.07375 10.0905 4.103Z" fill="#5D5D5D"/>
<path d="M4.46758 8.97851C4.45598 9.03081 4.48454 9.12213 4.46758 9.15581C4.35245 9.14695 4.21946 9.11149 4.19983 8.9794C4.28551 8.96698 4.38904 8.99447 4.46758 8.9794V8.97851Z" fill="#5D5D5D"/>
<path d="M3.486 9.86523C3.49314 9.89093 3.48243 9.92374 3.486 9.95388H3.39675L3.3075 9.86523C3.34141 9.84129 3.42531 9.63473 3.48511 9.68792C3.49582 9.74466 3.4735 9.81735 3.48511 9.86523H3.486Z" fill="#5D5D5D"/>
<path d="M16.7845 8.09228C16.7944 7.89281 16.9166 7.89724 16.963 8.09228C16.9131 8.54352 16.9265 8.23058 16.7828 8.32189C16.3785 8.5781 16.8381 8.68626 16.864 8.7226C16.8863 8.75452 16.7408 8.96108 16.7854 9.06746C17.0389 8.73324 17.5021 8.99654 17.6815 8.93094C17.7502 8.90611 18.1296 8.37242 18.209 8.75806C18.2144 8.78466 18.1278 8.85115 18.1233 8.89104C17.9288 9.27225 17.545 9.1437 17.3129 9.29087C17.2379 9.33785 17.3129 9.43715 17.2835 9.48945C17.2701 9.51339 17.1451 9.50186 17.1344 9.56835C17.1166 9.67828 17.2308 9.76516 17.2308 9.77757C17.2272 9.86977 17.1416 9.94513 17.1416 9.95488L16.4284 9.86623L16.6069 10.0879C16.6087 10.1402 16.4847 10.1659 16.4275 10.2208C16.3588 10.2873 16.3222 10.3015 16.249 10.3981C16.083 10.6171 15.9465 10.8157 15.9804 11.1083C15.8233 10.9575 15.643 11.11 15.6243 11.1083C15.4592 11.2111 15.2307 11.3476 15.2217 11.0746C14.9326 11.1322 14.8585 10.9957 14.9995 10.665C15.0245 10.5586 14.9656 10.5879 14.821 10.7536C14.8192 10.8175 14.7987 10.8485 14.7318 10.8423C14.7255 10.8237 14.5925 10.7847 14.5533 10.7536C14.3221 10.7519 14.3221 10.6934 14.5533 10.5763C14.5033 10.321 14.6845 10.2457 14.9103 10.3104C14.7353 10.149 15.1084 9.84938 15.3056 9.85027L15.4458 9.68981C15.3654 9.67385 15.369 9.64371 15.4458 9.60115L15.6243 9.42385C15.6841 9.27757 15.7135 9.10026 15.7135 8.89193C15.9652 8.7687 15.909 8.98502 16.1598 8.9797C16.0081 8.5648 16.2999 8.37774 16.5168 8.09405C16.6703 7.94689 16.7596 7.94689 16.7845 8.09405V8.09228Z" fill="#5D5D5D"/>
<path d="M14.1069 0.911411C14.065 1.04616 13.9168 1.17737 13.9275 1.30946L14.197 1.35556C13.9864 1.82454 14.2158 1.54351 14.4264 1.53819C14.5228 1.53553 14.3184 1.75805 14.6433 1.62152C14.7308 1.58429 14.8031 1.52578 14.9111 1.53287C14.7513 1.76957 14.6094 1.99475 14.4648 2.24209C14.3523 2.4655 14.2122 2.39369 14.2863 2.15344V1.79883C14.2006 1.93092 14.056 1.93447 13.8516 1.81035L13.7508 1.88748C13.6714 2.05415 13.7053 2.18801 13.8508 2.28996L13.7508 2.4194C13.8284 2.55238 13.6928 2.57277 13.5723 2.50805C13.3884 2.42235 13.3884 2.42235 13.5723 2.50805C13.6499 2.53287 13.649 2.56302 13.5723 2.5967C13.5259 2.61089 13.4313 2.6561 13.3938 2.68536C13.267 2.64458 13.118 2.61443 12.9475 2.5967C12.9225 2.67206 12.8931 2.67117 12.8583 2.5967C12.6887 2.58961 12.57 2.70841 12.5013 2.95132C12.6807 2.97348 12.5905 3.20043 12.412 3.12862C12.1853 2.95397 11.9916 2.95841 11.831 3.14192L11.698 3.12862L11.5668 3.13128C11.4713 2.9788 11.3062 2.88926 11.0732 2.86266C10.9742 2.73677 11.1107 2.67294 11.2517 2.68536C11.1786 2.6295 11.1482 2.57011 11.1625 2.50805C11.2196 2.48145 11.2839 2.44865 11.341 2.4194L11.6088 2.15344C11.6186 2.14723 11.773 2.25539 11.7846 2.24121L11.8765 1.88748C11.9167 1.91053 11.947 2.0506 12.0282 2.06479C12.3165 2.11709 12.52 1.95752 12.3228 1.71017C12.1916 1.56656 12.3522 1.56744 12.5013 1.62152C12.5584 1.59847 12.5584 1.53907 12.5013 1.44422C12.4941 1.4256 12.4209 1.42471 12.4129 1.39812C12.3415 1.15875 12.5325 1.34315 12.5709 1.32808C12.6173 1.31035 12.6459 1.19421 12.6798 1.17826L12.9422 1.24475C13.0136 1.04882 13.1439 1.01159 13.3045 1.17826C13.4018 1.15432 13.4911 1.15432 13.5723 1.17826C13.4786 1.05769 13.5089 0.998291 13.6615 1.00095C13.6125 0.87595 14.0293 0.822758 14.1078 0.912297L14.1069 0.911411Z" fill="#5D5D5D"/>
<path d="M17.4984 5.6985C17.5716 5.69496 17.726 5.56375 17.8545 5.61073L17.6814 5.73662C17.6948 6.30489 18.4873 5.96446 18.6569 6.27563C18.7774 6.49638 18.2446 6.42191 18.1624 6.4884C17.9589 6.65595 18.1375 6.83592 18.1223 6.84922C18.1071 6.86251 17.8045 6.81819 17.7644 7.02741C17.6287 6.97688 17.6359 6.74727 17.7644 6.6728C17.7751 6.57262 17.7626 6.50436 17.7644 6.49549V6.31819C17.8286 6.28804 18.0071 6.17723 17.9429 6.14177C17.5136 6.18521 17.7483 5.91127 17.4966 5.78627C17.419 5.76144 17.4199 5.7313 17.4966 5.69761L17.4984 5.6985Z" fill="#5D5D5D"/>
<path d="M17.766 7.11704C17.7615 7.20303 17.683 7.30232 17.6821 7.3431C17.6812 7.38388 18.2631 7.67732 17.409 7.73849L17.5875 8.00268C17.4616 7.99204 17.3179 8.02928 17.1992 8.00445C17.1385 7.99204 17.0314 7.46988 16.9627 8.09222H16.7842C16.5405 7.9752 16.8895 7.64718 17.0993 7.57537C17.2001 7.28193 17.6357 6.71101 17.766 7.11704Z" fill="#5D5D5D"/>
<path d="M14.2853 1.79767C14.3282 1.88455 14.3282 2.00335 14.2853 2.15229C14.3282 2.22764 14.3808 2.2436 14.4638 2.24094C14.4237 2.3092 14.3996 2.46169 14.3576 2.49005C14.2782 2.54325 14.1693 2.49005 14.1068 2.5069C13.873 2.57162 13.8534 2.50247 14.0176 2.32959C13.7846 2.33314 13.5562 2.10707 13.7498 1.88633C13.7713 1.81718 13.6311 1.64342 13.6606 1.62126C13.8935 1.58934 14.0827 1.71611 14.2853 1.79767Z" fill="#5D5D5D"/>
<path d="M17.7656 6.67377C17.754 6.7899 17.7727 6.91136 17.7656 7.02838C17.7638 7.05763 17.7674 7.08778 17.7656 7.11703H17.4113C17.3666 7.18441 17.2435 7.70746 17.2176 7.72519C17.0935 7.80764 16.7098 7.63565 16.7847 8.09221H16.517C16.6937 7.8626 17.1453 7.24735 17.3149 7.086C17.4068 6.99824 17.5487 7.04788 17.5764 7.0204C17.6621 6.93441 17.4452 6.60284 17.7665 6.67465L17.7656 6.67377Z" fill="#5D5D5D"/>
<path d="M17.4983 5.69858V5.78723C17.3831 5.79609 17.2502 5.83156 17.2305 5.96365C17.3448 5.95212 17.4117 5.98138 17.4983 6.05319C17.5652 6.14716 17.5224 6.18705 17.409 6.14184C17.393 6.12854 17.2439 6.16223 17.1502 6.08865C16.9583 5.93617 16.7289 5.69414 16.8735 5.43262C17.2198 5.46099 17.2975 5.70921 17.4983 5.69858Z" fill="#5D5D5D"/>
<path d="M17.4092 3.48245C17.3655 3.5578 17.2949 3.54982 17.2307 3.5711C17.1209 3.5383 17.0317 3.44965 16.9629 3.30514C16.8888 3.25018 16.796 3.13315 16.7844 3.12784C16.8353 3.11188 16.9263 3.03564 16.9629 3.03918C17.27 3.06666 17.3083 3.39025 17.4092 3.48245Z" fill="#5D5D5D"/>
<path d="M14.7318 3.57107L15.1771 3.48242C15.2119 3.73686 15.2396 3.88934 15.535 3.83792C15.4511 4.16062 15.0334 3.62959 14.9112 3.83792C14.8862 3.82285 14.7728 3.86718 14.7407 3.83171C14.6987 3.78562 14.7514 3.63845 14.7327 3.57196L14.7318 3.57107Z" fill="#5D5D5D"/>
<path d="M14.1067 2.5072C14.1201 2.52848 14.0701 2.62955 14.1227 2.67033C14.2575 2.77582 14.5172 2.48681 14.2852 3.12777C14.1094 2.95579 14.0496 2.72972 13.8389 2.59586C13.8077 2.43362 13.9871 2.39107 14.1067 2.5072Z" fill="#5D5D5D"/>
<path d="M15.5346 4.45752C15.6818 4.5444 15.9478 4.61621 16.096 4.72437C16.1852 4.78908 16.1522 4.89547 16.1602 4.8999C16.2138 4.93004 16.2888 4.77046 16.3807 4.75451C16.5949 4.71727 16.735 5.0772 16.694 5.2554C16.5003 5.21816 16.1504 5.13483 16.0692 4.90078C15.8737 4.78022 15.6497 4.67117 15.5337 4.45752H15.5346Z" fill="#5D5D5D"/>
<path d="M16.6948 5.25549C16.6698 5.36542 16.6029 5.34946 16.5163 5.34414C16.4574 5.29007 16.4289 5.17836 16.4199 5.17482C16.3128 5.13758 16.1388 5.47535 16.0701 4.90088C16.2664 5.02233 16.511 5.09592 16.6948 5.25549Z" fill="#5D5D5D"/>
<path d="M16.5168 4.36883C16.4633 4.2066 16.4999 3.95926 16.6944 3.83691L16.6061 4.36883C16.5811 4.44596 16.5507 4.44507 16.5168 4.36883Z" fill="#5D5D5D"/>
<path d="M15.6241 4.36801C15.6116 4.3556 15.6285 4.31038 15.6241 4.28113C16.355 4.2368 15.99 4.73769 15.6241 4.36801Z" fill="#5D5D5D"/>
<path d="M18.7465 8.2706C18.8983 8.4018 18.4636 8.59329 18.3904 8.53478C18.3565 8.50819 18.5627 8.11102 18.7465 8.2706Z" fill="#5D5D5D"/>
<path d="M16.6055 4.36865C16.7786 4.42007 16.8036 4.55748 16.7831 4.72326C16.6046 4.67805 16.5644 4.51493 16.5162 4.36865H16.6055Z" fill="#5D5D5D"/>
<path d="M16.1593 2.41825C16.2048 2.85708 15.7104 2.39342 16.0254 2.33225C16.0513 2.32693 16.1236 2.41913 16.1593 2.41825Z" fill="#5D5D5D"/>
<path d="M15.2666 1.79791L15.089 1.97522V1.62061C15.1693 1.66759 15.2345 1.70217 15.2666 1.79791Z" fill="#5D5D5D"/>
<path d="M17.2303 3.57065C17.2205 3.57419 17.2143 3.646 17.1875 3.64246C17.0813 3.62916 16.9599 3.4226 16.9626 3.30469C17.0679 3.38359 17.1803 3.42792 17.2303 3.57065Z" fill="#5D5D5D"/>
<path d="M17.6755 3.83789L17.6318 4.10296C17.5372 4.02229 17.4694 3.96821 17.4979 3.83789H17.6755Z" fill="#5D5D5D"/>
<path d="M19.0158 8.00375L18.9283 7.96031L19.1051 7.73779C19.122 7.88141 19.247 7.87609 19.0158 8.00375Z" fill="#5D5D5D"/>
<path d="M14.9089 2.41839H14.7313C14.7028 2.28807 14.7706 2.23399 14.8652 2.15332L14.9089 2.41839Z" fill="#5D5D5D"/>
<path d="M11.5188 10.1312C11.6152 9.80143 11.9579 10.1631 11.6973 10.3085C11.7963 10.4734 11.915 10.6215 12.0543 10.7518C12.1632 10.5142 12.2524 10.5142 12.322 10.7518C12.4586 10.7296 12.5773 10.789 12.679 10.9291C12.8754 10.8449 12.8629 10.891 12.8076 11.0674L12.9468 11.1951C13.1878 11.2562 13.1565 11.3732 12.9468 11.461C12.8914 11.4672 12.8245 11.4637 12.7683 11.461C12.746 11.5399 12.7165 11.5381 12.679 11.461C12.5987 11.6055 12.5095 11.6942 12.4113 11.727C12.3881 11.7296 12.3006 11.8263 12.2328 11.8156C12.0445 11.9628 11.8481 11.883 11.6437 11.5745L11.4295 11.5497C11.3474 11.5284 11.2876 11.4699 11.251 11.3724C11.2528 11.2864 11.2385 11.1853 11.251 11.1064C11.1368 10.9708 11.1903 10.9211 11.3403 11.0178C11.3831 10.9832 11.442 10.9539 11.5188 10.9291C11.4054 10.7828 11.1966 10.68 10.8922 10.6215L10.894 10.3972C10.8976 10.2935 10.9859 10.2482 11.0725 10.3085C11.0395 10.0337 11.3233 10.0381 11.5188 10.1312Z" fill="#5D5D5D"/>
<path d="M11.4288 11.5495C11.5083 11.4112 11.552 11.3323 11.7341 11.3687C11.8037 11.6754 12.1446 11.7304 12.2321 11.8155C12.2999 11.882 12.4169 12.241 12.3214 12.3474C12.2937 12.413 12.2642 12.4121 12.2321 12.3474C12.0723 12.2809 11.9233 12.1923 11.7858 12.0815C11.7769 12.0637 11.6823 12.0531 11.6564 11.9964C11.594 11.8598 11.8564 11.7295 11.4288 11.6382C11.3512 11.6089 11.3512 11.5788 11.4288 11.5495Z" fill="#5D5D5D"/>
<path d="M14.5528 10.5747C14.5429 10.6297 14.5679 10.7086 14.5528 10.752C14.4599 11.0224 14.4117 11.0002 14.642 11.283C14.6036 11.3132 14.2136 11.1962 14.1065 11.1953C13.7548 11.1288 14.077 11.0942 14.0753 11.111C14.0547 11.2626 13.6504 11.0304 13.7495 10.8407C13.8637 10.744 14.169 10.5827 14.285 10.486C14.3894 10.4586 14.4787 10.4878 14.5528 10.5747Z" fill="#5D5D5D"/>
<path d="M15.624 11.1064C15.4821 11.2225 15.3589 11.4778 15.1777 11.461C15.1697 11.3227 15.2152 11.2269 15.267 11.1072C14.5056 11.3058 14.8457 11.1861 14.7314 10.8404C14.752 10.8067 14.8082 10.7792 14.8207 10.7517C14.8466 10.7783 14.9055 10.7482 14.9992 10.6631C14.9733 10.9911 15.325 11.0709 15.624 11.1064Z" fill="#5D5D5D"/>
<path d="M12.6789 10.929C12.4032 10.6737 12.8601 10.655 13.0708 10.8208C13.0779 10.827 12.919 10.8137 13.1252 10.7517C13.2555 10.8288 13.2635 11.0238 13.393 11.1063C13.2769 11.1985 13.4108 11.405 12.9467 11.4609C12.9351 11.3776 12.9637 11.2694 12.9467 11.1949C12.9634 11.0294 12.9634 11.0294 12.9467 11.1949C12.7075 11.2446 12.8039 11.0726 12.6789 10.929Z" fill="#5D5D5D"/>
<path d="M12.7682 11.4612L13.3038 11.815C13.0021 11.7431 12.6647 12.4524 12.8584 11.8167C12.72 11.8779 12.5531 11.7325 12.5005 11.7272C12.5201 11.5951 12.5799 11.5064 12.679 11.4612C12.7067 11.4665 12.7397 11.4595 12.7682 11.4612Z" fill="#5D5D5D"/>
<path d="M13.7495 10.8403C13.9414 10.9405 13.887 11.1914 14.1056 11.0176V11.1949C13.8986 11.1932 13.9628 11.4352 13.6603 11.0176C13.6737 11.007 13.6835 10.8962 13.7495 10.8403Z" fill="#5D5D5D"/>
<path d="M12.6788 11.4611C12.6823 11.6712 12.7386 11.7687 12.5003 11.7271C12.4726 11.7244 12.4387 11.7235 12.411 11.7271L12.5012 11.3725C12.61 11.3343 12.6689 11.4593 12.6788 11.4611Z" fill="#5D5D5D"/>
<path d="M15.1774 11.5495C15.2381 11.6142 15.2354 11.4228 15.3559 11.7268C15.3648 11.7499 15.3497 11.7853 15.3559 11.8155L14.9989 11.7268C15.0275 11.6683 15.131 11.6071 15.1774 11.5495Z" fill="#5D5D5D"/>
<path d="M14.3741 12.5248V12.6134C14.0929 12.6302 14.0073 12.2517 14.2402 12.3483C14.3071 12.3758 14.3518 12.5159 14.3741 12.5248Z" fill="#5D5D5D"/>
<path d="M12.6781 12.0825H12.5005V12.3476H12.6781V12.0825Z" fill="#5D5D5D"/>
<path d="M14.6421 12.2588C14.8929 12.3253 15.0107 12.476 14.7313 12.6134C14.7331 12.585 14.734 12.5522 14.7313 12.5247C14.7206 12.4299 14.6903 12.3412 14.6421 12.2588Z" fill="#5D5D5D"/>
<path d="M12.4108 12.4359C12.5241 12.5095 12.6848 12.5849 12.6794 12.7453L12.6348 12.7897L12.4117 12.6124C12.3331 12.5937 12.3322 12.4723 12.4117 12.4351L12.4108 12.4359Z" fill="#5D5D5D"/>
<path d="M12.4108 12.436C12.401 12.491 12.4251 12.5672 12.4108 12.6133C12.3983 12.6523 12.3448 12.6736 12.3216 12.702C12.3269 12.5717 12.2957 12.4608 12.2323 12.3474C12.2635 12.35 12.2983 12.3403 12.3216 12.3474C12.3564 12.358 12.3814 12.4174 12.4108 12.436Z" fill="#5D5D5D"/>
<path d="M1.25412 12.3477C1.27108 12.3902 1.2327 12.4966 1.2559 12.525C1.27732 12.5516 1.77178 12.2617 1.70127 12.79C1.85478 12.8308 1.75571 12.6606 1.79677 12.6225C1.81016 12.6101 2.0797 12.6854 2.14663 12.7023C2.18501 12.7661 2.24481 12.8255 2.32514 12.8796C2.35638 12.8751 2.39118 12.8876 2.41439 12.8796C2.49204 12.9044 2.49115 12.9345 2.41439 12.9682C2.19929 13.0312 2.17609 13.1446 2.05738 13.2342C2.11807 13.3725 2.02882 13.4319 1.78963 13.4115C1.72804 13.4673 1.7209 13.5684 1.70038 13.5888C1.68877 13.6003 1.58167 13.634 1.52187 13.6775C1.6263 13.7883 1.57632 13.8211 1.43262 13.7661H1.34337C1.32463 13.6801 1.19878 13.5604 1.25323 13.4106C1.04259 13.5321 0.920317 13.4443 1.07651 13.6766L0.808752 13.6783C0.864981 13.3964 0.716823 13.2138 0.630249 12.9682C0.977438 12.9328 0.884616 12.7634 0.987256 12.6136C1.05598 12.5126 1.1488 12.4124 1.25501 12.3477H1.25412Z" fill="#5D5D5D"/>
<path d="M3.7537 11.4609C3.74924 11.8918 3.91257 11.2712 4.19996 11.6382C3.92864 11.6994 3.40919 11.8342 3.7537 11.4609Z" fill="#5D5D5D"/>
<path d="M2.86067 10.4868L2.59381 10.7519L2.50366 10.4868H2.86067Z" fill="#5D5D5D"/>
<path d="M2.14722 12.7021C2.28466 12.7358 2.36053 12.6144 2.32572 12.8795C2.21594 12.8963 2.08385 12.8688 1.9696 12.8786V12.7917L2.14722 12.7021Z" fill="#5D5D5D"/>
<path d="M2.68279 12.791C2.66048 12.8504 2.60782 12.9116 2.59354 12.9683C2.53731 12.9772 2.46234 12.955 2.41504 12.9683V12.8797C2.57034 12.8256 2.34721 12.8096 2.68279 12.791Z" fill="#5D5D5D"/>
<path d="M10.5363 8.44692C10.5747 8.47618 10.7157 8.56129 10.8041 8.62423C10.946 8.71466 10.979 8.76962 10.8041 8.80153C11.0103 9.08345 10.6283 9.11448 10.4471 8.80153C10.4051 8.81749 10.323 8.7909 10.2686 8.80153C10.2596 8.74657 10.273 8.68185 10.2686 8.62423C10.0865 8.60473 10.0945 8.51519 10.2686 8.44692C10.3177 8.37511 10.4069 8.37511 10.5363 8.44692Z" fill="#5D5D5D"/>
<path d="M9.91144 8.18067C10.0409 8.07429 10.0944 8.12748 10.0007 8.26933C10.1801 8.42181 10.1649 8.60798 9.91144 8.62394C9.88199 8.62394 9.85164 8.62483 9.82219 8.62394C9.67135 8.60444 9.55176 8.50426 9.64368 8.35798C9.45626 8.27997 9.55354 8.13812 9.73294 8.18067C9.8802 8.24716 9.90341 8.17713 9.91144 8.18067Z" fill="#5D5D5D"/>
<path d="M10.2689 8.18066C10.3572 8.25425 10.4295 8.36329 10.5366 8.44662C10.4322 8.51311 10.3733 8.49981 10.2689 8.44662C10.2689 8.50513 10.2644 8.5663 10.2689 8.62393C10.1502 8.62393 10.0306 8.62393 9.91187 8.62393L10.0011 8.26932C10.1573 8.11683 10.2251 8.28705 10.2689 8.44662C10.11 8.27818 10.11 8.18953 10.2689 8.18066Z" fill="#5D5D5D"/>
<path d="M9.8227 8.6241C9.70579 8.62055 9.52817 8.66931 9.4657 8.53545C9.49247 8.47605 9.55049 8.42906 9.55495 8.35814C9.57994 8.28013 9.60939 8.2819 9.6442 8.35814C9.73702 8.3936 9.78522 8.53633 9.8227 8.6241Z" fill="#5D5D5D"/>
<path d="M13.8389 0.822505C13.7978 0.878357 13.738 0.936868 13.6604 0.999811C13.6782 1.13013 13.6488 1.11861 13.5711 1.17712H13.3034C13.1454 1.24538 12.7955 1.4484 12.6786 1.17712C12.6777 1.11329 12.6813 1.06187 12.7027 1.053C12.7232 1.04414 12.8312 1.07783 12.8785 1.0929C12.8857 1.09467 12.7634 1.10974 12.8562 1.0007C12.8562 0.746264 13.4551 0.933322 13.481 0.911158L13.3917 0.646973L13.838 0.823392L13.8389 0.822505Z" fill="#5D5D5D"/>
<path d="M14.1069 0.911283L13.6607 0.999936C13.658 0.979545 13.5384 0.912169 13.5714 0.823516C13.6553 0.810218 13.7642 0.84036 13.8392 0.823516C13.9427 0.798693 14.023 0.757913 14.1069 0.734863C14.0971 0.790715 14.1212 0.86607 14.1069 0.912169V0.911283Z" fill="#5D5D5D"/>
<path d="M12.8569 0.999696C12.8569 1.01122 12.9943 0.992604 12.9461 1.17612C12.8694 1.19296 12.7283 1.15307 12.6784 1.17612C12.6632 1.13977 12.6873 1.05466 12.6784 0.998809C12.6739 0.969554 12.6828 0.938525 12.6784 0.910156L12.8569 0.998809V0.999696Z" fill="#5D5D5D"/>
<path d="M9.73312 8.18094L9.64387 8.35824C9.61888 8.34849 9.58229 8.36534 9.55462 8.35824C9.30828 8.21551 9.33774 8.22172 9.55462 8.09229C9.61352 8.12065 9.67511 8.15434 9.73312 8.18094Z" fill="#5D5D5D"/>
<path d="M4.11037 3.21631C4.25406 3.41046 4.25764 3.64716 4.55663 3.57092C4.54413 3.58422 4.59501 3.72074 4.49861 3.75C4.18445 3.84486 4.09787 3.55674 4.02112 3.30496C4.02737 3.30408 4.04165 3.2367 4.11037 3.21631Z" fill="#5D5D5D"/>
<path d="M5.53786 4.36963V4.54605C5.40666 4.57442 5.35222 4.50704 5.271 4.41307L5.53786 4.36963Z" fill="#5D5D5D"/>
<path d="M5.6276 8.00375H5.4491C5.48837 7.95499 5.47052 7.74134 5.62671 7.73779V8.00375H5.6276Z" fill="#5D5D5D"/>
<path d="M5.80621 6.85086C5.74284 7.01753 5.67501 7.05831 5.53845 6.93951L5.6277 6.76221C5.68482 6.79501 5.75087 6.8154 5.80621 6.85086Z" fill="#5D5D5D"/>
<path d="M14.5529 1.35443C14.4761 1.37038 14.3708 1.34467 14.286 1.35443V1.0007C14.5065 0.934211 14.5118 1.1585 14.5529 1.35443Z" fill="#5D5D5D"/>
<path d="M16.2484 10.8406V11.1066L16.0708 11.1952C16.0806 10.9825 15.9753 10.7866 16.2484 10.8406Z" fill="#5D5D5D"/>
<path d="M1.16522 1.35478C1.05812 1.44875 1.16968 1.58351 1.16522 1.62074C1.30624 1.73422 1.24198 1.8734 1.07597 1.8867C1.07597 1.91596 1.07419 1.9461 1.07597 1.97535C1.02063 1.98511 0.942986 1.96117 0.897467 1.97535C0.743062 1.94344 0.574376 1.81755 0.539568 1.66329C0.523503 1.5906 0.707361 1.63315 0.718964 1.62074C0.976009 1.65266 0.92692 1.3007 1.16522 1.35478Z" fill="#5D5D5D"/>
<path d="M11.161 2.50721C11.2574 2.49835 11.2735 2.61891 11.2502 2.68452C10.9646 2.84143 10.7567 2.87158 10.6255 2.77317V2.68452C10.9191 2.68009 10.9218 2.52938 10.9825 2.50721C11.0289 2.49037 11.1217 2.52494 11.161 2.50721Z" fill="#5D5D5D"/>
<path d="M11.6077 2.1524C11.5899 2.16304 11.63 2.26943 11.3399 2.41836C11.3042 2.1923 11.5265 2.30932 11.5184 2.06375C11.5176 2.0345 11.5229 2.00347 11.5184 1.9751H11.6077C11.6166 2.00081 11.7335 2.02386 11.6077 2.1524Z" fill="#5D5D5D"/>
<path d="M11.9648 1.1773C12.2799 1.11436 12.0354 1.62145 12.5004 1.53191C12.578 1.55674 12.5771 1.58688 12.5004 1.62057C12.404 1.65248 12.3317 1.70656 12.3219 1.70922C11.9684 1.80851 12.188 1.66489 12.0541 1.62057L11.9648 1.1773Z" fill="#5D5D5D"/>
<path d="M12.5 1.62045V1.5318C12.4928 1.50432 12.5098 1.46885 12.5 1.44315C12.633 1.56194 12.7106 1.47151 12.8124 1.35449L12.857 1.39971C12.799 1.79687 12.5232 1.61247 12.4991 1.62045H12.5Z" fill="#5D5D5D"/>
<path d="M11.0718 2.86179C11.527 2.93537 11.676 3.11268 11.5181 3.39371C11.4199 3.39991 10.9138 3.40967 10.8906 3.43094C10.8112 3.50275 10.7576 3.91765 10.4908 4.10293C10.4756 4.11357 10.4087 3.8086 10.1784 3.92563C10.1498 3.87953 10.1481 3.8618 10.0892 3.83697C10.0713 3.82988 10.0302 3.83697 9.9999 3.83697C10.0017 3.77758 9.99723 3.71818 9.9999 3.65967C10.1088 3.62775 10.2605 3.493 10.3569 3.48236C10.3864 3.40346 10.4167 3.40346 10.4462 3.48236C10.6318 3.42917 10.5943 3.20045 10.5354 3.0391C10.5631 3.01516 10.5791 2.96995 10.6247 2.95044C10.647 2.83786 11.0218 2.74122 11.0709 2.86179H11.0718Z" fill="#5D5D5D"/>
<path d="M10.5368 3.03892C10.8831 2.97509 10.6198 3.3235 10.6251 3.57084C10.5269 3.60719 10.4573 3.48307 10.4475 3.48218V3.21623C10.4761 3.15417 10.4645 3.10275 10.5368 3.03892Z" fill="#5D5D5D"/>
<path d="M11.2502 2.68414C11.2288 2.74531 11.0869 2.81534 11.0717 2.86144C11.0155 2.8641 10.663 2.93414 10.6255 2.9501V2.77279C11.0227 2.88183 10.9164 2.4891 11.2502 2.68414Z" fill="#5D5D5D"/>
<path d="M10.4471 3.48227C10.4186 3.48049 10.3856 3.47872 10.3579 3.48227C10.3204 3.35372 10.4114 3.29432 10.4471 3.21631L10.5284 3.42996L10.4471 3.48227Z" fill="#5D5D5D"/>
<path d="M9.10849 4.72344V4.60198C8.80325 4.49028 8.98086 4.50978 9.10849 4.28017C9.13348 4.20304 9.16383 4.20393 9.19774 4.28017C9.2022 4.43177 9.25486 4.64897 9.10849 4.72344Z" fill="#5D5D5D"/>
<path d="M9.19791 4.2799H9.10866C9.07475 4.23203 9.05511 4.1354 9.01941 4.1026L9.10866 3.92529C9.22469 4.02547 9.19434 4.14958 9.19791 4.2799Z" fill="#5D5D5D"/>
<path d="M12.2323 12.3476C12.1439 12.3405 12.0529 12.3529 11.9645 12.3476C11.9136 12.2643 11.8654 12.2404 11.786 12.0817C12.0234 12.0577 12.1252 12.1561 12.2323 12.3476Z" fill="#5D5D5D"/>
<path d="M11.2507 11.3722C11.4631 11.3483 11.3961 11.3704 11.4292 11.5495C11.4345 11.5779 11.4238 11.6098 11.4292 11.6382C11.439 11.6931 11.4202 11.7596 11.4292 11.8155H11.3399C11.2498 11.6781 11.2471 11.53 11.2507 11.3722Z" fill="#5D5D5D"/>
<path d="M10.0907 10.3084C10.1416 10.2934 10.2522 10.3253 10.2692 10.3075C10.2897 10.2854 10.0104 10.0451 10.0907 9.74637C10.1121 9.6657 10.3522 9.72864 10.1799 9.51144C10.5289 9.45736 10.453 9.55843 10.4495 9.86516C10.586 9.89619 10.4986 9.74992 10.6048 9.69318C10.6583 9.66481 11.0876 9.50612 11.1144 9.50612C11.1787 9.50612 11.0983 9.68963 11.3411 9.68875C11.4045 9.7969 11.4643 9.91481 11.5196 10.0434C11.5964 10.0726 11.5964 10.1028 11.5196 10.132C11.325 10.2295 11.2956 10.2561 11.0733 10.3093C10.9859 10.3164 10.8966 10.3164 10.8056 10.3093C10.8752 10.632 10.6369 10.6905 10.0916 10.4866C10.0782 10.4405 10.0327 10.3944 10.005 10.3528C10.013 10.2978 10.0594 10.3182 10.0916 10.3093L10.0907 10.3084Z" fill="#5D5D5D"/>
<path d="M10.8046 10.3083C10.9224 10.248 10.9643 10.2791 10.8938 10.397C11.0714 10.6044 11.5168 10.5512 11.6078 10.6656C11.6185 10.6789 11.5195 10.8544 11.5186 10.9289C11.3963 10.9333 11.3365 10.9635 11.3401 11.0176C11.3276 11.0477 11.2544 11.0805 11.2508 11.1062H11.0723C10.8126 11.0787 10.544 10.8917 10.4476 10.6629C10.2137 10.5796 10.2878 10.6186 10.0906 10.6629C10.0816 10.6071 10.1039 10.5326 10.0906 10.4856C10.2396 10.3394 10.4261 10.5034 10.5681 10.4883C10.5841 10.4865 10.6537 10.3801 10.8046 10.3083Z" fill="#5D5D5D"/>
<path d="M2.14705 13.5885C2.00781 13.428 2.00067 13.4396 1.79004 13.4112C1.89536 13.3163 1.97747 13.2951 2.05779 13.2339L2.14705 13.5885Z" fill="#5D5D5D"/>
<path d="M9.37622 9.9541C9.51188 10.0011 9.75822 9.99222 9.73323 10.1305C9.60292 10.1624 9.37622 10.1075 9.37622 9.9541Z" fill="#5D5D5D"/>
<path d="M11.0721 11.1063C11.3363 11.4051 11.1105 11.3156 10.9828 11.3723L10.8043 11.1063C10.8311 11.0407 10.9203 11.0407 11.0721 11.1063Z" fill="#5D5D5D"/>
<path d="M10.4475 10.6631C10.7751 10.7801 10.6608 10.8235 10.8393 10.9876C10.8902 11.0345 11.0098 11.0363 11.0723 11.1064C10.9919 11.1064 10.8679 11.1223 10.8045 11.1064C10.7135 11.0833 10.593 10.9122 10.4475 10.929V10.6631Z" fill="#5D5D5D"/>
<path d="M1.52248 13.6773C1.8777 13.6365 1.70991 14.0337 1.43323 13.7659C1.4609 13.7349 1.48856 13.7021 1.52248 13.6773Z" fill="#5D5D5D"/>
<path d="M1.165 1.62061C1.46042 1.77752 1.4149 1.94064 1.07575 1.88656C1.07307 1.78993 1.15607 1.68887 1.165 1.62061Z" fill="#5D5D5D"/>
<path d="M15.267 9.33341C15.3411 9.40078 15.4 9.51869 15.4455 9.68802C15.4473 9.71993 15.6115 9.89724 15.5339 10.0426C15.5267 10.0568 15.3705 9.96905 15.2197 10.0302C15.0323 10.1065 15.0091 10.2386 14.91 10.3077C14.6413 10.4699 14.4477 10.4043 14.6422 10.1304C14.6744 10.1073 14.6985 10.0621 14.7315 10.0417C14.9868 9.84759 15.0162 9.78908 14.8207 9.86444C14.8868 9.67561 15.0849 9.46461 15.267 9.33252V9.33341Z" fill="#5D5D5D"/>
<path d="M12.3213 10.0427C12.3409 10.1766 12.1919 10.4186 12.4106 10.6633C12.5266 10.7874 12.4757 10.8379 12.3213 10.7519C12.2428 10.7688 12.1151 10.7298 12.0535 10.7519C11.8822 10.6411 11.5939 10.4186 11.875 10.3087C11.6376 10.0392 11.6448 9.67124 12.0535 9.86539C12.141 9.86096 12.2303 9.91947 12.3213 10.0427Z" fill="#5D5D5D"/>
<path d="M12.3219 3.30498C12.4424 3.25001 12.4728 3.38122 12.4112 3.48229C12.4638 3.93973 12.2389 3.6197 12.0542 3.8369C11.9417 3.93796 11.8828 3.93796 11.8757 3.8369C11.6445 3.89541 11.6213 3.81739 11.7864 3.65959C11.8444 3.60374 11.8614 3.47431 11.8757 3.39363C11.898 3.31562 11.9274 3.31739 11.9649 3.39363C12.0051 3.2376 12.0274 3.16491 12.1434 3.30498C12.1747 3.18618 12.2684 3.21012 12.3219 3.30498Z" fill="#5D5D5D"/>
<path d="M11.6076 3.74822C11.6727 3.78989 11.7022 3.84929 11.6968 3.92553C11.6558 4.06205 11.6558 4.18085 11.6968 4.28014C11.6245 4.34131 11.4193 4.49379 11.3398 4.5461C11.2256 4.52393 11.1667 4.46454 11.1613 4.36879C10.8659 4.37322 10.9123 4.2234 11.1613 4.10283C11.2274 4.0789 11.4193 4.02393 11.4291 4.01329C11.5862 3.83333 11.0676 3.82712 11.2515 3.66046C11.2889 3.62677 11.5174 3.75443 11.6076 3.74911V3.74822Z" fill="#5D5D5D"/>
<path d="M13.0354 2.59564C13.1523 2.47596 13.346 2.72419 13.3031 2.8616C13.1014 3.01675 12.8783 3.1515 12.6784 3.30487C12.5284 3.29955 12.573 3.21621 12.6784 3.12756C12.5043 3.15416 12.5543 3.03093 12.6784 2.95026C12.7792 2.80132 12.8979 2.68252 13.0354 2.59564Z" fill="#5D5D5D"/>
<path d="M10.4475 8.80137C10.468 8.7934 10.5019 8.70031 10.5724 8.70474C10.6358 8.70918 10.6171 8.8918 10.6813 8.89535C10.7375 8.89801 10.7911 8.7996 10.8045 8.80137C10.892 8.69676 11.0321 8.77567 11.0722 8.89003C11.0669 8.92992 11.0107 9.02389 10.983 9.06733C11.0606 9.2012 10.9375 9.28719 10.8045 9.24464C10.7054 9.15333 10.4225 9.15953 10.4475 8.80137Z" fill="#5D5D5D"/>
<path d="M12.3213 10.0428C12.1383 10.0756 12.1151 9.91423 12.0535 9.86547C11.8643 9.89473 11.7046 9.93374 11.5734 9.98338L11.518 9.86547C11.3288 9.95147 11.2851 9.84154 11.4288 9.68817C11.3654 9.4488 11.493 9.35217 11.6965 9.51086C11.9598 9.46565 12.2865 9.81051 12.3213 10.0428Z" fill="#5D5D5D"/>
<path d="M13.1249 10.7517C13.174 11.1392 12.9286 10.75 12.8116 10.7544C12.7545 10.7571 12.7144 10.9042 12.6787 10.929C12.3815 11.1409 12.4707 11.0035 12.3217 10.7517C12.3475 10.7464 12.3868 10.6649 12.4109 10.6631C12.5885 10.6489 12.9812 10.6666 13.1249 10.7517Z" fill="#5D5D5D"/>
<path d="M14.6423 10.1313C14.711 10.2422 14.7619 10.3397 14.91 10.3087C14.8056 10.3813 14.6557 10.5241 14.553 10.5746C14.3924 10.6535 14.3906 10.7076 14.2853 10.486C14.4263 10.3689 14.3968 10.3051 14.6423 10.1313Z" fill="#5D5D5D"/>
<path d="M11.4294 9.15625C11.5329 9.18019 11.5927 9.2387 11.6079 9.33356C11.6266 9.34863 11.6302 9.47983 11.6971 9.51086C11.6498 9.51884 11.507 9.66689 11.4294 9.68817C11.4017 9.76796 11.3723 9.76796 11.3401 9.68817C11.3607 9.59242 11.1688 9.38675 11.0724 9.33356C11.2339 9.27593 11.3107 9.20767 11.4294 9.15625Z" fill="#5D5D5D"/>
<path d="M11.8753 3.8368C11.9324 3.82882 11.9958 3.84212 12.0538 3.8368C12.019 3.87758 11.7423 4.24195 11.6968 4.28007C11.2238 4.33858 11.454 4.07794 11.6968 3.92546C11.6316 3.78184 11.7744 3.71624 11.8753 3.8368Z" fill="#5D5D5D"/>
<path d="M15.7129 8.89014C15.8726 9.07365 15.9387 9.1889 15.7709 9.39546C15.7387 9.43447 15.6352 9.41053 15.6236 9.42205C15.5058 9.40964 15.5076 9.19244 15.5344 9.06744C15.5924 8.97524 15.6075 8.94156 15.7129 8.89014Z" fill="#5D5D5D"/>
<path d="M13.3929 2.6842C13.3795 2.69484 13.3706 2.81009 13.3037 2.86151C13.2073 2.82161 13.1002 2.62126 13.0359 2.59555C13.01 2.66824 12.9797 2.66736 12.9467 2.59555L13.0805 2.32959L13.3929 2.6842Z" fill="#5D5D5D"/>
<path d="M10.2689 8.181V8.44696C10.1778 8.40086 10.1859 8.35298 10.0011 8.26965C9.97523 8.25813 9.94846 8.19784 9.91187 8.181V7.91504C10.0216 8.01078 10.1573 8.08791 10.2689 8.181Z" fill="#5D5D5D"/>
<path d="M11.1616 4.36874C11.1973 4.39622 11.4026 4.30225 11.3401 4.54604C11.1581 4.66572 11.0911 4.62938 11.0724 4.6347L10.8082 4.5354C10.8029 4.48487 10.8948 4.4636 10.8939 4.45739C10.818 4.28452 11.076 4.20739 11.1616 4.36874Z" fill="#5D5D5D"/>
<path d="M15.4454 9.59924C15.4463 9.6285 15.4436 9.65864 15.4454 9.68789H15.1776L15.2669 9.33328C15.3008 9.30935 15.4115 9.3253 15.4454 9.24463C15.6114 9.28098 15.5989 9.5425 15.4454 9.59924Z" fill="#5D5D5D"/>
<path d="M14.0172 2.32963C14.0529 2.38371 14.0707 2.45198 14.1064 2.50694C14.01 2.53265 13.9208 2.57432 13.8387 2.59559C13.7637 2.6151 13.6414 2.5752 13.5709 2.59559V2.50694C13.6486 2.50783 13.695 2.44666 13.7494 2.41829C13.761 2.16651 13.8262 2.19222 14.0172 2.32963Z" fill="#5D5D5D"/>
<path d="M10.9828 9.06738C11.2319 9.20745 11.1979 9.20568 10.9828 9.33334C10.9364 9.34221 10.8427 9.44593 10.8133 9.41402C10.7802 9.37944 10.8204 9.25887 10.8043 9.24469C10.8177 9.14983 10.9596 9.10373 10.9828 9.06738Z" fill="#5D5D5D"/>
<path d="M15.6236 9.42199C15.6031 9.4415 15.6727 9.6649 15.4451 9.5993C15.4416 9.50356 15.5746 9.36082 15.4451 9.24469C15.4782 9.18795 15.4996 9.12323 15.5344 9.06738L15.6236 9.42199Z" fill="#5D5D5D"/>
<path d="M9.37658 7.38287C9.46404 7.51585 9.32392 7.51053 9.19807 7.47153C8.87766 7.28535 9.10971 7.2623 9.10882 7.20557C9.22753 7.22862 9.2909 7.31372 9.37658 7.38287Z" fill="#5D5D5D"/>
<path d="M11.6078 9.33334C11.5757 9.30763 11.3677 9.38919 11.4293 9.15604C11.5096 9.12146 11.6167 9.12146 11.6962 9.06738V9.28813L11.6078 9.33334Z" fill="#5D5D5D"/>
<path d="M10.8045 5.0778C10.7715 5.05209 10.7474 5.01397 10.7152 4.98915C10.5876 4.83844 10.6144 4.77638 10.8045 4.72319C10.8339 4.71965 10.8643 4.72674 10.8937 4.72319C10.908 4.87656 10.9223 4.95546 10.8045 5.0778Z" fill="#5D5D5D"/>
<path d="M12.6787 3.30483C12.6439 3.33143 12.6144 3.47416 12.5002 3.48214C12.402 3.40058 12.3511 3.24012 12.5002 3.21618C12.5198 3.0699 12.5823 2.99366 12.6787 3.12753V3.30483Z" fill="#5D5D5D"/>
<path d="M12.4999 3.2163C12.4767 3.26949 12.516 3.40691 12.4999 3.48226H12.4107C12.4053 3.4335 12.3339 3.36169 12.3214 3.30496C12.1947 3.25088 12.1965 3.18527 12.3214 3.12765C12.3491 3.05141 12.3786 3.05229 12.4107 3.12765C12.5588 3.07446 12.5812 3.08244 12.4999 3.2163Z" fill="#5D5D5D"/>
<path d="M10.8043 8.62402C10.9436 8.7242 11.1087 8.62846 11.0721 8.88998C10.9819 8.89619 10.8677 8.80754 10.8043 8.80133V8.62402Z" fill="#5D5D5D"/>
<path d="M17.7659 6.31925C18.0033 6.41854 17.7677 6.48414 17.7659 6.49656L17.5874 6.32014C17.6427 6.30772 17.7302 6.33609 17.7659 6.32014V6.31925Z" fill="#5D5D5D"/>
<path d="M17.4979 6.05322C17.6487 6.17911 17.5951 6.23142 17.4095 6.31918C17.3961 6.26954 17.4229 6.1534 17.4095 6.14188L17.4988 6.05322H17.4979Z" fill="#5D5D5D"/>
<path d="M9.64424 7.64899C9.65495 7.70306 9.62818 7.7864 9.64424 7.82629L9.46574 7.56033C9.38809 7.53551 9.38898 7.50537 9.46574 7.47168C9.53625 7.53462 9.58801 7.59757 9.64424 7.64899Z" fill="#5D5D5D"/>
<path d="M14.7314 10.0425C14.7564 9.98222 14.7993 9.92637 14.8207 9.8652C15.2366 9.72158 14.9483 9.90864 14.7314 10.0425Z" fill="#5D5D5D"/>
<path d="M9.46526 7.47147V7.56012C9.3296 7.59558 9.28408 7.522 9.19751 7.47147L9.37601 7.38281C9.40814 7.40941 9.43403 7.44398 9.46526 7.47147Z" fill="#5D5D5D"/>
<path d="M11.697 3.12775C11.8175 2.92473 12.0281 2.81303 12.2655 2.86622C12.3512 2.88573 12.3717 3.05062 12.411 3.12775C12.3896 3.13661 12.353 3.12332 12.3218 3.12775C12.3164 3.28201 12.1977 3.27403 12.1433 3.12775L11.9647 3.39371C11.9362 3.39814 11.905 3.39105 11.8755 3.39371C11.7389 3.40523 11.6354 3.39193 11.6077 3.39371C11.5337 3.27314 11.5256 3.09229 11.697 3.12775Z" fill="#5D5D5D"/>
<path d="M11.6971 3.12745C11.6623 3.18596 11.6685 3.32337 11.6078 3.39341C11.5784 3.39607 11.548 3.39164 11.5186 3.39341C11.4686 3.24713 11.4981 3.02018 11.2946 2.98649C11.2125 2.97319 10.9768 3.15405 11.0723 2.86149C11.382 2.84642 11.5266 2.84199 11.6971 3.12745Z" fill="#5D5D5D"/>
<path d="M11.1616 4.10303C11.0786 4.18282 11.067 4.29629 11.1616 4.36899L10.8939 4.45764C10.884 4.3947 10.7395 4.2298 10.8939 4.19168C10.9769 4.16774 11.0795 4.13228 11.1616 4.10303Z" fill="#5D5D5D"/>
<path d="M11.7863 3.65967L11.8755 3.83697C11.7613 3.85293 11.7631 3.88396 11.697 3.92563C11.4587 3.9407 11.4935 3.92917 11.6078 3.74832C11.6176 3.74832 11.7792 3.66676 11.7863 3.65967Z" fill="#5D5D5D"/>
<path d="M10.8042 4.72314L10.7149 4.9891C10.3302 4.69212 10.5418 4.75861 10.8042 4.72314Z" fill="#5D5D5D"/>
<path d="M14.8208 10.7516C14.8574 10.6691 14.9261 10.3518 15.0886 10.4865C15.1626 10.5477 15.0002 10.6532 14.9993 10.6629C14.8949 10.881 14.8288 11.1097 14.8208 10.7516Z" fill="#5D5D5D"/>
<path d="M16.3368 9.51137C16.3493 9.52378 16.3324 9.56899 16.3368 9.59825C16.178 9.62218 16.0236 9.59293 15.9807 9.42271C16.0512 9.41296 16.3172 9.49098 16.3368 9.51137Z" fill="#5D5D5D"/>
<path d="M12.8573 2.59591C12.9251 2.68811 12.8662 2.80691 12.6788 2.95052C12.6788 3.10212 12.5226 3.11985 12.5003 2.95052C12.4985 2.93368 12.4173 2.90531 12.4324 2.75549C12.4494 2.58173 12.6324 2.40088 12.6805 2.24219L12.8573 2.59591Z" fill="#5D5D5D"/>
<path d="M13.7499 1.88672C13.7177 2.14027 13.9418 2.21562 14.0176 2.32998C13.9194 2.33796 13.8356 2.37342 13.7499 2.41864V2.29895C13.3197 2.1252 13.7338 1.93814 13.7499 1.88672Z" fill="#5D5D5D"/>
<path d="M13.4811 1.71015L13.2152 2.24119C13.1964 2.09136 13.2812 1.96548 13.3366 1.83782C13.3669 1.76955 13.2295 1.64632 13.4811 1.70927V1.71015Z" fill="#5D5D5D"/>
<path d="M13.0355 2.59587C13.0926 2.75101 12.8106 2.90084 12.6785 2.95048C12.6999 2.8503 12.782 2.64463 12.857 2.59587C12.8704 2.587 12.915 2.59764 12.9462 2.59587C12.9739 2.5941 13.0185 2.58878 13.0355 2.59587Z" fill="#5D5D5D"/>
<path d="M14.2854 1.79775C14.3434 1.8208 14.4656 1.74899 14.4648 1.84296L14.2854 2.15236C14.2095 2.01938 14.1854 1.92718 14.2854 1.79775Z" fill="#5D5D5D"/>
<path d="M12.6788 2.95035C12.6689 2.99822 12.6788 3.07091 12.6788 3.12765C12.6395 3.16045 12.5101 3.19414 12.5003 3.2163C12.4708 3.18971 12.4289 3.16223 12.411 3.12765C12.5181 3.08333 12.5119 3.07889 12.5003 2.95035C12.5547 2.93971 12.6368 2.9663 12.6788 2.95035Z" fill="#5D5D5D"/>
<path d="M13.5712 1.17705C13.5114 1.22226 13.4365 1.25329 13.3588 1.2524L13.3035 1.17705C13.3686 1.14957 13.4918 0.963395 13.5712 1.17705Z" fill="#5D5D5D"/>
<path d="M13.6616 1.53186C13.625 1.41661 13.7955 1.08594 13.8383 1.17814C13.8624 1.33594 13.833 1.48931 13.6616 1.53186Z" fill="#5D5D5D"/>
<path d="M13.5711 2.50725H13.3042V2.33083C13.4274 2.30335 13.5425 2.3787 13.5711 2.50725Z" fill="#5D5D5D"/>
<path d="M12.0538 9.86532C11.4469 10.0878 12.1671 9.91585 11.8753 10.3086C11.8485 10.54 11.778 10.5213 11.6968 10.3086C11.7012 10.063 11.5317 10.1455 11.5183 10.1313C11.5049 10.1171 11.5281 10.0719 11.5183 10.0426C11.3549 9.98145 11.3442 9.90698 11.5183 9.86532H11.6388C11.8137 9.49563 11.878 9.72613 12.0538 9.86532Z" fill="#5D5D5D"/>
<path d="M11.8754 10.3085C11.8888 10.3226 11.8433 10.4237 11.8915 10.4698C12.004 10.5762 12.2476 10.5239 12.054 10.7517C12.0066 10.7686 11.8237 10.9707 11.7871 10.929C11.9906 10.5452 11.6809 10.7012 11.6184 10.5212C11.5916 10.4423 11.6961 10.3439 11.6969 10.3085C11.7469 10.3191 11.8603 10.2925 11.8754 10.3085Z" fill="#5D5D5D"/>
<path d="M11.0721 10.3087C11.0337 10.3176 10.9632 10.4018 10.8936 10.3974C10.8668 10.3664 10.8311 10.3407 10.8043 10.3087C10.8811 10.2715 10.99 10.1164 11.0721 10.3087Z" fill="#5D5D5D"/>
<path d="M11.5187 10.929C11.5187 10.9689 11.6454 11.0797 11.6079 11.1054L11.3402 11.0176C11.3562 10.9786 11.3277 10.8953 11.3402 10.8403L11.5178 10.929H11.5187Z" fill="#5D5D5D"/>
<path d="M14.3735 10.9291H14.1959V10.6641C14.3253 10.6942 14.4003 10.8068 14.3726 10.9291H14.3735Z" fill="#5D5D5D"/>
<path d="M12.9465 11.1952C12.9304 11.126 12.8099 11.0604 12.8581 10.9292L13.125 11.0187C13.1205 11.1021 13.0214 11.1801 12.9465 11.1952Z" fill="#5D5D5D"/>
<path d="M1.16435 12.8804C1.25539 12.969 0.990313 13.2358 0.897492 13.1454C0.80467 13.055 1.07153 12.7899 1.16435 12.8804Z" fill="#5D5D5D"/>
<path d="M1.96755 12.9691V13.1456H1.70068C1.73103 13.017 1.84438 12.9426 1.96755 12.97V12.9691Z" fill="#5D5D5D"/>
<path d="M11.5184 9.86529C11.5291 9.92026 11.5032 9.99916 11.5184 10.0426C10.8088 9.87327 11.322 9.76955 11.3399 9.68799C11.3702 9.68799 11.4059 9.69419 11.4291 9.68799C11.4487 9.7465 11.5076 9.81122 11.5184 9.86529Z" fill="#5D5D5D"/>
<path d="M11.0711 10.6641C11.0988 10.7864 11.0229 10.8999 10.8944 10.9291V10.6641H11.0711Z" fill="#5D5D5D"/>
<path d="M12.3214 3.12753C12.3295 3.18426 12.3098 3.25341 12.3214 3.30483C12.25 3.3926 12.1518 3.30306 12.1429 3.30483C12.0073 3.30129 12.0081 3.15678 12.1429 3.12753C12.1983 3.11777 12.2652 3.13551 12.3214 3.12753Z" fill="#5D5D5D"/>
<path d="M12.1434 3.12781V3.30511C12.0872 3.31664 12.0158 3.38667 11.9649 3.39376C11.9783 3.32639 11.9426 3.1544 11.9649 3.12781C11.9792 3.11096 12.0899 3.13756 12.1434 3.12781Z" fill="#5D5D5D"/>
</svg>
