<svg width="180" height="55" viewBox="0 0 180 55" fill="none" xmlns="http://www.w3.org/2000/svg">
<path d="M0.645143 28.5101C0.782296 28.56 1.02679 28.5133 1.19972 28.6379L0.853854 27.476L1.19972 27.7345C1.24444 27.2673 0.671978 26.4793 0.230704 26.3142V26.0619L0.493083 26.0058L0.367857 25.414L0.782296 25.5417C-0.0227303 24.4172 1.37861 24.8035 1.45315 24.7536C1.52173 24.7069 1.50682 24.4671 1.69764 24.4079C1.92722 24.3363 2.40726 24.5854 2.60404 24.573C2.66367 24.5699 3.35838 24.2522 3.3882 24.2241C3.51939 24.0995 3.44186 23.5949 3.56411 23.3177C3.72511 22.9564 5.6214 21.1093 6.07162 20.5424C6.52183 19.9755 6.93926 19.0317 7.49979 18.4835C7.7741 18.2156 8.33165 18.3184 8.02455 17.873L8.15276 17.7359C8.53738 17.9477 8.75504 16.8513 8.93691 16.6395C11.349 13.8268 13.8565 11.0608 16.3104 8.33843C16.4147 8.22318 16.686 7.55349 16.7904 7.48496L17.1899 7.60644C17.181 7.42267 17.0498 7.29496 17.1184 7.09872C17.3211 6.51936 18.6449 5.73754 18.7284 5.03047L18.9759 5.13637C18.9461 4.38881 20.1357 3.98077 20.2371 3.85306C20.2788 3.80011 20.6605 2.97156 20.744 2.83139C20.8274 2.69122 21.382 2.4981 21.4983 2.25515L20.9437 2.44827C20.7231 2.17104 22.2139 1.60726 22.4047 1.28643L22.202 1.86579L20.8036 3.6101C21.1673 3.28616 21.6802 3.00894 21.9962 2.65696C22.0916 2.55106 22.0827 2.32679 22.187 2.24269C22.351 2.11498 22.7327 2.47941 22.8847 2.12432L22.4703 1.80349C22.9175 1.59791 23.4542 1.54185 23.8925 1.40479C24.0088 1.36742 23.9998 1.16495 24.0893 1.15249C24.5425 1.09331 25.0553 1.6571 25.2014 1.15249C25.7709 1.25217 26.6892 1.26774 27.2408 1.15249C27.3541 1.13069 27.2766 0.918878 27.536 0.88773C28.3947 0.781825 29.4502 1.04659 30.3178 1.0279C31.9279 0.993634 34.4801 0.906419 36.0007 0.68215C36.2094 0.651002 36.5284 0.763136 36.594 0.750677C36.6954 0.731988 36.6388 0.529523 36.6626 0.513949C36.7252 0.473456 36.8594 0.672806 37.0055 0.697724C37.9089 0.856581 38.7139 0.485915 39.5041 0.442307C41.1469 0.358207 43.1028 0.675921 44.7993 0.641657C45.8101 0.622968 46.9908 0.411159 47.9926 0.376896C50.7774 0.283451 53.8276 0.39247 56.7674 0L56.8867 0.227383C60.7478 0.143283 64.764 0.0716414 68.5804 0.233613C69.6955 0.280336 70.9657 0.666576 72.0569 0.644772C72.6592 0.632313 73.3002 0.180661 73.5865 0.893959L73.658 0.504604C75.0176 0.436078 76.3981 0.610509 77.7517 0.616739C81.0643 0.626083 84.4782 0.411159 87.7758 0.367551C88.3244 0.361322 89.2189 0.806744 89.4425 0.249187L90.2803 0.632313L90.5576 0.246072C90.8588 0.925108 91.2195 0.429848 91.5535 0.401815C91.7652 0.383125 91.9172 0.57936 92.0872 0.57936C92.1557 0.57936 92.8177 0.336403 92.8505 0.376896L92.5732 0.890845C93.0353 1.19921 95.2208 0.97183 95.3311 1.04659C95.3848 1.08396 95.3937 1.28954 95.4862 1.34561C95.7485 1.50447 98.101 1.04659 98.6198 1.02167C99.0283 0.999864 99.6365 1.03101 100.143 1.01544C100.814 0.996749 101.727 1.18364 102.353 1.02167C102.475 0.99052 102.46 0.856581 102.448 0.766251L102.585 1.02478C103.074 0.473456 104.183 1.24594 104.461 0.638542C105.003 1.17741 105.963 0.510834 106.548 0.504604C106.998 0.498375 106.464 1.04347 107.174 0.897074L107.034 0.510834C107.433 0.345747 107.812 0.532638 108.194 0.498375C117.562 -0.333288 127.413 0.299025 136.87 0.261647C138.105 0.255417 139.378 0.323943 140.624 0.308369C141.146 0.30214 141.918 -0.10279 142.017 0.383125L142.163 0.115249C143.549 0.517064 145.121 0.230498 146.611 0.246072C147.369 0.255417 148.299 0.448537 149.11 0.436078C150.007 0.420504 151.024 0.140168 151.901 0.239843C152.205 0.274106 152.84 0.560671 153.502 0.573131C153.901 0.57936 154.864 0.39247 154.936 0.404929C155.189 0.454767 155.523 1.10888 155.926 0.376896C156.242 0.88773 158.749 0.750677 158.916 0.893959C159.024 1.4266 158.07 0.981175 157.804 1.21479L159.194 1.66955L158.916 1.85956C159.167 2.18973 159.635 2.33925 159.894 2.63204C160.064 2.82516 160.118 3.05254 160.353 3.35468C160.708 3.80945 160.985 4.52275 161.632 4.63177L161.558 5.01178C161.835 5.07096 162.342 5.19867 162.536 5.3731C162.932 5.73754 163.699 7.17036 164.14 7.72481C164.826 8.5845 166.448 10.0516 166.937 10.8739C167.062 11.0857 167.008 11.4408 167.053 11.4844C167.181 11.5997 167.438 11.5623 167.512 11.637C167.664 11.7897 167.333 12.123 167.792 11.8893C168.526 13.1228 169.62 14.1165 170.521 15.2253C172.286 17.4057 173.779 19.6079 175.735 21.7478C175.899 21.9254 175.846 22.2337 176.162 22.187L175.884 22.5701C176.63 22.377 176.564 23.0654 176.758 23.19C177.828 23.8815 178.225 25.6289 179.462 26.4824C179.567 26.9808 179.954 27.3981 179.999 27.9246C180.008 28.0149 179.957 28.2921 179.781 28.2485L179.501 27.8623L179.778 29.0241L179.364 28.5693C178.622 28.7469 179.784 29.6377 179.501 30.0551L179.227 29.9243C178.964 30.3759 179.358 30.5254 179.364 30.9584L178.809 30.8307L179.087 31.3446C178.562 31.4599 178.109 31.5689 177.766 31.0892L174.895 34.7461C171.555 39.0009 167.93 43.1312 164.384 47.1275C163.976 47.5885 163.663 48.6414 162.95 48.6382L163.228 48.8283C162.521 49.0276 162.798 50.0648 162.116 49.6693C162.306 50.0586 162.014 50.3826 161.695 50.6193C161.624 50.6722 161.451 50.5757 161.433 50.5913C161.352 50.6567 161.26 51.7687 160.446 51.6067L160.723 51.9275C160.404 52.1954 159.933 52.5318 159.653 52.8121C159.545 52.918 159.763 53.2731 159.197 53.1548L159.477 53.3448L159.325 53.6563L158.225 53.7995C158.084 53.6064 158.869 53.1548 158.296 53.1548L157.804 54.1858L156.719 54.0736C156.394 54.7838 155.109 55.6404 155.86 54.1889C155.75 54.0518 153.025 54.1484 152.625 54.1577C147.735 54.2481 142.896 54.2512 137.986 54.3041C136.572 54.3197 134.771 54.5782 133.394 54.4568C133.146 54.435 132.988 54.3727 132.836 54.1858L132.678 54.4505C132.145 54.3166 131.587 54.5907 131.167 54.1858L131.041 54.435L129.151 54.4443L129.083 54.1858C128.948 54.6437 128.403 54.4941 128.108 54.1889C127.947 54.1795 128.06 55.061 127.693 54.3166C127.225 54.7932 126.548 54.2138 125.877 54.2481C125.582 54.2636 124.95 54.5004 124.509 54.4412C124.47 54.435 124.297 54.0923 123.868 54.1889L124.005 54.5751C123.176 54.544 122.273 54.516 121.447 54.4319C120.248 54.3073 119.923 54.3166 118.787 54.2917C118.069 54.2761 117.141 54.1795 116.426 54.0581C116.202 54.4069 116.634 54.435 116.894 54.3228L117.049 54.7028C116.566 54.516 116.324 54.843 115.871 54.8461C115.007 54.8555 113.772 54.4599 112.833 54.7028C112.726 54.7309 112.66 55.3632 112.383 54.6935C112.162 54.6842 111.834 54.9427 111.688 54.9583C111.622 54.9645 111.688 54.6997 111.423 54.6873C110.937 54.6655 109.768 55.2479 109.816 54.7028L109.678 54.9583H109.401L109.333 54.6997L109.252 54.9396C108.966 54.7589 108.701 54.9645 108.51 54.9614C108.474 54.9614 108.167 54.2418 108.22 54.9614H107.94L107.866 54.706C107.579 54.9146 107.532 54.9365 107.174 54.8306C107.523 54.1515 106.599 54.9084 106.521 54.9333C105.907 55.1296 105.966 54.7589 105.82 54.7122C104.991 54.4412 105.09 54.8181 105 54.8368C104.431 54.9583 100.45 54.7558 99.6663 54.653C99.4666 54.6281 99.2847 54.4069 99.0402 54.4443L99.2459 54.7028C98.6914 54.7246 98.2024 54.3602 97.6448 54.4755C97.5524 54.4941 97.6001 54.8181 97.2274 54.706L97.1559 54.4443L96.81 54.7028L96.6013 54.4443V54.7028L96.1123 54.4381C95.8678 54.4381 95.7635 54.7091 95.6174 54.762C94.9554 54.9894 94.8988 54.5814 94.8362 54.572C94.6364 54.5409 94.213 54.4755 94.0222 54.4537C93.4319 54.3851 92.8206 54.5191 92.2213 54.3135C91.8695 54.6094 92.6984 54.5564 92.4271 54.8306C92.1706 55.086 91.4163 54.8492 91.1032 54.8368C90.8826 54.8274 89.046 54.9365 89.9225 54.2481C90.1014 54.1079 90.4205 54.5564 90.34 54.0581C89.5498 54.0176 88.9088 53.8681 88.1127 54.0581C88.5033 53.6033 87.5731 53.7715 87.418 53.9958L87.9726 54.1889C87.6386 54.2263 86.9618 53.9989 86.6726 54.0705C86.5563 54.0986 86.5742 54.301 86.4132 54.3602C85.7126 54.625 84.6123 54.2792 83.8461 54.2387C83.3422 54.2138 82.7399 54.2418 82.3165 54.2605C82.1048 54.2699 81.8604 54.3259 81.6516 54.3073C81.3147 54.2792 81.3028 53.9086 80.8794 54.3166V53.9272H80.462L80.7393 54.3135C80.301 54.0954 79.8776 53.8463 79.3499 53.9272L79.4155 54.1827L79.7643 54.3135H77.0511C77.0272 54.3135 76.9318 54.1297 76.7768 54.1172C76.574 54.0986 75.6408 54.2138 75.5901 54.1827L75.7302 53.9272L75.3814 53.7995C75.0594 54.5814 74.305 54.1204 73.8846 54.2107C73.4941 54.2917 73.4404 54.8056 73.1571 53.9272C73.0945 54.7278 72.2507 54.2481 71.7737 54.2512C70.4022 54.2574 68.9948 54.4194 67.7545 54.2699C63.3239 53.7404 58.2492 54.9707 53.6874 54.3851C52.8138 54.4973 51.9283 54.4194 51.0487 54.4443C43.2668 54.6592 35.2762 54.7122 27.4764 54.6312C26.6385 54.6219 25.4459 54.7558 24.6618 54.6592C23.9909 54.5782 22.3958 54.354 22.6015 53.541C22.1125 53.9086 21.9127 53.7466 21.4923 53.4133L21.7696 53.8649C20.8722 54.4381 20.9914 53.6033 20.7947 53.2544C20.7171 53.1174 20.4965 53.0862 20.4011 52.9461C20.1685 52.6066 20.0701 51.9026 19.5454 52.1206C19.7958 51.9369 19.4529 51.4946 19.3158 51.4852C19.1995 51.4759 19.0564 51.6223 18.8507 51.5475C18.1619 51.2952 15.4845 47.3331 14.8136 46.5077C14.3366 45.919 13.7074 45.268 13.1916 44.6388C10.0789 40.82 6.8021 36.9264 4.05309 33.2665C3.75493 32.8709 3.35838 32.4442 3.26595 31.9925L2.99165 32.248L1.32196 29.7312L1.59925 29.6035C1.05958 29.4384 0.731609 29.0334 0.627254 28.507C0.0846065 28.3139 -0.124104 27.7314 0.0726803 27.2175C0.349967 27.1926 0.123367 27.5259 0.24263 27.7065C0.505009 28.1052 0.463267 27.6878 0.627254 28.507L0.645143 28.5101ZM121.515 0.380011H120.961V0.635428H121.515V0.380011ZM51.8299 0.510834H50.9951V0.638542C51.3201 0.601164 51.7166 0.890845 51.8299 0.510834ZM92.3048 0.766251H91.6101V0.893959L92.3048 1.02478V0.766251ZM92.0275 1.28331H91.1957V1.41102H92.0275V1.28331ZM83.4048 1.67267C83.1037 1.60414 82.8383 1.42971 82.7101 1.79726L83.4048 1.92809V1.67267ZM124.852 3.08992H124.434L124.574 3.47616H124.852V3.08992ZM53.4996 3.34845L51.5526 3.22075L51.8329 3.73469H51.97C51.8955 3.30485 52.6409 3.49174 53.0166 3.47928C53.1835 3.47305 53.5324 3.57584 53.4996 3.35157V3.34845ZM52.5246 4.12094C51.973 4.29848 51.8359 4.43242 51.1352 4.25176L51.4125 4.50718L50.1006 4.37324L49.9426 4.64111C49.1823 4.23618 48.4249 4.70341 47.7243 4.61308C47.6348 4.60062 47.6736 4.41373 47.5692 4.38881C47.4589 4.36078 47.0802 4.48849 46.8954 4.37947L46.964 4.638C46.3885 4.53521 45.7445 4.73767 45.2257 4.74079C41.2841 4.78128 37.2619 4.92768 33.4127 4.79063C32.6345 4.76259 32.8372 4.72833 32.4019 4.63488C31.7281 4.4916 30.0107 5.04916 29.3667 4.37947C29.2325 4.84358 29.0059 4.54455 28.666 4.57882C28.5766 4.58816 28.4931 4.68784 28.3977 4.69407C27.2736 4.77817 26.1108 4.66915 24.9838 4.83112C24.6528 5.39491 23.9671 5.78115 23.5854 6.24526C20.0433 10.5873 16.0033 15.0291 12.4701 19.4086C12.0914 19.8789 11.4206 20.2216 11.3758 20.2745C11.3043 20.3586 11.4027 20.5922 11.3192 20.7324C11.1433 21.0408 9.88207 22.1808 9.53621 22.5359C8.40023 23.7102 6.69477 25.4015 5.78538 26.8935C5.6214 27.1614 5.29939 27.585 5.43356 27.8591C5.73768 28.3606 7.05852 29.4072 7.25232 29.8059C8.33463 32.0143 10.3114 33.8677 11.9036 35.8362C13.5792 37.9076 15.1267 40.0382 16.6383 42.1563C18.3438 44.5422 19.8793 46.8877 21.5848 49.2768C21.8889 49.7035 22.4196 50.1583 22.6402 50.6224C22.8967 51.1613 22.6492 51.7531 23.9164 51.4759C24.0804 51.4416 24.0476 51.4198 24.4858 51.345C27.4615 50.8436 30.2492 50.9744 33.2875 50.9183C33.8212 50.909 33.9911 50.9277 34.5189 50.9463C34.5815 50.9463 34.5636 50.7252 34.6709 50.7034C35.8218 50.4573 37.3782 50.8062 38.544 50.7595C38.9167 50.7439 39.5488 50.3483 39.6531 50.8311C42.8434 50.4604 46.3199 50.4853 49.6742 50.448C49.9426 50.448 50.7714 50.2829 50.9026 50.3203C51.007 50.3483 50.9831 50.557 51.0517 50.557C51.5079 50.5539 52.945 50.1209 53.3326 50.3483C53.3982 50.3888 53.2968 50.5944 53.425 50.5757C53.5622 50.5757 53.3684 50.3421 53.6934 50.3047C54.7399 50.1832 55.9743 50.557 57.0268 50.3047L57.1818 50.5757L57.5993 50.1863L57.7394 50.448L58.0853 50.1894L58.3625 50.5757L58.4311 50.1894L58.8396 50.3296L58.9916 50.0586H59.1974V50.4449C59.4121 50.4916 59.2749 50.2673 59.4389 50.1894C59.8563 49.9932 60.0114 50.2642 60.2558 50.2704C61.4216 50.3016 62.6083 50.2642 63.786 50.3171L63.2315 50.5726C64.0424 50.6099 64.8534 50.6567 65.6674 50.638C65.7896 50.638 66.052 50.6193 66.0133 50.4449C65.5153 50.4729 65.0264 50.4293 64.5434 50.3171C64.3108 50.2642 64.1379 50.448 64.2064 50.0555C64.925 50.1022 65.7539 49.8966 66.3919 50.2798C66.5291 50.3608 66.6394 50.2704 66.5708 50.5694L65.1814 50.9557C65.5601 50.8062 65.9059 51.1488 66.1087 51.1768C66.5529 51.236 67.9543 51.1862 68.4134 51.0741C70.1726 50.6411 72.3849 50.7844 74.2931 50.6535C74.803 50.6193 75.6855 50.3826 76.2162 50.3576C76.6456 50.3389 76.8901 50.4885 77.2836 50.5694L77.1405 50.314C77.7845 50.4822 78.2765 50.557 78.9503 50.4417L78.7416 50.7003C79.3737 50.937 79.5258 50.4262 79.5735 50.4417C79.6838 50.4729 79.8031 50.6535 79.9909 50.6567C80.137 50.6567 81.0434 50.2891 81.4519 50.2362C82.3195 50.1271 83.4376 50.638 83.7238 50.5726C84.0697 50.4916 83.8699 50.4449 84.6064 50.4012C86.1777 50.3078 87.9666 50.2362 89.5916 50.3047C89.9106 50.3171 90.1939 50.3514 90.492 50.4449L90.2147 50.7003C91.0377 50.7158 91.8814 50.747 92.6596 50.4511L92.7849 50.7003C93.6942 50.3109 94.9674 50.6068 95.996 50.3296L96.1332 50.5788C96.6371 50.3576 97.0754 50.4355 97.5852 50.5726V50.1863L97.8625 50.2486L97.7939 50.5726L98.11 50.3826L98.0026 50.1894H98.3515C98.3187 50.4916 99.5381 50.4137 99.887 50.3888C100.346 50.3545 101.819 49.9216 101.962 49.9153C103.435 49.8499 105.09 49.9153 106.551 49.8717C107.377 49.8468 108.238 49.8904 109.061 49.8593C109.95 49.825 110.829 49.6879 111.709 49.6879L111.775 50.0586C111.936 50.0337 112.034 49.5758 112.329 49.8032C112.642 50.043 111.971 50.0243 112.052 50.1894C112.618 50.2611 112.484 49.7316 113.155 49.7378C113.367 49.7378 113.501 49.9278 113.784 49.9403C115.773 50.0275 117.472 49.5883 119.738 49.9652C121.134 50.1957 121.25 50.2611 122.687 50.2486C125.427 50.2237 128.069 50.1334 130.746 50.2175C131.781 50.2517 133.012 50.4978 133.969 50.1957L134.086 50.4386C139.005 49.744 144.077 50.4791 148.982 50.3888C149.414 50.3794 150.186 49.8343 150.371 50.4511C150.499 50.4698 150.398 50.2642 150.463 50.2237C150.797 50.0275 153.084 50.5601 153.716 50.5601C154.348 50.5601 155.106 50.3452 155.792 50.448C156.346 50.3483 156.421 49.6817 156.698 49.3547C159.372 46.2024 162.238 43.3181 164.814 40.1067C166.126 38.4683 167.831 36.8174 168.976 35.341C169.385 34.8146 169.996 34.3567 170.216 33.8334L170.604 33.8054L170.521 33.416L171.021 33.2914C170.565 32.6716 171.734 32.899 171.46 32.4099C172.223 32.2417 171.821 31.3571 172.679 31.3478L172.545 31.0986C173.106 31.2232 172.897 30.8276 173.1 30.6469C173.141 30.6095 173.323 30.6999 173.353 30.6718C173.917 30.1579 174.376 28.9369 175.142 28.4572C175.178 27.9713 174.665 27.9027 174.492 27.6816C174.319 27.4604 174.265 27.1676 174.072 26.9371C173.607 26.3858 172.369 25.3922 172.11 24.844C171.967 24.5418 172.16 24.3643 172.11 24.2833C172.086 24.2459 171.835 24.1961 171.731 24.0497C171.579 23.8441 171.335 23.3177 171.224 23.2243C171.051 23.0779 170.771 23.1152 170.741 23.0903C170.726 23.0779 170.884 22.8816 170.81 22.7165C170.753 22.5857 170.041 21.7104 169.877 21.508C168.114 19.3214 166.018 17.2002 164.444 14.8048C164.361 14.6771 164.349 14.4747 164.337 14.3252L164.062 14.5806L163.43 13.1509C163.189 13.1695 161.746 11.4065 161.716 11.282C161.686 11.1574 161.865 10.9923 161.814 10.8646C161.782 10.7836 160.932 10.4285 161.141 10.0641L160.866 10.1949C160.801 10.0298 160.559 9.07042 160.511 9.02681C160.377 8.90222 159.811 8.60631 159.626 8.36646C159.56 8.28236 159.766 8.09236 159.727 8.02072C159.709 7.98645 159.223 7.69677 159.104 7.56906C158.725 7.16725 157.327 5.50392 157.148 5.13014C157.02 4.86227 157.05 4.00257 156.486 3.92782C156.087 3.87486 154.772 4.0306 154.259 4.07733C153.09 4.18323 151.907 4.0306 150.911 4.0088C149.363 3.97454 147.905 4.29848 146.319 4.15208L146.185 4.39504C145.672 4.04306 145.487 4.31094 145.073 4.32963C139.521 4.59128 133.993 4.36389 128.406 4.30783C126.906 4.29225 126.325 4.54144 124.885 4.14274C124.571 4.05552 124.467 4.2175 123.892 4.01815C123.367 3.83437 122.893 3.62568 122.332 3.61633C122.452 3.2114 123.28 3.59764 123.444 3.23321H121.986L122.055 3.61633L121.348 3.6724L121.22 4.26422C119.938 4.22372 118.707 4.36078 117.401 4.3234C116.318 4.29225 115.06 4.14897 113.921 4.12405C113.08 4.10536 112.171 4.29225 111.268 4.12405L110.999 4.39504C110.928 4.4075 110.904 3.86863 110.65 4.13651C110.549 4.24241 111.116 4.59439 110.436 4.52898C110.084 4.49472 109.962 4.3857 109.744 4.13651L109.607 4.39504C109.464 4.1552 108.587 3.95896 108.414 4.0711C108.283 4.1552 108.367 4.43553 108.146 4.39504L108.074 4.00569L107.35 4.62554C104.583 4.84046 101.861 4.88096 99.1028 4.90899L99.0342 4.65046C98.8941 4.74079 99.0462 4.89965 98.7629 4.92456C98.1875 4.9744 97.3616 4.78128 96.807 4.78128C95.4504 4.77817 94.1087 4.79686 92.7789 4.79063C92.12 4.78751 91.3448 4.83112 90.7246 4.7439C90.4712 4.70964 90.4771 4.39193 90.0657 4.78128C90.1074 4.24553 89.4276 4.72833 89.0191 4.79374C87.1199 5.09588 84.341 4.77817 82.3285 4.83735C81.7948 4.85292 80.4232 5.29212 80.3189 4.79063L80.1161 4.78128C79.9849 4.78751 80.1012 5.00866 79.9551 5.04293C78.9802 5.27654 76.7917 5.10211 75.6855 5.08965C74.639 5.07719 73.7833 4.9526 72.8709 4.92768C72.8053 4.92768 72.8262 5.14883 72.7218 5.17064C72.6175 5.19244 70.754 5.25162 70.6526 5.23916C70.4946 5.21736 70.1219 4.94637 69.7313 4.87161C69.1678 4.76571 68.5625 5.08342 68.0378 4.89653C67.9096 4.84981 67.9334 4.66603 67.8768 4.65046C67.4325 4.53521 67.6293 5.0367 67.2208 4.8903L66.4367 4.63488L66.4158 4.13651C66.0192 4.24864 66.4158 4.55701 66.061 4.76882C65.739 4.96194 64.8027 5.02735 64.8862 4.58816C65.25 4.14585 65.1576 4.74702 65.4408 4.77817L65.5869 4.20815C65.5601 3.98388 62.2923 4.12716 61.8987 4.13651C59.9517 4.18946 58.1836 4.36078 56.3172 4.27979C55.9117 4.2611 55.4615 4.46668 55.0023 4.19881L54.7936 3.62256L54.0392 3.74715L54.5968 3.48862C54.4954 3.12419 53.759 3.1491 53.6248 3.42633L53.9021 3.74715H53.0673L53.0792 4.07421C52.8854 4.18323 52.6319 4.09602 52.5127 4.13339C52.5962 4.04929 52.4471 3.62256 52.304 3.61945C51.8895 3.61633 52.2652 4.37947 52.5127 4.13339L52.5246 4.12094ZM75.1965 3.34845C73.7356 3.17402 72.3074 3.37649 70.8852 3.53846C71.0432 3.74092 71.2698 3.74715 71.5083 3.74404C72.2388 3.73781 73.1959 3.51354 73.8727 3.46682C74.2603 3.43878 74.955 3.69732 75.1936 3.34845H75.1965ZM49.1882 3.60387C49.0541 3.20517 48.6873 3.4637 48.3534 3.47616V3.60387H49.1882ZM50.5776 3.34845H49.7458V3.47616L50.5776 3.60699V3.34845ZM67.0449 4.43553C67.2298 4.29537 67.8201 4.12405 67.8231 4.05552C67.838 3.72535 67.0389 4.10536 66.9346 4.10536L66.8541 4.63488C67.0598 4.68472 66.9644 4.49472 67.0449 4.43242V4.43553ZM178.958 26.7035V26.5135L178.613 26.0588L178.413 26.3671L178.753 26.7004H178.958V26.7035ZM178.401 26.9621C178.452 26.6724 178.276 26.4201 177.986 26.3173C177.936 26.607 178.112 26.8593 178.401 26.9621ZM1.33985 28.7687L0.925412 28.831L1.33985 29.1549V28.7687ZM64.9041 50.965L63.5147 51.0927C63.8934 51.0927 64.6805 51.3824 64.9041 50.965ZM22.2049 51.7375C22.2884 51.6659 22.1274 51.4167 21.9962 51.3544L21.6474 51.4821C21.6474 51.7001 22.1036 51.8247 22.202 51.7375H22.2049ZM107.466 51.8683C107.001 51.8278 104.684 51.6908 104.547 51.8683C104.589 52.2452 105.096 52.3916 105.46 52.3667C105.647 52.3543 105.779 52.1736 105.984 52.1642C106.101 52.158 108.009 52.3138 107.469 51.8652L107.466 51.8683ZM25.6815 51.9992C25.1776 52.1923 24.6141 51.9774 24.2264 51.9992C24.0028 52.0116 23.821 52.2079 23.6629 52.211C23.4095 52.2172 23.2515 51.7967 22.9026 52.32C22.8907 52.6439 24.6349 52.401 24.8824 52.3543C25.0702 52.3169 25.6278 52.2016 25.6785 51.9992H25.6815ZM22.8996 52.7685L22.5389 52.1362C21.4417 52.0833 22.1185 52.918 22.8996 52.7685ZM23.1769 52.9025H22.4822V53.1579C22.7476 53.1766 23.0934 53.1921 23.1769 52.9025ZM92.0275 54.3228C91.5207 54.1297 91.2165 54.4879 90.6381 54.3851C90.7633 54.6935 92.4002 54.6842 92.0275 54.3228Z" fill="white"/>
<path d="M93.1397 0.76627V0.38003L93.5333 0.492164L93.6257 0.249207H93.8314C93.8702 0.619873 94.5709 0.834797 94.3949 0.249207C94.9734 0.342652 95.683 0.18691 96.0587 0.76627H93.1367H93.1397Z" fill="black"/>
<path d="M107.466 51.8684C108.006 52.3138 106.098 52.1612 105.981 52.1674C105.776 52.1767 105.647 52.3574 105.457 52.3698C105.093 52.3948 104.586 52.2484 104.544 51.8715C104.684 51.6939 106.998 51.831 107.463 51.8715L107.466 51.8684Z" fill="white"/>
<path d="M75.1966 3.34846C74.958 3.70044 74.2633 3.44191 73.8757 3.46682C73.1959 3.51355 72.2418 3.73782 71.5113 3.74405C71.2698 3.74405 71.0432 3.74093 70.8882 3.53847C72.3104 3.37649 73.7386 3.17091 75.1995 3.34846H75.1966Z" fill="white"/>
<path d="M25.6814 51.9991C25.6278 52.2016 25.0732 52.32 24.8853 52.3542C24.6379 52.401 22.8937 52.647 22.9056 52.32C23.2544 51.7967 23.4124 52.2172 23.6659 52.2109C23.8239 52.2078 24.0058 52.0116 24.2294 51.9991C24.617 51.9773 25.1805 52.1923 25.6844 51.9991H25.6814Z" fill="white"/>
<path d="M22.8996 52.7685C22.1214 52.918 21.4416 52.0833 22.5388 52.1362L22.8996 52.7685Z" fill="white"/>
<path d="M92.0276 54.3228C92.3973 54.681 90.7634 54.6935 90.6382 54.3851C91.2166 54.4879 91.5207 54.1297 92.0276 54.3228Z" fill="white"/>
<path d="M53.4997 3.34847C53.5325 3.57274 53.1837 3.46995 53.0167 3.47618C52.638 3.48864 51.8926 3.30487 51.9702 3.7316H51.833L51.5527 3.21765L53.4997 3.34536V3.34847Z" fill="white"/>
<path d="M67.0448 4.43551C66.9643 4.49781 67.0597 4.68782 66.854 4.63798L66.9345 4.10846C67.0389 4.10846 67.8379 3.72844 67.823 4.05862C67.823 4.12403 67.2297 4.29846 67.0448 4.43863V4.43551Z" fill="white"/>
<path d="M64.9041 50.965C64.6775 51.3824 63.8933 51.0896 63.5146 51.0927L64.9041 50.965Z" fill="white"/>
<path d="M178.958 26.7035H178.753L178.413 26.3703L178.613 26.0588L178.958 26.5135V26.7035Z" fill="white"/>
<path d="M83.4049 1.67268V1.9281L82.7102 1.79727C82.8384 1.42972 83.1038 1.60104 83.4049 1.67268Z" fill="white"/>
<path d="M178.401 26.962C178.112 26.8592 177.936 26.6069 177.986 26.3173C178.276 26.4201 178.452 26.6724 178.401 26.962Z" fill="white"/>
<path d="M23.1769 52.9025C23.0934 53.1953 22.7475 53.1766 22.4822 53.1579V52.9025H23.1769Z" fill="white"/>
<path d="M121.512 0.380005H120.958V0.635422H121.512V0.380005Z" fill="white"/>
<path d="M49.1884 3.6039H48.3535V3.47619C48.6875 3.46373 49.0512 3.2052 49.1884 3.6039Z" fill="white"/>
<path d="M22.205 51.7375C22.1036 51.8247 21.6534 51.7001 21.6504 51.4821L21.9992 51.3544C22.1304 51.4198 22.2914 51.6659 22.2079 51.7375H22.205Z" fill="white"/>
<path d="M51.83 0.510864C51.7167 0.890875 51.3231 0.601195 50.9951 0.638573V0.510864H51.83Z" fill="white"/>
<path d="M92.3048 0.766235V1.02477L91.6101 0.893944V0.766235H92.3048Z" fill="white"/>
<path d="M124.852 3.0899V3.47615H124.577L124.434 3.0899H124.852Z" fill="white"/>
<path d="M50.5777 3.34845V3.60387L49.7458 3.47616V3.34845H50.5777Z" fill="white"/>
<path d="M92.0245 1.28333H91.1926V1.41103H92.0245V1.28333Z" fill="white"/>
<path d="M1.33973 28.7687V29.1549L0.925293 28.8341L1.33973 28.7687Z" fill="white"/>
</svg>
