<svg width="170" height="55" viewBox="0 0 170 55" fill="none" xmlns="http://www.w3.org/2000/svg">
<path d="M0.609302 28.5101C0.738835 28.56 0.969742 28.5133 1.13307 28.6379L0.806417 27.476L1.13307 27.7345C1.1753 27.2673 0.634645 26.4793 0.217887 26.3142V26.0619L0.465689 26.0058L0.34742 25.414L0.738835 25.5417C-0.0214675 24.4172 1.30202 24.8035 1.37242 24.7536C1.43719 24.7069 1.42311 24.4671 1.60333 24.4079C1.82015 24.3363 2.27352 24.5854 2.45937 24.573C2.51569 24.5699 3.1718 24.2522 3.19996 24.2241C3.32386 24.0995 3.25065 23.5949 3.3661 23.3177C3.51816 22.9564 5.3091 21.1093 5.7343 20.5424C6.15951 19.9755 6.55374 19.0317 7.08314 18.4835C7.3422 18.2156 7.86878 18.3184 7.57874 17.873L7.69983 17.7359C8.06308 17.9477 8.26865 16.8513 8.44042 16.6395C10.7185 13.8268 13.0867 11.0608 15.4042 8.33843C15.5028 8.22318 15.759 7.55349 15.8576 7.48496L16.2349 7.60644C16.2265 7.42267 16.1026 7.29496 16.1673 7.09872C16.3588 6.51936 17.6091 5.73754 17.6879 5.03047L17.9217 5.13637C17.8935 4.38881 19.0171 3.98077 19.1128 3.85306C19.1522 3.80011 19.5127 2.97156 19.5915 2.83139C19.6704 2.69122 20.1941 2.4981 20.304 2.25515L19.7802 2.44827C19.5718 2.17104 20.9798 1.60726 21.16 1.28643L20.9685 1.86579L19.6478 3.6101C19.9914 3.28616 20.4757 3.00894 20.7742 2.65696C20.8643 2.55106 20.8559 2.32679 20.9544 2.24269C21.1093 2.11498 21.4697 2.47941 21.6134 2.12432L21.2219 1.80349C21.6443 1.59791 22.1512 1.54185 22.5651 1.40479C22.675 1.36742 22.6665 1.16495 22.751 1.15249C23.179 1.09331 23.6634 1.6571 23.8013 1.15249C24.3392 1.25217 25.2065 1.26774 25.7274 1.15249C25.8344 1.13069 25.7612 0.918878 26.0062 0.88773C26.8172 0.781825 27.8141 1.04659 28.6335 1.0279C30.1541 0.993634 32.5645 0.906419 34.0007 0.68215C34.1978 0.651002 34.4991 0.763136 34.561 0.750677C34.6568 0.731988 34.6033 0.529523 34.6258 0.513949C34.6849 0.473456 34.8117 0.672806 34.9496 0.697724C35.8029 0.856581 36.5632 0.485915 37.3094 0.442307C38.861 0.358207 40.7082 0.675921 42.3105 0.641657C43.2651 0.622968 44.3802 0.411159 45.3263 0.376896C47.9564 0.283451 50.8371 0.39247 53.6136 0L53.7263 0.227383C57.3729 0.143283 61.166 0.0716414 64.7704 0.233613C65.8235 0.280336 67.0231 0.666576 68.0538 0.644772C68.6226 0.632313 69.228 0.180661 69.4983 0.893959L69.5659 0.504604C70.85 0.436078 72.1538 0.610509 73.4322 0.616739C76.5607 0.626083 79.7849 0.411159 82.8994 0.367551C83.4175 0.361322 84.2623 0.806744 84.4735 0.249187L85.2648 0.632313L85.5266 0.246072C85.811 0.925108 86.1518 0.429848 86.4672 0.401815C86.6671 0.383125 86.8107 0.57936 86.9712 0.57936C87.036 0.57936 87.6611 0.336403 87.6921 0.376896L87.4302 0.890845C87.8667 1.19921 89.9308 0.97183 90.035 1.04659C90.0856 1.08396 90.0941 1.28954 90.1814 1.34561C90.4292 1.50447 92.651 1.04659 93.1409 1.02167C93.5267 0.999864 94.1012 1.03101 94.5799 1.01544C95.2135 0.996749 96.0751 1.18364 96.6665 1.02167C96.7819 0.99052 96.7678 0.856581 96.7566 0.766251L96.8861 1.02478C97.3479 0.473456 98.3955 1.24594 98.6573 0.638542C99.1698 1.17741 100.077 0.510834 100.628 0.504604C101.054 0.498375 100.55 1.04347 101.22 0.897074L101.087 0.510834C101.465 0.345747 101.822 0.532638 102.183 0.498375C111.031 -0.333288 120.334 0.299025 129.267 0.261647C130.432 0.255417 131.635 0.323943 132.812 0.308369C133.305 0.30214 134.034 -0.10279 134.127 0.383125L134.265 0.115249C135.574 0.517064 137.058 0.230498 138.466 0.246072C139.181 0.255417 140.06 0.448537 140.826 0.436078C141.674 0.420504 142.634 0.140168 143.462 0.239843C143.749 0.274106 144.349 0.560671 144.974 0.573131C145.351 0.57936 146.261 0.39247 146.328 0.404929C146.568 0.454767 146.883 1.10888 147.263 0.376896C147.562 0.88773 149.93 0.750677 150.088 0.893959C150.189 1.4266 149.288 0.981175 149.037 1.21479L150.349 1.66955L150.088 1.85956C150.324 2.18973 150.766 2.33925 151.011 2.63204C151.172 2.82516 151.222 3.05254 151.445 3.35468C151.78 3.80945 152.042 4.52275 152.653 4.63177L152.582 5.01178C152.844 5.07096 153.323 5.19867 153.506 5.3731C153.881 5.73754 154.604 7.17036 155.021 7.72481C155.669 8.5845 157.201 10.0516 157.662 10.8739C157.781 11.0857 157.73 11.4408 157.772 11.4844C157.893 11.5997 158.136 11.5623 158.206 11.637C158.35 11.7897 158.037 12.123 158.471 11.8893C159.163 13.1228 160.197 14.1165 161.047 15.2253C162.714 17.4057 164.125 19.6079 165.972 21.7478C166.127 21.9254 166.076 22.2337 166.375 22.187L166.113 22.5701C166.817 22.377 166.755 23.0654 166.938 23.19C167.949 23.8815 168.324 25.6289 169.492 26.4824C169.591 26.9808 169.957 27.3981 169.999 27.9246C170.008 28.0149 169.96 28.2921 169.793 28.2485L169.529 27.8623L169.791 29.0241L169.399 28.5693C168.698 28.7469 169.796 29.6377 169.529 30.0551L169.27 29.9243C169.022 30.3759 169.394 30.5254 169.399 30.9584L168.876 30.8307L169.137 31.3446C168.642 31.4599 168.214 31.5689 167.89 31.0892L165.178 34.7461C162.024 39.0009 158.6 43.1312 155.252 47.1275C154.866 47.5885 154.571 48.6414 153.898 48.6382L154.159 48.8283C153.492 49.0276 153.754 50.0648 153.109 49.6693C153.289 50.0586 153.013 50.3826 152.712 50.6193C152.644 50.6722 152.481 50.5757 152.464 50.5913C152.388 50.6567 152.301 51.7687 151.532 51.6067L151.794 51.9275C151.493 52.1954 151.048 52.5318 150.783 52.8121C150.682 52.918 150.887 53.2731 150.352 53.1548L150.617 53.3448L150.473 53.6563L149.434 53.7995C149.302 53.6064 150.043 53.1548 149.502 53.1548L149.037 54.1858L148.012 54.0736C147.705 54.7838 146.492 55.6404 147.201 54.1889C147.097 54.0518 144.523 54.1484 144.146 54.1577C139.528 54.2481 134.958 54.2512 130.32 54.3041C128.985 54.3197 127.284 54.5782 125.983 54.4568C125.749 54.435 125.6 54.3727 125.457 54.1858L125.307 54.4505C124.803 54.3166 124.277 54.5907 123.88 54.1858L123.761 54.435L121.976 54.4443L121.911 54.1858C121.785 54.6437 121.269 54.4941 120.991 54.1889C120.838 54.1795 120.945 55.061 120.599 54.3166C120.157 54.7932 119.518 54.2138 118.884 54.2481C118.605 54.2636 118.008 54.5004 117.592 54.4412C117.555 54.435 117.392 54.0923 116.986 54.1889L117.116 54.5751C116.333 54.544 115.48 54.516 114.7 54.4319C113.568 54.3073 113.261 54.3166 112.188 54.2917C111.509 54.2761 110.634 54.1795 109.958 54.0581C109.746 54.4069 110.155 54.435 110.4 54.3228L110.546 54.7028C110.09 54.516 109.862 54.843 109.434 54.8461C108.617 54.8555 107.452 54.4599 106.564 54.7028C106.463 54.7309 106.401 55.3632 106.139 54.6935C105.931 54.6842 105.621 54.9427 105.483 54.9583C105.421 54.9645 105.483 54.6997 105.233 54.6873C104.774 54.6655 103.67 55.2479 103.715 54.7028L103.585 54.9583H103.323L103.259 54.6997L103.183 54.9396C102.912 54.7589 102.662 54.9645 102.481 54.9614C102.448 54.9614 102.158 54.2418 102.208 54.9614H101.944L101.873 54.706C101.603 54.9146 101.558 54.9365 101.22 54.8306C101.549 54.1515 100.676 54.9084 100.603 54.9333C100.023 55.1296 100.079 54.7589 99.9414 54.7122C99.1586 54.4412 99.2515 54.8181 99.167 54.8368C98.6292 54.9583 94.8699 54.7558 94.1293 54.653C93.9406 54.6281 93.7689 54.4069 93.538 54.4443L93.7323 54.7028C93.2085 54.7246 92.7467 54.3602 92.2201 54.4755C92.1328 54.4941 92.1779 54.8181 91.8259 54.706L91.7583 54.4443L91.4317 54.7028L91.2345 54.4443V54.7028L90.7727 54.4381C90.5418 54.4381 90.4433 54.7091 90.3053 54.762C89.6801 54.9894 89.6266 54.5814 89.5675 54.572C89.3788 54.5409 88.979 54.4755 88.7988 54.4537C88.2412 54.3851 87.6639 54.5191 87.0979 54.3135C86.7656 54.6094 87.5485 54.5564 87.2922 54.8306C87.0501 55.086 86.3376 54.8492 86.0419 54.8368C85.8336 54.8274 84.099 54.9365 84.9268 54.2481C85.0958 54.1079 85.3971 54.5564 85.3211 54.0581C84.5748 54.0176 83.9694 53.8681 83.2176 54.0581C83.5865 53.6033 82.7079 53.7715 82.5615 53.9958L83.0852 54.1889C82.7698 54.2263 82.1306 53.9989 81.8575 54.0705C81.7477 54.0986 81.7645 54.301 81.6125 54.3602C80.9507 54.625 79.9117 54.2792 79.188 54.2387C78.7121 54.2138 78.1432 54.2418 77.7434 54.2605C77.5435 54.2699 77.3126 54.3259 77.1154 54.3073C76.7972 54.2792 76.786 53.9086 76.3861 54.3166V53.9272H75.9919L76.2538 54.3135C75.8398 54.0954 75.44 53.8463 74.9415 53.9272L75.0035 54.1827L75.3329 54.3135H72.7704C72.7479 54.3135 72.6578 54.1297 72.5114 54.1172C72.3199 54.0986 71.4385 54.2138 71.3906 54.1827L71.523 53.9272L71.1935 53.7995C70.8894 54.5814 70.177 54.1204 69.7799 54.2107C69.411 54.2917 69.3604 54.8056 69.0928 53.9272C69.0337 54.7278 68.2368 54.2481 67.7862 54.2512C66.4909 54.2574 65.1618 54.4194 63.9904 54.2699C59.8059 53.7404 55.0132 54.9707 50.7048 54.3851C49.8797 54.4973 49.0434 54.4194 48.2127 54.4443C40.8631 54.6592 33.3164 54.7122 25.9499 54.6312C25.1586 54.6219 24.0323 54.7558 23.2917 54.6592C22.6581 54.5782 21.1515 54.354 21.3458 53.541C20.884 53.9086 20.6954 53.7466 20.2983 53.4133L20.5602 53.8649C19.7126 54.4381 19.8252 53.6033 19.6394 53.2544C19.5662 53.1174 19.3578 53.0862 19.2677 52.9461C19.048 52.6066 18.9551 51.9026 18.4595 52.1206C18.6961 51.9369 18.3722 51.4946 18.2427 51.4852C18.1329 51.4759 17.9977 51.6223 17.8034 51.5475C17.1529 51.2952 14.6242 47.3331 13.9906 46.5077C13.5401 45.919 12.9459 45.268 12.4588 44.6388C9.51892 40.82 6.42421 36.9264 3.82792 33.2665C3.54632 32.8709 3.1718 32.4442 3.08451 31.9925L2.82544 32.248L1.24852 29.7312L1.5104 29.6035C1.00072 29.4384 0.690964 29.0334 0.592406 28.507C0.0799062 28.3139 -0.117209 27.7314 0.0686425 27.2175C0.330524 27.1926 0.116513 27.5259 0.229151 27.7065C0.476953 28.1052 0.43753 27.6878 0.592406 28.507L0.609302 28.5101ZM114.764 0.380011H114.241V0.635428H114.764V0.380011ZM48.9505 0.510834H48.162V0.638542C48.4689 0.601164 48.8435 0.890845 48.9505 0.510834ZM87.1768 0.766251H86.5207V0.893959L87.1768 1.02478V0.766251ZM86.9149 1.28331H86.1292V1.41102H86.9149V1.28331ZM78.7712 1.67267C78.4868 1.60414 78.2362 1.42971 78.1151 1.79726L78.7712 1.92809V1.67267ZM117.916 3.08992H117.521L117.654 3.47616H117.916V3.08992ZM50.5274 3.34845L48.6886 3.22075L48.9533 3.73469H49.0828C49.0124 3.30485 49.7164 3.49174 50.0712 3.47928C50.2289 3.47305 50.5584 3.57584 50.5274 3.35157V3.34845ZM49.6066 4.12094C49.0856 4.29848 48.9561 4.43242 48.2943 4.25176L48.5562 4.50718L47.3172 4.37324L47.168 4.64111C46.4499 4.23618 45.7347 4.70341 45.0729 4.61308C44.9884 4.60062 45.025 4.41373 44.9265 4.38881C44.8223 4.36078 44.4647 4.48849 44.2901 4.37947L44.3549 4.638C43.8114 4.53521 43.2031 4.73767 42.7132 4.74079C38.9905 4.78128 35.1918 4.92768 31.5564 4.79063C30.8215 4.76259 31.013 4.72833 30.6018 4.63488C29.9654 4.4916 28.3434 5.04916 27.7352 4.37947C27.6085 4.84358 27.3945 4.54455 27.0735 4.57882C26.989 4.58816 26.9101 4.68784 26.82 4.69407C25.7584 4.77817 24.6602 4.66915 23.5958 4.83112C23.2832 5.39491 22.6355 5.78115 22.2751 6.24526C18.9298 10.5873 15.1142 15.0291 11.7773 19.4086C11.4197 19.8789 10.7861 20.2216 10.7439 20.2745C10.6763 20.3586 10.7692 20.5922 10.6903 20.7324C10.5242 21.0408 9.33307 22.1808 9.00642 22.5359C7.93355 23.7102 6.32283 25.4015 5.46397 26.8935C5.3091 27.1614 5.00498 27.585 5.13169 27.8591C5.41892 28.3606 6.66638 29.4072 6.84941 29.8059C7.8716 32.0143 9.73856 33.8677 11.2423 35.8362C12.8248 37.9076 14.2863 40.0382 15.714 42.1563C17.3247 44.5422 18.7749 46.8877 20.3856 49.2768C20.6728 49.7035 21.1741 50.1583 21.3825 50.6224C21.6246 51.1613 21.3909 51.7531 22.5877 51.4759C22.7426 51.4416 22.7116 51.4198 23.1255 51.345C25.9358 50.8436 28.5687 50.9744 31.4382 50.9183C31.9422 50.909 32.1027 50.9277 32.6011 50.9463C32.6603 50.9463 32.6434 50.7252 32.7448 50.7034C33.8317 50.4573 35.3016 50.8062 36.4027 50.7595C36.7546 50.7439 37.3516 50.3483 37.4502 50.8311C40.4632 50.4604 43.7466 50.4853 46.9145 50.448C47.168 50.448 47.9508 50.2829 48.0747 50.3203C48.1733 50.3483 48.1507 50.557 48.2155 50.557C48.6463 50.5539 50.0036 50.1209 50.3697 50.3483C50.4316 50.3888 50.3359 50.5944 50.457 50.5757C50.5865 50.5757 50.4035 50.3421 50.7104 50.3047C51.6988 50.1832 52.8646 50.557 53.8586 50.3047L54.0051 50.5757L54.3993 50.1863L54.5316 50.448L54.8583 50.1894L55.1202 50.5757L55.1849 50.1894L55.5707 50.3296L55.7143 50.0586H55.9086V50.4449C56.1114 50.4916 55.9818 50.2673 56.1367 50.1894C56.531 49.9932 56.6774 50.2642 56.9083 50.2704C58.0093 50.3016 59.1301 50.2642 60.2424 50.3171L59.7186 50.5726C60.4845 50.6099 61.2505 50.6567 62.0192 50.638C62.1347 50.638 62.3825 50.6193 62.3459 50.4449C61.8756 50.4729 61.4138 50.4293 60.9576 50.3171C60.738 50.2642 60.5746 50.448 60.6394 50.0555C61.318 50.1022 62.1009 49.8966 62.7035 50.2798C62.833 50.3608 62.9372 50.2704 62.8724 50.5694L61.5602 50.9557C61.9178 50.8062 62.2445 51.1488 62.436 51.1768C62.8555 51.236 64.179 51.1862 64.6127 51.0741C66.2741 50.6411 68.3635 50.7844 70.1657 50.6535C70.6472 50.6193 71.4808 50.3826 71.982 50.3576C72.3875 50.3389 72.6184 50.4885 72.9901 50.5694L72.8549 50.314C73.4632 50.4822 73.9278 50.557 74.5642 50.4417L74.3671 50.7003C74.9641 50.937 75.1077 50.4262 75.1527 50.4417C75.2569 50.4729 75.3696 50.6535 75.547 50.6567C75.6849 50.6567 76.541 50.2891 76.9268 50.2362C77.7462 50.1271 78.8022 50.638 79.0725 50.5726C79.3992 50.4916 79.2105 50.4449 79.906 50.4012C81.39 50.3078 83.0796 50.2362 84.6143 50.3047C84.9156 50.3171 85.1831 50.3514 85.4647 50.4449L85.2028 50.7003C85.98 50.7158 86.7769 50.747 87.5119 50.4511L87.6301 50.7003C88.489 50.3109 89.6914 50.6068 90.6629 50.3296L90.7924 50.5788C91.2683 50.3576 91.6823 50.4355 92.1638 50.5726V50.1863L92.4257 50.2486L92.3609 50.5726L92.6594 50.3826L92.558 50.1894H92.8875C92.8565 50.4916 94.0082 50.4137 94.3377 50.3888C94.7714 50.3545 96.1624 49.9216 96.2976 49.9153C97.6887 49.8499 99.2515 49.9153 100.631 49.8717C101.411 49.8468 102.225 49.8904 103.002 49.8593C103.841 49.825 104.672 49.6879 105.503 49.6879L105.565 50.0586C105.717 50.0337 105.81 49.5758 106.089 49.8032C106.384 50.043 105.751 50.0243 105.827 50.1894C106.362 50.2611 106.235 49.7316 106.869 49.7378C107.069 49.7378 107.195 49.9278 107.463 49.9403C109.341 50.0275 110.946 49.5883 113.086 49.9652C114.404 50.1957 114.514 50.2611 115.871 50.2486C118.459 50.2237 120.954 50.1334 123.483 50.2175C124.46 50.2517 125.623 50.4978 126.527 50.1957L126.636 50.4386C131.283 49.744 136.073 50.4791 140.705 50.3888C141.113 50.3794 141.843 49.8343 142.017 50.4511C142.138 50.4698 142.042 50.2642 142.104 50.2237C142.42 50.0275 144.58 50.5601 145.177 50.5601C145.774 50.5601 146.489 50.3452 147.136 50.448C147.66 50.3483 147.731 49.6817 147.993 49.3547C150.518 46.2024 153.225 43.3181 155.658 40.1067C156.897 38.4683 158.507 36.8174 159.589 35.341C159.974 34.8146 160.552 34.3567 160.76 33.8334L161.126 33.8054L161.047 33.416L161.52 33.2914C161.089 32.6716 162.193 32.899 161.934 32.4099C162.655 32.2417 162.275 31.3571 163.086 31.3478L162.959 31.0986C163.489 31.2232 163.292 30.8276 163.483 30.6469C163.522 30.6095 163.694 30.6999 163.722 30.6718C164.255 30.1579 164.688 28.9369 165.412 28.4572C165.446 27.9713 164.961 27.9027 164.798 27.6816C164.635 27.4604 164.584 27.1676 164.401 26.9371C163.962 26.3858 162.793 25.3922 162.548 24.844C162.413 24.5418 162.596 24.3643 162.548 24.2833C162.526 24.2459 162.289 24.1961 162.19 24.0497C162.047 23.8441 161.816 23.3177 161.712 23.2243C161.548 23.0779 161.284 23.1152 161.256 23.0903C161.242 23.0779 161.391 22.8816 161.32 22.7165C161.267 22.5857 160.594 21.7104 160.439 21.508C158.775 19.3214 156.795 17.2002 155.308 14.8048C155.229 14.6771 155.218 14.4747 155.207 14.3252L154.948 14.5806L154.351 13.1509C154.123 13.1695 152.76 11.4065 152.732 11.282C152.704 11.1574 152.873 10.9923 152.825 10.8646C152.794 10.7836 151.991 10.4285 152.188 10.0641L151.929 10.1949C151.867 10.0298 151.639 9.07042 151.594 9.02681C151.467 8.90222 150.932 8.60631 150.758 8.36646C150.696 8.28236 150.89 8.09236 150.854 8.02072C150.837 7.98645 150.378 7.69677 150.265 7.56906C149.907 7.16725 148.587 5.50392 148.418 5.13014C148.297 4.86227 148.325 4.00257 147.793 3.92782C147.415 3.87486 146.173 4.0306 145.689 4.07733C144.585 4.18323 143.467 4.0306 142.527 4.0088C141.065 3.97454 139.688 4.29848 138.19 4.15208L138.064 4.39504C137.579 4.04306 137.405 4.31094 137.013 4.32963C131.77 4.59128 126.549 4.36389 121.272 4.30783C119.856 4.29225 119.307 4.54144 117.946 4.14274C117.651 4.05552 117.552 4.2175 117.009 4.01815C116.513 3.83437 116.065 3.62568 115.536 3.61633C115.649 3.2114 116.432 3.59764 116.586 3.23321H115.209L115.274 3.61633L114.607 3.6724L114.486 4.26422C113.275 4.22372 112.112 4.36078 110.878 4.3234C109.856 4.29225 108.668 4.14897 107.592 4.12405C106.798 4.10536 105.939 4.29225 105.086 4.12405L104.833 4.39504C104.765 4.4075 104.743 3.86863 104.503 4.13651C104.407 4.24241 104.943 4.59439 104.3 4.52898C103.968 4.49472 103.853 4.3857 103.647 4.13651L103.518 4.39504C103.382 4.1552 102.555 3.95896 102.391 4.0711C102.267 4.1552 102.346 4.43553 102.138 4.39504L102.07 4.00569L101.386 4.62554C98.7728 4.84046 96.2018 4.88096 93.5971 4.90899L93.5323 4.65046C93.4 4.74079 93.5436 4.89965 93.2761 4.92456C92.7326 4.9744 91.9526 4.78128 91.4288 4.78128C90.1476 4.77817 88.8804 4.79686 87.6245 4.79063C87.0022 4.78751 86.27 4.83112 85.6843 4.7439C85.445 4.70964 85.4506 4.39193 85.062 4.78128C85.1014 4.24553 84.4594 4.72833 84.0736 4.79374C82.2799 5.09588 79.6554 4.77817 77.7547 4.83735C77.2506 4.85292 75.9553 5.29212 75.8567 4.79063L75.6652 4.78128C75.5413 4.78751 75.6512 5.00866 75.5132 5.04293C74.5924 5.27654 72.5255 5.10211 71.4808 5.08965C70.4924 5.07719 69.6842 4.9526 68.8225 4.92768C68.7606 4.92768 68.7803 5.14883 68.6817 5.17064C68.5832 5.19244 66.8232 5.25162 66.7275 5.23916C66.5782 5.21736 66.2262 4.94637 65.8573 4.87161C65.3251 4.76571 64.7535 5.08342 64.2579 4.89653C64.1368 4.84981 64.1593 4.66603 64.1058 4.65046C63.6862 4.53521 63.8721 5.0367 63.4863 4.8903L62.7457 4.63488L62.726 4.13651C62.3515 4.24864 62.726 4.55701 62.3909 4.76882C62.0868 4.96194 61.2026 5.02735 61.2814 4.58816C61.625 4.14585 61.5377 4.74702 61.8052 4.77817L61.9432 4.20815C61.9178 3.98388 58.8316 4.12716 58.4599 4.13651C56.6211 4.18946 54.9512 4.36078 53.1884 4.27979C52.8055 4.2611 52.3803 4.46668 51.9466 4.19881L51.7495 3.62256L51.0371 3.74715L51.5636 3.48862C51.4679 3.12419 50.7724 3.1491 50.6456 3.42633L50.9075 3.74715H50.1191L50.1303 4.07421C49.9473 4.18323 49.7079 4.09602 49.5953 4.13339C49.6742 4.04929 49.5334 3.62256 49.3982 3.61945C49.0068 3.61633 49.3616 4.37947 49.5953 4.13339L49.6066 4.12094ZM71.0189 3.34845C69.6391 3.17402 68.2903 3.37649 66.9471 3.53846C67.0963 3.74092 67.3104 3.74715 67.5356 3.74404C68.2255 3.73781 69.1294 3.51354 69.7687 3.46682C70.1347 3.43878 70.7909 3.69732 71.0161 3.34845H71.0189ZM46.4555 3.60387C46.3288 3.20517 45.9825 3.4637 45.6671 3.47616V3.60387H46.4555ZM47.7678 3.34845H46.9821V3.47616L47.7678 3.60699V3.34845ZM63.3202 4.43553C63.4948 4.29537 64.0523 4.12405 64.0551 4.05552C64.0692 3.72535 63.3145 4.10536 63.216 4.10536L63.14 4.63488C63.3343 4.68472 63.2441 4.49472 63.3202 4.43242V4.43553ZM169.016 26.7035V26.5135L168.69 26.0588L168.501 26.3671L168.822 26.7004H169.016V26.7035ZM168.49 26.9621C168.538 26.6724 168.371 26.4201 168.098 26.3173C168.05 26.607 168.217 26.8593 168.49 26.9621ZM1.26541 28.7687L0.874 28.831L1.26541 29.1549V28.7687ZM61.2983 50.965L59.9861 51.0927C60.3437 51.0927 61.0871 51.3824 61.2983 50.965ZM20.9713 51.7375C21.0502 51.6659 20.8981 51.4167 20.7742 51.3544L20.4447 51.4821C20.4447 51.7001 20.8756 51.8247 20.9685 51.7375H20.9713ZM101.496 51.8683C101.057 51.8278 98.8685 51.6908 98.739 51.8683C98.7784 52.2452 99.2571 52.3916 99.6007 52.3667C99.7781 52.3543 99.902 52.1736 100.096 52.1642C100.206 52.158 102.008 52.3138 101.499 51.8652L101.496 51.8683ZM24.2547 51.9992C23.7788 52.1923 23.2466 51.9774 22.8805 51.9992C22.6693 52.0116 22.4976 52.2079 22.3483 52.211C22.109 52.2172 21.9597 51.7967 21.6303 52.32C21.619 52.6439 23.2663 52.401 23.5 52.3543C23.6774 52.3169 24.204 52.2016 24.2519 51.9992H24.2547ZM21.6274 52.7685L21.2867 52.1362C20.2504 52.0833 20.8897 52.918 21.6274 52.7685ZM21.8893 52.9025H21.2332V53.1579C21.4838 53.1766 21.8105 53.1921 21.8893 52.9025ZM86.9149 54.3228C86.4362 54.1297 86.149 54.4879 85.6027 54.3851C85.7209 54.6935 87.2669 54.6842 86.9149 54.3228Z" fill="black"/>
<path d="M87.9697 0.766575V0.380335L88.3414 0.492469L88.4287 0.249512H88.623C88.6596 0.620178 89.3214 0.835102 89.1552 0.249512C89.7015 0.342957 90.3717 0.187215 90.7265 0.766575H87.9669H87.9697Z" fill="black"/>
<path d="M101.496 51.8683C102.006 52.3137 100.203 52.1611 100.094 52.1673C99.8993 52.1767 99.7782 52.3573 99.598 52.3698C99.2545 52.3947 98.7758 52.2483 98.7363 51.8714C98.8687 51.6939 101.054 51.8309 101.493 51.8714L101.496 51.8683Z" fill="black"/>
<path d="M71.0182 3.3487C70.793 3.70068 70.1369 3.44215 69.7708 3.46707C69.1288 3.51379 68.2277 3.73806 67.5377 3.74429C67.3097 3.74429 67.0956 3.74117 66.9492 3.53871C68.2924 3.37674 69.6413 3.17116 71.0211 3.3487H71.0182Z" fill="black"/>
<path d="M24.2506 51.9991C24.1999 52.2016 23.6761 52.32 23.4987 52.3542C23.265 52.401 21.6177 52.647 21.629 52.32C21.9584 51.7967 22.1077 52.2172 22.347 52.2109C22.4963 52.2078 22.668 52.0116 22.8792 51.9991C23.2453 51.9773 23.7775 52.1923 24.2534 51.9991H24.2506Z" fill="black"/>
<path d="M21.6223 52.7685C20.8874 52.918 20.2453 52.0833 21.2816 52.1362L21.6223 52.7685Z" fill="black"/>
<path d="M86.9196 54.3228C87.2688 54.681 85.7257 54.6935 85.6074 54.3851C86.1537 54.4879 86.4409 54.1297 86.9196 54.3228Z" fill="black"/>
<path d="M50.5263 3.3486C50.5573 3.57287 50.2278 3.47008 50.0701 3.47631C49.7125 3.48876 49.0085 3.30499 49.0817 3.73172H48.9522L48.6875 3.21777L50.5263 3.34548V3.3486Z" fill="black"/>
<path d="M63.315 4.43557C63.239 4.49787 63.3291 4.68788 63.1348 4.63804L63.2108 4.10852C63.3094 4.10852 64.064 3.72851 64.0499 4.05868C64.0499 4.12409 63.4896 4.29852 63.315 4.43869V4.43557Z" fill="black"/>
<path d="M61.2986 50.9653C61.0845 51.3827 60.344 51.0899 59.9863 51.093L61.2986 50.9653Z" fill="black"/>
<path d="M169.011 26.7034H168.817L168.496 26.3701L168.685 26.0586L169.011 26.5134V26.7034Z" fill="black"/>
<path d="M78.7753 1.67268V1.9281L78.1191 1.79727C78.2402 1.42972 78.4908 1.60104 78.7753 1.67268Z" fill="black"/>
<path d="M168.48 26.9622C168.207 26.8594 168.04 26.6071 168.088 26.3174C168.361 26.4202 168.528 26.6725 168.48 26.9622Z" fill="black"/>
<path d="M21.8926 52.9023C21.8137 53.1951 21.4871 53.1764 21.2365 53.1578V52.9023H21.8926Z" fill="black"/>
<path d="M114.76 0.379883H114.236V0.6353H114.76V0.379883Z" fill="black"/>
<path d="M46.4603 3.6039H45.6719V3.47619C45.9873 3.46373 46.3308 3.2052 46.4603 3.6039Z" fill="black"/>
<path d="M20.9749 51.7376C20.8792 51.8248 20.454 51.7002 20.4512 51.4822L20.7806 51.3545C20.9045 51.4199 21.0566 51.666 20.9778 51.7376H20.9749Z" fill="black"/>
<path d="M48.9465 0.510742C48.8395 0.890753 48.4678 0.601073 48.1581 0.638451V0.510742H48.9465Z" fill="black"/>
<path d="M87.1795 0.766113V1.02465L86.5234 0.893822V0.766113H87.1795Z" fill="black"/>
<path d="M117.92 3.08984V3.47608H117.661L117.526 3.08984H117.92Z" fill="black"/>
<path d="M47.7603 3.34863V3.60405L46.9746 3.47634V3.34863H47.7603Z" fill="black"/>
<path d="M86.9106 1.2832H86.125V1.41091H86.9106V1.2832Z" fill="black"/>
<path d="M1.26641 28.7686V29.1548L0.875 28.834L1.26641 28.7686Z" fill="black"/>
</svg>
