<svg width="130" height="55" viewBox="0 0 130 55" fill="none" xmlns="http://www.w3.org/2000/svg">
<path d="M0.465937 28.5101C0.564991 28.56 0.741567 28.5133 0.866462 28.6379L0.616672 27.476L0.866462 27.7345C0.898763 27.2673 0.485317 26.4793 0.16662 26.3142V26.0619L0.356115 26.0058L0.265674 25.414L0.564991 25.5417C-0.0164163 24.4172 0.995664 24.8035 1.0495 24.7536C1.09903 24.7069 1.08826 24.4671 1.22607 24.4079C1.39188 24.3363 1.73857 24.5854 1.8807 24.573C1.92376 24.5699 2.4255 24.2522 2.44703 24.2241C2.54178 24.0995 2.48579 23.5949 2.57408 23.3177C2.69036 22.9564 4.0599 21.1093 4.38506 20.5424C4.71021 19.9755 5.01168 19.0317 5.41652 18.4835C5.61463 18.2156 6.0173 18.3184 5.79551 17.873L5.8881 17.7359C6.16589 17.9477 6.32308 16.8513 6.45444 16.6395C8.19651 13.8268 10.0075 11.0608 11.7797 8.33843C11.8551 8.22318 12.051 7.55349 12.1264 7.48496L12.4149 7.60644C12.4085 7.42267 12.3137 7.29496 12.3633 7.09872C12.5097 6.51936 13.4658 5.73754 13.5261 5.03047L13.7048 5.13637C13.6833 4.38881 14.5425 3.98077 14.6157 3.85306C14.6458 3.80011 14.9215 2.97156 14.9818 2.83139C15.042 2.69122 15.4426 2.4981 15.5266 2.25515L15.126 2.44827C14.9667 2.17104 16.0434 1.60726 16.1812 1.28643L16.0347 1.86579L15.0248 3.6101C15.2875 3.28616 15.6579 3.00894 15.8862 2.65696C15.9551 2.55106 15.9486 2.32679 16.024 2.24269C16.1424 2.11498 16.418 2.47941 16.5279 2.12432L16.2285 1.80349C16.5516 1.59791 16.9392 1.54185 17.2557 1.40479C17.3397 1.36742 17.3332 1.16495 17.3978 1.15249C17.7251 1.09331 18.0955 1.6571 18.201 1.15249C18.6123 1.25217 19.2756 1.26774 19.6739 1.15249C19.7558 1.13069 19.6998 0.918878 19.8871 0.88773C20.5073 0.781825 21.2696 1.04659 21.8962 1.0279C23.059 0.993634 24.9023 0.906419 26.0005 0.68215C26.1512 0.651002 26.3817 0.763136 26.429 0.750677C26.5022 0.731988 26.4613 0.529523 26.4786 0.513949C26.5238 0.473456 26.6207 0.672806 26.7262 0.697724C27.3787 0.856581 27.9601 0.485915 28.5307 0.442307C29.7172 0.358207 31.1298 0.675921 32.3551 0.641657C33.0851 0.622968 33.9378 0.411159 34.6613 0.376896C36.6726 0.283451 38.8755 0.39247 40.9987 0L41.0848 0.227383C43.8734 0.143283 46.774 0.0716414 49.5303 0.233613C50.3357 0.280336 51.253 0.666576 52.0411 0.644772C52.4761 0.632313 52.9391 0.180661 53.1458 0.893959L53.1975 0.504604C54.1794 0.436078 55.1764 0.610509 56.154 0.616739C58.5464 0.626083 61.012 0.411159 63.3936 0.367551C63.7899 0.361322 64.4359 0.806744 64.5974 0.249187L65.2025 0.632313L65.4027 0.246072C65.6202 0.925108 65.8808 0.429848 66.1219 0.401815C66.2748 0.383125 66.3847 0.57936 66.5074 0.57936C66.5569 0.57936 67.035 0.336403 67.0587 0.376896L66.8584 0.890845C67.1922 1.19921 68.7706 0.97183 68.8503 1.04659C68.889 1.08396 68.8955 1.28954 68.9622 1.34561C69.1517 1.50447 70.8507 1.04659 71.2254 1.02167C71.5204 0.999864 71.9597 1.03101 72.3258 1.01544C72.8103 0.996749 73.4692 1.18364 73.9214 1.02167C74.0097 0.99052 73.9989 0.856581 73.9903 0.766251L74.0894 1.02478C74.4425 0.473456 75.2436 1.24594 75.4439 0.638542C75.8358 1.17741 76.5291 0.510834 76.9512 0.504604C77.2764 0.498375 76.8909 1.04347 77.4034 0.897074L77.3022 0.510834C77.5908 0.345747 77.8642 0.532638 78.1399 0.498375C84.9057 -0.333288 92.0204 0.299025 98.8509 0.261647C99.7424 0.255417 100.662 0.323943 101.562 0.308369C101.939 0.30214 102.497 -0.10279 102.568 0.383125L102.673 0.115249C103.674 0.517064 104.809 0.230498 105.886 0.246072C106.433 0.255417 107.105 0.448537 107.69 0.436078C108.339 0.420504 109.073 0.140168 109.706 0.239843C109.926 0.274106 110.384 0.560671 110.862 0.573131C111.151 0.57936 111.846 0.39247 111.898 0.404929C112.081 0.454767 112.322 1.10888 112.613 0.376896C112.841 0.88773 114.652 0.750677 114.773 0.893959C114.85 1.4266 114.161 0.981175 113.97 1.21479L114.973 1.66955L114.773 1.85956C114.954 2.18973 115.292 2.33925 115.479 2.63204C115.602 2.82516 115.641 3.05254 115.811 3.35468C116.067 3.80945 116.267 4.52275 116.735 4.63177L116.681 5.01178C116.881 5.07096 117.247 5.19867 117.387 5.3731C117.673 5.73754 118.227 7.17036 118.546 7.72481C119.041 8.5845 120.212 10.0516 120.565 10.8739C120.656 11.0857 120.617 11.4408 120.649 11.4844C120.742 11.5997 120.927 11.5623 120.981 11.637C121.091 11.7897 120.852 12.123 121.183 11.8893C121.713 13.1228 122.503 14.1165 123.154 15.2253C124.429 17.4057 125.507 19.6079 126.92 21.7478C127.038 21.9254 127 22.2337 127.228 22.187L127.028 22.5701C127.566 22.377 127.519 23.0654 127.659 23.19C128.432 23.8815 128.718 25.6289 129.612 26.4824C129.687 26.9808 129.967 27.3981 129.999 27.9246C130.006 28.0149 129.969 28.2921 129.842 28.2485L129.64 27.8623L129.84 29.0241L129.541 28.5693C129.004 28.7469 129.844 29.6377 129.64 30.0551L129.442 29.9243C129.252 30.3759 129.536 30.5254 129.541 30.9584L129.14 30.8307L129.34 31.3446C128.961 31.4599 128.634 31.5689 128.386 31.0892L126.313 34.7461C123.901 39.0009 121.282 43.1312 118.722 47.1275C118.427 47.5885 118.201 48.6414 117.686 48.6382L117.887 48.8283C117.376 49.0276 117.577 50.0648 117.083 49.6693C117.221 50.0586 117.01 50.3826 116.78 50.6193C116.728 50.6722 116.603 50.5757 116.59 50.5913C116.532 50.6567 116.465 51.7687 115.878 51.6067L116.078 51.9275C115.847 52.1954 115.507 52.5318 115.305 52.8121C115.227 52.918 115.384 53.2731 114.975 53.1548L115.178 53.3448L115.068 53.6563L114.273 53.7995C114.172 53.6064 114.738 53.1548 114.325 53.1548L113.97 54.1858L113.186 54.0736C112.951 54.7838 112.023 55.6404 112.566 54.1889C112.486 54.0518 110.518 54.1484 110.229 54.1577C106.698 54.2481 103.203 54.2512 99.6563 54.3041C98.6356 54.3197 97.3349 54.5782 96.3401 54.4568C96.1613 54.435 96.0472 54.3727 95.9374 54.1858L95.8233 54.4505C95.4378 54.3166 95.0351 54.5907 94.7315 54.1858L94.6411 54.435L93.2758 54.4443L93.2263 54.1858C93.1294 54.6437 92.7354 54.4941 92.5222 54.1889C92.4059 54.1795 92.4877 55.061 92.2228 54.3166C91.8848 54.7932 91.396 54.2138 90.9115 54.2481C90.6983 54.2636 90.2418 54.5004 89.9231 54.4412C89.8951 54.435 89.7702 54.0923 89.4601 54.1889L89.5591 54.5751C88.9605 54.544 88.308 54.516 87.7116 54.4319C86.8459 54.3073 86.6112 54.3166 85.7908 54.2917C85.2718 54.2761 84.6021 54.1795 84.0853 54.0581C83.9238 54.4069 84.236 54.435 84.4234 54.3228L84.5353 54.7028C84.1865 54.516 84.0121 54.843 83.6848 54.8461C83.0603 54.8555 82.1688 54.4599 81.4905 54.7028C81.413 54.7309 81.3656 55.3632 81.1653 54.6935C81.006 54.6842 80.7691 54.9427 80.6636 54.9583C80.6162 54.9645 80.6636 54.6997 80.472 54.6873C80.121 54.6655 79.2768 55.2479 79.3113 54.7028L79.2122 54.9583H79.012L78.9624 54.6997L78.9043 54.9396C78.6976 54.7589 78.5059 54.9645 78.3681 54.9614C78.3423 54.9614 78.1205 54.2418 78.1592 54.9614H77.9568L77.903 54.706C77.6963 54.9146 77.6618 54.9365 77.4034 54.8306C77.6554 54.1515 76.9878 54.9084 76.9318 54.9333C76.4882 55.1296 76.5313 54.7589 76.4258 54.7122C75.8272 54.4412 75.8982 54.8181 75.8336 54.8368C75.4223 54.9583 72.5476 54.7558 71.9812 54.653C71.837 54.6281 71.7056 54.4069 71.529 54.4443L71.6776 54.7028C71.2771 54.7246 70.9239 54.3602 70.5213 54.4755C70.4545 54.4941 70.489 54.8181 70.2198 54.706L70.1681 54.4443L69.9183 54.7028L69.7676 54.4443V54.7028L69.4144 54.4381C69.2379 54.4381 69.1625 54.7091 69.057 54.762C68.5789 54.9894 68.538 54.5814 68.4928 54.572C68.3485 54.5409 68.0427 54.4755 67.9049 54.4537C67.4786 54.3851 67.0371 54.5191 66.6043 54.3135C66.3502 54.6094 66.9488 54.5564 66.7529 54.8306C66.5677 55.086 66.0229 54.8492 65.7968 54.8368C65.6374 54.8274 64.311 54.9365 64.9441 54.2481C65.0733 54.1079 65.3037 54.5564 65.2455 54.0581C64.6749 54.0176 64.2119 53.8681 63.637 54.0581C63.9191 53.6033 63.2472 53.7715 63.1352 53.9958L63.5358 54.1889C63.2946 54.2263 62.8058 53.9989 62.5969 54.0705C62.5129 54.0986 62.5258 54.301 62.4096 54.3602C61.9035 54.625 61.1089 54.2792 60.5555 54.2387C60.1916 54.2138 59.7566 54.2418 59.4508 54.2605C59.2979 54.2699 59.1214 54.3259 58.9706 54.3073C58.7273 54.2792 58.7187 53.9086 58.4129 54.3166V53.9272H58.1114L58.3117 54.3135C57.9952 54.0954 57.6894 53.8463 57.3082 53.9272L57.3556 54.1827L57.6076 54.3135H55.648C55.6308 54.3135 55.5619 54.1297 55.4499 54.1172C55.3035 54.0986 54.6295 54.2138 54.5929 54.1827L54.6941 53.9272L54.4421 53.7995C54.2095 54.5814 53.6648 54.1204 53.3611 54.2107C53.079 54.2917 53.0403 54.8056 52.8357 53.9272C52.7905 54.7278 52.1811 54.2481 51.8365 54.2512C50.846 54.2574 49.8296 54.4194 48.9338 54.2699C45.7339 53.7404 42.0689 54.9707 38.7743 54.3851C38.1433 54.4973 37.5038 54.4194 36.8685 54.4443C31.2482 54.6592 25.4772 54.7122 19.844 54.6312C19.2389 54.6219 18.3776 54.7558 17.8113 54.6592C17.3268 54.5782 16.1747 54.354 16.3233 53.541C15.9701 53.9086 15.8259 53.7466 15.5222 53.4133L15.7225 53.8649C15.0743 54.4381 15.1605 53.6033 15.0184 53.2544C14.9624 53.1174 14.803 53.0862 14.7341 52.9461C14.5662 52.6066 14.4951 51.9026 14.1161 52.1206C14.297 51.9369 14.0493 51.4946 13.9503 51.4852C13.8663 51.4759 13.7629 51.6223 13.6144 51.5475C13.1169 51.2952 11.1832 47.3331 10.6987 46.5077C10.3542 45.919 9.89982 45.268 9.52728 44.6388C7.27917 40.82 4.91263 36.9264 2.92723 33.2665C2.71189 32.8709 2.4255 32.4442 2.35874 31.9925L2.16063 32.248L0.95475 29.7312L1.15501 29.6035C0.765254 29.4384 0.528384 29.0334 0.453017 28.507C0.0611047 28.3139 -0.0896306 27.7314 0.0524913 27.2175C0.252754 27.1926 0.0890985 27.5259 0.175233 27.7065C0.364729 28.1052 0.334582 27.6878 0.453017 28.507L0.465937 28.5101ZM87.7611 0.380011H87.3606V0.635428H87.7611V0.380011ZM37.4327 0.510834H36.8298V0.638542C37.0645 0.601164 37.3509 0.890845 37.4327 0.510834ZM66.6646 0.766251H66.1629V0.893959L66.6646 1.02478V0.766251ZM66.4643 1.28331H65.8635V1.41102H66.4643V1.28331ZM60.2368 1.67267C60.0193 1.60414 59.8277 1.42971 59.7351 1.79726L60.2368 1.92809V1.67267ZM90.1707 3.08992H89.8692L89.9704 3.47616H90.1707V3.08992ZM38.6386 3.34845L37.2324 3.22075L37.4349 3.73469H37.5339C37.4801 3.30485 38.0184 3.49174 38.2897 3.47928C38.4103 3.47305 38.6623 3.57584 38.6386 3.35157V3.34845ZM37.9344 4.12094C37.5361 4.29848 37.437 4.43242 36.931 4.25176L37.1312 4.50718L36.1838 4.37324L36.0696 4.64111C35.5205 4.23618 34.9736 4.70341 34.4675 4.61308C34.4029 4.60062 34.4309 4.41373 34.3556 4.38881C34.2759 4.36078 34.0024 4.48849 33.8689 4.37947L33.9184 4.638C33.5028 4.53521 33.0377 4.73767 32.663 4.74079C29.8163 4.78128 26.9114 4.92768 24.1314 4.79063C23.5694 4.76259 23.7158 4.72833 23.4014 4.63488C22.9147 4.4916 21.6744 5.04916 21.2093 4.37947C21.1124 4.84358 20.9487 4.54455 20.7032 4.57882C20.6386 4.58816 20.5783 4.68784 20.5094 4.69407C19.6976 4.77817 18.8578 4.66915 18.0438 4.83112C17.8048 5.39491 17.3095 5.78115 17.0339 6.24526C14.4757 10.5873 11.5579 15.0291 9.00617 19.4086C8.73269 19.8789 8.24819 20.2216 8.21589 20.2745C8.16421 20.3586 8.23527 20.5922 8.17497 20.7324C8.04793 21.0408 7.13705 22.1808 6.88726 22.5359C6.06683 23.7102 4.83511 25.4015 4.17833 26.8935C4.0599 27.1614 3.82734 27.585 3.92424 27.8591C4.14388 28.3606 5.09782 29.4072 5.23779 29.8059C6.01946 32.0143 7.44714 33.8677 8.59703 35.8362C9.80722 37.9076 10.9248 40.0382 12.0166 42.1563C13.2483 44.5422 14.3573 46.8877 15.589 49.2768C15.8086 49.7035 16.1919 50.1583 16.3513 50.6224C16.5365 51.1613 16.3578 51.7531 17.2729 51.4759C17.3914 51.4416 17.3677 51.4198 17.6842 51.345C19.8333 50.8436 21.8467 50.9744 24.0409 50.9183C24.4264 50.909 24.5491 50.9277 24.9303 50.9463C24.9755 50.9463 24.9626 50.7252 25.0401 50.7034C25.8713 50.4573 26.9954 50.8062 27.8373 50.7595C28.1065 50.7439 28.563 50.3483 28.6384 50.8311C30.9425 50.4604 33.4533 50.4853 35.8758 50.448C36.0696 50.448 36.6683 50.2829 36.763 50.3203C36.8384 50.3483 36.8212 50.557 36.8707 50.557C37.2001 50.5539 38.2381 50.1209 38.518 50.3483C38.5654 50.3888 38.4922 50.5944 38.5848 50.5757C38.6838 50.5757 38.5438 50.3421 38.7786 50.3047C39.5344 50.1832 40.4259 50.557 41.186 50.3047L41.298 50.5757L41.5995 50.1863L41.7007 50.448L41.9505 50.1894L42.1507 50.5757L42.2003 50.1894L42.4953 50.3296L42.6051 50.0586H42.7537V50.4449C42.9087 50.4916 42.8096 50.2673 42.9281 50.1894C43.2296 49.9932 43.3415 50.2642 43.5181 50.2704C44.3601 50.3016 45.2171 50.2642 46.0677 50.3171L45.6672 50.5726C46.2529 50.6099 46.8386 50.6567 47.4265 50.638C47.5147 50.638 47.7042 50.6193 47.6762 50.4449C47.3166 50.4729 46.9635 50.4293 46.6146 50.3171C46.4467 50.2642 46.3218 50.448 46.3713 50.0555C46.8903 50.1022 47.4889 49.8966 47.9497 50.2798C48.0488 50.3608 48.1285 50.2704 48.0789 50.5694L47.0755 50.9557C47.3489 50.8062 47.5987 51.1488 47.7452 51.1768C48.066 51.236 49.0781 51.1862 49.4097 51.0741C50.6802 50.6411 52.278 50.7844 53.6561 50.6535C54.0244 50.6193 54.6618 50.3826 55.0451 50.3576C55.3551 50.3389 55.5317 50.4885 55.816 50.5694L55.7126 50.314C56.1777 50.4822 56.533 50.557 57.0197 50.4417L56.8689 50.7003C57.3255 50.937 57.4353 50.4262 57.4697 50.4417C57.5494 50.4729 57.6355 50.6535 57.7712 50.6567C57.8767 50.6567 58.5313 50.2891 58.8264 50.2362C59.453 50.1271 60.2605 50.638 60.4672 50.5726C60.717 50.4916 60.5727 50.4449 61.1046 50.4012C62.2394 50.3078 63.5315 50.2362 64.705 50.3047C64.9354 50.3171 65.14 50.3514 65.3554 50.4449L65.1551 50.7003C65.7494 50.7158 66.3588 50.747 66.9208 50.4511L67.0113 50.7003C67.6681 50.3109 68.5875 50.6068 69.3305 50.3296L69.4295 50.5788C69.7934 50.3576 70.11 50.4355 70.4782 50.5726V50.1863L70.6785 50.2486L70.6289 50.5726L70.8572 50.3826L70.7797 50.1894H71.0316C71.0079 50.4916 71.8887 50.4137 72.1406 50.3888C72.4722 50.3545 73.536 49.9216 73.6393 49.9153C74.7031 49.8499 75.8982 49.9153 76.9534 49.8717C77.5498 49.8468 78.1722 49.8904 78.7665 49.8593C79.4082 49.825 80.0434 49.6879 80.6787 49.6879L80.7261 50.0586C80.8423 50.0337 80.9134 49.5758 81.1266 49.8032C81.3527 50.043 80.8682 50.0243 80.9263 50.1894C81.3355 50.2611 81.2386 49.7316 81.7231 49.7378C81.8759 49.7378 81.9728 49.9278 82.1774 49.9403C83.6137 50.0275 84.8411 49.5883 86.4777 49.9652C87.4855 50.1957 87.5694 50.2611 88.6074 50.2486C90.5863 50.2237 92.4942 50.1334 94.4279 50.2175C95.1751 50.2517 96.0645 50.4978 96.7557 50.1957L96.8397 50.4386C100.393 49.744 104.056 50.4791 107.598 50.3888C107.91 50.3794 108.468 49.8343 108.601 50.4511C108.694 50.4698 108.621 50.2642 108.668 50.2237C108.909 50.0275 110.561 50.5601 111.017 50.5601C111.474 50.5601 112.021 50.3452 112.516 50.448C112.917 50.3483 112.97 49.6817 113.171 49.3547C115.102 46.2024 117.172 43.3181 119.032 40.1067C119.98 38.4683 121.211 36.8174 122.038 35.341C122.333 34.8146 122.775 34.3567 122.934 33.8334L123.214 33.8054L123.154 33.416L123.516 33.2914C123.186 32.6716 124.03 32.899 123.832 32.4099C124.383 32.2417 124.093 31.3571 124.713 31.3478L124.616 31.0986C125.021 31.2232 124.87 30.8276 125.016 30.6469C125.047 30.6095 125.178 30.6999 125.199 30.6718C125.606 30.1579 125.938 28.9369 126.491 28.4572C126.517 27.9713 126.147 27.9027 126.022 27.6816C125.897 27.4604 125.858 27.1676 125.718 26.9371C125.382 26.3858 124.489 25.3922 124.301 24.844C124.198 24.5418 124.338 24.3643 124.301 24.2833C124.284 24.2459 124.103 24.1961 124.028 24.0497C123.918 23.8441 123.742 23.3177 123.662 23.2243C123.537 23.0779 123.335 23.1152 123.313 23.0903C123.302 23.0779 123.416 22.8816 123.363 22.7165C123.322 22.5857 122.807 21.7104 122.689 21.508C121.416 19.3214 119.902 17.2002 118.765 14.8048C118.705 14.6771 118.696 14.4747 118.688 14.3252L118.49 14.5806L118.033 13.1509C117.859 13.1695 116.816 11.4065 116.795 11.282C116.773 11.1574 116.903 10.9923 116.866 10.8646C116.842 10.7836 116.229 10.4285 116.379 10.0641L116.181 10.1949C116.134 10.0298 115.959 9.07042 115.925 9.02681C115.828 8.90222 115.419 8.60631 115.285 8.36646C115.238 8.28236 115.387 8.09236 115.359 8.02072C115.346 7.98645 114.995 7.69677 114.909 7.56906C114.635 7.16725 113.625 5.50392 113.496 5.13014C113.403 4.86227 113.425 4.00257 113.018 3.92782C112.729 3.87486 111.78 4.0306 111.409 4.07733C110.565 4.18323 109.71 4.0306 108.991 4.0088C107.873 3.97454 106.82 4.29848 105.675 4.15208L105.578 4.39504C105.208 4.04306 105.074 4.31094 104.775 4.32963C100.765 4.59128 96.7729 4.36389 92.7375 4.30783C91.6544 4.29225 91.2345 4.54144 90.1944 4.14274C89.9683 4.05552 89.8929 4.2175 89.4773 4.01815C89.0983 3.83437 88.7559 3.62568 88.3511 3.61633C88.4372 3.2114 89.0359 3.59764 89.1543 3.23321H88.1013L88.1508 3.61633L87.6405 3.6724L87.5479 4.26422C86.622 4.22372 85.7326 4.36078 84.7894 4.3234C84.0078 4.29225 83.0991 4.14897 82.2765 4.12405C81.6692 4.10536 81.0124 4.29225 80.36 4.12405L80.1662 4.39504C80.1145 4.4075 80.0973 3.86863 79.9142 4.13651C79.841 4.24241 80.2502 4.59439 79.7592 4.52898C79.5051 4.49472 79.4168 4.3857 79.2596 4.13651L79.1606 4.39504C79.0572 4.1552 78.4241 3.95896 78.2992 4.0711C78.2045 4.1552 78.2648 4.43553 78.1054 4.39504L78.0537 4.00569L77.5305 4.62554C75.5321 4.84046 73.5661 4.88096 71.5743 4.90899L71.5247 4.65046C71.4235 4.74079 71.5333 4.89965 71.3288 4.92456C70.9132 4.9744 70.3167 4.78128 69.9162 4.78128C68.9364 4.77817 67.9674 4.79686 67.007 4.79063C66.5311 4.78751 65.9712 4.83112 65.5233 4.7439C65.3403 4.70964 65.3446 4.39193 65.0474 4.78128C65.0776 4.24553 64.5866 4.72833 64.2916 4.79374C62.9199 5.09588 60.913 4.77817 59.4594 4.83735C59.074 4.85292 58.0834 5.29212 58.0081 4.79063L57.8617 4.78128C57.7669 4.78751 57.8509 5.00866 57.7454 5.04293C57.0412 5.27654 55.4607 5.10211 54.6618 5.08965C53.9059 5.07719 53.2879 4.9526 52.629 4.92768C52.5816 4.92768 52.5967 5.14883 52.5213 5.17064C52.4459 5.19244 51.1001 5.25162 51.0269 5.23916C50.9128 5.21736 50.6436 4.94637 50.3615 4.87161C49.9545 4.76571 49.5174 5.08342 49.1384 4.89653C49.0458 4.84981 49.063 4.66603 49.0221 4.65046C48.7012 4.53521 48.8434 5.0367 48.5484 4.8903L47.982 4.63488L47.967 4.13651C47.6806 4.24864 47.967 4.55701 47.7107 4.76882C47.4781 4.96194 46.802 5.02735 46.8623 4.58816C47.125 4.14585 47.0582 4.74702 47.2628 4.77817L47.3683 4.20815C47.3489 3.98388 44.9889 4.12716 44.7046 4.13651C43.2985 4.18946 42.0215 4.36078 40.6735 4.27979C40.3807 4.2611 40.0555 4.46668 39.7239 4.19881L39.5731 3.62256L39.0283 3.74715L39.431 3.48862C39.3578 3.12419 38.8259 3.1491 38.729 3.42633L38.9293 3.74715H38.3264L38.335 4.07421C38.195 4.18323 38.012 4.09602 37.9258 4.13339C37.9861 4.04929 37.8785 3.62256 37.7751 3.61945C37.4758 3.61633 37.7471 4.37947 37.9258 4.13339L37.9344 4.12094ZM54.3086 3.34845C53.2535 3.17402 52.222 3.37649 51.1948 3.53846C51.309 3.74092 51.4726 3.74715 51.6449 3.74404C52.1725 3.73781 52.8637 3.51354 53.3525 3.46682C53.6324 3.43878 54.1342 3.69732 54.3065 3.34845H54.3086ZM35.5248 3.60387C35.4279 3.20517 35.1631 3.4637 34.9219 3.47616V3.60387H35.5248ZM36.5283 3.34845H35.9275V3.47616L36.5283 3.60699V3.34845ZM48.4213 4.43553C48.5548 4.29537 48.9812 4.12405 48.9833 4.05552C48.9941 3.72535 48.417 4.10536 48.3416 4.10536L48.2835 4.63488C48.4321 4.68472 48.3632 4.49472 48.4213 4.43242V4.43553ZM129.248 26.7035V26.5135L128.998 26.0588L128.854 26.3671L129.099 26.7004H129.248V26.7035ZM128.845 26.9621C128.882 26.6724 128.755 26.4201 128.546 26.3173C128.509 26.607 128.636 26.8593 128.845 26.9621ZM0.96767 28.7687L0.668353 28.831L0.96767 29.1549V28.7687ZM46.8752 50.965L45.8717 51.0927C46.1452 51.0927 46.7137 51.3824 46.8752 50.965ZM16.0369 51.7375C16.0972 51.6659 15.9809 51.4167 15.8862 51.3544L15.6342 51.4821C15.6342 51.7001 15.9637 51.8247 16.0347 51.7375H16.0369ZM77.6144 51.8683C77.2785 51.8278 75.6054 51.6908 75.5063 51.8683C75.5364 52.2452 75.9025 52.3916 76.1652 52.3667C76.3009 52.3543 76.3956 52.1736 76.5442 52.1642C76.6282 52.158 78.0064 52.3138 77.6166 51.8652L77.6144 51.8683ZM18.5477 51.9992C18.1838 52.1923 17.7768 51.9774 17.4969 51.9992C17.3354 52.0116 17.204 52.2079 17.0899 52.211C16.9069 52.2172 16.7927 51.7967 16.5408 52.32C16.5322 52.6439 17.7919 52.401 17.9706 52.3543C18.1063 52.3169 18.509 52.2016 18.5456 51.9992H18.5477ZM16.5386 52.7685L16.2781 52.1362C15.4856 52.0833 15.9745 52.918 16.5386 52.7685ZM16.7389 52.9025H16.2372V53.1579C16.4288 53.1766 16.6786 53.1921 16.7389 52.9025ZM66.4643 54.3228C66.0983 54.1297 65.8786 54.4879 65.4609 54.3851C65.5513 54.6935 66.7335 54.6842 66.4643 54.3228Z" fill="white"/>
<path d="M67.2677 0.766247V0.380007L67.5519 0.492141L67.6187 0.249184H67.7672C67.7952 0.61985 68.3013 0.834774 68.1742 0.249184C68.592 0.342629 69.1045 0.186887 69.3758 0.766247H67.2655H67.2677Z" fill="black"/>
<path d="M77.6146 51.8683C78.0043 52.3138 76.6262 52.1611 76.5422 52.1674C76.3936 52.1767 76.301 52.3574 76.1632 52.3698C75.9005 52.3947 75.5344 52.2483 75.5043 51.8714C75.6055 51.6939 77.2765 51.831 77.6124 51.8714L77.6146 51.8683Z" fill="white"/>
<path d="M54.3085 3.34846C54.1362 3.70044 53.6345 3.44191 53.3546 3.46682C52.8636 3.51355 52.1745 3.73782 51.647 3.74405C51.4725 3.74405 51.3089 3.74093 51.1969 3.53847C52.2241 3.37649 53.2555 3.17091 54.3107 3.34846H54.3085Z" fill="white"/>
<path d="M18.5475 51.9992C18.5088 52.2016 18.1083 52.32 17.9726 52.3543C17.7939 52.401 16.5342 52.647 16.5428 52.32C16.7947 51.7967 16.9088 52.2172 17.0919 52.211C17.206 52.2079 17.3374 52.0116 17.4989 51.9992C17.7788 51.9774 18.1858 52.1923 18.5497 51.9992H18.5475Z" fill="white"/>
<path d="M16.5384 52.7685C15.9764 52.918 15.4854 52.0833 16.2779 52.1362L16.5384 52.7685Z" fill="white"/>
<path d="M66.4642 54.3228C66.7312 54.681 65.5511 54.6935 65.4607 54.3851C65.8784 54.4879 66.0981 54.1297 66.4642 54.3228Z" fill="white"/>
<path d="M38.6387 3.34846C38.6624 3.57273 38.4104 3.46994 38.2898 3.47617C38.0164 3.48863 37.478 3.30485 37.534 3.73159H37.435L37.2325 3.21764L38.6387 3.34534V3.34846Z" fill="white"/>
<path d="M48.4213 4.43553C48.3631 4.49783 48.432 4.68783 48.2834 4.63799L48.3416 4.10847C48.417 4.10847 48.9941 3.72846 48.9833 4.05863C48.9833 4.12404 48.5548 4.29848 48.4213 4.43864V4.43553Z" fill="white"/>
<path d="M46.8752 50.965C46.7115 51.3824 46.1452 51.0896 45.8717 51.0927L46.8752 50.965Z" fill="white"/>
<path d="M129.248 26.7035H129.099L128.854 26.3703L128.998 26.0588L129.248 26.5135V26.7035Z" fill="white"/>
<path d="M60.2367 1.67267V1.92809L59.735 1.79727C59.8276 1.42971 60.0192 1.60103 60.2367 1.67267Z" fill="white"/>
<path d="M128.845 26.9621C128.636 26.8593 128.509 26.607 128.546 26.3173C128.755 26.4201 128.882 26.6724 128.845 26.9621Z" fill="white"/>
<path d="M16.7389 52.9025C16.6786 53.1952 16.4288 53.1766 16.2372 53.1579V52.9025H16.7389Z" fill="white"/>
<path d="M87.759 0.380005H87.3585V0.635422H87.759V0.380005Z" fill="white"/>
<path d="M35.5249 3.60387H34.922V3.47616C35.1632 3.4637 35.4259 3.20517 35.5249 3.60387Z" fill="white"/>
<path d="M16.0369 51.7375C15.9637 51.8247 15.6385 51.7001 15.6364 51.4821L15.8883 51.3544C15.983 51.4198 16.0993 51.6659 16.039 51.7375H16.0369Z" fill="white"/>
<path d="M37.4328 0.510841C37.3509 0.890852 37.0667 0.601172 36.8298 0.63855V0.510841H37.4328Z" fill="white"/>
<path d="M66.6646 0.766258V1.02479L66.1628 0.893967V0.766258H66.6646Z" fill="white"/>
<path d="M90.1706 3.08992V3.47616H89.9725L89.8691 3.08992H90.1706Z" fill="white"/>
<path d="M36.5283 3.34846V3.60387L35.9275 3.47617V3.34846H36.5283Z" fill="white"/>
<path d="M66.4621 1.28331H65.8613V1.41102H66.4621V1.28331Z" fill="white"/>
<path d="M0.967774 28.7687V29.1549L0.668457 28.8341L0.967774 28.7687Z" fill="white"/>
</svg>
