<svg width="20" height="15" viewBox="0 0 20 15" fill="none" xmlns="http://www.w3.org/2000/svg">
<path d="M17.8531 12.2553C17.6077 12.1011 17.3399 12.0124 17.0499 11.9894C16.6697 11.7048 16.1431 11.5328 15.8896 11.1028C16.1529 11.0115 16.2118 10.9521 16.0681 10.9255C16.0333 10.5745 15.8762 10.3927 15.5951 10.3794C15.5522 10.1862 15.3987 10.1605 15.1336 10.3023C14.9007 10.2731 14.6597 9.72518 14.7284 9.5071C14.5062 9.49291 14.1786 9.38653 14.0144 9.24114C13.91 9.1578 13.8207 9.06915 13.7467 8.97518C13.5833 8.88741 13.4646 8.74025 13.3897 8.53191C13.2736 8.57003 13.1808 8.47872 13.2112 8.35461C13.0612 8.55496 12.8533 8.52482 12.5864 8.26595L12.573 8.46808C12.3847 8.5594 12.2106 8.66933 12.0509 8.79787C11.9286 8.97163 11.7796 9.06028 11.6046 9.06383C11.4484 9.26241 11.3297 9.32181 11.2476 9.24114C11.2057 9.48937 11.1619 9.46543 11.0691 9.24114C10.9183 9.34486 10.7567 9.44593 10.5863 9.54433C10.7594 9.93706 10.7425 10.102 10.5336 10.039C10.5363 10.0931 10.5042 10.1206 10.4444 10.1277C10.157 10.3059 10.1168 10.2482 10.132 9.91224L9.9981 9.86171C10.0882 9.96277 10.04 10.0151 9.90885 9.95036C9.93652 10.188 9.89725 10.1773 9.73035 10.039C9.41261 10.1676 9.44295 9.9344 9.55184 9.6844C9.36084 9.58954 9.35817 9.54699 9.53756 9.45213C9.46527 9.25887 9.52953 9.01153 9.73035 8.70922C9.61521 8.57979 9.66698 8.53191 9.8196 8.62057C9.92759 8.51241 10.0168 8.48315 10.0874 8.53191C10.1561 8.56471 10.2132 8.58067 10.2659 8.53191C9.96061 8.56383 10.0195 8.30408 10.2096 8.20656C10.3997 8.10904 10.19 8.36968 10.1936 8.18971C10.1936 8.13918 10.2998 8.07003 10.3551 8.08865C10.4854 7.89716 10.6934 7.74911 10.9799 7.64538C10.9219 7.61613 10.9219 7.58599 10.9799 7.55673C11.1521 7.31294 11.2887 6.81471 11.0691 6.75885C10.9593 6.8218 10.7674 6.62322 10.8014 6.4929C10.7576 6.4663 10.7585 6.43616 10.8014 6.40424C10.6603 6.21098 10.6505 5.70743 10.9076 5.82357C11.128 5.71807 11.6234 5.50176 11.7831 5.60637C12.0464 5.49112 12.2838 5.49112 12.4971 5.60637C12.5855 5.63208 12.6748 5.66754 12.7649 5.69502C12.8318 5.54963 12.98 5.55938 13.2076 5.72339C13.1353 5.3936 13.4914 5.13207 13.8243 5.23846C13.7351 5.09218 13.7743 4.99555 13.9252 4.89714C13.7859 4.71452 13.8564 4.52923 14.0144 4.36523C14.0001 4.20476 14.1492 4.17551 14.4607 4.27657C14.408 4.07976 14.4678 3.87231 14.6392 3.656C14.7516 3.51416 14.8855 3.56912 14.8177 3.74465C14.9337 3.7482 15.023 3.83685 15.0854 4.01061C15.2184 3.88473 15.3844 3.88827 15.5826 4.02214L15.7102 3.83331C15.6852 3.7154 15.6879 3.68614 15.7995 3.74465C15.8932 3.6888 15.953 3.6888 15.978 3.74465C16.061 3.79341 16.1502 3.85192 16.2457 3.92196C16.5278 3.68614 16.7134 3.93703 16.5135 4.27657C16.5929 4.2943 16.5902 4.32444 16.5135 4.36523C16.3626 4.50086 16.2145 4.53012 16.0672 4.45388C16.061 4.59838 16.0315 4.71629 15.978 4.80849C16.0003 5.12409 15.7655 5.11966 15.5317 5.07445C15.6763 5.13739 15.704 5.22693 15.5317 5.25175C15.6888 5.4069 15.4719 5.52747 15.2639 5.51771C15.2773 5.8085 14.8828 6.07534 14.7284 5.87233C14.5348 5.96186 14.3857 6.07977 14.2822 6.22694C14.4214 6.50708 14.4446 6.60283 14.2456 6.94325C14.3634 7.1835 14.1367 7.35549 14.0144 7.11347C13.9332 7.2757 14.0519 7.42375 14.3714 7.55673C14.5446 7.35017 14.8302 7.60194 14.5499 7.73404C14.3447 7.66311 14.3741 7.75177 14.6392 8C14.6677 7.94237 14.6972 7.94237 14.7284 8C14.9882 8.07624 15.2398 8.18085 15.4425 8.35461C15.5986 8.38209 15.6326 8.60284 15.5317 8.70922C15.72 8.60284 15.7887 8.70035 15.7102 8.88653C15.8584 8.73582 15.9182 8.76507 15.8887 8.97518C16.0672 9.09043 16.127 9.09043 16.0672 8.97518C15.9503 8.84663 16.003 8.79433 16.1565 8.88653C16.16 8.66667 16.26 8.70035 16.4242 8.79787C16.4938 8.88475 16.4894 8.93794 16.5135 8.97518C16.5956 9.0789 16.667 9.17021 16.7812 9.24114C16.8821 9.25443 16.9526 9.3289 16.9258 9.42731C17.1998 9.51064 17.2712 9.62678 17.1382 9.77305C17.1641 9.93352 17.1918 9.93706 17.2275 9.77305C17.0543 9.59309 17.0418 9.51064 17.3167 9.5071C17.6871 9.80142 17.7068 9.87412 18.12 10.1277C18.1611 10.1525 18.5912 10.695 18.7448 10.8369C18.7519 11.0435 18.8742 11.2066 19.1125 11.3271L19.1018 11.4575C19.3651 11.5771 19.1482 11.6915 18.9233 11.7234C18.9054 11.8032 18.876 11.8005 18.834 11.7234C18.7573 12.016 18.6332 12.3821 18.2093 12.2553C18.3405 12.5816 17.8317 12.5922 17.8522 12.2553H17.8531Z" fill="#5D5D5D"/>
<path d="M4.91165 12.6099C4.751 12.5293 4.9054 12.2367 4.91165 12.2553C4.92861 12.3174 4.82329 12.5621 4.73404 12.4326C4.70905 12.5098 4.6787 12.5089 4.64479 12.4326C4.58588 12.2101 4.50556 12.1631 4.40381 12.2917C4.32259 12.2057 4.22174 12.1818 4.10928 12.1667C3.99682 12.0461 3.86919 12.0833 3.84152 11.8121C3.9284 11.7565 3.9284 11.7565 3.84152 11.8121C3.78351 11.813 3.71746 11.8041 3.66302 11.8121C3.63268 11.8165 3.57912 11.8032 3.57377 11.8121C3.4506 11.9911 3.27835 11.6011 3.21676 11.4575C3.12305 11.3715 3.12305 11.2527 3.21676 11.1028C3.06593 11.1587 2.94008 11.0727 3.03826 10.9255C2.97132 10.7934 2.88207 10.7048 2.7705 10.6596C2.80978 10.8892 2.76069 10.8803 2.592 10.7482C2.41975 10.9309 2.31354 10.8289 2.32871 10.5966C2.15378 10.5975 2.09308 10.5594 2.14574 10.4823C2.08327 10.4211 2.08148 10.2411 2.05649 10.2163C2.07702 10.102 1.97616 9.92997 1.75214 9.70036C1.92261 9.67022 1.87531 9.57624 1.61023 9.41844C1.42816 9.44326 1.36925 9.38387 1.43173 9.24113H1.34248C1.18897 9.07535 1.01046 8.9867 0.806968 8.97518C0.661488 8.82003 0.489233 8.67464 0.36071 8.53191C0.142044 8.26329 0.210768 8.02836 0.527612 8.26329C0.547247 8.27836 0.189347 8.25975 0.0929552 8.1773C-0.0186094 7.82889 -0.0462774 7.79698 0.36071 7.64538L0.469597 7.47871C0.291094 7.40691 -0.015931 7.27393 0.272352 7.19591C0.342861 6.87499 0.543676 6.54786 0.89622 6.49289C0.912285 6.40424 0.942631 6.31559 0.985472 6.22693C0.993504 6.11346 1.0533 5.99555 1.16397 5.87232C1.31838 5.69324 1.49421 5.39182 1.69948 5.1631C2.01544 4.98225 2.06631 5.02037 1.87799 5.34041L1.98152 5.42374C1.98955 5.20831 3.13822 5.03987 3.19891 5.06735C3.51129 5.49023 3.79154 5.93349 3.03826 6.13828C3.28013 6.35548 2.91063 6.57091 2.71695 6.42995C2.66519 6.62233 2.57326 6.69236 2.37958 6.6968C2.54827 6.90247 2.50007 7.07357 2.23499 7.11346C2.31443 7.13031 2.31086 7.15956 2.23499 7.20212C2.18234 7.55584 2.03596 7.80141 1.79498 7.93882C2.06542 7.99733 2.30104 8.19503 2.50275 8.53191C2.74105 8.34042 3.04272 8.54432 3.12751 8.79787C3.18195 8.44769 3.60947 8.55851 3.48452 8.88652C3.50148 8.99823 3.40062 9.01773 3.30601 8.97518L3.57466 9.32004C3.85313 9.32092 4.15034 9.47252 4.46629 9.77305C4.71887 9.52926 5.16602 10.1223 5.09105 10.3936C5.1205 10.5 5.1803 10.5887 5.26955 10.6596C5.45787 10.6773 5.84255 10.8803 5.71581 11.1028L5.79703 11.3741C6.01391 11.5417 6.04604 11.6578 5.89431 11.7234C5.84879 11.8919 5.71759 12.0071 5.53731 11.9894C5.56944 12.3245 5.40075 12.5568 5.09105 12.6986C4.9893 12.8697 4.87595 12.805 4.91254 12.6099H4.91165Z" fill="#5D5D5D"/>
<path d="M5.26819 3.39026C5.13164 3.34682 5.06024 3.28743 5.05399 3.21296C4.647 3.21296 4.47742 3.08884 4.82194 2.76969C4.74429 2.74842 4.74696 2.71827 4.82194 2.68104C4.67467 2.52146 4.82194 2.51348 5.00044 2.50373C4.7898 2.37519 4.84246 2.16419 5.08969 2.14912C5.0888 2.02501 5.1834 1.99752 5.3744 2.06667L5.35745 1.97182C5.24142 1.8938 5.11914 1.78564 5.26819 1.70586C5.3387 1.47093 5.55915 1.44433 5.6252 1.70586C5.80103 1.78387 5.80103 1.75462 5.6252 1.6172C5.39761 1.5516 5.34406 1.36543 5.4467 1.17394C5.54577 1.14823 5.57343 1.08883 5.53595 0.996633C5.49222 0.955853 5.20125 0.396452 5.17983 0.329962C5.10219 0.0861667 5.34763 0.298048 5.4467 0.287409C5.70285 0.338828 6.03665 0.498403 6.07146 0.819327C6.23925 0.90532 6.41775 0.934576 6.60697 0.90798C6.75602 0.922164 6.90507 0.922164 7.05323 0.90798C7.27189 0.852129 7.66103 0.899115 7.67799 1.17394C7.68602 1.32908 7.66639 1.3149 7.76724 1.4399C7.79223 1.52412 7.76278 1.55337 7.67799 1.52855C7.67263 1.60125 7.64318 1.6305 7.58874 1.6172C7.47539 1.57642 7.47539 1.63582 7.58874 1.79451C7.66817 1.73334 7.68959 1.78476 7.67799 1.88316C7.84846 2.0844 7.8788 2.26171 7.76724 2.41508C7.82258 2.63671 7.76278 2.64469 7.58874 2.50373C7.55928 2.58352 7.52894 2.58352 7.49949 2.50373C7.28439 2.42572 7.22638 2.57909 7.23173 2.76969C7.18086 2.93547 7.10321 2.93547 7.05323 2.76969C6.93452 2.97093 6.78636 3.08884 6.60697 3.1243C6.61322 3.38938 6.47755 3.43459 6.33921 3.21296C6.17856 3.14913 6.02951 3.08973 5.89296 3.03565C5.75997 3.14203 5.67964 3.2759 5.65287 3.43459L5.4467 3.47892C5.27355 3.64647 5.23249 3.62874 5.26819 3.39026Z" fill="#5D5D5D"/>
<path d="M16.6927 4.01094C16.5115 3.94001 16.3624 3.85136 16.2464 3.74498C16.2294 3.82388 16.2 3.82122 16.1571 3.74498C15.9635 3.45331 15.8144 3.3948 15.7109 3.56767C15.8171 3.68913 15.7644 3.73877 15.6216 3.65632C15.4967 3.8354 15.3807 3.7964 15.4217 3.57654C15.3307 3.4932 15.2486 3.40189 15.1754 3.30171C15.0826 3.19976 15.1316 3.16341 15.2646 3.21306C15.419 3.08983 15.4324 3.00473 15.5324 2.85845C15.7564 2.85224 15.9938 2.82299 16.2464 2.76979C16.3731 2.61288 16.2241 2.55348 15.8001 2.59249C15.7153 2.61731 15.6859 2.58806 15.7109 2.50384C15.7359 2.4932 15.7751 2.51447 15.8001 2.50384C16.0527 2.20419 16.2919 2.02954 16.6918 2.12174C16.7792 1.90011 16.8979 1.73167 17.0497 1.61731C17.0523 1.4861 17.196 1.36021 17.3174 1.44C17.3915 1.36465 17.487 1.28308 17.5852 1.35135C17.6075 1.28308 17.6378 1.28574 17.6744 1.35135C17.7628 1.38592 17.8226 1.44532 17.8529 1.52865C18.2465 1.24142 18.4536 1.26092 18.4723 1.58716C18.7883 1.49585 18.9873 1.59603 18.7454 1.88327C18.9186 1.82564 18.9525 1.91607 18.8347 2.06057C18.5232 2.35224 18.2885 2.73079 18.1198 3.12441C17.9404 3.16607 17.8511 3.25473 17.8529 3.39037C17.7949 3.44976 17.6378 3.7831 17.4959 3.92228C17.1907 4.07211 16.9229 4.10136 16.6927 4.01094Z" fill="#5D5D5D"/>
<path d="M11.2487 4.71985C12.1385 5.21631 11.6913 5.7172 10.8202 5.82092C10.8265 5.65336 10.731 5.6117 10.5346 5.69503C10.4213 5.79432 10.2633 5.72872 10.1776 5.60638C10.1607 5.68528 10.1312 5.68173 10.0884 5.60638C9.97592 5.77925 9.84383 5.77925 9.73137 5.60638C9.52699 5.58333 9.53859 5.49202 9.73137 5.42907C9.6573 5.38918 9.59928 5.28634 9.55823 5.12056C9.2039 4.91489 8.98434 4.78545 9.47522 4.57534C9.50289 4.77393 9.64659 4.85194 9.9072 4.80939C10.0214 4.45478 10.2901 4.42463 10.7122 4.71896C10.756 4.55318 10.905 4.49378 11.1585 4.54166C11.2317 4.60549 11.2254 4.69237 11.2478 4.71896L11.2487 4.71985Z" fill="#5D5D5D"/>
<path d="M6.6073 13.94C6.81526 13.6678 6.57606 13.495 6.47342 13.8522C6.34401 13.4249 6.34579 14.0482 6.02627 14.1173C5.94327 13.8513 5.64695 13.885 5.40419 13.94L5.44792 13.7627C5.40776 13.7343 4.64555 14.0703 5.35778 13.4072C5.63089 13.4347 5.4979 13.6439 5.43632 13.5712C5.32476 13.44 5.78708 13.2875 5.89329 13.4958C5.91828 13.3593 6.05751 13.3283 6.16104 13.4072L6.38953 13.4497C6.43148 13.1058 6.87059 13.1643 7.14281 13.2299C7.22046 13.0721 7.29097 13.1687 7.32132 13.3185C7.49982 13.3008 7.46055 13.424 7.32132 13.4958C7.32132 13.5313 7.42039 13.5943 7.39272 13.6563C7.37844 13.6891 7.05088 13.9223 6.96342 13.8513L7.05445 14.0269C6.9295 14.0535 6.70369 13.9923 6.6073 14.0269C6.52965 14.0021 6.53055 13.9719 6.6073 13.9382V13.94Z" fill="#5D5D5D"/>
<path d="M12.7657 5.69508C12.8184 5.18178 13.3369 5.13657 13.5484 4.96192C13.6073 4.91316 13.6136 4.78196 13.6582 4.7199C13.9108 4.47344 13.9153 4.58958 13.926 4.8972C13.9635 5.51334 14.3437 5.1277 14.3713 5.16316V5.42912C13.8037 5.13745 14.2169 5.68178 13.702 5.87239L13.8358 5.4309C13.5413 5.31121 13.4967 5.44419 13.3003 5.65164C13.6439 5.74739 13.5101 5.92912 13.2084 5.90342C13.0674 5.891 12.8398 5.71813 12.7648 5.69597L12.7657 5.69508Z" fill="#5D5D5D"/>
<path d="M10.8019 6.40442C10.6287 6.35034 10.5091 6.26168 10.4449 6.13846V5.8725C10.2565 5.74395 10.3092 5.64643 10.5341 5.69519C10.6037 5.53739 10.6707 5.45494 10.6243 5.25193C10.9616 5.44874 11.0375 5.38668 10.892 5.78384C11.0223 5.5959 11.5105 5.48686 11.5935 5.41771C11.6105 5.40352 11.5507 5.08171 11.6042 4.98597C11.5855 4.95937 11.091 5.4514 11.2919 4.91948C11.6837 5.03118 11.2633 4.73774 11.2481 4.72001C11.6649 4.64643 11.6033 5.01079 11.7221 5.14022C11.7354 5.15441 11.9907 5.30335 12.0514 5.34058C12.3852 5.44164 12.0398 5.64023 11.7836 5.60654C11.5909 5.69874 11.3258 5.81753 11.1285 5.892C11.0071 5.9381 10.8992 5.86097 10.8929 5.87161C10.8545 5.93455 10.8804 6.28385 10.801 6.40442H10.8019Z" fill="#5D5D5D"/>
<path d="M15.9789 10.9258C15.7807 10.5774 15.6022 10.4888 15.4434 10.6599C15.4558 10.7388 15.396 10.7388 15.2648 10.6599C14.8971 10.3638 14.5687 9.99144 14.1938 9.6847C14.1492 9.40101 14.5482 9.33187 14.7293 9.5074C14.7749 9.55616 15.0283 9.83719 15.0408 9.85846C15.0944 9.95066 14.9641 10.0978 14.9971 10.1271C15.0631 10.1874 15.396 9.99056 15.5647 10.0473C15.6656 10.081 15.6754 10.2281 15.7397 10.276C16.0092 10.4764 16.1538 10.3283 16.0672 10.9258C16.0449 11.003 16.0155 11.0012 15.978 10.9258H15.9789Z" fill="#5D5D5D"/>
<path d="M15.3542 5.78365C15.0971 5.85989 15.04 5.6418 15.2649 5.51769C15.2623 5.39978 15.2649 5.28099 15.2658 5.16308C15.4211 5.12318 15.3167 5.28719 15.3613 5.33418C15.4265 5.40333 15.5238 5.2535 15.5327 5.25173C15.588 5.19322 15.5871 5.13471 15.5327 5.07442C15.5541 5.03364 15.887 4.82442 15.979 4.80847C15.9415 4.61077 15.9709 4.49286 16.0682 4.45385C16.2244 4.36343 16.2797 4.17548 16.5145 4.3652C16.4993 4.45031 16.5591 4.45031 16.693 4.3652C16.6448 4.08683 17.1651 3.90598 17.05 4.27655C16.51 4.80315 15.854 5.29251 15.3542 5.78365Z" fill="#5D5D5D"/>
<path d="M14.0151 7.11362C14.0535 7.09323 14.1534 7.17036 14.1963 7.056C14.2115 7.01699 14.3087 6.25989 14.2829 6.22709C14.3079 6.14997 14.3382 6.15085 14.3721 6.22709H14.5506C14.5131 6.04979 14.5354 5.93631 14.7291 5.87248C14.9112 5.85652 15.0647 5.75989 14.9067 5.60741L15.2646 5.51787C15.2646 5.53205 15.3253 5.75369 15.3539 5.78383C15.2718 5.8645 15.195 6.02496 15.0861 6.13844C15.0112 6.03826 14.9817 6.06752 14.9969 6.22709C14.8594 6.37071 14.348 6.80688 14.3248 6.84589C14.1579 7.12603 14.3926 7.10564 14.4614 7.20228V7.29093C14.373 7.34057 14.2838 7.36983 14.1936 7.37958C14.0222 7.41859 13.8857 7.25281 14.0151 7.11362Z" fill="#5D5D5D"/>
<path d="M19.37 1.26239C19.1808 1.25353 19.0683 1.13296 19.0326 0.898913C18.6765 1.07179 18.4132 0.716289 18.656 0.464515C18.4186 0.364337 18.4177 0.291641 18.656 0.198556C18.7631 0.1693 19.1049 -0.0718358 19.1915 0.0212498C19.2459 0.0797607 19.021 0.395365 19.5494 0.287209C19.6422 0.531004 19.2932 0.484905 19.2825 0.596608C19.2736 0.695013 19.7288 0.919304 19.4592 1.26239C19.4503 1.34307 19.4191 1.33775 19.37 1.26239Z" fill="#5D5D5D"/>
<path d="M17.8532 3.39034C17.3356 2.90719 18.0978 3.1501 18.1201 3.12439C18.1638 3.07474 18.0415 2.87084 18.0531 2.80789C18.0656 2.73963 18.4717 2.64832 18.2093 2.23963C18.5547 2.35577 18.528 2.00736 18.835 2.06144C19.1242 1.99672 19.0947 2.14477 18.7457 2.5047C18.436 2.79548 18.1245 3.11463 17.8532 3.39123V3.39034Z" fill="#5D5D5D"/>
<path d="M13.39 9.0641C13.1678 8.95772 13.0196 8.49672 12.676 8.53218C12.4002 8.61109 12.3199 8.40364 12.5868 8.26623C12.6162 8.25115 12.6733 8.08449 12.7206 8.09069C12.7965 8.09956 12.8331 8.3274 12.8634 8.34424C12.8938 8.36108 12.9759 8.23963 13.2115 8.35488L13.39 8.53218C13.5391 8.55612 13.681 8.62616 13.8363 8.62172C13.6819 8.80258 13.7497 8.87261 13.747 8.97545C13.8997 9.04194 13.913 9.11197 13.747 9.15275C13.6346 9.20683 13.4766 9.16162 13.39 9.0641Z" fill="#5D5D5D"/>
<path d="M5.35795 13.408C5.36687 13.2963 5.44898 13.1473 5.35795 12.9647C5.23835 12.8406 5.28922 12.791 5.4472 12.8761C5.60785 13.0173 5.60785 13.0173 5.4472 12.8761C5.19283 12.8778 5.24995 12.7661 5.35795 12.6101C5.26155 12.3264 5.67747 12.4559 5.83544 12.5489C6.28259 12.8096 6.40665 13.0817 5.89346 13.3193C6.1389 13.3442 6.09874 13.3885 5.89346 13.4966C5.71495 13.5454 5.53377 13.6145 5.35884 13.6739C5.36152 13.5862 5.35081 13.4958 5.35884 13.408H5.35795Z" fill="#5D5D5D"/>
<path d="M3.66184 3.7449C3.4048 3.6722 3.42086 3.57468 3.66184 3.47894C3.58419 3.44968 3.58419 3.41954 3.66184 3.39029C3.68683 3.31316 3.71718 3.31404 3.75109 3.39029C3.85284 3.31138 3.85284 3.22273 3.75109 3.12433C3.67344 3.0995 3.67434 3.06936 3.75109 3.03567C4.03759 2.84064 4.17058 2.88674 4.01885 2.5933C4.23127 2.51439 4.23841 2.87078 4.42048 2.85659C4.6329 2.84064 4.47046 2.63762 4.46511 2.59241C4.42226 2.36191 4.48206 2.33266 4.64361 2.50376C4.7757 2.45943 4.82657 2.57557 4.82211 2.68106C4.83014 2.68993 4.82033 2.73869 4.82211 2.76972C4.72126 3.01174 4.57221 3.12965 4.37585 3.12433C4.45797 3.3105 4.36782 3.3566 4.18843 3.36812C4.12595 3.61901 4.04741 3.8832 3.75109 3.83355C3.61632 3.96298 3.56813 3.91511 3.66184 3.7449Z" fill="#5D5D5D"/>
<path d="M15.7998 2.50354C15.9408 2.18084 16.2915 2.06293 16.5138 1.88297C16.587 1.90336 16.6155 1.87233 16.603 1.79431C16.6494 1.75708 16.7057 1.68084 16.7815 1.61701C16.9359 1.5186 17.0252 1.5186 17.0493 1.61701L17.4054 1.97073C17.2474 1.98226 17.1876 1.9991 17.0493 1.90601C17.0234 1.88828 17.1028 1.75796 16.9609 1.79431C16.9038 2.60903 16.4629 2.16311 16.1282 2.2296C16.0996 2.23492 16.0265 2.40425 15.7998 2.50265V2.50354Z" fill="#5D5D5D"/>
<path d="M15.5327 8.70952C15.5862 8.52778 15.563 8.35402 15.463 8.18735C15.5523 8.25739 15.5576 8.31324 15.4434 8.35491C15.1016 8.51625 14.9498 8.19001 14.7294 8.00029C14.7981 7.8159 14.9257 7.8159 14.9971 8.00029C15.0873 7.9409 15.1765 7.91164 15.2649 7.91164C15.3309 7.96217 15.5434 7.9276 15.663 8.09161C15.7754 8.24586 15.7245 8.48788 15.8897 8.62086C16.0949 8.82388 15.9834 8.96395 15.7112 8.88682C15.621 8.83274 15.5835 8.80438 15.5327 8.70952Z" fill="#5D5D5D"/>
<path d="M1.87667 5.34045C1.90077 5.15339 1.8856 5.14275 1.69817 5.16314C1.82759 5.01864 2.11498 4.84222 2.14443 4.80853C2.40594 4.36793 2.61389 4.25002 2.76919 4.45392C3.23241 4.28903 2.99143 4.96633 2.68172 5.14098C2.39969 5.16846 2.13104 5.23495 1.87667 5.34045Z" fill="#5D5D5D"/>
<path d="M18.3885 12.6102C18.3215 12.7343 18.2341 12.8256 18.1207 12.6988C17.7021 12.6935 17.6941 12.5729 17.4067 12.3442C17.3951 12.0729 17.7468 12.0233 17.853 12.2556C18.0011 12.2494 18.044 12.4116 18.21 12.2556C18.509 12.2006 18.6875 12.3779 18.7455 12.7875C18.6089 12.8052 18.4652 12.6226 18.3885 12.6102Z" fill="#5D5D5D"/>
<path d="M11.6949 9.68442C11.436 9.66847 11.2486 9.20126 11.6056 9.06385C11.7386 8.8236 11.6547 8.74027 12.0519 8.79789C12.0965 8.83424 12.0965 8.89275 12.0519 8.9752C12.192 9.01155 12.1715 9.07715 12.0519 9.1525C12.0269 9.24914 11.8921 9.6135 11.8493 9.66226C11.8064 9.71102 11.7047 9.67378 11.6949 9.68442Z" fill="#5D5D5D"/>
<path d="M0.359568 7.64559C0.396161 7.3557 -0.0367095 7.5729 0.00256121 7.11367C0.0141639 7.11899 0.136439 7.01172 0.168569 7.04364C0.21498 7.08974 0.11948 7.2369 0.269423 7.20144C0.240862 6.81846 0.481843 6.5002 0.716574 6.22715C0.74335 6.19612 0.779051 6.17041 0.805826 6.13849C0.877227 6.0525 1.09054 5.95675 1.16283 5.87253C1.35829 6.41952 1.21638 6.09949 0.984329 6.22715L0.895078 6.4931C0.902218 6.55427 0.837064 6.61545 0.984329 6.75818C0.7255 6.50286 0.169462 7.20942 0.270316 7.29009C0.307802 7.32024 0.625538 7.19967 0.629108 7.60038C0.60501 7.70233 0.429184 7.61988 0.36046 7.64559H0.359568Z" fill="#5D5D5D"/>
<path d="M14.1935 9.68469C14.0552 9.57121 13.8767 9.31767 13.7472 9.24142C13.6696 9.2166 13.6705 9.18646 13.7472 9.15277C13.8079 9.00561 13.9552 9.11908 14.015 9.24142C14.0659 9.24852 14.1676 9.13504 14.4193 9.23256C14.6335 9.31589 14.6165 9.3877 14.729 9.50738L14.1935 9.68469Z" fill="#5D5D5D"/>
<path d="M19.9948 12.5213C19.9564 12.6623 19.494 12.5657 19.727 13.0524L19.5476 12.7873C19.4012 12.7492 19.486 12.9096 19.445 12.938C19.4307 12.9478 19.1513 12.9628 19.1022 12.9637C19.0362 12.852 19.1665 12.672 19.2807 12.6091C19.2522 12.5612 19.1924 12.4433 19.1022 12.2545C19.0897 11.9947 19.3316 11.9398 19.4592 12.1658C19.6163 12.1924 19.7056 12.3112 19.727 12.5204C19.7627 12.3804 19.9367 12.4025 19.9948 12.5204V12.5213Z" fill="#5D5D5D"/>
<path d="M4.37625 12.4328C4.14598 12.0844 4.54672 12.0826 4.644 12.4328H4.73325C4.82072 12.3982 4.87963 12.4568 4.91176 12.6101C4.95549 12.6358 5.05724 12.697 5.09026 12.6988C5.20896 12.5755 5.29822 12.5454 5.35801 12.6101C5.48386 12.658 5.42852 12.7883 5.44727 12.8761C5.41781 12.8823 5.37943 12.9621 5.35801 12.9647C4.78591 13.0348 4.727 12.7591 4.37625 12.4328Z" fill="#5D5D5D"/>
<path d="M4.64339 2.41486C4.49702 2.45919 4.42473 2.23046 4.55414 2.1489C4.55771 2.12585 4.73443 1.73666 4.75228 1.72071C4.80047 1.67904 4.89151 1.71805 4.91115 1.70564C5.08787 1.64624 5.37079 2.14713 5.08965 2.1489C5.08608 2.21628 5.02896 2.44411 5.0004 2.50351C4.85313 2.61167 4.71479 2.5966 4.64339 2.41486Z" fill="#5D5D5D"/>
<path d="M8.74924 12.4325C8.67963 12.3359 8.59038 12.2472 8.48149 12.1666C8.43954 12.0682 8.49845 11.9503 8.65999 11.812C8.60019 11.6382 8.69123 11.6036 8.8385 11.7233C8.85188 11.6222 8.97059 11.6302 9.017 11.7233C9.19818 11.679 9.33116 11.702 9.37401 11.9006C9.37579 11.9104 9.48557 11.9166 9.46415 11.9884C9.1723 11.9245 9.0759 12.257 8.90008 12.4059C8.84474 12.4529 8.76174 12.4228 8.74924 12.4325Z" fill="#5D5D5D"/>
<path d="M6.07197 0.819114C6.05501 0.804043 5.95683 0.818227 5.89703 0.765921C5.74441 0.633829 5.90864 0.480459 5.53735 0.642694L5.44721 0.287196C5.5668 0.273898 5.73906 0.174607 5.83456 0.191451C5.91221 0.205635 5.91221 0.366984 5.98718 0.412197C6.09517 0.478687 6.21745 0.451204 6.33972 0.552269C6.30134 0.618759 6.271 0.707412 6.25047 0.818228C6.2353 0.959186 6.1755 0.959186 6.07197 0.818228V0.819114Z" fill="#5D5D5D"/>
<path d="M17.4068 12.3439C17.2693 12.2348 17.1908 12.0948 17.0498 11.9893C17.2006 11.6409 17.3363 11.9219 17.5523 11.9653C17.7825 12.0114 17.9012 11.6666 17.853 12.2552C17.6986 12.2614 17.554 12.3022 17.4068 12.3439Z" fill="#5D5D5D"/>
<path d="M7.58906 13.3191C7.44626 13.4379 7.35165 13.4193 7.32131 13.2305C7.13209 13.2322 7.14102 13.1028 7.32131 13.0532C7.24812 12.9237 7.30703 12.8351 7.49981 12.7872C7.46143 12.7606 7.46322 12.7313 7.49981 12.6985C7.6801 12.507 7.8586 12.625 8.03532 13.0532C8.01747 13.0735 8.06031 13.2056 8.03175 13.2269C8.00497 13.2464 7.88359 13.1409 7.82111 13.1418C7.75418 13.1436 7.77203 13.2624 7.73543 13.2854C7.6676 13.3297 7.59709 13.312 7.58817 13.3191H7.58906Z" fill="#5D5D5D"/>
<path d="M12.0518 8.79791C12.1643 8.3378 12.266 8.42823 12.5873 8.26599C12.5418 8.36262 12.6757 8.51156 12.6766 8.53195C12.681 8.69862 12.6043 8.77752 12.4981 8.88656C12.3365 8.89011 12.1875 8.91936 12.0518 8.97522C12.0652 8.92468 12.0393 8.85022 12.0518 8.79791Z" fill="#5D5D5D"/>
<path d="M9.37433 11.5461C9.29668 11.5212 9.29758 11.4911 9.37433 11.4574C9.13335 11.4246 9.15299 11.3634 9.37433 11.2801C9.23242 11.2101 9.26187 11.1799 9.46358 11.1915C9.35559 11.0762 9.39397 10.9849 9.55284 11.0141C9.52695 10.8865 9.5573 10.7978 9.64209 10.7482C9.57426 10.515 9.84737 10.3696 9.99909 10.5709C10.2178 10.6586 10.158 10.7766 9.82059 10.9255C9.76168 11.031 9.63762 11.1072 9.63941 11.2358C9.6403 11.3271 10.0152 11.1666 9.64209 11.6347C9.52517 11.7101 9.39664 11.703 9.37433 11.5461Z" fill="#5D5D5D"/>
<path d="M2.14438 4.80871C2.24792 4.69169 2.42553 4.06935 2.76915 4.01084C2.96193 4.07821 3.06903 4.17041 2.8584 4.27679C3.00655 4.44612 2.99317 4.45676 2.76915 4.4541C2.45766 4.59772 2.34074 4.43016 2.5005 4.80871C2.3684 4.75995 2.26577 4.70587 2.14438 4.80871Z" fill="#5D5D5D"/>
<path d="M10.4451 10.5709C10.2577 10.6932 10.205 10.5735 10.1773 10.3936C10.0434 10.2163 10.2407 10.0186 10.4451 10.1276C10.4763 10.1001 10.5058 10.07 10.5343 10.0389C10.6414 10.1152 10.7601 10.234 10.8913 10.3936C10.9163 10.3164 10.9467 10.3173 10.9806 10.3936C10.8351 10.5363 10.7084 10.679 10.5781 10.8368C10.5361 10.8554 10.5049 10.6498 10.4451 10.5709Z" fill="#5D5D5D"/>
<path d="M2.85883 4.27674C2.86061 4.18365 2.81688 4.08968 2.76958 4.01078C2.90078 3.98862 3.00966 4.06397 3.12569 4.09943C3.12033 4.01255 3.13729 3.91858 3.12569 3.83347C3.20602 3.69074 3.62282 3.81929 3.57195 4.01078C3.96644 4.60919 3.04715 4.68543 2.85793 4.27674H2.85883Z" fill="#5D5D5D"/>
<path d="M10.9803 10.1278C10.8553 10.1845 10.833 10.0595 10.891 9.9505C10.8464 9.82372 10.8116 9.64199 10.891 9.50723C10.8625 9.35564 10.9223 9.35564 11.0696 9.50723C11.2177 9.38755 11.3685 9.50989 11.3373 9.68454C11.4846 9.78206 11.514 9.87071 11.4266 9.9505C11.3337 10.0427 11.2561 10.1251 11.1588 10.2165C11.0267 10.3042 10.966 10.3042 10.9803 10.1278Z" fill="#5D5D5D"/>
<path d="M16.6031 4.27694C16.5183 4.17765 16.546 3.97907 16.6923 4.01098C16.9512 3.90283 17.2243 3.80531 17.4956 3.92233C17.3956 4.01985 17.1948 4.1351 17.0493 4.27694L17.0056 4.19006C16.9181 4.27074 16.7798 4.30265 16.6923 4.3656C16.5799 4.47907 16.554 4.43031 16.6031 4.27694Z" fill="#5D5D5D"/>
<path d="M7.94586 12.6102C7.81734 12.7042 7.74951 12.6386 7.67811 12.5216C6.92661 12.3079 8.15471 11.5136 8.12437 12.3443C8.25646 12.1484 8.3225 12.2024 8.30287 12.4329C8.30287 12.4923 8.30198 12.5508 8.30287 12.6102C8.27342 12.8673 8.01637 12.8602 7.94586 12.6102Z" fill="#5D5D5D"/>
<path d="M19.5484 1.52839C19.4056 1.60375 19.286 1.63389 19.1914 1.61705C19.1048 1.6729 19.045 1.6729 19.0129 1.61705C18.696 1.42556 19.1441 0.91403 19.3699 1.26244C19.3993 1.25978 19.4297 1.26244 19.4591 1.26244C19.4939 1.26244 19.5582 1.34666 19.5957 1.34932C19.6144 1.35109 19.7135 1.02219 19.9054 1.17378C19.9679 1.22432 19.6832 1.54081 19.6385 1.61616C19.5145 1.73496 19.4645 1.67911 19.5493 1.52751L19.5484 1.52839Z" fill="#5D5D5D"/>
<path d="M10.4449 10.5711C10.0942 10.6881 10.4922 10.9487 10.2209 11.103C10.1834 11.1243 10.2495 10.6083 9.82018 10.9257C9.88534 10.8104 9.99423 10.6748 9.99869 10.5711C9.83 10.5436 9.83893 10.4736 9.99869 10.3938C10.0326 10.1961 10.1227 10.2005 10.1772 10.3938C10.3334 10.3627 10.3664 10.4691 10.4449 10.5711Z" fill="#5D5D5D"/>
<path d="M18.7458 2.50354C18.4379 2.34041 18.8976 2.26949 18.9235 2.2358C19.0029 2.13119 18.8387 2.06914 18.8351 2.06027C18.8083 1.99999 18.7708 1.94414 18.7458 1.88297C18.6959 1.62587 18.7539 1.57711 19.0136 1.61701C19.0689 1.60725 19.1475 1.63208 19.1921 1.61701C19.2903 1.70832 19.16 1.75531 19.0671 1.77215C19.0582 1.77392 19.1644 1.66488 19.1921 1.79431C18.9422 1.92375 18.9145 2.02304 19.1921 2.10371C19.1118 2.35017 18.8449 2.41045 18.745 2.50354H18.7458Z" fill="#5D5D5D"/>
<path d="M8.57046 2.59204C8.29556 2.88016 8.06619 2.44576 8.21345 2.14877C8.07154 2.09558 7.9091 2.01225 8.03495 1.88281C7.82789 1.84381 7.83413 1.75604 8.03495 1.70551C8.21345 1.74806 8.37589 1.75072 8.48924 1.92359C8.59099 2.07785 8.46871 2.17094 8.48121 2.23742C8.6008 2.27466 8.66953 2.32165 8.57046 2.41473C8.66417 2.44399 8.66774 2.5486 8.57046 2.59204Z" fill="#5D5D5D"/>
<path d="M15.5326 2.85809C15.5611 2.81554 15.6807 2.78451 15.6897 2.75614C15.7218 2.65508 15.5344 2.5815 15.7111 2.50348C15.737 2.53628 15.7753 2.56022 15.8003 2.59213C16.2082 2.56908 16.3564 2.62848 16.2466 2.76944C16.1895 2.83061 15.7405 3.11164 15.6647 3.12317L15.5326 2.85809Z" fill="#5D5D5D"/>
<path d="M7.67849 1.17364H7.558C7.44911 0.884629 7.39735 1.05218 7.14209 1.0841L7.23223 0.908565C7.17511 0.898813 7.10014 0.921863 7.05283 0.908565C6.96715 1.1036 6.60479 0.884629 6.78508 0.731259C6.6869 0.694025 6.66637 0.584982 6.78508 0.553953C7.16886 0.455548 6.98768 0.760515 7.10996 0.823459C7.30185 0.921864 7.62226 0.828778 7.6776 0.862466C7.83825 0.959985 7.67046 1.04952 7.6776 1.17541L7.67849 1.17364Z" fill="#5D5D5D"/>
<path d="M17.139 9.77335C17.0373 9.65987 17.3104 9.56147 16.6927 9.68381L16.782 9.24143H16.8712C17.0149 9.33895 17.1854 9.40189 17.3175 9.50739L17.2283 9.77335C17.2033 9.84959 17.1729 9.8487 17.139 9.77335Z" fill="#5D5D5D"/>
<path d="M19.1024 11.4577L18.4776 11.1013L18.7454 10.8372C18.9551 11.0313 19.0595 11.1102 19.2809 11.2804C19.3746 11.4639 19.2952 11.5278 19.1024 11.4577Z" fill="#5D5D5D"/>
<path d="M3.12639 3.83338C3.11032 3.71015 2.93539 3.47433 3.30489 3.39011C3.44323 3.50448 3.56283 3.62238 3.6619 3.74473C3.66904 3.78639 3.70831 3.82274 3.75115 3.83338C3.91627 4.03462 3.79845 4.13568 3.57265 4.01068L3.12639 3.83338Z" fill="#5D5D5D"/>
<path d="M14.461 4.27673C14.2183 4.40616 14.0442 4.25988 14.1933 4.01077C14.3521 3.85385 14.4691 3.65527 14.6395 3.65616C14.6833 3.82992 14.7788 3.98151 14.7279 4.18896C14.5574 4.01343 14.4851 4.28027 14.461 4.27673Z" fill="#5D5D5D"/>
<path d="M14.4615 4.27679L14.2375 4.80871L14.1028 4.27768L14.0144 4.36633C13.9894 4.44346 13.9591 4.44258 13.9251 4.36633C14.0046 4.26527 14.0394 4.16332 14.1929 4.01172C14.1643 4.2963 14.2268 4.11545 14.3759 4.15357C14.4401 4.16952 14.4535 4.27679 14.4607 4.27768L14.4615 4.27679Z" fill="#5D5D5D"/>
<path d="M19.3703 11.635C19.2579 11.5055 19.3078 11.4568 19.4596 11.5463C19.4721 11.5516 19.614 11.4426 19.6309 11.4621C19.647 11.8158 20.0058 11.8788 19.6381 12.0782C19.6657 12.2609 19.589 12.2999 19.4596 12.1669C19.1695 12.1828 19.0856 11.7139 19.3703 11.635Z" fill="#5D5D5D"/>
<path d="M9.90927 3.92195C9.86643 3.87497 9.86643 3.81557 9.90927 3.74465C9.73345 3.69943 9.73612 3.61965 9.90927 3.56734C9.95211 3.51681 10.011 3.51681 10.0878 3.56734C10.235 3.68702 10.393 3.80316 10.534 3.92195C10.626 4.02922 10.5439 4.07975 10.2868 4.07266C10.3055 4.20919 10.2672 4.21451 10.177 4.09926C10.0672 4.39713 9.85483 4.14359 9.90927 3.92195Z" fill="#5D5D5D"/>
<path d="M17.4064 1.26249C17.3207 1.24475 17.3207 1.18536 17.4064 1.08518C17.5661 0.942448 17.6911 0.789965 17.8526 0.641915C18.0445 0.826313 18.074 0.944221 17.9419 0.996526C18.1097 1.26958 17.8107 1.31568 17.5849 1.26249C17.5197 1.36887 17.4519 1.37951 17.4064 1.26249Z" fill="#5D5D5D"/>
<path d="M0.0919473 8.2659C0.0803445 8.24462 0.100872 8.2065 0.0919473 8.17724L0.358809 7.91129C0.219576 8.29604 0.789894 8.03274 0.626564 8.4432C0.603358 8.50171 0.276698 7.99728 0.359702 8.53186C0.279376 8.44232 0.182984 8.437 0.0919473 8.2659Z" fill="#5D5D5D"/>
<path d="M10.5346 4.54277C10.2517 4.64207 10.0179 4.33887 10.1776 4.09951L10.5346 3.9222C10.7765 4.12522 10.6587 4.18905 10.7131 4.27681C10.6881 4.35394 10.6578 4.35306 10.6239 4.27681C10.5239 4.19703 10.5239 4.19703 10.6239 4.27681C10.772 4.32912 10.648 4.48604 10.5346 4.54277Z" fill="#5D5D5D"/>
<path d="M5.0899 2.14923C5.10061 1.94887 5.0899 1.92228 4.91497 1.8221L4.9114 1.70596C5.02475 1.63238 5.12293 1.5393 5.26841 1.52866C5.34873 1.54462 5.34516 1.57476 5.26841 1.61731C5.16755 1.75295 5.19701 1.87086 5.35766 1.97192C5.50403 2.01093 5.61738 1.9604 5.62452 1.97192C5.77893 2.22902 5.28447 2.14214 5.0899 2.14923Z" fill="#5D5D5D"/>
<path d="M14.6398 3.6559C14.6273 3.60626 14.6478 3.53534 14.6398 3.4786C14.7031 3.38374 14.7924 3.29509 14.9075 3.21264C15.0137 3.18072 15.1913 3.02735 15.2645 3.21264C15.2315 3.23923 15.2003 3.28711 15.1753 3.30129C15.236 3.41831 15.2226 3.48924 15.086 3.56725C15.2279 3.80573 14.9959 3.97417 14.8183 3.74456C14.8085 3.74456 14.721 3.6559 14.6398 3.6559Z" fill="#5D5D5D"/>
<path d="M4.64392 12.4329L4.55556 12.5216L4.51005 12.2548L4.37617 12.4329C4.29584 12.3576 4.18249 12.2468 4.10841 12.167C4.21284 11.917 4.5984 11.8913 4.37438 12.167C4.63232 12.1298 4.68676 12.1741 4.64392 12.4338V12.4329Z" fill="#5D5D5D"/>
<path d="M8.7492 3.1241C8.52518 3.02747 8.52786 2.96275 8.7492 2.85814C8.61889 2.80583 8.63674 2.55583 8.65995 2.41487C8.68494 2.33775 8.71529 2.33863 8.7492 2.41487C8.78758 2.4397 8.84827 2.43349 8.9277 2.50353C8.92949 2.57179 8.96251 2.5647 9.01696 2.50353C9.11781 2.60636 9.14102 2.70743 9.19546 2.76949C9.23295 2.96984 9.17315 2.9991 9.01696 2.85814C9.0116 2.95211 8.98126 3.04076 8.9277 3.1241C8.89914 3.35991 8.81703 3.34928 8.7492 3.1241Z" fill="#5D5D5D"/>
<path d="M5.26816 1.70584C5.21729 1.67658 5.21729 1.64644 5.26816 1.61718C5.26994 1.58793 5.26816 1.55779 5.26816 1.52853C5.26816 1.51612 5.35473 1.46559 5.3583 1.39023C5.36277 1.27498 5.25388 1.10388 5.26816 1.08615C5.28244 1.06842 5.39668 1.09856 5.44755 1.08615C5.5252 1.11098 5.52431 1.14112 5.44755 1.17481C5.41721 1.38403 5.71352 1.34945 5.62606 1.61807C5.70371 1.64289 5.70281 1.67304 5.62606 1.70672C5.55198 1.67835 5.36812 1.72623 5.26905 1.70672L5.26816 1.70584Z" fill="#5D5D5D"/>
<path d="M9.55262 3.56767C9.40714 3.46218 9.35002 3.34161 9.55262 3.30171H9.64188C9.7222 3.362 9.85519 3.37795 10.0881 3.56767C10.031 3.57565 9.9614 3.55615 9.90963 3.56767C9.86858 3.76803 9.57315 3.76005 9.55262 3.56767Z" fill="#5D5D5D"/>
<path d="M18.2993 0.641924C18.0449 0.712847 18.02 0.528449 18.2101 0.375966C18.6287 0.0860705 18.3618 0.277561 18.6563 0.19866C18.6679 0.28288 18.6394 0.388377 18.6563 0.464619C18.6313 0.541747 18.601 0.54086 18.5671 0.464619C18.4127 0.469051 18.3832 0.498307 18.4778 0.553272C18.5412 0.789975 18.468 0.815684 18.2993 0.641924Z" fill="#5D5D5D"/>
<path d="M7.94571 12.6101C8.02871 12.6376 8.19918 12.5915 8.30271 12.6101C8.31432 13.1633 8.16348 12.9035 8.03496 13.0533C7.91179 12.978 7.78327 12.6588 7.94571 12.6101Z" fill="#5D5D5D"/>
<path d="M10.713 4.72019C10.5997 4.78491 10.4453 4.64838 10.5345 4.54289C10.5917 4.4498 10.7014 4.33721 10.8023 4.36558C10.8755 4.42498 11.0317 4.43296 11.1593 4.54289C11.0897 4.74058 10.9014 4.70424 10.713 4.72019Z" fill="#5D5D5D"/>
<path d="M16.1574 8.88677C15.9584 8.96744 15.8691 8.84864 15.8897 8.53215C15.9013 8.45059 15.8424 8.28924 15.9343 8.26619C16.0351 8.49581 16.2824 8.61815 16.4252 8.79811C16.3457 8.85396 16.2431 8.85485 16.1574 8.88677Z" fill="#5D5D5D"/>
<path d="M18.9236 11.7237C19.1075 11.6722 19.0655 11.5215 19.1021 11.4577C19.1485 11.3753 19.1806 11.3105 19.2806 11.2804C19.4484 11.4089 19.4439 11.5402 19.4591 11.5464C19.4252 11.5685 19.4002 11.6164 19.3699 11.635C19.3788 11.948 19.0557 11.9976 18.9236 11.7237Z" fill="#5D5D5D"/>
<path d="M19.7269 12.5216C19.3717 12.4471 19.5082 12.362 19.4591 12.167C19.5189 12.1466 19.5814 12.1085 19.6376 12.0783C19.8376 12.0305 19.8447 12.1918 19.9054 12.3443C19.8733 12.4205 19.8135 12.4799 19.7269 12.5216Z" fill="#5D5D5D"/>
<path d="M18.2098 0.819025C18.0331 0.929841 17.9135 0.870444 17.8528 0.641719C18.0322 0.476825 18.0429 0.491896 18.2098 0.37576L18.2991 0.641719C18.499 0.790656 18.4588 0.852713 18.2098 0.819025Z" fill="#5D5D5D"/>
<path d="M9.19571 3.124C9.04755 3.07879 8.86637 3.00964 9.01721 2.85805C9.06451 2.83766 9.11449 2.75964 9.19571 2.76939C9.31888 2.91035 9.54825 3.23127 9.64197 3.30131H9.55272C9.46971 3.52826 9.24837 3.28269 9.19571 3.124Z" fill="#5D5D5D"/>
<path d="M17.0498 1.61708C16.9686 1.63127 16.8678 1.60733 16.7821 1.61708C16.9981 1.43623 17.1971 1.27222 17.4068 1.08516C17.3979 1.1419 17.4193 1.21371 17.4068 1.26247C17.5184 1.35024 17.4354 1.39634 17.3176 1.43978C17.2846 1.44155 17.2623 1.57985 17.0498 1.61708Z" fill="#5D5D5D"/>
<path d="M7.76746 1.883C7.62198 1.82803 7.59966 1.64629 7.67821 1.52839C7.70409 1.49647 7.74247 1.47253 7.76746 1.43973C7.83172 1.51952 7.93614 1.53991 8.03521 1.70569C8.05574 1.74027 8.01468 1.84931 8.03521 1.883C8.01558 2.07271 7.88973 1.98495 7.76746 1.883Z" fill="#5D5D5D"/>
<path d="M12.4979 5.60633C12.4783 5.60101 12.2864 5.71626 12.1445 5.52034C12.1623 5.80934 11.9874 5.65598 11.7839 5.60633C11.9294 5.53629 12.1043 5.51856 12.0517 5.34037C12.1775 5.41661 12.3971 5.42814 12.4979 5.60633Z" fill="#5D5D5D"/>
<path d="M14.729 8.0001C14.6987 7.99567 14.6656 8.0072 14.6398 8.0001C14.4559 7.83964 14.4854 7.81039 14.729 7.8228C14.7594 7.73149 14.8192 7.64283 14.9075 7.55684C15.0575 7.65436 15.111 7.77581 15.1753 7.8228C15.2743 7.90524 15.1048 7.96996 14.9968 8.0001C14.9147 8.00454 14.8058 8.01074 14.729 8.0001Z" fill="#5D5D5D"/>
<path d="M13.9262 4.89709C13.8575 4.78627 13.8066 4.68876 13.6584 4.71979C13.7584 4.57883 13.8218 4.49727 13.9262 4.36517H14.0154C14.0342 4.47422 13.9235 4.85454 13.9262 4.89709Z" fill="#5D5D5D"/>
<path d="M14.5508 7.73432C14.4821 7.67315 14.7097 7.63769 14.3723 7.55702C14.2947 7.53219 14.2956 7.50205 14.3723 7.46836C14.2259 7.41429 14.325 7.25648 14.4616 7.29106V7.20241C14.7481 7.60578 14.6347 7.35755 14.8186 7.46836C14.9373 7.64301 14.7159 7.86464 14.5508 7.73432Z" fill="#5D5D5D"/>
<path d="M6.60718 0.907988L6.38583 1.17395C6.16092 1.15356 6.12611 0.86898 6.07167 0.819335C6.12879 0.811356 6.19841 0.830859 6.25017 0.819335C6.19662 0.649121 6.29569 0.607454 6.42867 0.730682C6.44652 0.754618 6.40904 0.811356 6.51793 0.907988H6.60718Z" fill="#5D5D5D"/>
<path d="M3.66164 3.74475L3.21448 3.65521L3.30463 3.39014C3.32873 3.38482 3.368 3.38748 3.39388 3.39014C3.51794 3.28996 3.62504 3.32985 3.66164 3.47879C3.67145 3.56478 3.64736 3.66407 3.66164 3.74475Z" fill="#5D5D5D"/>
<path d="M15.8892 8.97508C15.7768 8.95913 15.775 8.92455 15.7107 8.88643C15.8839 8.80398 15.8598 8.76586 15.8892 8.62047C15.8946 8.5921 15.8857 8.56107 15.8892 8.53182L16.157 8.88643C16.1249 8.89884 16.0909 8.97065 16.0677 8.97508C16.0311 9.10984 15.9794 9.07083 15.8892 8.97508Z" fill="#5D5D5D"/>
<path d="M15.7108 11.0142C15.593 10.9539 15.3832 10.7553 15.2645 10.6596C15.3145 10.6489 15.4288 10.6755 15.443 10.6596C15.6171 10.367 15.9446 10.7642 15.8893 11.0142C15.8509 11.0612 15.792 11.0612 15.7108 11.0142Z" fill="#5D5D5D"/>
<path d="M6.60722 0.908101C6.5858 0.893917 6.53404 0.922286 6.51797 0.908101C6.54832 0.830973 6.67595 0.839838 6.69647 0.819448C6.67862 0.676717 6.70897 0.647462 6.78573 0.730795C6.86338 0.915193 6.92764 0.871754 7.05348 0.908101C7.09364 1.26892 6.79287 1.02867 6.60722 0.908101Z" fill="#5D5D5D"/>
<path d="M9.01709 11.7236C8.94301 11.5906 9.24111 11.4231 9.37409 11.5463C9.56242 11.5649 9.5285 11.7165 9.37409 11.8123C9.37766 11.8415 9.36785 11.8734 9.37409 11.9009C9.2188 11.916 9.0635 11.8867 9.01709 11.7236Z" fill="#5D5D5D"/>
<path d="M12.0517 9.15246C12.0651 9.10104 12.0383 9.02657 12.0517 8.97516C12.1266 8.78278 12.3489 8.69501 12.4979 8.8865C12.4426 8.94324 12.223 8.97161 12.1695 9.15069L12.0517 9.15246Z" fill="#5D5D5D"/>
<path d="M18.7456 12.876C18.7751 12.8007 18.8045 12.8007 18.8349 12.876C18.9991 12.4753 19.1481 12.3867 19.2811 12.6101C19.2427 12.6562 19.2106 12.8964 19.1026 12.9647C18.9857 12.9665 18.8054 13.0064 18.7456 12.876Z" fill="#5D5D5D"/>
<path d="M11.6057 9.77334C11.396 9.9276 11.3308 9.80614 11.4272 9.59604C11.2067 9.60845 11.1701 9.39391 11.2487 9.24142C11.3397 9.21749 11.462 9.05082 11.6057 9.06412C11.3022 9.61199 11.553 9.23522 11.6949 9.68469C11.6664 9.7166 11.6343 9.7432 11.6057 9.77334Z" fill="#5D5D5D"/>
<path d="M15.8896 11.1028C15.77 11.0824 15.7682 11.0434 15.7111 11.0141C15.7673 11.0053 15.8423 11.0274 15.8896 11.0141C15.8369 10.8838 15.8584 10.843 15.9788 10.9255C16.0074 10.9201 16.0386 10.9281 16.0681 10.9255C16.1565 10.9184 16.2475 10.929 16.335 10.9255V11.1019C16.1939 11.0868 16.0226 11.1249 15.8896 11.1019V11.1028Z" fill="#5D5D5D"/>
<path d="M8.30269 12.4329C8.25807 12.4231 8.17238 12.3717 8.12419 12.3442C7.79396 11.932 8.43211 11.5978 8.39194 12.0783C8.42764 12.1253 8.42764 12.1838 8.39194 12.2556C8.47048 12.2857 8.51689 12.3575 8.48119 12.4329C8.42407 12.4249 8.35446 12.4444 8.30269 12.4329Z" fill="#5D5D5D"/>
<path d="M14.6398 3.47861C14.63 3.47861 14.6149 3.38287 14.5675 3.40149C14.5434 3.41035 14.3275 3.8873 14.1936 3.74369C14.2775 3.28801 14.5086 3.33322 14.9076 3.21265C14.9317 3.52737 14.9281 3.48571 14.6398 3.47861Z" fill="#5D5D5D"/>
<path d="M19.1915 1.79457C19.1273 1.77507 19.0148 1.8389 19.0122 1.75024L19.1915 1.61726C19.3817 1.55343 19.3022 1.3974 19.5486 1.52861C19.5816 1.68198 19.4557 1.86815 19.2808 1.79457C19.2505 1.78925 19.2165 1.80166 19.1915 1.79457Z" fill="#5D5D5D"/>
<path d="M8.48186 12.2556C8.40154 12.2344 8.40332 12.2042 8.48186 12.167C8.68357 11.9941 8.77015 12.2025 8.74962 12.4329C8.7041 12.4693 8.62377 12.487 8.57112 12.5216C8.52024 12.4445 8.46937 12.3416 8.48186 12.2556Z" fill="#5D5D5D"/>
<path d="M19.2809 1.7942L19.5487 1.52825C19.5844 1.54686 19.6112 1.58676 19.6379 1.6169C19.571 1.7286 19.5576 1.87311 19.5478 1.88286C19.4951 1.9325 19.3309 1.80307 19.2809 1.7942Z" fill="#5D5D5D"/>
<path d="M4.37576 2.23779C4.43109 2.18194 4.4668 2.14382 4.55426 2.14914C4.53998 2.24666 4.62745 2.3424 4.64351 2.4151C4.72116 2.44169 4.72027 2.47095 4.64351 2.50375C4.58996 2.52059 4.50696 2.5924 4.46501 2.5924C4.29275 2.54985 4.31864 2.37432 4.37576 2.23779Z" fill="#5D5D5D"/>
<path d="M6.51811 0.464842C6.56095 0.516261 6.84923 0.0198045 6.78586 0.553495C6.77872 0.610233 6.80103 0.69534 6.78586 0.730801C6.75552 0.804383 6.72339 0.792858 6.69661 0.819454C6.68501 0.67495 6.59308 0.577432 6.51811 0.464842Z" fill="#5D5D5D"/>
<path d="M18.1209 10.1278C18.004 10.0834 18.0317 9.7767 18.1656 9.77492C18.3592 9.77315 18.2834 10.1889 18.1209 10.1278Z" fill="#5D5D5D"/>
<path d="M13.3902 9.06402C13.4089 9.07289 13.5999 9.10746 13.7472 9.15268V9.24133C13.6811 9.20232 13.4232 9.27679 13.3902 9.06402Z" fill="#5D5D5D"/>
<path d="M4.37632 2.23779C4.45397 2.34595 4.44951 2.46829 4.46558 2.5924C4.12553 2.59063 4.19157 2.42308 4.37632 2.23779Z" fill="#5D5D5D"/>
<path d="M9.37421 11.8122C9.3644 11.728 9.37421 11.6332 9.37421 11.5463C9.46346 11.5454 9.61876 11.5206 9.64197 11.6349C9.56432 11.7333 9.54647 11.8229 9.37421 11.8122Z" fill="#5D5D5D"/>
<path d="M5.44681 1.17364V1.08498C5.48697 1.07434 5.52178 1.03622 5.53606 0.996329C5.59318 1.04952 5.82881 1.06814 5.80382 1.12931C5.73955 1.28445 5.56641 1.28002 5.44681 1.17364Z" fill="#5D5D5D"/>
<path d="M11.3377 9.68435C11.219 9.55935 11.269 9.51414 11.427 9.5957C11.4662 9.68524 11.327 9.81911 11.6055 9.77301C11.5448 9.83595 11.4877 9.89003 11.427 9.95031C11.3127 9.90155 11.3573 9.7074 11.3377 9.68435Z" fill="#5D5D5D"/>
<path d="M14.5508 7.73408C14.6365 7.81121 14.8614 7.61528 14.8186 7.46812C14.857 7.49117 14.8802 7.53904 14.9078 7.55677C14.9328 7.73319 14.7918 7.75092 14.7293 7.82273C14.6294 7.97876 14.4687 7.89011 14.5508 7.73408Z" fill="#5D5D5D"/>
<path d="M7.32123 13.4965C7.32123 13.4389 7.33016 13.3715 7.32123 13.3192C7.27304 13.2944 7.27482 13.2651 7.32123 13.2306L7.58899 13.3192C7.51134 13.3768 7.49081 13.5426 7.32123 13.4965Z" fill="#5D5D5D"/>
<path d="M9.55223 5.42902C9.32821 5.32441 9.20951 5.17636 9.19523 4.98576C9.14257 4.94498 9.08366 4.91572 9.01672 4.89711H8.92747C8.67757 4.99196 8.37411 4.71448 8.65972 4.54249L9.27912 4.39622C9.39426 4.16572 9.62453 4.21271 9.74591 4.38292C9.53438 3.89355 9.58883 3.74019 9.90924 3.92281C9.93155 4.08239 10.1359 4.06377 10.177 4.10012C10.2787 4.18966 10.3207 4.36519 10.534 4.54338C10.501 4.44586 10.6233 4.32175 10.6233 4.27742H10.7125C10.7205 4.28983 10.7821 4.35012 10.8018 4.36608C10.7429 4.49374 10.6831 4.57264 10.534 4.54338C10.5822 4.58327 10.6152 4.69852 10.7125 4.72069C10.7054 4.72069 10.6822 4.81555 10.6 4.79516C10.4912 4.76767 10.4715 4.63026 10.2645 4.66749C9.95833 4.72335 10.2145 4.98753 9.95476 4.99019C9.66201 4.99285 9.44959 4.72423 9.41925 4.72246C9.3773 4.7198 9.22557 4.85633 9.3773 4.94232C9.64506 5.09392 9.65309 4.94853 9.73163 5.42991C9.71824 5.64445 9.60846 5.63825 9.55313 5.42991L9.55223 5.42902Z" fill="#5D5D5D"/>
<path d="M3.39432 3.3901C3.44877 3.33248 3.53088 3.2784 3.57283 3.21279C3.69153 3.03726 3.75044 3.25446 3.66208 3.3901C3.66476 3.41936 3.65851 3.4495 3.66208 3.47875C3.55766 3.52751 3.42289 3.39276 3.39432 3.3901Z" fill="#5D5D5D"/>
<path d="M6.60718 14.0285C6.58486 14.0365 6.46884 14.3149 6.34031 14.2049C6.18502 14.0728 6.53488 13.9629 6.60718 13.9399V14.0285Z" fill="#5D5D5D"/>
<path d="M10.8915 10.305C10.8496 10.1942 10.8496 10.0905 10.9808 10.1277C11.0049 10.1499 11.1236 10.1508 11.1593 10.2164C11.095 10.2767 11.0424 10.3334 10.9808 10.3937H10.8915C10.8139 10.3689 10.8148 10.3387 10.8915 10.305Z" fill="#5D5D5D"/>
<path d="M3.57262 3.21295C3.58601 3.19256 3.54674 3.09947 3.59226 3.05515C3.63778 3.01082 3.73238 3.04805 3.75113 3.03564V3.1243C3.89572 3.11454 3.88501 3.36011 3.75113 3.39025H3.66188C3.65563 3.31401 3.6592 3.24043 3.57262 3.21295Z" fill="#5D5D5D"/>
<path d="M14.9966 6.22717L14.9083 6.18284C14.8378 5.8761 15.1287 5.84419 15.0859 6.13852C15.0564 6.16866 15.0252 6.19703 14.9966 6.22717Z" fill="#5D5D5D"/>
<path d="M16.5143 8.9753C16.6562 9.03203 16.7571 9.16324 16.8713 9.24125H16.7821C16.509 9.26874 16.5723 9.06395 16.5143 8.9753Z" fill="#5D5D5D"/>
<path d="M19.7273 12.5212C19.7059 12.3324 19.7157 12.3227 19.9058 12.3439C19.9192 12.3785 20.0236 12.4149 19.9951 12.5212C19.9103 12.5106 19.8041 12.5372 19.7273 12.5212Z" fill="#5D5D5D"/>
<path d="M8.48173 12.4328C8.45941 12.3716 8.41211 12.314 8.39248 12.2555C8.41747 12.1784 8.44781 12.1793 8.48173 12.2555C8.48798 12.2945 8.61828 12.4124 8.57098 12.5215V12.6979H8.48262C8.46655 12.6181 8.50404 12.4931 8.48173 12.4328Z" fill="#5D5D5D"/>
<path d="M6.24984 0.819454C6.21057 0.602254 6.04546 0.523353 6.33909 0.553495C6.43905 0.635943 6.40692 0.701546 6.42834 0.730801C6.36944 0.751191 6.30518 0.807043 6.24984 0.819454Z" fill="#5D5D5D"/>
<path d="M18.7451 12.7875C18.5488 12.471 18.4506 12.5224 18.2096 12.2556C18.464 12.0171 18.7282 11.9772 18.7469 11.635C18.8174 11.6128 18.8174 11.7201 18.8344 11.7236C19.0656 11.7697 19.1619 12.1483 18.9236 12.2556C19.004 12.2715 19.0004 12.3017 18.9236 12.3442C18.8594 12.4231 18.829 12.5118 18.8344 12.6102C19.1325 12.5783 19.0272 12.7644 18.8344 12.8761C18.8049 12.869 18.7585 12.8877 18.7451 12.8761C18.73 12.8637 18.7585 12.8096 18.7451 12.7875Z" fill="#5D5D5D"/>
<path d="M6.5177 0.464474C6.47486 0.399757 6.25084 0.368729 6.34009 0.109862C6.50699 0.142663 6.5177 0.322629 6.5177 0.464474Z" fill="#5D5D5D"/>
<path d="M14.9968 8.00023L15.1753 7.82292C15.211 7.84863 15.2351 7.88852 15.2645 7.91157C15.2208 8.02771 15.0941 7.99579 14.9968 8.00023Z" fill="#5D5D5D"/>
<path d="M8.92772 2.50369C8.94467 2.51876 9.00269 2.48862 9.01697 2.50369C9.00804 2.61805 8.97234 2.75015 8.83936 2.76965V2.5489L8.92772 2.50369Z" fill="#5D5D5D"/>
<path d="M8.57101 2.41477C8.56833 2.39704 8.49871 2.32878 8.48176 2.23747C8.81288 2.21264 8.73255 2.40325 8.74951 2.41477H8.66026C8.63527 2.4919 8.60492 2.49101 8.57101 2.41477Z" fill="#5D5D5D"/>
<path d="M16.5142 1.88305C16.5464 1.85735 16.5713 1.821 16.6035 1.7944L16.782 1.97082H16.5597L16.5142 1.88305Z" fill="#5D5D5D"/>
<path d="M18.2993 12.876C18.1761 12.7785 18.2377 12.6792 18.3885 12.6987C18.5358 12.9611 18.5438 13.0302 18.2993 12.876Z" fill="#5D5D5D"/>
<path d="M18.1209 12.6988C18.1647 12.6988 18.2923 12.5942 18.3887 12.6101V12.6988L18.2994 12.8761C18.2218 12.8273 18.1548 12.7936 18.1209 12.6988Z" fill="#5D5D5D"/>
<path d="M2.05502 10.2163C1.87741 10.0416 1.69444 9.86257 1.51951 9.68438C1.48113 9.59041 1.48113 9.50175 1.51951 9.41842C1.54271 9.35548 1.57306 9.35725 1.60876 9.41842C2.06394 9.31824 2.41559 9.59041 1.87651 9.7748C1.92293 10.1321 2.28082 9.6108 2.32277 9.90778C2.33527 9.99732 2.23888 10.2846 2.05502 10.2163Z" fill="#5D5D5D"/>
<path d="M2.76952 11.1914C2.69009 11.1409 2.59102 10.929 2.54639 10.9272C2.47231 10.9237 2.30363 11.1294 2.5928 11.1453C2.49195 11.1861 2.51069 11.3599 2.50176 11.3696C2.47231 11.3989 1.75651 11.2393 1.70029 11.1462C1.59229 10.9671 1.96983 11.1276 1.9484 10.9317C2.23044 10.9689 2.31701 10.8421 2.32326 10.5717L1.8779 10.7481L2.14565 10.4831C2.17421 10.5114 2.47231 10.6391 2.59191 10.749C2.75524 10.7606 2.96944 11.0318 3.03817 11.1923C3.11582 11.2171 3.11492 11.2473 3.03817 11.281C2.91321 11.4228 2.76863 11.4068 2.77041 11.1923L2.76952 11.1914Z" fill="#5D5D5D"/>
<path d="M3.1264 11.3688L2.41238 11.6339C2.57839 11.3626 2.7917 11.5993 2.76939 11.1915C2.85507 11.2456 2.99341 11.25 3.03715 11.2802C3.16656 11.1516 3.22636 11.2119 3.1264 11.3688Z" fill="#5D5D5D"/>
<path d="M0.984463 9.15263C0.930019 9.09411 0.865758 9.03915 0.80596 8.97532C1.17546 8.69872 1.10674 9.15351 1.34058 8.97532V9.24128C1.2299 9.28206 1.1112 9.25192 0.984463 9.15263Z" fill="#5D5D5D"/>
<path d="M3.12661 11.3689C3.09537 11.3352 3.08376 11.3121 3.03735 11.2802V11.1916C2.99987 10.9948 3.0677 10.9806 3.21586 11.1029C3.30065 11.1455 3.55412 11.0072 3.4845 11.235C3.45594 11.3263 3.14267 11.1996 3.21586 11.4575C3.18908 11.5063 3.15963 11.5054 3.12661 11.4575C3.11232 11.4389 3.14178 11.3848 3.12661 11.3689Z" fill="#5D5D5D"/>
<path d="M1.25235 9.41838C1.16667 9.32884 1.08635 9.26058 0.9846 9.15242L1.02833 9.06554C1.10866 9.19497 1.23272 9.19409 1.34161 9.24107C1.3666 9.25171 1.40498 9.23043 1.43086 9.24107C1.58973 9.31377 1.37374 9.48132 1.25235 9.41838Z" fill="#5D5D5D"/>
<path d="M1.25176 9.41852L1.43026 9.24121C1.51862 9.27667 1.57663 9.32809 1.60876 9.41852C1.57842 9.42472 1.54361 9.40965 1.51951 9.41852C1.52487 9.52047 1.49542 9.57986 1.43026 9.59582C1.37225 9.53642 1.31156 9.48057 1.25176 9.41852Z" fill="#5D5D5D"/>
<path d="M3.57239 11.812C3.55989 11.8324 3.5831 12.1719 3.39478 11.9893C3.37246 11.968 3.26358 11.64 3.12613 11.4574H3.21538L3.57239 11.812Z" fill="#5D5D5D"/>
<path d="M1.43085 9.59604C1.42281 9.50472 1.42281 9.4533 1.5201 9.41873L1.60132 9.63238L1.5201 9.68469C1.49065 9.65455 1.4603 9.62618 1.43085 9.59604Z" fill="#5D5D5D"/>
<path d="M8.48163 10.8369C8.47271 10.9185 8.44147 10.9132 8.39238 10.8369C8.2701 11.0417 8.23351 11.0621 8.12462 10.8369C7.85776 10.7616 7.94077 10.5408 8.21388 10.571C8.12195 10.454 8.29599 10.3795 8.39238 10.4823C8.55125 10.0266 8.7003 9.90874 8.83864 10.1277C8.91361 9.9371 8.95645 9.88125 9.10639 10.0391C9.24652 9.78905 9.39557 9.67115 9.55265 9.68444C9.52588 9.85909 9.68385 9.94508 9.73115 10.0391C9.85878 9.98143 9.89538 10.219 9.82041 10.305C9.79185 10.5488 9.67314 10.5231 9.47322 10.4291C9.26526 10.8493 8.91004 11.2908 8.48163 10.8369Z" fill="#5D5D5D"/>
<path d="M10.8916 10.394C10.6622 10.4968 10.548 10.2344 10.5346 10.0394C10.5319 10.0048 10.6613 9.88868 10.6238 9.86297C10.1365 10.0483 10.4516 9.855 10.4516 9.64577C10.4516 9.58372 10.1954 9.63514 10.2677 9.46492C10.3962 9.19187 10.863 9.61297 10.8032 9.06421C10.9898 8.99861 11.0201 9.21847 11.0701 9.24152C11.2932 9.52255 11.2932 9.6112 11.0701 9.50748C11.0174 9.519 10.9255 9.49063 10.8916 9.50748C10.9523 9.67858 10.9228 9.82663 10.8023 9.95074C10.9014 10.0296 10.9005 10.1821 10.8916 10.3054V10.394Z" fill="#5D5D5D"/>
<path d="M9.10649 10.039C9.01813 9.93444 8.96904 9.85465 9.10649 9.77309C8.95029 9.74117 8.8905 9.68177 8.92798 9.59578C8.98689 9.57894 9.06007 9.51333 9.10649 9.50713C9.1288 9.42823 9.15825 9.43089 9.19574 9.50713C9.26089 9.42911 9.30641 9.34578 9.28499 9.24117C9.20109 9.26599 9.17075 9.23674 9.19574 9.15252C9.30998 9.03461 9.41262 9.15074 9.46885 9.10908C9.50455 9.08248 9.60272 8.8511 9.73125 8.70925C9.7607 8.81741 9.60362 9.08691 9.6527 9.14276C9.69287 9.18886 9.86066 9.08957 9.8205 9.24028C9.49473 9.24206 9.6295 9.47433 9.55274 9.68532C9.53132 9.74295 9.28677 10.1011 9.26268 10.1135C9.17789 10.1561 9.1172 10.0364 9.10649 10.0399V10.039Z" fill="#5D5D5D"/>
<path d="M15.0863 4.0107C15.0523 3.86088 15.0523 3.71283 15.0863 3.56744C15.1005 3.49031 14.9765 3.32364 14.9961 3.30237C15.0157 3.28109 15.1389 3.32098 15.1755 3.30237C15.5263 3.22524 15.3969 3.4185 15.4959 3.55503C15.5405 3.61708 15.6155 3.64545 15.6218 3.65698C15.8404 3.58162 15.8645 3.66407 15.711 3.83428C15.9939 4.56922 15.279 4.03287 15.0863 4.01159V4.0107Z" fill="#5D5D5D"/>
<path d="M10.8022 7.55681C11.0164 7.26249 10.8959 7.23855 10.8914 7.0249C10.8396 6.96284 10.8102 6.87419 10.8022 6.75894C10.7013 6.78376 10.5897 6.77046 10.5344 6.67028C10.4353 6.67383 10.3791 6.51071 10.3559 6.40433C9.83109 6.10113 10.5906 6.09581 10.8022 6.49298C11.0592 6.63571 11.0315 6.72614 11.0699 6.75894C11.2502 6.83075 11.26 7.03022 11.0976 7.35646C11.2564 7.4655 11.1663 7.5116 10.9807 7.55681C10.9753 7.58518 10.986 7.6171 10.9807 7.64547C10.8566 7.86178 10.7531 7.79174 10.8022 7.55681Z" fill="#5D5D5D"/>
<path d="M18.9236 12.2554C18.9156 12.0985 18.796 11.9061 18.8343 11.7235C18.8593 11.7297 18.8933 11.7226 18.9236 11.7235C19.0896 11.7288 19.2226 11.7235 19.3699 11.6348C19.3547 11.8201 19.4154 11.9912 19.4591 12.1667C19.3797 12.1933 19.236 12.2137 19.1021 12.2554C19.0896 12.4965 19.0004 12.4832 18.9236 12.2554Z" fill="#5D5D5D"/>
<path d="M14.5503 6.22688C14.4691 6.37227 14.4031 6.40064 14.3718 6.22688H14.2826C14.2692 6.21004 14.1237 6.26411 14.1032 6.18433C14.2192 6.00702 14.2897 5.84922 14.5218 5.80667C14.6155 5.78982 14.7056 5.87404 14.7297 5.87227C14.728 6.3306 14.5887 6.18078 14.5512 6.22688H14.5503Z" fill="#5D5D5D"/>
<path d="M10.3554 8.00033C10.3706 7.98703 10.3537 7.87267 10.4063 7.8248C10.5331 7.70955 10.65 7.76629 10.8017 7.55707L10.9802 7.64572C10.9543 7.79466 10.9927 7.98792 10.9802 8.00033C10.9552 8.0225 10.5134 7.85583 10.3554 8.08899C10.3189 8.0615 10.3197 8.03136 10.3554 8.00033Z" fill="#5D5D5D"/>
<path d="M14.8183 3.74483C14.8736 3.74306 15.0726 3.64288 15.086 3.56753C15.2503 3.5693 15.4056 3.51079 15.3547 3.69962C15.3306 3.78827 15.2422 3.71735 15.1985 3.76168C15.1851 3.77586 15.3154 3.95317 15.086 4.01079C15.0004 4.00104 14.8388 4.12161 14.8192 4.09944V3.74483H14.8183Z" fill="#5D5D5D"/>
<path d="M10.9805 7.55697C11.026 7.30253 11.1769 6.99934 11.0698 6.75909C11.0805 6.76796 11.2599 6.627 11.3366 6.8043C11.4018 6.9559 11.2536 6.95058 11.159 6.9364L11.3366 7.02505L11.1581 7.37789C11.1876 7.42221 11.5374 7.11725 11.4259 7.51087C11.3973 7.61016 11.0867 7.53303 10.9787 7.55608L10.9805 7.55697Z" fill="#5D5D5D"/>
<path d="M9.99869 10.3939C9.97102 10.4737 9.94157 10.4737 9.90944 10.3939C9.87463 10.3088 9.84071 10.1944 9.90944 10.1279C9.99512 10.0375 10.0023 10.0047 9.99869 9.86197C10.0585 9.8336 10.104 9.71215 10.2664 9.77421C10.1165 10.0765 10.1674 10.0145 10.4449 10.1279C10.3798 10.1847 10.1941 10.3859 10.1772 10.3939C10.1504 10.4063 10.0513 10.3939 9.99869 10.3939Z" fill="#5D5D5D"/>
<path d="M9.8199 8.62066C10.0796 8.30239 10.0368 8.282 10.3554 8.00008V8.08874L10.2653 8.13306C10.6062 8.23236 10.5009 8.44956 10.1778 8.26604C10.1305 8.38395 10.2626 8.4859 10.2662 8.532C10.2447 8.73502 10.1608 8.71906 10.0877 8.532C10.01 8.54885 9.91629 8.62243 9.8199 8.62066Z" fill="#5D5D5D"/>
<path d="M10.0877 6.3157C9.93602 6.14549 9.93602 6.05684 10.0877 6.04974C10.1047 5.78644 10.2395 5.78733 10.2662 6.04974C10.3742 5.91854 10.4938 5.97262 10.4448 6.1384C10.5795 6.204 10.7241 6.2634 10.8018 6.40436V6.49301C10.6777 6.42386 10.1627 6.07989 10.2671 6.35826C10.277 6.38485 10.3475 6.38397 10.3555 6.40436C10.4064 6.48946 10.4064 6.54886 10.3555 6.58166C10.26 6.49389 10.1743 6.39106 10.0877 6.3157Z" fill="#5D5D5D"/>
<path d="M16.514 4.27659C16.456 3.83776 16.5979 3.97251 16.2463 3.92198C16.0562 3.91843 16.0597 3.78279 16.2463 3.74467C16.3784 3.7491 16.5265 3.81116 16.6925 3.74467C16.6872 3.83155 16.7032 3.92375 16.6925 4.01063C16.6845 4.07623 16.5961 4.18528 16.6033 4.27659C16.5783 4.35372 16.5479 4.35283 16.514 4.27659Z" fill="#5D5D5D"/>
<path d="M15.9785 3.7447H15.8L15.7107 3.56739C15.7072 3.53725 15.6313 3.47786 15.6402 3.43442C15.7009 3.14452 16.2373 3.46633 16.157 3.7447C16.124 3.87502 16.0561 3.86172 15.9785 3.7447Z" fill="#5D5D5D"/>
<path d="M16.2467 9.68439C16.3083 9.76861 16.4975 9.79876 16.4243 10.039C16.0825 9.85106 16.1709 10.1117 16.1137 10.1303C15.6836 10.2668 16.112 9.91312 16.0682 9.68528C16.2092 9.5718 16.228 9.82092 16.178 9.79521C16.1718 9.79166 16.178 9.69503 16.2467 9.68528V9.68439Z" fill="#5D5D5D"/>
<path d="M11.0698 9.50738C11.068 9.50295 11.1501 9.47547 11.1412 9.43557C10.968 9.44976 10.8761 9.31235 11.0698 9.24142C11.0867 9.2494 11.2179 9.2494 11.2483 9.24142C11.3625 9.34337 11.375 9.47724 11.4268 9.59604L11.3375 9.68469C11.2982 9.63859 11.1385 9.65011 11.0698 9.50738Z" fill="#5D5D5D"/>
<path d="M17.2284 9.7731C17.2829 9.83427 17.7086 10.3245 17.3632 10.2173C17.2793 10.1915 17.3864 10.102 17.1874 10.0346C16.958 9.95661 16.9464 9.96016 17.1392 9.7731C17.1526 9.78817 17.215 9.75803 17.2284 9.7731Z" fill="#5D5D5D"/>
<path d="M15.4435 8.35449C15.4435 8.27736 15.4042 8.10804 15.4881 8.08853C15.6541 8.29598 15.8425 8.60095 15.5328 8.7091C15.4426 8.54155 15.4444 8.55485 15.4435 8.35449Z" fill="#5D5D5D"/>
<path d="M15.9784 4.80871C15.7945 4.32555 15.9364 4.52946 16.0676 4.4541C15.9837 4.7369 16.2863 4.58885 16.3354 4.63141C16.5728 4.83974 16.0569 4.79541 15.9784 4.80871Z" fill="#5D5D5D"/>
<path d="M14.6398 8.00012C14.5523 7.97707 14.3149 7.84852 14.2836 7.7776C14.2462 7.55774 14.3961 7.64551 14.5505 7.73416C14.58 7.751 14.6049 7.86714 14.729 7.82281C14.6915 7.86537 14.6746 7.9487 14.6398 8.00012Z" fill="#5D5D5D"/>
<path d="M14.0152 7.11349C14.0089 7.28016 14.0794 7.30587 14.1937 7.37945C14.3151 7.27484 14.3883 7.30853 14.3722 7.46811V7.55676C14.1392 7.50179 13.6617 7.29789 14.0152 7.11349Z" fill="#5D5D5D"/>
<path d="M9.82045 10.3051C9.79278 10.2598 9.77672 10.1278 9.7312 10.0391C9.76868 9.96286 9.86954 9.97615 9.9097 9.95044C10.0498 9.95754 10.0409 10.0887 9.9097 10.1278C9.92487 10.2137 10.0141 10.2811 9.9097 10.3937C9.77047 10.5178 9.71781 10.4655 9.82045 10.3051Z" fill="#5D5D5D"/>
<path d="M16.068 9.68455C16.0457 9.6686 16.0216 9.62604 15.9788 9.5959C15.9011 9.57108 15.902 9.54094 15.9788 9.50725C16.0029 9.52498 16.159 9.46824 16.226 9.52586C16.2769 9.57019 16.234 9.66682 16.2465 9.68455C16.2412 10.0755 16.1573 9.7475 16.068 9.68455Z" fill="#5D5D5D"/>
<path d="M15.8892 8.97507C15.9356 8.98217 16.0248 8.98394 16.0677 8.97507C16.505 9.23483 16.09 9.40593 15.8892 8.97507Z" fill="#5D5D5D"/>
<path d="M13.7473 9.15268C13.7482 9.09328 13.7455 9.03477 13.7473 8.97537C13.924 8.96828 14.0222 9.06225 14.015 9.24133C13.8972 9.22449 13.8374 9.18105 13.7473 9.15268Z" fill="#5D5D5D"/>
<path d="M10.0883 8.53223C10.141 8.5207 10.2097 8.53932 10.2668 8.53223C10.2775 8.68382 10.257 8.8496 10.0892 8.88684V8.53223H10.0883Z" fill="#5D5D5D"/>
<path d="M15.6212 3.65631C15.673 3.67404 15.7141 3.59957 15.7105 3.56766C16.0907 3.565 16.0416 3.56766 15.7997 3.74496C15.7774 3.76181 15.7605 3.82475 15.7105 3.83361C15.6971 3.79904 15.6436 3.69532 15.6212 3.65631Z" fill="#5D5D5D"/>
<path d="M15.9789 9.59582C15.9619 9.5843 15.6005 9.55947 15.8013 9.33075C15.9825 9.12419 15.9646 9.49742 15.9789 9.50717V9.59582Z" fill="#5D5D5D"/>
<path d="M16.2463 3.92229C16.0705 3.89746 15.9313 4.01271 15.9786 3.74498C16.0375 3.74498 16.0982 3.74144 16.1571 3.74498C16.1865 3.74675 16.2169 3.7441 16.2463 3.74498V3.92229Z" fill="#5D5D5D"/>
<path d="M13.2119 8.35461C13.2958 8.39539 13.3547 8.44326 13.3904 8.53191C13.3672 8.52837 13.0191 8.75443 13.2119 8.35461Z" fill="#5D5D5D"/>
<path d="M9.90954 10.1276C9.89973 10.0726 9.91579 10.007 9.90954 9.95028C9.94346 9.92811 9.97113 9.87492 9.9988 9.86163L10.0872 9.90684C10.1059 10.1143 10.1211 10.1568 9.90954 10.1276Z" fill="#5D5D5D"/>
<path d="M15.5324 5.25208C15.544 5.19977 15.5155 5.10846 15.5324 5.07477C15.6476 5.08364 15.7805 5.1191 15.8002 5.25119C15.7145 5.2636 15.611 5.23612 15.5324 5.25119V5.25208Z" fill="#5D5D5D"/>
<path d="M16.514 4.36536C16.5069 4.33965 16.5176 4.30685 16.514 4.27671H16.6033L16.6925 4.36536C16.6586 4.3893 16.5747 4.59586 16.5149 4.54267C16.5042 4.48593 16.5265 4.41323 16.5149 4.36536H16.514Z" fill="#5D5D5D"/>
<path d="M3.21545 6.13831C3.20564 6.33778 3.08336 6.33334 3.03695 6.13831C3.08693 5.68706 3.07354 6.00001 3.21724 5.9087C3.62155 5.65249 3.1619 5.54433 3.13602 5.50798C3.11371 5.47607 3.25919 5.26951 3.21456 5.16312C2.96109 5.49735 2.49787 5.23405 2.31847 5.29965C2.24975 5.32447 1.87043 5.85816 1.791 5.47252C1.78564 5.44593 1.87222 5.37944 1.87668 5.33954C2.07125 4.95834 2.45503 5.08688 2.68708 4.93972C2.76206 4.89273 2.68708 4.79344 2.71654 4.74114C2.72993 4.7172 2.85488 4.72872 2.86559 4.66224C2.88344 4.55231 2.7692 4.46543 2.7692 4.45301C2.77277 4.36081 2.85845 4.28546 2.85845 4.27571L3.57157 4.36436L3.39306 4.14273C3.39128 4.09042 3.51534 4.06471 3.57246 4.00975C3.64118 3.94326 3.67778 3.92908 3.75096 3.83244C3.91697 3.61347 4.05353 3.41489 4.01961 3.12233C4.17669 3.27304 4.35698 3.12056 4.37573 3.12233C4.54084 3.0195 4.76933 2.88297 4.77825 3.15602C5.06743 3.0984 5.14151 3.23492 5.00049 3.5656C4.9755 3.67198 5.0344 3.64273 5.17899 3.47694C5.18078 3.41311 5.2013 3.38209 5.26824 3.38829C5.27449 3.40691 5.40748 3.44592 5.44675 3.47694C5.67791 3.47872 5.67791 3.53723 5.44675 3.65425C5.49673 3.90957 5.31555 3.98493 5.08974 3.92021C5.26467 4.08156 4.8916 4.38121 4.69435 4.38032L4.55423 4.54078C4.63456 4.55674 4.63099 4.58688 4.55423 4.62943L4.37573 4.80674C4.31593 4.95302 4.28647 5.13032 4.28647 5.33866C4.03478 5.46188 4.09101 5.24557 3.84022 5.25089C3.99194 5.66579 3.70009 5.85284 3.48321 6.13653C3.3297 6.2837 3.24044 6.2837 3.21545 6.13653V6.13831Z" fill="#5D5D5D"/>
<path d="M5.8931 13.3192C5.93504 13.1844 6.0832 13.0532 6.07249 12.9211L5.80295 12.875C6.01358 12.4061 5.78421 12.6871 5.57357 12.6924C5.47718 12.6951 5.68157 12.4725 5.35669 12.6091C5.26923 12.6463 5.19693 12.7048 5.08894 12.6977C5.2487 12.461 5.39061 12.2358 5.5352 11.9885C5.64765 11.7651 5.78778 11.8369 5.7137 12.0771V12.4318C5.79938 12.2997 5.94397 12.2961 6.14836 12.4202L6.24921 12.3431C6.32864 12.1764 6.29473 12.0426 6.14925 11.9406L6.24921 11.8112C6.17156 11.6782 6.30722 11.6578 6.42771 11.7225C6.61157 11.8082 6.61157 11.8082 6.42771 11.7225C6.35006 11.6977 6.35096 11.6676 6.42771 11.6339C6.47412 11.6197 6.56873 11.5745 6.60622 11.5452C6.73295 11.586 6.882 11.6162 7.05247 11.6339C7.07746 11.5585 7.10692 11.5594 7.14173 11.6339C7.3113 11.641 7.43001 11.5222 7.49873 11.2793C7.31934 11.2571 7.40948 11.0302 7.58798 11.102C7.81468 11.2766 8.00836 11.2722 8.16901 11.0887L8.302 11.102L8.4332 11.0993C8.5287 11.2518 8.69381 11.3413 8.92676 11.3679C9.02583 11.4938 8.88927 11.5576 8.74826 11.5452C8.82144 11.6011 8.85179 11.6605 8.83751 11.7225C8.78039 11.7491 8.71613 11.7819 8.659 11.8112L8.39125 12.0771C8.38143 12.0834 8.22703 11.9752 8.21542 11.9894L8.12349 12.3431C8.08333 12.3201 8.05299 12.18 7.97177 12.1658C7.68348 12.1135 7.47999 12.2731 7.67724 12.5204C7.80844 12.664 7.64778 12.6631 7.49873 12.6091C7.44161 12.6321 7.44161 12.6915 7.49873 12.7864C7.50587 12.805 7.57906 12.8059 7.58709 12.8325C7.65849 13.0718 7.46749 12.8874 7.42912 12.9025C7.38271 12.9202 7.35414 13.0364 7.32023 13.0523L7.05783 12.9858C6.98643 13.1818 6.85612 13.219 6.69547 13.0523C6.59818 13.0763 6.50893 13.0763 6.42771 13.0523C6.52143 13.1729 6.49108 13.2323 6.33846 13.2296C6.38755 13.3546 5.97074 13.4078 5.8922 13.3183L5.8931 13.3192Z" fill="#5D5D5D"/>
<path d="M2.50159 8.53209C2.42841 8.53563 2.274 8.66684 2.14548 8.61985L2.31863 8.49397C2.30524 7.9257 1.51268 8.26613 1.34311 7.95495C1.22262 7.73421 1.75545 7.80868 1.83756 7.74219C2.04105 7.57463 1.86255 7.39467 1.87772 7.38137C1.89289 7.36807 2.19546 7.4124 2.23562 7.20318C2.37128 7.25371 2.36414 7.48332 2.23562 7.55779C2.22491 7.65797 2.23741 7.72623 2.23562 7.7351L2.23562 7.9124C2.17136 7.94254 1.99286 8.05336 2.05712 8.08882C2.48642 8.04538 2.25169 8.31932 2.50338 8.44432C2.58103 8.46914 2.58013 8.49928 2.50338 8.53297L2.50159 8.53209Z" fill="#5D5D5D"/>
<path d="M2.23404 7.11355C2.2385 7.02756 2.31704 6.92827 2.31793 6.88748C2.31882 6.8467 1.7369 6.55326 2.59104 6.49209L2.41254 6.22791C2.53838 6.23855 2.68208 6.20131 2.80078 6.22613C2.86147 6.23855 2.96858 6.76071 3.0373 6.13837H3.2158C3.45946 6.25539 3.11049 6.58341 2.90074 6.65521C2.79989 6.94866 2.36434 7.51958 2.23404 7.11355Z" fill="#5D5D5D"/>
<path d="M5.71466 12.4329C5.67182 12.346 5.67182 12.2272 5.71466 12.0783C5.67182 12.0029 5.61916 11.987 5.53615 11.9896C5.57632 11.9214 5.60042 11.7689 5.64236 11.7405C5.7218 11.6873 5.83068 11.7405 5.89316 11.7237C6.127 11.659 6.14664 11.7281 5.98241 11.901C6.21536 11.8974 6.44384 12.1235 6.25017 12.3443C6.22875 12.4134 6.36887 12.5872 6.33942 12.6093C6.10647 12.6412 5.91726 12.5145 5.71466 12.4329Z" fill="#5D5D5D"/>
<path d="M2.23355 7.55682C2.24515 7.44068 2.22641 7.31923 2.23355 7.20221C2.23533 7.17295 2.23176 7.14281 2.23355 7.11356H2.58788C2.6325 7.04618 2.75567 6.52313 2.78155 6.5054C2.90561 6.42295 3.28939 6.59494 3.21442 6.13837H3.48218C3.30546 6.36798 2.85385 6.98324 2.68427 7.14458C2.59234 7.23235 2.45043 7.1827 2.42276 7.21019C2.33708 7.29618 2.55396 7.62774 2.23265 7.55593L2.23355 7.55682Z" fill="#5D5D5D"/>
<path d="M2.50173 8.53201V8.44336C2.61686 8.43449 2.74985 8.39903 2.76948 8.26694C2.65524 8.27846 2.5883 8.24921 2.50173 8.1774C2.43479 8.08343 2.47763 8.04353 2.59098 8.08875C2.60704 8.10204 2.75609 8.06836 2.84981 8.14194C3.0417 8.29442 3.27108 8.53644 3.12649 8.79797C2.78019 8.7696 2.70254 8.52137 2.50173 8.53201Z" fill="#5D5D5D"/>
<path d="M2.59081 10.7481C2.63455 10.6728 2.70506 10.6808 2.76932 10.6595C2.8791 10.6923 2.96835 10.7809 3.03707 10.9254C3.11115 10.9804 3.20397 11.0974 3.21558 11.1028C3.1647 11.1187 3.07367 11.195 3.03707 11.1914C2.73005 11.1639 2.69167 10.8403 2.59081 10.7481Z" fill="#5D5D5D"/>
<path d="M5.26823 10.6595L4.82287 10.7482C4.78806 10.4937 4.76039 10.3412 4.46497 10.3927C4.54887 10.07 4.96656 10.601 5.08884 10.3927C5.11383 10.4077 5.22718 10.3634 5.25931 10.3989C5.30126 10.445 5.2486 10.5921 5.26734 10.6586L5.26823 10.6595Z" fill="#5D5D5D"/>
<path d="M5.89332 11.7234C5.87994 11.7021 5.92992 11.601 5.87726 11.5603C5.74249 11.4548 5.48277 11.7438 5.71482 11.1028C5.89065 11.2748 5.95045 11.5009 6.16108 11.6347C6.19232 11.797 6.01292 11.8395 5.89332 11.7234Z" fill="#5D5D5D"/>
<path d="M4.46542 9.77307C4.31815 9.68619 4.05218 9.61438 3.90402 9.50622C3.81477 9.44151 3.84779 9.33512 3.83976 9.33069C3.78621 9.30055 3.71124 9.46012 3.61931 9.47608C3.40511 9.51331 3.26498 9.15338 3.30604 8.97519C3.49971 9.01243 3.84958 9.09576 3.9308 9.3298C4.12626 9.45037 4.35028 9.55941 4.46631 9.77307H4.46542Z" fill="#5D5D5D"/>
<path d="M3.30517 8.9751C3.33016 8.86517 3.3971 8.88112 3.48367 8.88644C3.54258 8.94052 3.57114 9.05222 3.58007 9.05577C3.68717 9.093 3.86121 8.75524 3.92993 9.32971C3.73358 9.20825 3.48903 9.13467 3.30517 8.9751Z" fill="#5D5D5D"/>
<path d="M3.48317 9.86176C3.53672 10.024 3.50012 10.2713 3.30556 10.3937L3.39391 9.86176C3.41891 9.78463 3.44925 9.78551 3.48317 9.86176Z" fill="#5D5D5D"/>
<path d="M4.37593 9.86258C4.38843 9.87499 4.37147 9.9202 4.37593 9.94946C3.64496 9.99379 4.01 9.4929 4.37593 9.86258Z" fill="#5D5D5D"/>
<path d="M1.25274 5.95999C1.10101 5.82878 1.53567 5.63729 1.60886 5.69581C1.64277 5.7224 1.4366 6.11957 1.25274 5.95999Z" fill="#5D5D5D"/>
<path d="M3.39451 9.86193C3.22136 9.81052 3.19637 9.6731 3.2169 9.50732C3.39541 9.55254 3.43557 9.71566 3.48376 9.86193H3.39451Z" fill="#5D5D5D"/>
<path d="M3.84068 11.8123C3.79516 11.3735 4.28962 11.8372 3.97456 11.8983C3.94868 11.9037 3.87638 11.8115 3.84068 11.8123Z" fill="#5D5D5D"/>
<path d="M4.73267 12.4327L4.91028 12.2554V12.61C4.82995 12.563 4.7648 12.5284 4.73267 12.4327Z" fill="#5D5D5D"/>
<path d="M2.76968 10.6599C2.77949 10.6564 2.78574 10.5846 2.81252 10.5881C2.91873 10.6014 3.04011 10.808 3.03743 10.9259C2.93212 10.847 2.81966 10.8027 2.76968 10.6599Z" fill="#5D5D5D"/>
<path d="M2.32373 10.3927L2.36746 10.1276C2.46207 10.2083 2.5299 10.2624 2.50134 10.3927H2.32373Z" fill="#5D5D5D"/>
<path d="M0.984189 6.22684L1.07166 6.27027L0.894937 6.49279C0.87798 6.34918 0.753027 6.3545 0.984189 6.22684Z" fill="#5D5D5D"/>
<path d="M5.09106 11.8122H5.26868C5.29724 11.9425 5.2294 11.9966 5.1348 12.0773L5.09106 11.8122Z" fill="#5D5D5D"/>
<path d="M8.48124 4.09937C8.38485 4.42916 8.04212 4.06745 8.30274 3.92206C8.20367 3.75717 8.08496 3.60912 7.94573 3.4788C7.83684 3.71639 7.74759 3.71639 7.67798 3.4788C7.54142 3.50096 7.42272 3.44156 7.32097 3.30149C7.12462 3.38571 7.13711 3.33961 7.19245 3.16319L7.05322 3.03553C6.81224 2.97436 6.84347 2.85734 7.05322 2.76957C7.10855 2.76337 7.17549 2.76691 7.23172 2.76957C7.25403 2.69067 7.28348 2.69244 7.32097 2.76957C7.4013 2.62507 7.49055 2.53641 7.58873 2.50361C7.61193 2.50095 7.6994 2.40432 7.76723 2.41496C7.95555 2.2678 8.1519 2.34758 8.35629 2.6561L8.57049 2.68092C8.6526 2.7022 8.7124 2.76071 8.749 2.85823C8.74721 2.94422 8.76149 3.04528 8.749 3.12418C8.86324 3.25982 8.80969 3.30947 8.65975 3.21284C8.6169 3.24741 8.558 3.27667 8.48124 3.30149C8.59459 3.44777 8.80344 3.5506 9.10779 3.60912L9.106 3.83341C9.10243 3.93713 9.01407 3.98234 8.9275 3.92206C8.96052 4.19688 8.6767 4.19245 8.48124 4.09937Z" fill="#5D5D5D"/>
<path d="M8.57116 2.68104C8.49172 2.81934 8.44799 2.89824 8.26592 2.86189C8.1963 2.55515 7.85536 2.50019 7.76789 2.41508C7.70006 2.34859 7.58314 1.98955 7.67864 1.88317C7.70631 1.81756 7.73576 1.81845 7.76789 1.88317C7.92765 1.94966 8.0767 2.03831 8.21415 2.14912C8.22308 2.16685 8.31768 2.17749 8.34357 2.23423C8.40604 2.37076 8.14364 2.50108 8.57116 2.59239C8.64881 2.62164 8.64881 2.65179 8.57116 2.68104Z" fill="#5D5D5D"/>
<path d="M5.44725 3.65589C5.45706 3.60092 5.43207 3.52202 5.44725 3.47858C5.54007 3.20819 5.58826 3.23035 5.35799 2.94755C5.39637 2.91741 5.7864 3.03443 5.8935 3.03532C6.24516 3.10181 5.92296 3.13638 5.92474 3.11954C5.94527 2.96794 6.34958 3.20021 6.25051 3.38993C6.13627 3.48656 5.83103 3.64791 5.715 3.74454C5.61058 3.77202 5.52132 3.74277 5.44725 3.65589Z" fill="#5D5D5D"/>
<path d="M4.37604 3.12424C4.51795 3.0081 4.64112 2.75278 4.8223 2.76962C4.83033 2.90792 4.78481 3.00367 4.73304 3.12335C5.49436 2.92477 5.15431 3.04445 5.26855 3.3902C5.24803 3.42388 5.1918 3.45137 5.1793 3.47885C5.15342 3.45225 5.09451 3.48239 5.0008 3.5675C5.02668 3.23949 4.67503 3.1597 4.37604 3.12424Z" fill="#5D5D5D"/>
<path d="M7.32105 3.30162C7.59684 3.55694 7.13987 3.57555 6.92924 3.40977C6.9221 3.40357 7.08097 3.41686 6.8748 3.47892C6.74449 3.40179 6.73646 3.20676 6.60704 3.12431C6.72307 3.03211 6.58919 2.82555 7.0533 2.7697C7.0649 2.85303 7.03634 2.96119 7.0533 3.03566C7.03664 3.20114 7.03664 3.20114 7.0533 3.03566C7.29249 2.98601 7.1961 3.158 7.32105 3.30162Z" fill="#5D5D5D"/>
<path d="M7.23176 2.76936L6.69625 2.41563C6.99792 2.48744 7.33529 1.77822 7.14161 2.41386C7.27995 2.35269 7.44685 2.49808 7.49951 2.5034C7.47988 2.63549 7.42008 2.72414 7.32101 2.76936C7.29334 2.76404 7.26032 2.77113 7.23176 2.76936Z" fill="#5D5D5D"/>
<path d="M6.25047 3.39025C6.05858 3.29008 6.11302 3.03919 5.89436 3.21295V3.03564C6.10142 3.03742 6.03716 2.79539 6.33972 3.21295C6.32633 3.22359 6.31652 3.3344 6.25047 3.39025Z" fill="#5D5D5D"/>
<path d="M7.32123 2.76947C7.31766 2.55936 7.26144 2.46185 7.49974 2.50351C7.52741 2.50617 7.56132 2.50706 7.58899 2.50351L7.49884 2.85812C7.38996 2.89625 7.33105 2.77124 7.32123 2.76947Z" fill="#5D5D5D"/>
<path d="M4.82186 2.68106C4.76117 2.61635 4.76385 2.80784 4.64336 2.50376C4.63443 2.48071 4.64961 2.44525 4.64336 2.4151L5.00037 2.50376C4.97181 2.56227 4.86827 2.62344 4.82186 2.68106Z" fill="#5D5D5D"/>
<path d="M5.62519 1.70584V1.61718C5.90633 1.60034 5.99201 1.97889 5.75906 1.88226C5.69212 1.85477 5.6475 1.7147 5.62519 1.70584Z" fill="#5D5D5D"/>
<path d="M7.3219 2.14807H7.49951V1.88299H7.3219V2.14807Z" fill="#5D5D5D"/>
<path d="M5.35791 1.9718C5.10711 1.90531 4.9893 1.7546 5.26866 1.61719C5.26687 1.64556 5.26598 1.67836 5.26866 1.70584C5.27937 1.8007 5.30971 1.88935 5.35791 1.9718Z" fill="#5D5D5D"/>
<path d="M7.58924 1.79464C7.47589 1.72106 7.31523 1.6457 7.32059 1.48524L7.36521 1.44092L7.58834 1.61822C7.66688 1.63684 7.66778 1.75829 7.58834 1.79553L7.58924 1.79464Z" fill="#5D5D5D"/>
<path d="M7.5892 1.79457C7.59901 1.7396 7.57492 1.66336 7.5892 1.61726C7.60169 1.57826 7.65524 1.55698 7.67845 1.52861C7.67309 1.65893 7.70433 1.76975 7.7677 1.88322C7.73646 1.88056 7.70165 1.89031 7.67845 1.88322C7.64364 1.87258 7.61865 1.81319 7.5892 1.79457Z" fill="#5D5D5D"/>
<path d="M18.7451 1.88293C18.7282 1.84038 18.7666 1.73399 18.7434 1.70562C18.7219 1.67903 18.2275 1.96892 18.298 1.44055C18.1445 1.39977 18.2436 1.56999 18.2025 1.60811C18.1891 1.62052 17.9196 1.54516 17.8526 1.52832C17.8143 1.46449 17.7545 1.40509 17.6741 1.35101C17.6429 1.35545 17.6081 1.34303 17.5849 1.35101C17.5072 1.32619 17.5081 1.29605 17.5849 1.26236C17.8 1.19942 17.8232 1.08594 17.9419 0.996401C17.8812 0.858103 17.9704 0.798705 18.2096 0.819095C18.2712 0.763244 18.2784 0.662179 18.2989 0.641789C18.3105 0.630264 18.4176 0.596576 18.4774 0.553136C18.373 0.44232 18.423 0.409519 18.5666 0.464483H18.6559C18.6746 0.550477 18.8005 0.670158 18.746 0.819981C18.9567 0.698527 19.079 0.786293 18.9228 0.554022L19.1905 0.55225C19.1343 0.834167 19.2824 1.01679 19.369 1.26236C19.0218 1.29782 19.1147 1.46715 19.012 1.61697C18.9433 1.71804 18.8505 1.81821 18.7443 1.88293H18.7451Z" fill="#5D5D5D"/>
<path d="M16.2463 2.76965C16.2508 2.3388 16.0874 2.95937 15.8 2.59234C16.0714 2.53117 16.5908 2.39642 16.2463 2.76965Z" fill="#5D5D5D"/>
<path d="M17.1386 3.74377L17.4055 3.4787L17.4956 3.74377H17.1386Z" fill="#5D5D5D"/>
<path d="M17.8528 1.52844C17.7153 1.49475 17.6395 1.6162 17.6743 1.35113C17.7841 1.33429 17.9162 1.36177 18.0304 1.35202V1.4389L17.8528 1.52844Z" fill="#5D5D5D"/>
<path d="M17.3172 1.43957C17.3395 1.38017 17.3922 1.319 17.4065 1.26227C17.4627 1.2534 17.5377 1.27556 17.585 1.26227V1.35092C17.4297 1.405 17.6528 1.42095 17.3172 1.43957Z" fill="#5D5D5D"/>
<path d="M9.46294 5.78366C9.42456 5.75441 9.28355 5.6693 9.19519 5.60636C9.05328 5.51593 9.02025 5.46097 9.19519 5.42905C8.98902 5.14714 9.37101 5.11611 9.55219 5.42905C9.59414 5.41309 9.67625 5.43969 9.7307 5.42905C9.73962 5.48402 9.72624 5.54873 9.7307 5.60636C9.91277 5.62586 9.90474 5.7154 9.7307 5.78366C9.68161 5.85547 9.59236 5.85547 9.46294 5.78366Z" fill="#5D5D5D"/>
<path d="M10.0877 6.04991C9.95829 6.1563 9.90474 6.1031 9.99845 5.96126C9.81906 5.80878 9.83423 5.62261 10.0877 5.60665C10.1172 5.60665 10.1475 5.60576 10.177 5.60665C10.3278 5.62615 10.4474 5.72633 10.3555 5.87261C10.5429 5.95062 10.4456 6.09247 10.2662 6.04991C10.1189 5.98342 10.0957 6.05346 10.0877 6.04991Z" fill="#5D5D5D"/>
<path d="M9.73113 6.04992C9.64277 5.97634 9.57048 5.8673 9.46337 5.78396C9.5678 5.71747 9.6267 5.73077 9.73113 5.78396C9.73113 5.72545 9.73559 5.66428 9.73113 5.60666C9.84983 5.60666 9.96943 5.60666 10.0881 5.60666L9.99888 5.96127C9.84269 6.11375 9.77486 5.94354 9.73113 5.78396C9.89 5.9524 9.89 6.04106 9.73113 6.04992Z" fill="#5D5D5D"/>
<path d="M10.1773 5.60649C10.2942 5.61003 10.4718 5.56127 10.5343 5.69514C10.5075 5.75454 10.4495 5.80152 10.4451 5.87245C10.4201 5.95046 10.3906 5.94869 10.3558 5.87245C10.263 5.83698 10.2148 5.69425 10.1773 5.60649Z" fill="#5D5D5D"/>
<path d="M6.16114 13.4081C6.20219 13.3522 6.26199 13.2937 6.33964 13.2308C6.32179 13.1005 6.35124 13.112 6.42889 13.0535H6.69665C6.85462 12.9852 7.20449 12.7822 7.32141 13.0535C7.3223 13.1173 7.31873 13.1687 7.29731 13.1776C7.27678 13.1864 7.16879 13.1528 7.12149 13.1377C7.11435 13.1359 7.23662 13.1208 7.1438 13.2299C7.1438 13.4843 6.54492 13.2973 6.51904 13.3194L6.60829 13.5836L6.16203 13.4072L6.16114 13.4081Z" fill="#5D5D5D"/>
<path d="M5.89305 13.3193L6.33931 13.2307C6.34199 13.251 6.46159 13.3184 6.42856 13.4071C6.34467 13.4204 6.23578 13.3902 6.16081 13.4071C6.05728 13.4319 5.97695 13.4727 5.89305 13.4957C5.90287 13.4399 5.87877 13.3645 5.89305 13.3184V13.3193Z" fill="#5D5D5D"/>
<path d="M7.1424 13.2309C7.1424 13.2194 7.00495 13.238 7.05315 13.0545C7.12991 13.0376 7.27092 13.0775 7.3209 13.0545C7.33608 13.0908 7.31198 13.1759 7.3209 13.2318C7.32537 13.261 7.31644 13.2921 7.3209 13.3204L7.1424 13.2318V13.2309Z" fill="#5D5D5D"/>
<path d="M10.2669 6.04965L10.3561 5.87234C10.3811 5.88209 10.4177 5.86525 10.4454 5.87234C10.6917 6.01507 10.6623 6.00887 10.4454 6.1383C10.3865 6.10993 10.3249 6.07624 10.2669 6.04965Z" fill="#5D5D5D"/>
<path d="M15.8896 11.0143C15.7459 10.8201 15.7424 10.5834 15.4434 10.6597C15.4559 10.6464 15.405 10.5098 15.5014 10.4806C15.8156 10.3857 15.9021 10.6739 15.9789 10.9256C15.9726 10.9265 15.9584 10.9939 15.8896 11.0143Z" fill="#5D5D5D"/>
<path d="M14.4621 9.86096V9.68454C14.5933 9.65617 14.6478 9.72355 14.729 9.81752L14.4621 9.86096Z" fill="#5D5D5D"/>
<path d="M14.3724 6.22684H14.5509C14.5116 6.27559 14.5295 6.48925 14.3733 6.49279V6.22684H14.3724Z" fill="#5D5D5D"/>
<path d="M14.1938 7.37973C14.2572 7.21306 14.325 7.17228 14.4615 7.29107L14.3723 7.46838C14.3152 7.43558 14.2491 7.41519 14.1938 7.37973Z" fill="#5D5D5D"/>
<path d="M5.44713 12.8762C5.52388 12.8602 5.6292 12.8859 5.71399 12.8762V13.2299C5.49354 13.2964 5.48818 13.0721 5.44713 12.8762Z" fill="#5D5D5D"/>
<path d="M3.75083 3.38995V3.12399L3.92844 3.03534C3.91862 3.24811 4.02394 3.44403 3.75083 3.38995Z" fill="#5D5D5D"/>
<path d="M18.8348 12.8758C18.9419 12.7818 18.8303 12.6471 18.8348 12.6098C18.6938 12.4964 18.758 12.3572 18.924 12.3439C18.924 12.3146 18.9258 12.2845 18.924 12.2552C18.9794 12.2455 19.057 12.2694 19.1025 12.2552C19.2569 12.2871 19.4256 12.413 19.4604 12.5673C19.4765 12.64 19.2926 12.5974 19.281 12.6098C19.024 12.5779 19.0731 12.9299 18.8348 12.8758Z" fill="#5D5D5D"/>
<path d="M8.83827 11.7234C8.74188 11.7322 8.72581 11.6117 8.74902 11.5461C9.03462 11.3892 9.24258 11.359 9.37378 11.4574V11.5461C9.08014 11.5505 9.07746 11.7012 9.01677 11.7234C8.97036 11.7402 8.87754 11.7056 8.83827 11.7234Z" fill="#5D5D5D"/>
<path d="M8.3923 12.0782C8.41015 12.0675 8.36999 11.9612 8.66005 11.8122C8.69575 12.0383 8.47352 11.9213 8.48155 12.1668C8.48244 12.1961 8.47709 12.2271 8.48155 12.2555H8.3923C8.38337 12.2298 8.26645 12.2067 8.3923 12.0782Z" fill="#5D5D5D"/>
<path d="M8.03516 13.0533C7.7201 13.1162 7.96465 12.6091 7.49965 12.6987C7.422 12.6738 7.42289 12.6437 7.49965 12.61C7.59604 12.5781 7.66833 12.524 7.67815 12.5214C8.03159 12.4221 7.81203 12.5657 7.9459 12.61L8.03516 13.0533Z" fill="#5D5D5D"/>
<path d="M7.50002 12.6101V12.6988C7.50716 12.7263 7.4902 12.7617 7.50002 12.7874C7.36704 12.6686 7.28939 12.7591 7.18764 12.8761L7.14301 12.8309C7.20103 12.4337 7.47681 12.6181 7.50091 12.6101H7.50002Z" fill="#5D5D5D"/>
<path d="M8.92745 11.3688C8.47227 11.2952 8.32322 11.1179 8.48119 10.8369C8.57937 10.8307 9.08543 10.8209 9.10863 10.7996C9.18807 10.7278 9.24162 10.3129 9.50848 10.1277C9.52365 10.117 9.59059 10.422 9.82086 10.305C9.84942 10.3511 9.85121 10.3688 9.91011 10.3936C9.92796 10.4007 9.96902 10.3936 9.99936 10.3936C9.99758 10.453 10.002 10.5124 9.99936 10.5709C9.89048 10.6028 9.73875 10.7376 9.64236 10.7482C9.61291 10.8271 9.58256 10.8271 9.55311 10.7482C9.36746 10.8014 9.40495 11.0301 9.46386 11.1915C9.43619 11.2154 9.42012 11.2606 9.3746 11.2801C9.35229 11.3927 8.97743 11.4894 8.92835 11.3688H8.92745Z" fill="#5D5D5D"/>
<path d="M9.46324 11.1917C9.11694 11.2555 9.38023 10.9071 9.37488 10.6597C9.47306 10.6234 9.54267 10.7475 9.55249 10.7484V11.0144C9.52393 11.0764 9.53553 11.1278 9.46324 11.1917Z" fill="#5D5D5D"/>
<path d="M8.74902 11.5464C8.77044 11.4853 8.91235 11.4152 8.92752 11.3691C8.98375 11.3665 9.33629 11.2964 9.37378 11.2805V11.4578C8.97661 11.3488 9.08282 11.7415 8.74902 11.5464Z" fill="#5D5D5D"/>
<path d="M9.55287 10.7483C9.58143 10.7501 9.61445 10.7519 9.64212 10.7483C9.6796 10.8769 9.58857 10.9363 9.55287 11.0143L9.47165 10.8006L9.55287 10.7483Z" fill="#5D5D5D"/>
<path d="M10.8915 9.50715V9.62861C11.1968 9.74031 11.0191 9.72081 10.8915 9.95042C10.8665 10.0275 10.8362 10.0267 10.8023 9.95042C10.7978 9.79882 10.7451 9.58162 10.8915 9.50715Z" fill="#5D5D5D"/>
<path d="M10.8021 9.95068H10.8913C10.9253 9.99855 10.9449 10.0952 10.9806 10.128L10.8913 10.3053C10.7753 10.2051 10.8057 10.081 10.8021 9.95068Z" fill="#5D5D5D"/>
<path d="M7.76773 1.88296C7.85609 1.89006 7.94713 1.87764 8.03549 1.88296C8.08636 1.9663 8.13456 1.99023 8.21399 2.14892C7.97658 2.17286 7.87483 2.07445 7.76773 1.88296Z" fill="#5D5D5D"/>
<path d="M8.74933 2.85837C8.53691 2.88231 8.60385 2.86015 8.57083 2.68107C8.56547 2.6527 8.57618 2.62078 8.57083 2.59241C8.56101 2.53745 8.57975 2.47096 8.57083 2.41511H8.66008C8.75023 2.55252 8.7529 2.70057 8.74933 2.85837Z" fill="#5D5D5D"/>
<path d="M9.90931 3.92216C9.85844 3.93723 9.74777 3.90531 9.73081 3.92304C9.71028 3.94521 9.98964 4.18546 9.90931 4.48422C9.88789 4.56489 9.64781 4.50195 9.82006 4.71915C9.47109 4.77323 9.54695 4.67216 9.55052 4.36542C9.41397 4.33439 9.50143 4.48067 9.39522 4.53741C9.34167 4.56578 8.91237 4.72447 8.8856 4.72447C8.82134 4.72447 8.90166 4.54096 8.6589 4.54184C8.59553 4.43368 8.53573 4.31578 8.48039 4.18723C8.40364 4.15797 8.40364 4.12783 8.48039 4.09858C8.67496 4.00106 8.70442 3.97446 8.92665 3.92127C9.01412 3.91418 9.10337 3.91418 9.19441 3.92127C9.12479 3.59857 9.36309 3.54006 9.90842 3.74396C9.92181 3.79006 9.96733 3.83616 9.995 3.87783C9.98696 3.9328 9.94055 3.91241 9.90842 3.92127L9.90931 3.92216Z" fill="#5D5D5D"/>
<path d="M9.19543 3.92226C9.07762 3.98254 9.03567 3.95151 9.10618 3.8336C8.92857 3.62616 8.4832 3.67935 8.39217 3.56498C8.38146 3.55169 8.48053 3.37615 8.48142 3.30169C8.60369 3.29725 8.66349 3.26711 8.65992 3.21303C8.67242 3.18289 8.7456 3.15009 8.74917 3.12438H8.92768C9.1874 3.15186 9.45605 3.33892 9.55244 3.56764C9.78628 3.65098 9.7122 3.61197 9.90945 3.56764C9.91837 3.6235 9.89606 3.69796 9.90945 3.74495C9.7604 3.89123 9.57386 3.72722 9.43195 3.74229C9.41588 3.74406 9.34627 3.85045 9.19543 3.92226Z" fill="#5D5D5D"/>
<path d="M17.853 0.642088C17.9922 0.80255 17.9993 0.791025 18.21 0.819394C18.1046 0.914253 18.0225 0.93553 17.9422 0.9967L17.853 0.642088Z" fill="#5D5D5D"/>
<path d="M10.6238 4.27649C10.4881 4.2295 10.2418 4.23836 10.2668 4.10007C10.3971 4.06815 10.6238 4.12312 10.6238 4.27649Z" fill="#5D5D5D"/>
<path d="M8.92792 3.12426C8.66374 2.8255 8.88955 2.91503 9.01718 2.8583L9.19568 3.12426C9.1689 3.18986 9.07965 3.18986 8.92792 3.12426Z" fill="#5D5D5D"/>
<path d="M9.55249 3.5675C9.22494 3.45048 9.33918 3.40704 9.16068 3.24303C9.1098 3.19604 8.9902 3.19427 8.92773 3.12424C9.00806 3.12424 9.13211 3.10828 9.19548 3.12424C9.28652 3.14729 9.40701 3.31839 9.55249 3.30154V3.5675Z" fill="#5D5D5D"/>
<path d="M18.4775 0.5533C18.1223 0.594081 18.2901 0.196915 18.5668 0.464647C18.5391 0.495676 18.5114 0.528477 18.4775 0.5533Z" fill="#5D5D5D"/>
<path d="M18.835 12.61C18.5396 12.4531 18.5851 12.2899 18.9243 12.344C18.9269 12.4407 18.8439 12.5417 18.835 12.61Z" fill="#5D5D5D"/>
<path d="M4.733 4.89718C4.65892 4.8298 4.60001 4.7119 4.5545 4.54257C4.55271 4.51065 4.38849 4.33335 4.46614 4.18796C4.47328 4.17377 4.62947 4.26154 4.7803 4.20037C4.96773 4.12413 4.99094 3.99203 5.09001 3.92289C5.35865 3.76065 5.55233 3.82625 5.35776 4.10019C5.32563 4.12324 5.30153 4.16845 5.26851 4.18884C5.01325 4.38299 4.9838 4.4415 5.17926 4.36615C5.11321 4.55498 4.91507 4.76597 4.733 4.89807V4.89718Z" fill="#5D5D5D"/>
<path d="M7.67784 4.18789C7.65821 4.05402 7.80726 3.812 7.58859 3.56732C7.47256 3.4432 7.52344 3.39267 7.67784 3.47866C7.75638 3.46182 7.88401 3.50083 7.9456 3.47866C8.11696 3.58948 8.40524 3.812 8.1241 3.92193C8.36151 4.19143 8.35437 4.55934 7.9456 4.36519C7.85813 4.36963 7.76888 4.31112 7.67784 4.18789Z" fill="#5D5D5D"/>
<path d="M7.67807 10.9256C7.55758 10.9806 7.52723 10.8494 7.58882 10.7483C7.53616 10.2909 7.76107 10.6109 7.94582 10.3937C8.05828 10.2926 8.11719 10.2926 8.12433 10.3937C8.35549 10.3352 8.3787 10.4132 8.21358 10.571C8.15557 10.6268 8.13861 10.7563 8.12433 10.837C8.10201 10.915 8.07256 10.9132 8.03508 10.837C7.99491 10.993 7.9726 11.0657 7.85657 10.9256C7.82533 11.0444 7.73162 11.0205 7.67807 10.9256Z" fill="#5D5D5D"/>
<path d="M8.39242 10.4824C8.32727 10.4407 8.29782 10.3813 8.30317 10.3051C8.34423 10.1685 8.34423 10.0497 8.30317 9.95045C8.37546 9.88928 8.58074 9.73679 8.66018 9.68449C8.77442 9.70665 8.83333 9.76605 8.83868 9.8618C9.1341 9.85736 9.08769 10.0072 8.83868 10.1278C8.77263 10.1517 8.58074 10.2067 8.57093 10.2173C8.41384 10.3973 8.93239 10.4035 8.74854 10.5701C8.71105 10.6038 8.48257 10.4762 8.39242 10.4815V10.4824Z" fill="#5D5D5D"/>
<path d="M6.9639 11.6349C6.84698 11.7546 6.65331 11.5064 6.69615 11.369C6.89786 11.2138 7.12099 11.0791 7.32091 10.9257C7.47085 10.931 7.42623 11.0144 7.32091 11.103C7.49495 11.0764 7.44497 11.1997 7.32091 11.2803C7.22005 11.4293 7.10135 11.5481 6.9639 11.6349Z" fill="#5D5D5D"/>
<path d="M9.55252 5.42921C9.53199 5.43719 9.49808 5.53028 9.42757 5.52584C9.3642 5.52141 9.38294 5.33879 9.31868 5.33524C9.26245 5.33258 9.2089 5.43099 9.19551 5.42921C9.10805 5.53382 8.96792 5.45492 8.92776 5.34056C8.93311 5.30067 8.98934 5.20669 9.01701 5.16325C8.93936 5.02939 9.06253 4.94339 9.19551 4.98595C9.29458 5.07726 9.57751 5.07105 9.55252 5.42921Z" fill="#5D5D5D"/>
<path d="M7.67797 4.1883C7.86093 4.1555 7.88414 4.31684 7.94572 4.3656C8.13494 4.33635 8.2947 4.29734 8.4259 4.24769L8.48123 4.3656C8.67045 4.27961 8.71418 4.38954 8.57049 4.54291C8.63385 4.78227 8.50622 4.8789 8.30273 4.72021C8.03944 4.76543 7.71278 4.42057 7.67797 4.1883Z" fill="#5D5D5D"/>
<path d="M6.87508 3.47885C6.82599 3.09143 7.07143 3.48062 7.18835 3.47619C7.24547 3.47353 7.28564 3.32636 7.32134 3.30154C7.61855 3.08966 7.52929 3.22707 7.67834 3.47885C7.65246 3.48416 7.61319 3.56573 7.58909 3.5675C7.41148 3.58168 7.01878 3.56395 6.87508 3.47885Z" fill="#5D5D5D"/>
<path d="M5.35772 4.09924C5.28899 3.98842 5.23812 3.8909 5.08996 3.92193C5.19438 3.84924 5.34433 3.70651 5.44697 3.65597C5.60762 3.57707 5.6094 3.523 5.71472 3.74463C5.5737 3.86165 5.60316 3.92548 5.35772 4.09924Z" fill="#5D5D5D"/>
<path d="M8.57061 5.07483C8.46707 5.05089 8.40728 4.99238 8.3921 4.89752C8.37336 4.88245 8.36979 4.75124 8.30285 4.72021C8.35015 4.71223 8.49296 4.56418 8.57061 4.54291C8.59827 4.46312 8.62773 4.46312 8.65986 4.54291C8.63933 4.63865 8.83122 4.84433 8.92761 4.89752C8.76607 4.95514 8.68931 5.02341 8.57061 5.07483Z" fill="#5D5D5D"/>
<path d="M8.1247 10.3938C8.06758 10.4018 8.00421 10.3885 7.94619 10.3938C7.981 10.353 8.25768 9.98864 8.3032 9.95052C8.77623 9.89201 8.54597 10.1526 8.3032 10.3051C8.36835 10.4487 8.22555 10.5144 8.1247 10.3938Z" fill="#5D5D5D"/>
<path d="M4.28629 5.34045C4.12653 5.15694 4.06048 5.04169 4.22828 4.83513C4.26041 4.79612 4.36394 4.82006 4.37554 4.80853C4.49335 4.82094 4.49157 5.03814 4.46479 5.16314C4.40678 5.25534 4.39161 5.28903 4.28629 5.34045Z" fill="#5D5D5D"/>
<path d="M6.60709 11.5464C6.62047 11.5357 6.6294 11.4205 6.69634 11.3691C6.79273 11.409 6.89983 11.6093 6.96409 11.635C6.98998 11.5623 7.02032 11.5632 7.05334 11.635L6.91947 11.901L6.60709 11.5464Z" fill="#5D5D5D"/>
<path d="M9.73113 6.04959V5.78363C9.82216 5.82973 9.81413 5.8776 9.99888 5.96094C10.0248 5.97246 10.0515 6.03275 10.0881 6.04959V6.31555C9.97836 6.2198 9.84269 6.14267 9.73113 6.04959Z" fill="#5D5D5D"/>
<path d="M8.83835 9.86185C8.80265 9.83437 8.59738 9.92834 8.65985 9.68454C8.84192 9.56486 8.90886 9.60121 8.92761 9.59589L9.19179 9.69518C9.19715 9.74571 9.10522 9.76699 9.10611 9.7732C9.18197 9.94607 8.92404 10.0232 8.83835 9.86185Z" fill="#5D5D5D"/>
<path d="M4.55463 4.63135C4.55374 4.60209 4.55642 4.57195 4.55463 4.54269H4.82239L4.73314 4.89731C4.69922 4.92124 4.58855 4.90528 4.55463 4.98596C4.38862 4.94961 4.40112 4.68808 4.55463 4.63135Z" fill="#5D5D5D"/>
<path d="M5.98209 11.901C5.94639 11.8469 5.92854 11.7786 5.89283 11.7236C5.98923 11.6979 6.07848 11.6563 6.16059 11.635C6.23556 11.6155 6.35784 11.6554 6.42834 11.635V11.7236C6.3507 11.7228 6.30428 11.7839 6.24984 11.8123C6.23824 12.0641 6.17308 12.0384 5.98209 11.901Z" fill="#5D5D5D"/>
<path d="M9.01715 5.1632C8.76814 5.02313 8.80205 5.02491 9.01715 4.89725C9.06356 4.88838 9.15727 4.78466 9.18673 4.81657C9.21975 4.85115 9.17959 4.97171 9.19565 4.9859C9.18227 5.08076 9.04036 5.12686 9.01715 5.1632Z" fill="#5D5D5D"/>
<path d="M4.37562 4.80859C4.39615 4.78909 4.32654 4.56568 4.55413 4.63129C4.5577 4.72703 4.42471 4.86976 4.55413 4.9859C4.52111 5.04264 4.49968 5.10735 4.46488 5.1632L4.37562 4.80859Z" fill="#5D5D5D"/>
<path d="M10.6234 6.84771C10.536 6.71474 10.6761 6.72005 10.8019 6.75906C11.1223 6.94523 10.8903 6.96828 10.8912 7.02502C10.7725 7.00197 10.7091 6.91686 10.6234 6.84771Z" fill="#5D5D5D"/>
<path d="M8.39219 4.89725C8.42432 4.92295 8.63228 4.84139 8.5707 5.07455C8.49037 5.10913 8.38327 5.10913 8.30383 5.1632V4.94246L8.39219 4.89725Z" fill="#5D5D5D"/>
<path d="M9.19553 9.15278C9.22855 9.17849 9.25265 9.21661 9.28478 9.24144C9.41241 9.39215 9.38563 9.4542 9.19553 9.5074C9.16607 9.51094 9.13573 9.50385 9.10627 9.5074C9.09199 9.35403 9.07771 9.27512 9.19553 9.15278Z" fill="#5D5D5D"/>
<path d="M7.32133 10.9258C7.35614 10.8992 7.38559 10.7564 7.49983 10.7484C7.59801 10.83 7.64888 10.9905 7.49983 11.0144C7.4802 11.1607 7.41772 11.2369 7.32133 11.1031V10.9258Z" fill="#5D5D5D"/>
<path d="M7.50006 11.0143C7.52327 10.9611 7.484 10.8237 7.50006 10.7483H7.58931C7.59467 10.7971 7.66607 10.8689 7.67856 10.9256C7.8053 10.9797 7.80352 11.0453 7.67856 11.1029C7.6509 11.1792 7.62144 11.1783 7.58931 11.1029C7.44115 11.1561 7.41884 11.1482 7.50006 11.0143Z" fill="#5D5D5D"/>
<path d="M9.19568 5.60656C9.05645 5.50639 8.89133 5.60213 8.92792 5.3406C9.01807 5.3344 9.13231 5.42305 9.19568 5.42926V5.60656Z" fill="#5D5D5D"/>
<path d="M2.23409 7.91134C1.99668 7.81205 2.23231 7.74644 2.23409 7.73403L2.4126 7.91045C2.35726 7.92286 2.2698 7.89449 2.23409 7.91045V7.91134Z" fill="#5D5D5D"/>
<path d="M2.5014 8.17736C2.35057 8.05148 2.40412 7.99917 2.58976 7.91141C2.60315 7.96105 2.57638 8.07719 2.58976 8.08871L2.50051 8.17736H2.5014Z" fill="#5D5D5D"/>
<path d="M10.3558 6.5816C10.345 6.52752 10.3718 6.44419 10.3558 6.4043L10.5343 6.67025C10.6119 6.69508 10.611 6.72522 10.5343 6.75891C10.4638 6.69596 10.412 6.63302 10.3558 6.5816Z" fill="#5D5D5D"/>
<path d="M5.26855 4.18808C5.24356 4.24836 5.20072 4.30421 5.1793 4.36538C4.76339 4.509 5.05167 4.32194 5.26855 4.18808Z" fill="#5D5D5D"/>
<path d="M10.534 6.75912V6.67047C10.6697 6.63501 10.7152 6.70859 10.8018 6.75912L10.6233 6.84777C10.5911 6.82118 10.5652 6.7866 10.534 6.75912Z" fill="#5D5D5D"/>
<path d="M8.30301 11.1028C8.18252 11.3059 7.97188 11.4176 7.73447 11.3644C7.64879 11.3449 7.62826 11.18 7.58899 11.1028C7.61041 11.094 7.64701 11.1073 7.67824 11.1028C7.6836 10.9486 7.8023 10.9566 7.85675 11.1028L8.03525 10.8369C8.06381 10.8324 8.09505 10.8395 8.1245 10.8369C8.26106 10.8254 8.36459 10.8387 8.39226 10.8369C8.46634 10.9574 8.47437 11.1383 8.30301 11.1028Z" fill="#5D5D5D"/>
<path d="M8.30291 11.1031C8.33771 11.0446 8.33147 10.9072 8.39216 10.8372C8.42161 10.8345 8.45196 10.839 8.48141 10.8372C8.53139 10.9835 8.50194 11.2104 8.70543 11.2441C8.78754 11.2574 9.02317 11.0765 8.92767 11.3691C8.61796 11.3842 8.47338 11.3886 8.30291 11.1031Z" fill="#5D5D5D"/>
<path d="M8.83839 10.128C8.92139 10.0483 8.93299 9.93478 8.83839 9.86209L9.10614 9.77344C9.11596 9.83638 9.26055 10.0013 9.10614 10.0394C9.02314 10.0633 8.9205 10.0988 8.83839 10.128Z" fill="#5D5D5D"/>
<path d="M8.21371 10.5709L8.12446 10.3936C8.2387 10.3777 8.23692 10.3466 8.30296 10.305C8.54126 10.2899 8.50646 10.3014 8.39221 10.4823C8.3824 10.4823 8.22085 10.5638 8.21371 10.5709Z" fill="#5D5D5D"/>
<path d="M9.19585 9.50744L9.2851 9.24148C9.66977 9.53847 9.45825 9.47198 9.19585 9.50744Z" fill="#5D5D5D"/>
<path d="M5.1792 3.479C5.14261 3.56145 5.07388 3.87882 4.91144 3.74407C4.83737 3.6829 4.9998 3.5774 5.0007 3.56765C5.10512 3.34957 5.17117 3.12084 5.1792 3.479Z" fill="#5D5D5D"/>
<path d="M3.66244 4.71922C3.64994 4.70681 3.6669 4.6616 3.66244 4.63234C3.82131 4.6084 3.97571 4.63766 4.01855 4.80787C3.94805 4.81762 3.68208 4.73961 3.66244 4.71922Z" fill="#5D5D5D"/>
<path d="M7.14273 11.6347C7.0749 11.5425 7.13381 11.4237 7.32124 11.2801C7.32124 11.1285 7.47743 11.1107 7.49974 11.2801C7.50152 11.2969 7.58274 11.3253 7.56757 11.4751C7.55061 11.6489 7.36765 11.8297 7.31945 11.9884L7.14273 11.6347Z" fill="#5D5D5D"/>
<path d="M6.25013 12.3439C6.28226 12.0903 6.05824 12.015 5.98237 11.9006C6.08055 11.8926 6.16445 11.8572 6.25013 11.812V11.9316C6.68032 12.1054 6.26619 12.2924 6.25013 12.3439Z" fill="#5D5D5D"/>
<path d="M6.51885 12.5204L6.78482 11.9894C6.80357 12.1392 6.71878 12.2651 6.66344 12.3928C6.6331 12.461 6.77054 12.5843 6.51885 12.5213V12.5204Z" fill="#5D5D5D"/>
<path d="M6.96453 11.6347C6.90741 11.4796 7.18944 11.3298 7.32153 11.2801C7.30011 11.3803 7.218 11.586 7.14303 11.6347C7.12964 11.6436 7.08502 11.6329 7.05378 11.6347C7.02611 11.6365 6.98148 11.6418 6.96453 11.6347Z" fill="#5D5D5D"/>
<path d="M5.71464 12.4328C5.65663 12.4098 5.53435 12.4816 5.53525 12.3876L5.71464 12.0782C5.79051 12.2112 5.8146 12.3034 5.71464 12.4328Z" fill="#5D5D5D"/>
<path d="M7.32123 11.2802C7.33105 11.2324 7.32123 11.1597 7.32123 11.1029C7.36051 11.0701 7.48992 11.0364 7.49974 11.0143C7.52919 11.0409 7.57114 11.0684 7.58899 11.1029C7.48189 11.1473 7.48813 11.1517 7.49974 11.2802C7.44529 11.2909 7.36318 11.2643 7.32123 11.2802Z" fill="#5D5D5D"/>
<path d="M6.42878 13.0535C6.48858 13.0083 6.56355 12.9773 6.6412 12.9782L6.69653 13.0535C6.63138 13.081 6.50821 13.2672 6.42878 13.0535Z" fill="#5D5D5D"/>
<path d="M6.3384 12.6987C6.37499 12.814 6.20452 13.1447 6.16168 13.0525C6.13758 12.8946 6.16703 12.7413 6.3384 12.6987Z" fill="#5D5D5D"/>
<path d="M6.42894 11.7233H6.6958V11.8998C6.57263 11.9272 6.4575 11.8519 6.42894 11.7233Z" fill="#5D5D5D"/>
<path d="M7.94622 4.36527C8.55313 4.14275 7.83287 4.31474 8.12472 3.92201C8.1515 3.69062 8.22201 3.70924 8.30323 3.92201C8.29876 4.16758 8.46834 4.08513 8.48173 4.09931C8.49512 4.1135 8.47191 4.15871 8.48173 4.18797C8.64506 4.24914 8.65577 4.3236 8.48173 4.36527H8.36124C8.18631 4.73495 8.12205 4.50446 7.94622 4.36527Z" fill="#5D5D5D"/>
<path d="M8.12455 3.92212C8.11116 3.90794 8.15668 3.80688 8.10849 3.76078C7.99603 3.65439 7.75237 3.7067 7.94605 3.47886C7.99335 3.46202 8.17632 3.25989 8.21291 3.30155C8.00942 3.68542 8.31912 3.52939 8.3816 3.70936C8.40837 3.78826 8.30395 3.88666 8.30305 3.92212C8.25307 3.91149 8.13972 3.93808 8.12455 3.92212Z" fill="#5D5D5D"/>
<path d="M8.92792 3.92233C8.9663 3.91346 9.03681 3.82924 9.10643 3.83367C9.1332 3.8647 9.1689 3.89041 9.19568 3.92233C9.11892 3.95956 9.01004 4.1147 8.92792 3.92233Z" fill="#5D5D5D"/>
<path d="M8.48132 3.3016C8.48132 3.26171 8.35458 3.15089 8.39207 3.12518L8.65982 3.21295C8.64376 3.25196 8.67232 3.33529 8.65982 3.39025L8.48221 3.3016H8.48132Z" fill="#5D5D5D"/>
<path d="M5.62647 3.30145H5.80408V3.56652C5.67466 3.53638 5.59969 3.42379 5.62736 3.30145H5.62647Z" fill="#5D5D5D"/>
<path d="M7.05353 3.03543C7.0696 3.10458 7.19009 3.17018 7.14189 3.30139L6.87503 3.21185C6.87949 3.12851 6.97856 3.0505 7.05353 3.03543Z" fill="#5D5D5D"/>
<path d="M18.8356 1.35024C18.7446 1.26158 19.0097 0.994737 19.1025 1.08516C19.1953 1.17559 18.9285 1.44066 18.8356 1.35024Z" fill="#5D5D5D"/>
<path d="M18.0325 1.26144V1.08502H18.2993C18.269 1.21357 18.1556 1.28803 18.0325 1.26055V1.26144Z" fill="#5D5D5D"/>
<path d="M8.48165 4.36529C8.47094 4.31033 8.49682 4.23143 8.48165 4.18799C9.1912 4.35731 8.678 4.46104 8.66015 4.5426C8.6298 4.5426 8.5941 4.53639 8.5709 4.5426C8.55126 4.48409 8.49236 4.41937 8.48165 4.36529Z" fill="#5D5D5D"/>
<path d="M8.92887 3.56652C8.9012 3.44418 8.97707 3.33071 9.10559 3.30145V3.56652H8.92887Z" fill="black"/>
<path d="M7.67858 11.1031C7.67055 11.0463 7.69018 10.9772 7.67858 10.9258C7.74998 10.838 7.84816 10.9275 7.85708 10.9258C7.99275 10.9293 7.99185 11.0738 7.85708 11.1031C7.80175 11.1128 7.73481 11.0951 7.67858 11.1031Z" fill="#5D5D5D"/>
<path d="M7.85657 11.1028V10.9255C7.9128 10.914 7.9842 10.8439 8.03507 10.8368C8.02168 10.9042 8.05738 11.0762 8.03507 11.1028C8.02079 11.1196 7.91012 11.093 7.85657 11.1028Z" fill="#5D5D5D"/>
</svg>
