<svg width="150" height="55" viewBox="0 0 150 55" fill="none" xmlns="http://www.w3.org/2000/svg">
<path d="M0.537619 28.5101C0.651913 28.56 0.855655 28.5133 0.999764 28.6379L0.711545 27.476L0.999764 27.7345C1.03703 27.2673 0.559981 26.4793 0.192253 26.3142V26.0619L0.410902 26.0058L0.306547 25.414L0.651913 25.5417C-0.0189419 24.4172 1.14884 24.8035 1.21096 24.7536C1.26811 24.7069 1.25568 24.4671 1.4147 24.4079C1.60602 24.3363 2.00605 24.5854 2.17003 24.573C2.21973 24.5699 2.79865 24.2522 2.8235 24.2241C2.93282 24.0995 2.86822 23.5949 2.97009 23.3177C3.10426 22.9564 4.6845 21.1093 5.05968 20.5424C5.43486 19.9755 5.78271 19.0317 6.24983 18.4835C6.47841 18.2156 6.94304 18.3184 6.68713 17.873L6.79397 17.7359C7.11448 17.9477 7.29586 16.8513 7.44743 16.6395C9.45751 13.8268 11.5471 11.0608 13.592 8.33843C13.6789 8.22318 13.905 7.55349 13.992 7.48496L14.3249 7.60644C14.3175 7.42267 14.2082 7.29496 14.2653 7.09872C14.4343 6.51936 15.5374 5.73754 15.607 5.03047L15.8132 5.13637C15.7884 4.38881 16.7798 3.98077 16.8642 3.85306C16.899 3.80011 17.2171 2.97156 17.2866 2.83139C17.3562 2.69122 17.8184 2.4981 17.9153 2.25515L17.4531 2.44827C17.2692 2.17104 18.5116 1.60726 18.6706 1.28643L18.5016 1.86579L17.3363 3.6101C17.6395 3.28616 18.0668 3.00894 18.3302 2.65696C18.4097 2.55106 18.4022 2.32679 18.4892 2.24269C18.6259 2.11498 18.9439 2.47941 19.0706 2.12432L18.7252 1.80349C19.0979 1.59791 19.5452 1.54185 19.9104 1.40479C20.0073 1.36742 19.9999 1.16495 20.0744 1.15249C20.4521 1.09331 20.8794 1.6571 21.0012 1.15249C21.4758 1.25217 22.241 1.26774 22.7007 1.15249C22.7951 1.13069 22.7305 0.918878 22.9467 0.88773C23.6622 0.781825 24.5418 1.04659 25.2648 1.0279C26.6066 0.993634 28.7334 0.906419 30.0006 0.68215C30.1745 0.651002 30.4404 0.763136 30.495 0.750677C30.5795 0.731988 30.5323 0.529523 30.5522 0.513949C30.6044 0.473456 30.7162 0.672806 30.8379 0.697724C31.5908 0.856581 32.2616 0.485915 32.92 0.442307C34.2891 0.358207 35.919 0.675921 37.3328 0.641657C38.1751 0.622968 39.159 0.411159 39.9938 0.376896C42.3145 0.283451 44.8563 0.39247 47.3062 0L47.4055 0.227383C50.6232 0.143283 53.97 0.0716414 57.1503 0.233613C58.0796 0.280336 59.1381 0.666576 60.0474 0.644772C60.5493 0.632313 61.0835 0.180661 61.3221 0.893959L61.3817 0.504604C62.5147 0.436078 63.6651 0.610509 64.7931 0.616739C67.5536 0.626083 70.3985 0.411159 73.1465 0.367551C73.6037 0.361322 74.3491 0.806744 74.5354 0.249187L75.2336 0.632313L75.4647 0.246072C75.7156 0.925108 76.0163 0.429848 76.2946 0.401815C76.471 0.383125 76.5977 0.57936 76.7393 0.57936C76.7965 0.57936 77.348 0.336403 77.3754 0.376896L77.1443 0.890845C77.5294 1.19921 79.3507 0.97183 79.4426 1.04659C79.4873 1.08396 79.4948 1.28954 79.5718 1.34561C79.7905 1.50447 81.7508 1.04659 82.1832 1.02167C82.5236 0.999864 83.0304 1.03101 83.4528 1.01544C84.0119 0.996749 84.7722 1.18364 85.294 1.02167C85.3958 0.99052 85.3834 0.856581 85.3735 0.766251L85.4878 1.02478C85.8952 0.473456 86.8195 1.24594 87.0506 0.638542C87.5028 1.17741 88.3029 0.510834 88.7899 0.504604C89.165 0.498375 88.7203 1.04347 89.3116 0.897074L89.1949 0.510834C89.5278 0.345747 89.8433 0.532638 90.1614 0.498375C97.9681 -0.333288 106.177 0.299025 114.059 0.261647C115.087 0.255417 116.148 0.323943 117.187 0.308369C117.622 0.30214 118.265 -0.10279 118.347 0.383125L118.469 0.115249C119.624 0.517064 120.934 0.230498 122.176 0.246072C122.807 0.255417 123.582 0.448537 124.258 0.436078C125.006 0.420504 125.853 0.140168 126.584 0.239843C126.837 0.274106 127.367 0.560671 127.918 0.573131C128.251 0.57936 129.054 0.39247 129.113 0.404929C129.324 0.454767 129.603 1.10888 129.938 0.376896C130.202 0.88773 132.291 0.750677 132.43 0.893959C132.52 1.4266 131.725 0.981175 131.503 1.21479L132.661 1.66955L132.43 1.85956C132.639 2.18973 133.029 2.33925 133.245 2.63204C133.387 2.82516 133.432 3.05254 133.628 3.35468C133.924 3.80945 134.155 4.52275 134.694 4.63177L134.632 5.01178C134.863 5.07096 135.285 5.19867 135.447 5.3731C135.777 5.73754 136.416 7.17036 136.783 7.72481C137.355 8.5845 138.706 10.0516 139.114 10.8739C139.218 11.0857 139.174 11.4408 139.211 11.4844C139.318 11.5997 139.531 11.5623 139.593 11.637C139.72 11.7897 139.444 12.123 139.827 11.8893C140.438 13.1228 141.35 14.1165 142.1 15.2253C143.571 17.4057 144.816 19.6079 146.446 21.7478C146.583 21.9254 146.538 22.2337 146.801 22.187L146.57 22.5701C147.192 22.377 147.137 23.0654 147.298 23.19C148.19 23.8815 148.521 25.6289 149.552 26.4824C149.639 26.9808 149.962 27.3981 149.999 27.9246C150.007 28.0149 149.964 28.2921 149.818 28.2485L149.584 27.8623L149.815 29.0241L149.47 28.5693C148.851 28.7469 149.82 29.6377 149.584 30.0551L149.356 29.9243C149.137 30.3759 149.465 30.5254 149.47 30.9584L149.008 30.8307L149.239 31.3446C148.802 31.4599 148.424 31.5689 148.138 31.0892L145.745 34.7461C142.963 39.0009 139.941 43.1312 136.987 47.1275C136.647 47.5885 136.386 48.6414 135.792 48.6382L136.023 48.8283C135.434 49.0276 135.665 50.0648 135.096 49.6693C135.255 50.0586 135.012 50.3826 134.746 50.6193C134.686 50.6722 134.542 50.5757 134.527 50.5913C134.46 50.6567 134.383 51.7687 133.705 51.6067L133.936 51.9275C133.67 52.1954 133.278 52.5318 133.044 52.8121C132.954 52.918 133.136 53.2731 132.664 53.1548L132.897 53.3448L132.771 53.6563L131.854 53.7995C131.737 53.6064 132.39 53.1548 131.913 53.1548L131.503 54.1858L130.599 54.0736C130.328 54.7838 129.257 55.6404 129.883 54.1889C129.792 54.0518 127.521 54.1484 127.188 54.1577C123.113 54.2481 119.08 54.2512 114.988 54.3041C113.81 54.3197 112.31 54.5782 111.162 54.4568C110.955 54.435 110.824 54.3727 110.697 54.1858L110.565 54.4505C110.121 54.3166 109.656 54.5907 109.306 54.1858L109.201 54.435L107.626 54.4443L107.569 54.1858C107.457 54.6437 107.002 54.4941 106.756 54.1889C106.622 54.1795 106.717 55.061 106.411 54.3166C106.021 54.7932 105.457 54.2138 104.898 54.2481C104.652 54.2636 104.125 54.5004 103.757 54.4412C103.725 54.435 103.581 54.0923 103.223 54.1889L103.337 54.5751C102.647 54.544 101.894 54.516 101.206 54.4319C100.207 54.3073 99.936 54.3166 98.9893 54.2917C98.3905 54.2761 97.6178 54.1795 97.0215 54.0581C96.8351 54.4069 97.1954 54.435 97.4116 54.3228L97.5408 54.7028C97.1383 54.516 96.937 54.843 96.5593 54.8461C95.8388 54.8555 94.8102 54.4599 94.0275 54.7028C93.938 54.7309 93.8834 55.3632 93.6523 54.6935C93.4684 54.6842 93.1951 54.9427 93.0734 54.9583C93.0187 54.9645 93.0734 54.6997 92.8523 54.6873C92.4473 54.6655 91.4733 55.2479 91.513 54.7028L91.3987 54.9583H91.1677L91.1105 54.6997L91.0434 54.9396C90.8049 54.7589 90.5838 54.9645 90.4248 54.9614C90.3949 54.9614 90.139 54.2418 90.1837 54.9614H89.9502L89.8881 54.706C89.6495 54.9146 89.6098 54.9365 89.3116 54.8306C89.6023 54.1515 88.8321 54.9084 88.7675 54.9333C88.2557 55.1296 88.3053 54.7589 88.1836 54.7122C87.4929 54.4412 87.5749 54.8181 87.5003 54.8368C87.0258 54.9583 83.7087 54.7558 83.0553 54.653C82.8888 54.6281 82.7372 54.4069 82.5335 54.4443L82.7049 54.7028C82.2428 54.7246 81.8353 54.3602 81.3707 54.4755C81.2937 54.4941 81.3334 54.8181 81.0228 54.706L80.9632 54.4443L80.675 54.7028L80.5011 54.4443V54.7028L80.0936 54.4381C79.8898 54.4381 79.8029 54.7091 79.6811 54.762C79.1295 54.9894 79.0823 54.5814 79.0302 54.572C78.8637 54.5409 78.5109 54.4755 78.3518 54.4537C77.8599 54.3851 77.3505 54.5191 76.8511 54.3135C76.5579 54.6094 77.2487 54.5564 77.0226 54.8306C76.8089 55.086 76.1803 54.8492 75.9194 54.8368C75.7355 54.8274 74.205 54.9365 74.9355 54.2481C75.0845 54.1079 75.3504 54.5564 75.2833 54.0581C74.6249 54.0176 74.0907 53.8681 73.4273 54.0581C73.7528 53.6033 72.9775 53.7715 72.8483 53.9958L73.3105 54.1889C73.0322 54.2263 72.4682 53.9989 72.2272 54.0705C72.1303 54.0986 72.1452 54.301 72.011 54.3602C71.4271 54.625 70.5103 54.2792 69.8717 54.2387C69.4518 54.2138 68.9499 54.2418 68.5971 54.2605C68.4207 54.2699 68.217 54.3259 68.043 54.3073C67.7623 54.2792 67.7523 53.9086 67.3995 54.3166V53.9272H67.0517L67.2827 54.3135C66.9175 54.0954 66.5647 53.8463 66.1249 53.9272L66.1796 54.1827L66.4703 54.3135H64.2092C64.1893 54.3135 64.1098 54.1297 63.9806 54.1172C63.8117 54.0986 63.034 54.2138 62.9918 54.1827L63.1085 53.9272L62.8178 53.7995C62.5495 54.5814 61.9209 54.1204 61.5705 54.2107C61.245 54.2917 61.2003 54.8056 60.9643 53.9272C60.9121 54.7278 60.2089 54.2481 59.8114 54.2512C58.6685 54.2574 57.4957 54.4194 56.4621 54.2699C52.7699 53.7404 48.541 54.9707 44.7395 54.3851C44.0115 54.4973 43.2736 54.4194 42.5406 54.4443C36.0557 54.6592 29.3968 54.7122 22.897 54.6312C22.1988 54.6219 21.2049 54.7558 20.5515 54.6592C19.9924 54.5782 18.6631 54.354 18.8346 53.541C18.4271 53.9086 18.2606 53.7466 17.9103 53.4133L18.1414 53.8649C17.3935 54.4381 17.4929 53.6033 17.3289 53.2544C17.2643 53.1174 17.0804 53.0862 17.0009 52.9461C16.8071 52.6066 16.7251 51.9026 16.2878 52.1206C16.4965 51.9369 16.2108 51.4946 16.0965 51.4852C15.9996 51.4759 15.8803 51.6223 15.7089 51.5475C15.1349 51.2952 12.9037 47.3331 12.3447 46.5077C11.9471 45.919 11.4229 45.268 10.993 44.6388C8.39905 40.82 5.66842 36.9264 3.37757 33.2665C3.12911 32.8709 2.79865 32.4442 2.72163 31.9925L2.49304 32.248L1.10163 29.7312L1.33271 29.6035C0.882986 29.4384 0.609674 29.0334 0.522712 28.507C0.0705054 28.3139 -0.10342 27.7314 0.0605669 27.2175C0.291639 27.1926 0.102806 27.5259 0.202192 27.7065C0.420841 28.1052 0.386056 27.6878 0.522712 28.507L0.537619 28.5101ZM101.263 0.380011H100.801V0.635428H101.263V0.380011ZM43.1916 0.510834H42.4959V0.638542C42.7667 0.601164 43.0972 0.890845 43.1916 0.510834ZM76.9207 0.766251H76.3418V0.893959L76.9207 1.02478V0.766251ZM76.6896 1.28331H75.9964V1.41102H76.6896V1.28331ZM69.504 1.67267C69.2531 1.60414 69.0319 1.42971 68.9251 1.79726L69.504 1.92809V1.67267ZM104.043 3.08992H103.695L103.812 3.47616H104.043V3.08992ZM44.583 3.34845L42.9605 3.22075L43.1941 3.73469H43.3084C43.2462 3.30485 43.8674 3.49174 44.1805 3.47928C44.3196 3.47305 44.6103 3.57584 44.583 3.35157V3.34845ZM43.7705 4.12094C43.3108 4.29848 43.1966 4.43242 42.6127 4.25176L42.8437 4.50718L41.7505 4.37324L41.6188 4.64111C40.9852 4.23618 40.3541 4.70341 39.7702 4.61308C39.6957 4.60062 39.728 4.41373 39.641 4.38881C39.5491 4.36078 39.2335 4.48849 39.0795 4.37947L39.1366 4.638C38.6571 4.53521 38.1204 4.73767 37.6881 4.74079C34.4034 4.78128 31.0516 4.92768 27.8439 4.79063C27.1954 4.76259 27.3644 4.72833 27.0016 4.63488C26.4401 4.4916 25.0089 5.04916 24.4722 4.37947C24.3604 4.84358 24.1716 4.54455 23.8883 4.57882C23.8138 4.58816 23.7442 4.68784 23.6647 4.69407C22.728 4.77817 21.759 4.66915 20.8198 4.83112C20.544 5.39491 19.9725 5.78115 19.6545 6.24526C16.7027 10.5873 13.336 15.0291 10.3917 19.4086C10.0762 19.8789 9.51714 20.2216 9.47987 20.2745C9.42024 20.3586 9.50223 20.5922 9.43266 20.7324C9.28607 21.0408 8.23506 22.1808 7.94684 22.5359C7.00019 23.7102 5.57897 25.4015 4.82115 26.8935C4.6845 27.1614 4.41616 27.585 4.52797 27.8591C4.7814 28.3606 5.8821 29.4072 6.0436 29.8059C6.94553 32.0143 8.59285 33.8677 9.91965 35.8362C11.316 37.9076 12.6056 40.0382 13.8653 42.1563C15.2865 44.5422 16.5661 46.8877 17.9873 49.2768C18.2407 49.7035 18.683 50.1583 18.8669 50.6224C19.0806 51.1613 18.8743 51.7531 19.9303 51.4759C20.067 51.4416 20.0396 51.4198 20.4049 51.345C22.8845 50.8436 25.2077 50.9744 27.7396 50.9183C28.1843 50.909 28.3259 50.9277 28.7657 50.9463C28.8179 50.9463 28.803 50.7252 28.8924 50.7034C29.8515 50.4573 31.1485 50.8062 32.12 50.7595C32.4306 50.7439 32.9573 50.3483 33.0443 50.8311C35.7029 50.4604 38.6 50.4853 41.3952 50.448C41.6188 50.448 42.3095 50.2829 42.4189 50.3203C42.5058 50.3483 42.4859 50.557 42.5431 50.557C42.9232 50.5539 44.1208 50.1209 44.4438 50.3483C44.4985 50.3888 44.414 50.5944 44.5209 50.5757C44.6352 50.5757 44.4737 50.3421 44.7445 50.3047C45.6166 50.1832 46.6452 50.557 47.5223 50.3047L47.6515 50.5757L47.9994 50.1863L48.1162 50.448L48.4044 50.1894L48.6354 50.5757L48.6926 50.1894L49.033 50.3296L49.1597 50.0586H49.3311V50.4449C49.51 50.4916 49.3957 50.2673 49.5324 50.1894C49.8803 49.9932 50.0095 50.2642 50.2132 50.2704C51.1847 50.3016 52.1736 50.2642 53.155 50.3171L52.6929 50.5726C53.3687 50.6099 54.0445 50.6567 54.7228 50.638C54.8247 50.638 55.0434 50.6193 55.0111 50.4449C54.5961 50.4729 54.1886 50.4293 53.7861 50.3171C53.5923 50.2642 53.4482 50.448 53.5054 50.0555C54.1042 50.1022 54.7949 49.8966 55.3266 50.2798C55.4409 50.3608 55.5328 50.2704 55.4757 50.5694L54.3178 50.9557C54.6334 50.8062 54.9216 51.1488 55.0906 51.1768C55.4608 51.236 56.6286 51.1862 57.0112 51.0741C58.4771 50.6411 60.3208 50.7844 61.9109 50.6535C62.3358 50.6193 63.0713 50.3826 63.5135 50.3576C63.8713 50.3389 64.0751 50.4885 64.403 50.5694L64.2838 50.314C64.8204 50.4822 65.2304 50.557 65.7919 50.4417L65.618 50.7003C66.1448 50.937 66.2715 50.4262 66.3112 50.4417C66.4032 50.4729 66.5026 50.6535 66.6591 50.6567C66.7808 50.6567 67.5362 50.2891 67.8766 50.2362C68.5996 50.1271 69.5313 50.638 69.7699 50.5726C70.0581 50.4916 69.8916 50.4449 70.5053 50.4012C71.8147 50.3078 73.3055 50.2362 74.6597 50.3047C74.9255 50.3171 75.1616 50.3514 75.41 50.4449L75.1789 50.7003C75.8647 50.7158 76.5679 50.747 77.2164 50.4511L77.3207 50.7003C78.0785 50.3109 79.1395 50.6068 79.9967 50.3296L80.111 50.5788C80.5309 50.3576 80.8961 50.4355 81.321 50.5726V50.1863L81.5521 50.2486L81.4949 50.5726L81.7583 50.3826L81.6689 50.1894H81.9596C81.9322 50.4916 82.9484 50.4137 83.2392 50.3888C83.6218 50.3545 84.8492 49.9216 84.9685 49.9153C86.1959 49.8499 87.5749 49.9153 88.7923 49.8717C89.4806 49.8468 90.1986 49.8904 90.8844 49.8593C91.6248 49.825 92.3578 49.6879 93.0908 49.6879L93.1454 50.0586C93.2796 50.0337 93.3616 49.5758 93.6076 49.8032C93.8685 50.043 93.3094 50.0243 93.3765 50.1894C93.8486 50.2611 93.7368 49.7316 94.2958 49.7378C94.4722 49.7378 94.5841 49.9278 94.8201 49.9403C96.4774 50.0275 97.8936 49.5883 99.7819 49.9652C100.945 50.1957 101.042 50.2611 102.239 50.2486C104.523 50.2237 106.724 50.1334 108.955 50.2175C109.817 50.2517 110.844 50.4978 111.641 50.1957L111.738 50.4386C115.838 49.744 120.064 50.4791 124.151 50.3888C124.512 50.3794 125.155 49.8343 125.309 50.4511C125.416 50.4698 125.332 50.2642 125.386 50.2237C125.665 50.0275 127.57 50.5601 128.097 50.5601C128.624 50.5601 129.255 50.3452 129.826 50.448C130.288 50.3483 130.351 49.6817 130.582 49.3547C132.81 46.2024 135.198 43.3181 137.345 40.1067C138.438 38.4683 139.859 36.8174 140.813 35.341C141.154 34.8146 141.663 34.3567 141.847 33.8334L142.17 33.8054L142.1 33.416L142.518 33.2914C142.138 32.6716 143.112 32.899 142.883 32.4099C143.519 32.2417 143.184 31.3571 143.899 31.3478L143.788 31.0986C144.255 31.2232 144.081 30.8276 144.25 30.6469C144.284 30.6095 144.436 30.6999 144.461 30.6718C144.93 30.1579 145.313 28.9369 145.952 28.4572C145.981 27.9713 145.554 27.9027 145.41 27.6816C145.266 27.4604 145.221 27.1676 145.06 26.9371C144.672 26.3858 143.641 25.3922 143.425 24.844C143.306 24.5418 143.467 24.3643 143.425 24.2833C143.405 24.2459 143.196 24.1961 143.109 24.0497C142.983 23.8441 142.779 23.3177 142.687 23.2243C142.543 23.0779 142.309 23.1152 142.284 23.0903C142.272 23.0779 142.404 22.8816 142.341 22.7165C142.294 22.5857 141.7 21.7104 141.564 21.508C140.095 19.3214 138.349 17.2002 137.037 14.8048C136.967 14.6771 136.957 14.4747 136.947 14.3252L136.719 14.5806L136.192 13.1509C135.991 13.1695 134.788 11.4065 134.763 11.282C134.738 11.1574 134.888 10.9923 134.845 10.8646C134.818 10.7836 134.11 10.4285 134.284 10.0641L134.055 10.1949C134.001 10.0298 133.799 9.07042 133.76 9.02681C133.648 8.90222 133.176 8.60631 133.022 8.36646C132.967 8.28236 133.138 8.09236 133.106 8.02072C133.091 7.98645 132.686 7.69677 132.587 7.56906C132.271 7.16725 131.106 5.50392 130.957 5.13014C130.85 4.86227 130.875 4.00257 130.405 3.92782C130.072 3.87486 128.977 4.0306 128.549 4.07733C127.575 4.18323 126.589 4.0306 125.759 4.0088C124.469 3.97454 123.254 4.29848 121.933 4.15208L121.821 4.39504C121.393 4.04306 121.239 4.31094 120.894 4.32963C116.268 4.59128 111.661 4.36389 107.005 4.30783C105.755 4.29225 105.271 4.54144 104.07 4.14274C103.81 4.05552 103.723 4.2175 103.243 4.01815C102.806 3.83437 102.411 3.62568 101.944 3.61633C102.043 3.2114 102.734 3.59764 102.87 3.23321H101.655L101.713 3.61633L101.124 3.6724L101.017 4.26422C99.9484 4.22372 98.9223 4.36078 97.834 4.3234C96.932 4.29225 95.8835 4.14897 94.9344 4.12405C94.2337 4.10536 93.4759 4.29225 92.7231 4.12405L92.4994 4.39504C92.4398 4.4075 92.4199 3.86863 92.2087 4.13651C92.1242 4.24241 92.5963 4.59439 92.0298 4.52898C91.7366 4.49472 91.6348 4.3857 91.4534 4.13651L91.3391 4.39504C91.2198 4.1552 90.4893 3.95896 90.3452 4.0711C90.2359 4.1552 90.3055 4.43553 90.1216 4.39504L90.062 4.00569L89.4582 4.62554C87.1525 4.84046 84.884 4.88096 82.5857 4.90899L82.5285 4.65046C82.4118 4.74079 82.5385 4.89965 82.3024 4.92456C81.8229 4.9744 81.1346 4.78128 80.6725 4.78128C79.542 4.77817 78.4239 4.79686 77.3157 4.79063C76.7666 4.78751 76.1206 4.83112 75.6038 4.7439C75.3926 4.70964 75.3976 4.39193 75.0547 4.78128C75.0895 4.24553 74.523 4.72833 74.1826 4.79374C72.5999 5.09588 70.2842 4.77817 68.6071 4.83735C68.1623 4.85292 67.0194 5.29212 66.9324 4.79063L66.7634 4.78128C66.6541 4.78751 66.751 5.00866 66.6293 5.04293C65.8168 5.27654 63.9931 5.10211 63.0713 5.08965C62.1991 5.07719 61.4861 4.9526 60.7257 4.92768C60.6711 4.92768 60.6885 5.14883 60.6015 5.17064C60.5146 5.19244 58.9616 5.25162 58.8772 5.23916C58.7455 5.21736 58.4349 4.94637 58.1094 4.87161C57.6398 4.76571 57.1354 5.08342 56.6981 4.89653C56.5913 4.84981 56.6112 4.66603 56.564 4.65046C56.1937 4.53521 56.3577 5.0367 56.0173 4.8903L55.3639 4.63488L55.3465 4.13651C55.016 4.24864 55.3465 4.55701 55.0508 4.76882C54.7825 4.96194 54.0023 5.02735 54.0719 4.58816C54.375 4.14585 54.298 4.74702 54.534 4.77817L54.6558 4.20815C54.6334 3.98388 51.9102 4.12716 51.5822 4.13651C49.9598 4.18946 48.4864 4.36078 46.931 4.27979C46.5931 4.2611 46.2179 4.46668 45.8353 4.19881L45.6613 3.62256L45.0327 3.74715L45.4973 3.48862C45.4129 3.12419 44.7991 3.1491 44.6873 3.42633L44.9184 3.74715H44.2227L44.2327 4.07421C44.0712 4.18323 43.86 4.09602 43.7606 4.13339C43.8301 4.04929 43.7059 3.62256 43.5866 3.61945C43.2413 3.61633 43.5543 4.37947 43.7606 4.13339L43.7705 4.12094ZM62.6638 3.34845C61.4463 3.17402 60.2561 3.37649 59.071 3.53846C59.2027 3.74092 59.3915 3.74715 59.5903 3.74404C60.199 3.73781 60.9966 3.51354 61.5606 3.46682C61.8836 3.43878 62.4625 3.69732 62.6613 3.34845H62.6638ZM40.9902 3.60387C40.8784 3.20517 40.5728 3.4637 40.2945 3.47616V3.60387H40.9902ZM42.148 3.34845H41.4548V3.47616L42.148 3.60699V3.34845ZM55.8707 4.43553C56.0248 4.29537 56.5168 4.12405 56.5192 4.05552C56.5317 3.72535 55.8658 4.10536 55.7788 4.10536L55.7117 4.63488C55.8832 4.68472 55.8037 4.49472 55.8707 4.43242V4.43553ZM149.132 26.7035V26.5135L148.844 26.0588L148.677 26.3671L148.961 26.7004H149.132V26.7035ZM148.667 26.9621C148.71 26.6724 148.563 26.4201 148.322 26.3173C148.28 26.607 148.426 26.8593 148.667 26.9621ZM1.11654 28.7687L0.771176 28.831L1.11654 29.1549V28.7687ZM54.0868 50.965L52.9289 51.0927C53.2445 51.0927 53.9004 51.3824 54.0868 50.965ZM18.5041 51.7375C18.5737 51.6659 18.4395 51.4167 18.3302 51.3544L18.0395 51.4821C18.0395 51.7001 18.4196 51.8247 18.5016 51.7375H18.5041ZM89.5551 51.8683C89.1675 51.8278 87.2369 51.6908 87.1226 51.8683C87.1574 52.2452 87.5798 52.3916 87.883 52.3667C88.0395 52.3543 88.1488 52.1736 88.3203 52.1642C88.4172 52.158 90.0073 52.3138 89.5576 51.8652L89.5551 51.8683ZM21.4012 51.9992C20.9813 52.1923 20.5117 51.9774 20.1887 51.9992C20.0024 52.0116 19.8508 52.2079 19.7191 52.211C19.5079 52.2172 19.3762 51.7967 19.0855 52.32C19.0756 52.6439 20.5291 52.401 20.7353 52.3543C20.8919 52.3169 21.3565 52.2016 21.3987 51.9992H21.4012ZM19.083 52.7685L18.7824 52.1362C17.868 52.0833 18.4321 52.918 19.083 52.7685ZM19.3141 52.9025H18.7352V53.1579C18.9563 53.1766 19.2445 53.1921 19.3141 52.9025ZM76.6896 54.3228C76.2672 54.1297 76.0138 54.4879 75.5318 54.3851C75.6361 54.6935 77.0002 54.6842 76.6896 54.3228Z" fill="black"/>
<path d="M77.6155 0.766331V0.380091L77.9435 0.492225L78.0205 0.249268H78.192C78.2243 0.619934 78.8082 0.834858 78.6616 0.249268C79.1436 0.342713 79.7349 0.186971 80.048 0.766331H77.613H77.6155Z" fill="black"/>
<path d="M89.5544 51.8683C90.0041 52.3137 88.4139 52.1611 88.317 52.1673C88.1456 52.1767 88.0388 52.3573 87.8797 52.3698C87.5766 52.3947 87.1542 52.2483 87.1194 51.8714C87.2362 51.6939 89.1643 51.8309 89.5519 51.8714L89.5544 51.8683Z" fill="black"/>
<path d="M62.6645 3.3487C62.4657 3.70068 61.8868 3.44215 61.5638 3.46707C60.9973 3.51379 60.2022 3.73806 59.5934 3.74429C59.3922 3.74429 59.2034 3.74117 59.0742 3.53871C60.2593 3.37674 61.4495 3.17116 62.667 3.3487H62.6645Z" fill="black"/>
<path d="M21.4015 51.9991C21.3567 52.2016 20.8946 52.32 20.7381 52.3542C20.5318 52.401 19.0783 52.647 19.0882 52.32C19.379 51.7967 19.5106 52.2172 19.7218 52.2109C19.8535 52.2078 20.0051 52.0116 20.1914 51.9991C20.5144 51.9773 20.984 52.1923 21.4039 51.9991H21.4015Z" fill="black"/>
<path d="M19.0824 52.7685C18.4339 52.918 17.8674 52.0833 18.7818 52.1362L19.0824 52.7685Z" fill="black"/>
<path d="M76.69 54.3228C76.998 54.681 75.6365 54.6935 75.5321 54.3851C76.0141 54.4879 76.2676 54.1297 76.69 54.3228Z" fill="black"/>
<path d="M44.5834 3.3486C44.6107 3.57287 44.32 3.47008 44.1808 3.47631C43.8653 3.48876 43.2441 3.30499 43.3087 3.73172H43.1944L42.9609 3.21777L44.5834 3.34548V3.3486Z" fill="black"/>
<path d="M55.8704 4.43582C55.8034 4.49812 55.8829 4.68812 55.7114 4.63828L55.7785 4.10876C55.8655 4.10876 56.5314 3.72875 56.5189 4.05892C56.5189 4.12433 56.0245 4.29877 55.8704 4.43893V4.43582Z" fill="black"/>
<path d="M54.0861 50.9651C53.8972 51.3825 53.2438 51.0897 52.9282 51.0928L54.0861 50.9651Z" fill="black"/>
<path d="M149.132 26.7034H148.961L148.677 26.3701L148.844 26.0586L149.132 26.5134V26.7034Z" fill="black"/>
<path d="M69.5042 1.67268V1.9281L68.9252 1.79727C69.0321 1.42972 69.2532 1.60104 69.5042 1.67268Z" fill="black"/>
<path d="M148.668 26.9619C148.427 26.8591 148.28 26.6068 148.323 26.3171C148.564 26.4199 148.71 26.6722 148.668 26.9619Z" fill="black"/>
<path d="M19.3138 52.9026C19.2443 53.1954 18.9561 53.1767 18.7349 53.158V52.9026H19.3138Z" fill="black"/>
<path d="M101.261 0.379883H100.798V0.6353H101.261V0.379883Z" fill="black"/>
<path d="M40.9896 3.6039H40.2939V3.47619C40.5722 3.46373 40.8754 3.2052 40.9896 3.6039Z" fill="black"/>
<path d="M18.5034 51.7376C18.4189 51.8248 18.0437 51.7002 18.0413 51.4822L18.332 51.3545C18.4413 51.4199 18.5755 51.666 18.5059 51.7376H18.5034Z" fill="black"/>
<path d="M43.1912 0.510742C43.0968 0.890753 42.7689 0.601073 42.4955 0.638451V0.510742H43.1912Z" fill="black"/>
<path d="M76.921 0.766113V1.02465L76.342 0.893822V0.766113H76.921Z" fill="black"/>
<path d="M104.044 3.08984V3.47608H103.815L103.696 3.08984H104.044Z" fill="black"/>
<path d="M42.1483 3.34839V3.60381L41.4551 3.4761V3.34839H42.1483Z" fill="black"/>
<path d="M76.6863 1.2832H75.9931V1.41091H76.6863V1.2832Z" fill="black"/>
<path d="M1.11655 28.7688V29.155L0.771179 28.8342L1.11655 28.7688Z" fill="black"/>
<path d="M19.8529 3.14289L2.20587 28.2858L17.647 53.4286H130.147L147.794 27.5L130.147 2.35718L19.8529 3.14289Z" fill="black" stroke="black"/>
</svg>
