<svg width="40" height="45" viewBox="0 0 40 45" fill="none" xmlns="http://www.w3.org/2000/svg">
<path d="M23.8563 1.6328C24.4402 2.35528 24.8767 4.28977 25.5696 5.16855C30.9691 12.0218 35.7287 15.6431 38.9607 24.1419C39.2379 24.8702 40.8568 24.9941 39.4001 27.598C37.3741 26.4184 37.1294 28.6625 36.168 29.4912C30.3439 34.5132 24.8973 39.4084 17.9998 42.8586C16.9795 43.3688 16.9824 44.9376 14.5348 44.5778C14.2281 44.5336 11.8542 42.4133 11.4296 41.9975C9.57179 40.1633 5.91809 35.8314 4.31093 33.7288C3.53831 32.7173 0.562859 28.462 0.161807 27.5744C-1.04725 24.8968 4.85943 17.0792 6.59634 14.6758C9.94335 10.0402 14.4581 5.8291 17.8346 1.16687C19.8252 -0.531703 22.2315 -0.37541 23.8504 1.6328H23.8563ZM27.9583 13.9386C27.7695 13.6555 27.0294 13.4344 26.6843 12.936C24.9327 10.3911 22.8095 6.55159 20.9546 4.27798C20.642 3.89757 20.2793 3.36676 19.6777 3.51421L4.02488 25.8168L15.1334 39.9569L16.3425 40.2016L35.8348 25.0472L33.1366 20.5737C29.3796 19.6654 29.6008 16.4069 27.9583 13.9416V13.9386Z" fill="#6A6A6A"/>
<path d="M22.3634 19.5417C24.2979 21.4703 20.4231 29.1345 16.8106 26.8816C14.4633 23.853 19.3791 16.5663 22.3634 19.5417Z" fill="#6A6A6A"/>
</svg>
