<svg width="30" height="23" viewBox="0 0 30 23" fill="none" xmlns="http://www.w3.org/2000/svg">
<g clip-path="url(#clip0_65_14893)">
<path d="M28.0594 0.775798C28.3885 1.11511 28.2821 0.968275 28.6534 1.1925C28.8219 1.2937 28.8822 1.47824 28.9604 1.53182C29.0106 1.56555 29.1109 1.53777 29.125 1.54967C29.141 1.56356 29.0327 1.84335 29.2173 1.9128L29.1872 1.6092L29.5524 1.82549L29.4942 1.97431L29.4019 1.79374C29.127 2.04972 29.3578 2.17671 29.4019 2.39895C29.438 2.56762 29.6086 3.79987 29.5845 3.88718C29.5444 4.03203 29.3678 4.16299 29.426 4.37135C29.4461 4.43881 29.7009 4.39119 29.6789 4.55787L29.8053 7.5363C29.8213 7.9034 29.8133 8.27248 29.8213 8.64155C29.8254 8.80427 29.9939 8.84197 29.7391 9.08405L29.9237 9.1158L29.7953 9.1793L29.8655 9.47298L29.7391 9.51068V9.63172L29.8595 9.69125C29.5906 9.67141 29.7732 10.0861 29.7672 10.1476C29.7551 10.2687 29.6106 10.5604 29.6106 10.6338C29.6106 10.6536 29.9277 10.739 29.6126 10.8779L29.7371 11.1517L29.6146 11.2727L29.7672 11.2112L29.7993 11.3342L29.6146 11.4553L29.8013 11.495C29.8916 11.8641 29.8414 12.2748 29.8916 12.6399C29.8976 12.6875 29.9478 12.7312 29.9839 12.7629L29.8615 12.7927V12.9118L29.9859 12.9435C29.8113 13.1499 29.9538 13.2035 29.9598 13.3781C30.024 14.9496 30.0361 17.0669 29.7852 18.5789C29.7551 18.7635 29.5324 18.7476 29.6187 18.8627C29.6267 18.8726 29.7029 18.8567 29.719 18.8805C29.7591 18.9381 29.6909 19.7794 29.6608 19.9144C29.6347 20.0334 29.416 20.1009 29.6769 20.1723C29.4541 20.3509 29.6126 20.6227 29.5906 20.7835C29.5725 20.9125 29.3638 20.9541 29.3257 21.0057C29.3136 21.0216 29.3257 21.353 29.3076 21.4185L29.129 21.3589C29.137 21.5812 28.8601 21.5712 28.828 21.6129C28.7979 21.6486 28.828 21.7637 28.7818 21.8431C28.6634 22.0514 28.4547 22.1566 28.3383 22.2796C28.3263 22.2915 28.3965 22.3987 28.2921 22.4503C28.1436 22.5257 28.2761 22.2598 28.1697 22.2697C28.1176 22.3094 28.0754 22.3908 28.0172 22.4126C27.9711 22.4304 27.1061 22.5733 27.0559 22.5693C26.781 22.5435 26.8553 22.3233 26.6927 22.6328C26.5683 22.6765 26.6205 22.5257 26.5603 22.5118C26.492 22.4959 26.3977 22.5058 26.3255 22.5118C26.0786 22.5356 25.8338 22.7797 25.8518 22.5832L25.6512 22.6368L25.5829 22.5098L25.31 22.5733L25.3722 22.7539L25.1575 22.5713C25.0571 22.7836 24.5815 22.7836 24.3427 22.7995C23.0844 22.8749 21.5753 22.8273 20.2608 22.8471C20.1465 22.8471 19.8816 22.9563 19.7531 22.9404C19.733 22.9384 19.6608 22.7261 19.4661 22.8174L19.5283 22.9384L19.2915 22.9305L19.2213 22.6963L19.4661 22.6348L19.2153 22.6606L19.1571 22.9384L19.0648 22.7559L19.0046 22.9384H18.6654L18.6032 22.6348L18.4386 22.8194H18.2741L18.2038 22.6944H18.0794C18.0433 22.8948 17.5235 22.744 17.3208 22.7301C17.2145 22.7241 17.1101 22.7658 17.0038 22.7559L17.066 22.6348H16.8593L16.789 22.7559H16.6967L16.6666 22.6348L16.5141 22.7559C16.4659 22.5158 16.2853 22.48 16.3275 22.7559L16.1428 22.6348L16.1127 22.7479L15.9562 22.8154L15.8659 22.6348C15.7435 22.7023 15.2257 22.8829 15.1314 22.8809C15.0933 22.8809 15.1234 22.7559 15.007 22.7479C14.9709 22.7459 14.5936 22.7638 14.5735 22.7678C12.8797 23.1805 10.2287 22.9285 8.36038 22.9027C7.97908 22.8968 7.37503 23.0099 7.06799 22.8154L7.00577 22.9404C6.85326 22.8868 6.71278 22.8035 6.54822 22.7817C6.38366 22.7598 6.26124 22.9106 6.21107 22.7003C5.78763 22.7618 5.28392 22.7479 4.88055 22.7241C4.61966 22.7102 3.92329 22.5594 3.75071 22.5713C3.73265 22.5713 3.67244 22.7856 3.46975 22.6944L3.53196 22.8749L3.16271 22.6944L3.25703 22.8749L3.04832 22.7856L3.00818 22.6328L2.97808 22.7519H2.85767C2.81352 22.5257 2.29977 22.5832 2.09107 22.492C2.02083 22.4622 1.88436 22.2142 1.68769 22.2657L1.93253 22.1447C1.79606 22.0514 1.485 22.0058 1.38065 21.9284C1.31643 21.8808 1.18197 21.6089 1.04752 21.4939C1.00939 21.4621 0.91306 21.4859 0.897006 21.4661C0.86289 21.4264 0.903026 21.2915 0.872924 21.2141C0.838808 21.1268 0.706357 20.9859 0.670235 20.8668L0.517716 21.0494C0.634112 20.7716 0.668228 20.6604 0.455505 20.4104L0.579928 20.3529C0.515709 20.2616 0.473566 20.1505 0.461525 20.0413C0.286931 18.5531 0.26887 17.0828 0.154481 15.6064C0.134413 15.3405 0.198631 15.0608 0.0922696 14.8167L0.208665 14.7909C0.0280512 14.531 0.112338 14.1777 0.148461 13.8801L0.363191 14.0031C0.517716 13.7293 0.0380854 13.8523 0.0882559 13.4872L0.272884 13.4555L0.216693 12.63L0.335095 12.5744L0.212679 12.4236L0.335095 12.3939C0.132406 12.2192 0.411354 11.747 0.0882559 11.6041L0.242781 11.5743L0.27489 11.4533L0.0300581 11.362L0.214686 11.3025L0.0280512 11.1795C0.212679 10.9592 0.0380854 10.8064 0.0280512 10.5703C-0.0241262 9.43527 0.0200239 8.3578 0.0641741 7.21881C0.076215 6.9172 -0.0221193 6.42311 0.0280512 6.14928C0.0380854 6.09769 0.154481 6.13142 0.158495 6.01831C0.164515 5.87941 0.0782218 5.73456 0.0842423 5.59169C0.0962832 5.33175 0.208665 4.77416 0.254822 4.48842C0.270877 4.38722 0.114345 4.26023 0.335095 4.28404L0.212679 4.22451V4.10347L0.339109 4.06973C0.204652 3.7959 0.214686 3.40896 0.397307 3.15894L0.272884 3.1014C0.361184 3.03393 0.419382 2.71049 0.397307 2.62318C0.381252 2.56167 0.212679 2.61524 0.272884 2.46245L0.429416 2.40491C0.349143 2.19656 0.495641 2.23227 0.515709 2.17076C0.587955 1.95447 0.467546 1.61516 0.886971 1.79374C0.854862 1.46832 1.0415 1.53777 1.1599 1.42466C1.19803 1.38895 1.31242 1.11313 1.35255 1.07146C1.42681 0.994071 1.52915 1.01193 1.59337 0.938511C1.62548 0.902793 1.61143 0.807547 1.64154 0.775798C1.69773 0.716269 3.11053 0.474185 3.25703 0.45831C3.43965 0.436483 3.60622 0.497996 3.7487 0.488075C3.85707 0.480138 3.97949 0.253928 4.05574 0.517839L4.24037 0.351158C4.42299 0.327347 4.36078 0.742065 4.64174 0.335284L4.70395 0.517839L4.70796 0.277739L4.98691 0.21821L5.0411 0.335284C5.55685 0.0852625 6.24519 0.315441 6.81713 0.208289L6.88737 0.335284L6.9556 0.214242L9.28954 0.144791L9.40794 0.273771C9.55043 0.178524 10.008 0.105105 10.2067 0.0912154C10.6281 0.0594666 10.9171 0.275755 11.2823 0.0912154L11.1599 0.273771L11.5593 0.335284L11.5452 0.212258L11.4067 0.0912154C11.5352 0.0693881 11.6757 0.271786 11.6937 0.273771C11.7359 0.279724 12.2576 0.277739 12.2857 0.273771C12.3259 0.265834 12.3319 0.186462 12.3439 0.180509C12.655 0.0654195 12.5767 0.206305 12.7573 0.242022C13.3975 0.369017 14.0016 0.327347 14.6377 0.38886L14.6899 0.277739L14.9709 0.3333L14.726 0.152729C14.9026 0.0912154 15.0451 0.293614 15.1836 0.277739C15.2177 0.273771 15.2097 0.164634 15.2598 0.152729C15.4565 0.105105 15.8759 0.103121 15.9261 0.335284C15.9703 0.17654 16.2131 0.170587 16.3656 0.158681C16.5001 0.14876 16.5924 0.295598 16.5723 0.0931997H16.6947L16.7549 0.212258L16.789 0.0872468C16.9175 0.142807 17.4091 0.210273 17.371 0.0316864L17.4673 0.158681C17.8246 -0.0278425 18.1637 0.0912154 18.5069 0.0812939C18.7196 0.075341 19.5023 -0.0417326 19.6327 0.0495451C19.6668 0.0733567 19.5986 0.184477 19.7371 0.154713C19.7933 0.146776 19.7451 0.0455765 19.8093 0.0297021C19.8354 0.0237492 20.297 0.00390625 20.3532 0.00390625C22.0429 0.0217649 23.6644 0.261865 25.3461 0.289645C25.5789 0.293614 25.5368 0.285677 25.7656 0.269802C25.9943 0.253928 26.9496 0.30552 27.1764 0.341237C27.2526 0.353143 28.0212 0.744049 28.0553 0.777782L28.0594 0.775798ZM2.11715 0.940495C2.00678 0.934542 1.85426 1.00796 1.81011 1.12107C1.92049 1.12702 2.073 1.0536 2.11715 0.940495ZM6.97567 2.33744L6.66662 2.36721L6.5723 2.6331C6.10672 2.54381 5.55685 2.7978 5.09929 2.76406C4.91266 2.75017 4.86249 2.56365 4.73204 2.76208C4.67184 2.78986 4.73606 2.6589 4.66983 2.64104C4.5133 2.59738 4.63572 2.78391 4.51731 2.76208L4.4551 2.64104L4.39289 2.94464H4.33269C4.32867 2.6589 4.0136 2.90297 3.8671 2.94265C3.73064 2.97837 3.4838 2.85336 3.53196 3.06568C3.78884 3.02798 3.82095 3.27601 3.94738 3.37126C4.03969 3.44269 4.15609 3.45658 4.2484 3.51413C4.35677 3.57961 4.44105 3.78399 4.69993 3.73637L4.57752 3.91694L4.85446 4.04195L4.89861 3.93282L5.12939 3.98242L5.06919 4.0995L5.37623 4.16101L5.25382 4.28205L5.34613 4.40111L5.65117 4.27808C5.73546 4.55192 5.86389 4.69082 6.17696 4.64716C6.03447 4.88726 6.29937 4.95671 6.38366 5.0718C6.40774 5.10355 6.35958 5.18689 6.36359 5.18888C6.40172 5.21467 6.60842 5.18888 6.69271 5.24841C6.74489 5.28611 6.71278 5.38334 6.74288 5.41707C6.78703 5.46469 7.13421 5.56192 7.22452 5.64923C7.28272 5.70479 7.21047 5.79409 7.2185 5.80004C7.25663 5.81988 7.34493 5.73257 7.40714 5.77028C7.43724 5.78813 7.44326 5.8814 7.48139 5.90521C7.59377 5.97466 7.81452 5.8933 7.84262 6.16118L8.01922 6.10562C7.98109 5.92307 7.43323 5.76631 7.40513 5.73654C7.37904 5.70876 7.52956 5.56192 7.37503 5.49843L7.2205 5.59169L7.03788 5.34564C7.21649 5.11744 7.31483 5.36349 7.44527 5.42699C8.26004 5.82584 9.3076 6.44494 10.0461 6.99459C10.4455 7.29025 11.0214 7.63155 11.4991 7.98872C11.6114 8.07206 11.764 7.99864 11.7138 8.23081C12.2155 8.1812 12.6329 8.74871 12.9741 8.96103C13.0885 9.03246 13.3473 9.09794 13.3694 9.10985C13.4758 9.16938 14.0979 9.5325 14.13 9.56227C14.2103 9.64164 14.1962 9.82221 14.3889 9.86984L14.4491 9.74681C14.5956 9.9254 14.9628 9.89166 14.9107 10.1714L15.1876 9.92936L15.2478 10.0504C15.4164 9.88571 15.7856 9.82221 15.9542 9.71506C16.0485 9.65355 16.0586 9.53647 16.0907 9.51266C16.1087 9.50076 16.2693 9.53846 16.3596 9.51663C16.5863 9.45909 16.9395 9.20906 16.8773 8.95706H17.1242C17.0158 8.69116 17.2667 8.6733 17.4433 8.58599C17.7122 8.45305 17.957 8.22287 18.2861 8.00261C18.3784 7.9411 18.4647 7.98475 18.4708 7.97682C18.7296 7.58988 18.7758 7.74068 19.133 7.53829C19.5886 7.28231 19.9217 7.04618 20.4254 6.80013C20.5679 6.73068 20.6301 6.52233 20.8127 6.64535V6.49256C21.0054 6.52629 21.0756 6.47669 21.1278 6.28421C21.3566 6.37946 21.6375 6.03419 21.8201 5.87544C22.8055 5.00831 24.2725 4.20665 25.4485 3.41491C25.5308 3.35935 25.6291 3.18275 25.6933 3.14505C25.7776 3.09743 26.2251 3.02996 26.2251 2.97043C26.0164 2.77002 25.7134 2.92082 25.4585 2.81764V2.94067C25.1916 2.88709 24.9287 2.96249 24.6618 2.9367C22.5326 2.73232 20.1244 3.35737 17.943 2.96051L16.8232 2.92876L16.8151 2.81962L16.6646 2.94464C15.4545 2.68668 14.3548 2.92678 13.1587 2.97043C12.2917 3.00218 11.4429 2.93868 10.5719 2.9744C10.3592 2.98234 10.1184 3.0756 9.84543 2.99821C9.79325 2.98234 9.80329 2.88114 9.76516 2.87519C9.59859 2.85137 9.33168 3.16489 9.40192 2.87717C9.26546 2.94067 9.12297 3.00218 8.96644 2.99226C8.83198 2.98234 8.7497 2.91487 8.66341 2.90892C8.23395 2.88709 7.70014 3.17878 7.34292 2.81566L7.2185 2.99821L7.1884 2.81566L7.06397 2.9367L7.03387 2.75414C6.86128 2.72041 6.91346 2.81566 6.91145 2.9367L6.23515 2.81367C6.2793 2.5954 6.71077 2.8355 6.72683 2.81367L6.72281 2.67477L6.97166 2.63112L6.72683 2.5696L6.97367 2.32752L6.97567 2.33744ZM7.22251 2.33744H7.03788V2.51801H7.1603L7.22251 2.33744ZM9.74509 2.64104L9.59056 2.39895L9.56046 2.57952C9.30359 2.68668 9.23134 2.48825 9.00658 2.45848L9.04671 2.64104C9.2193 2.62318 9.3658 2.62516 9.37583 2.82359L9.44005 2.64699L9.74308 2.64302L9.74509 2.64104ZM10.7284 2.64104C10.8589 2.19854 10.4595 2.47634 10.2649 2.51603C10.1424 2.53984 9.99594 2.51007 9.86951 2.52C9.82536 2.77399 10.1866 2.50015 10.3251 2.64302L10.3953 2.51603L10.7304 2.64104H10.7284ZM8.94437 2.52L8.63732 2.45848C8.58916 2.62516 8.79787 2.62913 8.94437 2.64104V2.52ZM27.0238 5.1988L26.3536 5.49843L26.476 5.61947H26.199L26.2291 5.80202L26.0445 5.62145L25.9823 5.98458C25.3582 5.78615 25.025 6.6394 24.4451 6.65329L24.5374 6.83584C24.5133 6.73861 24.9367 6.55209 24.9367 6.74457C24.7381 6.79219 24.6939 6.94696 24.6016 7.02038C24.5434 7.06602 24.4551 7.06205 24.4049 7.09976C24.0899 7.34184 23.8069 7.71092 23.3995 7.68711C23.5119 7.93316 23.2289 7.88951 23.0965 7.96491C22.7011 8.18914 22.1673 8.58203 21.784 8.84395C21.6235 8.95309 21.3546 9.26264 21.1238 9.14557V9.32812C20.9592 9.34796 20.9652 9.33408 20.909 9.20708C20.7786 9.25867 20.897 9.42535 20.8769 9.4452C20.8669 9.45512 20.7003 9.47694 20.6181 9.52854C20.1444 9.83213 19.6949 10.0623 19.2936 10.4274L18.846 10.5445L18.9082 10.6655C18.6273 10.6298 18.7798 10.735 18.7457 10.7866C18.6193 10.9731 18.2821 11.1696 18.0493 11.1557L18.0533 11.3065C17.8547 11.3243 17.7965 11.3382 17.7102 11.5168L17.6179 11.3958C17.65 11.6557 16.7048 12.2014 16.5261 12.2371C16.4017 12.2629 16.2693 12.1934 16.199 12.2192C16.1388 12.2411 16.0485 12.3998 15.9502 12.4554C15.7656 12.5605 14.9568 12.8324 14.7581 12.7967C14.7039 12.7868 14.3548 12.501 14.3548 12.4316L14.1721 12.5526C14.1882 12.38 13.9153 12.4554 13.9233 12.249L13.8029 12.3701L13.6183 12.1875L13.7407 12.0069L13.3995 11.8839L13.3714 12.0049H13.249C13.2972 11.6557 12.9741 11.8383 12.8155 11.7966C12.7112 11.7688 12.6028 11.6081 12.4483 11.6398L12.4784 11.5208L12.5727 11.489C12.1954 11.5347 12.352 11.489 12.1974 11.3779C11.9165 11.1715 10.9994 10.7826 10.8709 10.5882C10.8408 10.5425 10.8448 10.481 10.8488 10.4274L10.6702 10.487L10.5398 10.2707L10.3552 10.3064V10.1218C10.2327 10.227 10.1023 9.97103 9.9257 9.99881C10.0662 9.90952 9.65879 9.6595 9.55043 9.60592C9.48621 9.57418 9.39791 9.6337 9.37985 9.62378C9.3076 9.58013 9.09488 9.13763 8.81593 9.20906L8.87814 9.02849C8.85607 9.00667 8.55103 8.99674 8.48681 8.96896C8.41055 8.93523 8.47878 8.82014 8.40854 8.78244C8.35235 8.75268 8.22994 8.77053 8.16371 8.73482C8.02524 8.66338 7.88276 8.45702 7.70816 8.48083L7.76636 8.36375C7.73626 8.32605 7.30479 8.26454 7.20244 8.22287C7.09207 8.17723 6.10672 7.60178 6.06257 7.55218C6.03046 7.51646 6.0726 7.42518 6.00638 7.38748C5.94015 7.34978 5.59698 7.25652 5.55886 7.20095L5.61705 7.02435C5.45651 7.13349 5.37824 6.96879 5.18157 6.87751C4.76616 6.68702 4.55745 6.54812 4.16411 6.30207C3.99153 6.19492 3.60622 6.14332 3.64836 5.86751L3.40353 5.92704L3.46574 5.74646C3.39349 5.71273 3.06036 5.63138 3.04431 5.61153C3.00216 5.55796 3.08846 5.42104 2.97407 5.44088C2.89781 5.82782 2.9841 6.24055 3.03026 6.63345C3.05233 6.82195 3.1306 7.14539 3.13461 7.32398C3.14063 7.52836 3.12859 8.96103 3.09247 9.0404C3.03628 9.16343 2.88978 9.07215 3.1005 9.42535C2.87774 9.6218 3.03227 9.65752 3.03026 9.85198C3.03026 10.0643 2.90182 10.2032 3.09648 10.4215H2.91186C2.95801 10.8243 2.9841 11.3243 2.95601 11.739C2.92992 12.1121 2.91587 12.9971 2.97407 13.4178C2.98009 13.4555 3.20485 13.4574 3.06437 13.763C3.0423 13.8126 2.87975 13.9178 2.91186 13.9456L3.09648 13.8861L3.03427 14.5806C3.31121 14.6639 3.03227 14.7552 3.04431 14.8782C3.10451 15.4358 2.99012 15.9795 2.98611 16.5391C2.98611 16.6442 3.1587 16.7434 3.03427 16.924L2.97206 16.803C2.76134 16.8427 2.93594 17.0689 2.91186 17.1046L2.60481 17.2296L2.78944 16.9597L2.63491 16.6839L2.66502 16.924C2.38005 17.0093 2.4844 17.3566 2.72723 17.4717L2.85165 17.2296L2.91988 19.1702L3.09849 19.1742C3.09448 19.2377 3.02825 19.4957 3.05233 19.5274C3.17475 19.6762 3.30921 19.5988 3.1587 19.964C3.3353 19.9104 3.4838 20.1445 3.50387 20.1445C3.66441 20.1525 3.9835 20.079 4.17214 20.089C5.24378 20.1425 6.33951 20.2437 7.42921 20.1961C7.953 20.1743 8.56106 20.0255 9.09688 20.0215C9.27148 20.0215 9.42801 20.1425 9.59458 20.0314C9.64073 20.2517 9.67284 20.0473 9.8956 20.0195C10.311 19.9699 11.182 20.0751 11.6215 20.087C11.7178 20.089 11.8001 20.0136 11.8984 20.0255L11.8683 20.1465L12.1794 20.0215C12.368 20.214 12.4403 20.1227 12.667 20.0235L12.7272 20.2041C13.0523 19.9957 13.3734 20.2001 13.6544 20.208C14.9327 20.2398 16.2492 20.1664 17.5195 20.1406C17.7764 20.1346 18.1396 20.0572 18.3905 20.079C18.537 20.091 18.4306 20.2199 18.541 20.206L18.5731 20.0235L18.6313 20.1366C18.9303 20.1366 19.416 20.0314 19.6849 20.0513C19.7451 20.0552 19.7973 20.1664 19.8334 20.1445L19.9277 20.0235L19.9598 20.1445L20.0582 20.0235L22.0228 20.1505L22.1432 20.0215L22.1834 20.1366L22.5085 20.1445L22.5747 20.0235L22.6068 20.208C23.0724 20.089 23.4858 20.2021 23.9574 20.1485C23.8551 20.4501 24.5374 20.3906 24.6678 20.2695L24.6979 20.3906C24.8585 20.4442 24.7983 20.3072 24.8484 20.2834C24.9227 20.2477 25.1655 20.2537 25.1595 20.3926C25.302 20.4223 25.2197 20.2914 25.2899 20.2735C25.3281 20.2636 25.4766 20.3112 25.591 20.2775C25.6933 20.2477 25.6732 20.1703 25.7756 20.1425C25.9703 20.087 26.2171 20.2477 26.2392 19.9679L26.4218 20.1505L26.4539 19.9679C26.767 20.1406 27.2004 19.7755 26.9155 19.5135L27.0379 19.4838L26.9155 19.333L27.1001 19.2099L26.9777 19.1802C27.072 18.9698 26.9395 18.5273 26.9757 18.3706C26.9877 18.321 27.1001 18.3329 27.1021 18.2952C27.1101 18.1364 27.0519 17.5253 27.0278 17.3447C27.0078 17.2078 26.8934 17.0788 26.9175 16.932L27.0399 16.9022C26.8653 16.8546 26.9014 16.6978 26.8894 16.5331C26.8272 15.8069 26.9014 14.9457 26.9094 14.1619C26.9135 13.769 26.9395 13.9793 26.9757 13.8543C27.0098 13.7392 26.8412 13.5408 26.8553 13.5289L27.0399 13.5884C27.1222 13.4277 26.9175 13.4019 26.9155 13.3682C26.9074 13.259 27.0038 13.1042 26.9155 12.9574L27.0419 12.9177C26.8512 12.7411 27.0238 12.6498 27.0379 12.4593C27.0881 11.8105 27.0519 10.4235 26.9877 9.78649C26.9757 9.67141 26.8633 9.70315 26.8653 9.67339C26.8914 9.25867 27.064 8.7626 26.7971 8.39153C26.9436 8.33399 26.9797 7.84784 26.9857 7.66528C26.9917 7.41327 26.8111 6.97078 27.0439 6.87355V6.78227L26.8593 6.72274C27.1202 6.7406 26.9937 5.94093 27.0439 5.87148L27.1663 5.93299C27.088 5.74845 27.1964 5.31984 27.0379 5.20872L27.0238 5.1988ZM27.2767 6.46875L27.3389 6.04411C27.2024 6.06197 27.1422 6.43303 27.2767 6.46875ZM8.88416 6.53026C8.69351 6.54614 8.60321 6.40525 8.4828 6.28619L8.45671 6.43303L8.33028 6.46875C8.41858 6.62154 8.63532 6.52034 8.63933 6.77235C8.73766 6.68504 8.9263 6.68305 8.88416 6.53026ZM9.0146 6.84775C9.0146 6.84775 9.25141 6.93307 9.25141 6.80211C9.25141 6.66321 8.90222 6.80608 8.82195 6.71083L8.88416 6.95292C9.04671 7.00451 8.98651 6.86958 9.0146 6.84577V6.84775ZM9.99193 7.37954C9.95982 7.2585 9.86148 7.24263 9.74509 7.2585C9.7772 7.37954 9.87553 7.39542 9.99193 7.37954ZM27.3389 7.50257C27.1101 7.45098 27.2506 7.79823 27.2165 7.92721C27.4593 7.97682 27.2506 7.63155 27.3389 7.50257ZM27.2767 8.5344C27.4673 8.44511 27.4051 8.09984 27.2145 8.04825L27.2767 8.5344ZM27.4593 9.19914L27.2767 8.838V9.32415L27.4593 9.19914ZM29.7371 9.20311H29.6146L29.6769 9.4452H29.7993L29.7371 9.20311ZM27.3389 9.75078H27.2165V9.93333H27.3389V9.75078ZM2.69713 14.1599C2.65298 14.1043 2.61685 14.017 2.54661 14.0031V14.2035L2.79145 14.4278C2.84563 14.2214 2.75733 14.2373 2.69512 14.1599H2.69713ZM2.70114 14.4913C2.62889 14.4933 2.49644 14.9179 2.63893 14.9139C2.71117 14.9119 2.84362 14.4873 2.70114 14.4913ZM2.85566 14.9774L2.54862 15.0389C2.75332 15.3128 2.48842 15.4656 2.54862 15.7672C2.65298 15.7652 2.62087 15.5985 2.67104 15.5052C2.69111 15.4675 2.79546 15.4715 2.79747 15.4259C2.8075 15.2731 2.64495 15.16 2.85566 14.9774ZM23.6464 20.4442C23.6664 20.333 23.5781 20.2437 23.4617 20.2616L23.3995 20.4422H23.6443L23.6464 20.4442ZM19.0949 20.5652C19.1149 20.585 19.6488 20.6525 19.6468 20.5354C19.6187 20.4045 18.9022 20.3866 19.0949 20.5652ZM21.0014 20.5652C20.9532 20.2477 20.7345 20.4045 20.5719 20.5057C20.5819 20.6426 20.9733 20.6009 21.0014 20.5652ZM21.4328 20.3846L21.3726 20.5057L21.188 20.5672H21.495L21.4328 20.3846ZM22.9701 20.3846C22.6329 20.3033 22.7553 20.7537 22.8797 20.5672L22.9701 20.3846ZM23.2169 20.3846C23.0584 20.3668 23.0122 20.4878 23.0323 20.6267C23.0584 20.6862 23.1868 20.4342 23.2169 20.3846ZM20.2649 20.4461L20.02 20.4759L20.1725 20.5672L20.2649 20.4461Z" fill="black"/>
<path d="M1.21811 0.904589C1.14586 0.958165 1.26226 1.0296 1.0094 0.938322L1.13984 0.700206C1.36059 0.815295 1.29437 0.630756 1.50107 0.575195C1.51311 0.733939 1.33049 0.823233 1.21811 0.904589Z" fill="black"/>
<path d="M29.0608 1.42659C28.8701 1.39286 29.0106 1.19443 29.0006 1.18451C28.9524 1.13887 28.5691 1.20634 28.6313 1.00195C28.8159 1.07736 28.9765 0.970204 29.0949 1.18649L29.0608 1.42659Z" fill="black"/>
<path d="M28.5691 22.5096C28.543 22.2119 28.8942 22.3072 28.9063 22.0234C29.2033 22.1346 28.6414 22.4501 28.5691 22.5096Z" fill="black"/>
<path d="M0.579891 21.4759L0.395264 21.0513L0.676219 21.3529L0.579891 21.4759Z" fill="black"/>
<path d="M2.30182 0.271973H2.11719V0.393015H2.30182V0.271973Z" fill="black"/>
<path d="M2.85561 14.9775C2.64489 15.1601 2.80945 15.2732 2.79741 15.426C2.79339 15.4696 2.69105 15.4677 2.67098 15.5054C2.62081 15.5986 2.65292 15.7653 2.54856 15.7673C2.48836 15.4657 2.75326 15.3129 2.54856 15.0391L2.85561 14.9775Z" fill="white"/>
<path d="M19.0949 20.5651C18.9043 20.3865 19.6187 20.4044 19.6468 20.5353C19.6468 20.6524 19.115 20.5849 19.0949 20.5651Z" fill="white"/>
<path d="M21.0014 20.5653C20.9733 20.601 20.5799 20.6426 20.5719 20.5057C20.7345 20.4045 20.9532 20.2478 21.0014 20.5653Z" fill="white"/>
<path d="M9.74505 2.64104L9.44202 2.64501L9.3778 2.82161C9.36777 2.62318 9.22127 2.62318 9.04868 2.63906L9.00854 2.4565C9.23331 2.48627 9.30556 2.68271 9.56243 2.57754L9.59253 2.39697L9.74706 2.63906L9.74505 2.64104Z" fill="white"/>
<path d="M9.01455 6.84782C8.98646 6.87163 9.04666 7.00657 8.88411 6.95497L8.8219 6.71289C8.90217 6.80814 9.25136 6.66527 9.25136 6.80417C9.25136 6.93315 9.02459 6.84187 9.01455 6.84981V6.84782Z" fill="white"/>
<path d="M10.7284 2.64103L10.3933 2.51602L10.3231 2.64301C10.1826 2.50213 9.82335 2.77596 9.8675 2.51999C9.99393 2.51006 10.1404 2.54181 10.2628 2.51602C10.4595 2.47633 10.8569 2.19853 10.7264 2.64103H10.7284Z" fill="white"/>
<path d="M8.88421 6.5302C8.92635 6.68299 8.73771 6.68498 8.63937 6.77229C8.63737 6.52028 8.41862 6.62148 8.33032 6.46869L8.45675 6.43297L8.48284 6.28613C8.60325 6.40519 8.69356 6.54409 8.88421 6.5302Z" fill="white"/>
<path d="M2.69716 14.1597C2.75736 14.2371 2.84767 14.2212 2.79348 14.4276L2.55066 14.2033V14.0029C2.61688 14.0148 2.65501 14.1041 2.69916 14.1597H2.69716Z" fill="white"/>
<path d="M2.70108 14.4912C2.84357 14.4873 2.71112 14.9119 2.63887 14.9139C2.49639 14.9179 2.62884 14.4932 2.70108 14.4912Z" fill="white"/>
<path d="M27.2767 8.53449L27.2145 8.04834C27.4031 8.09993 27.4653 8.44321 27.2767 8.53449Z" fill="white"/>
<path d="M27.4594 9.19903L27.2767 9.32404V8.83789L27.4594 9.19903Z" fill="white"/>
<path d="M27.3389 7.50274C27.2506 7.63172 27.4594 7.97501 27.2165 7.92738C27.2506 7.7984 27.1102 7.45115 27.3389 7.50274Z" fill="white"/>
<path d="M27.2767 6.46858C27.1422 6.43287 27.2024 6.0618 27.3389 6.04395L27.2767 6.46858Z" fill="white"/>
<path d="M8.94435 2.52001V2.64105C8.79786 2.62915 8.58915 2.62716 8.63731 2.4585L8.94435 2.52001Z" fill="white"/>
<path d="M23.6463 20.4441H23.4015L23.4637 20.2615C23.5801 20.2417 23.6684 20.3329 23.6483 20.4441H23.6463Z" fill="white"/>
<path d="M21.4328 20.3848L21.495 20.5653H21.188L21.3726 20.5058L21.4328 20.3848Z" fill="white"/>
<path d="M22.97 20.3845L22.8797 20.567C22.7553 20.7555 22.6329 20.3051 22.97 20.3845Z" fill="white"/>
<path d="M2.1171 0.940513C2.07295 1.05362 1.91843 1.12902 1.81006 1.12108C1.85421 1.00798 2.00873 0.932576 2.1171 0.940513Z" fill="white"/>
<path d="M29.737 9.20312L29.7993 9.44719H29.6768L29.6146 9.20511L29.737 9.20312Z" fill="white"/>
<path d="M27.3388 9.75098H27.2164V9.93353H27.3388V9.75098Z" fill="white"/>
<path d="M23.2169 20.3846C23.1868 20.4342 23.0604 20.6862 23.0323 20.6267C23.0102 20.4878 23.0584 20.3667 23.2169 20.3846Z" fill="white"/>
<path d="M9.99196 7.37959C9.87757 7.39546 9.77923 7.37959 9.74512 7.25855C9.85951 7.24267 9.95784 7.25855 9.99196 7.37959Z" fill="white"/>
<path d="M7.22247 2.3374L7.16026 2.51996H7.03784V2.3374H7.22247Z" fill="white"/>
<path d="M20.2649 20.4463L20.1706 20.5653L20.0181 20.4741L20.2649 20.4463Z" fill="white"/>
<path d="M6.91342 5.01236C6.89536 5.14333 6.98366 5.14134 7.10005 5.13341C6.8191 5.55011 6.71073 4.84568 6.91342 5.01236Z" fill="black"/>
<path d="M6.73085 5.19273C6.62047 5.21257 6.69673 5.08756 6.65459 5.02803C6.61847 4.97445 6.48802 4.98041 6.48401 4.89111L6.72884 5.19471L6.73085 5.19273Z" fill="black"/>
</g>
<defs>
<clipPath id="clip0_65_14893">
<rect width="30" height="23" fill="white"/>
</clipPath>
</defs>
</svg>
