<svg width="20" height="23" viewBox="0 0 20 23" fill="none" xmlns="http://www.w3.org/2000/svg">
<path d="M11.9282 0.8164C12.2201 1.17764 12.4383 2.14489 12.7848 2.58427C15.4846 6.01091 17.8643 7.82154 19.4803 12.0709C19.6189 12.4351 20.4284 12.497 19.7 13.799C18.6871 13.2092 18.5647 14.3313 18.084 14.7456C15.172 17.2566 12.4486 19.7042 8.99989 21.4293C8.48973 21.6844 8.49121 22.4688 7.26741 22.2889C7.11406 22.2668 5.92712 21.2067 5.7148 20.9988C4.7859 20.0817 2.95904 17.9157 2.15546 16.8644C1.76916 16.3586 0.28143 14.231 0.0809035 13.7872C-0.523624 12.4484 2.42971 8.5396 3.29817 7.33792C4.97168 5.02008 7.22907 2.91455 8.91732 0.583436C9.91258 -0.265851 11.1157 -0.187705 11.9252 0.8164H11.9282ZM13.9791 6.96931C13.8848 6.82776 13.5147 6.71718 13.3422 6.46799C12.4663 5.19554 11.4047 3.27579 10.4773 2.13899C10.321 1.94878 10.1396 1.68338 9.83886 1.7571L2.01244 12.9084L7.56672 19.9784L8.17125 20.1008L17.9174 12.5236L16.5683 10.2868C14.6898 9.8327 14.8004 8.20343 13.9791 6.97078V6.96931Z" fill="#626262"/>
<path d="M11.182 9.77074C12.1493 10.735 10.2118 14.5672 8.40563 13.4407C7.23196 11.9264 9.68988 8.28302 11.182 9.77074Z" fill="#626262"/>
</svg>
