<svg width="37" height="37" viewBox="0 0 37 37" fill="none" xmlns="http://www.w3.org/2000/svg">
<g clip-path="url(#clip0_65_14930)">
<path d="M17.4579 0.192581V0.393666L17.7292 0.259609L17.6619 0.4586C17.9836 0.626171 18.4524 0.404139 18.5365 0.791647H18.6669L18.6963 0.665969C18.9718 0.657591 19.0138 0.867054 19.1168 0.913136C19.182 0.942461 19.283 0.91942 19.3523 0.948745C19.8948 1.17497 20.4457 1.3572 20.986 1.59389C21.108 1.49963 21.0155 1.48707 20.9314 1.44517C20.7169 1.33835 20.4457 1.29646 20.2312 1.20848C20.0167 1.12051 19.8275 0.829351 19.4743 0.925704L19.5268 0.804215L19.4091 0.659685C19.4743 0.601035 19.899 0.668064 20.0062 0.699483C23.5638 1.73842 26.5305 4.50544 28.1873 7.55314C28.0401 7.81497 28.509 7.74794 28.0675 7.97835C28.2209 8.24646 28.366 8.54181 28.4964 8.82249C28.5658 8.9733 28.5973 9.24142 28.6751 9.36291C28.8769 9.68338 29.1103 9.75879 29.2975 10.2992C30.3004 13.2149 30.2815 17.2157 29.041 20.0456C28.6898 20.8478 28.2357 21.5872 27.7668 22.3224L27.5334 22.3182C27.7205 22.7016 27.1802 22.8063 27.054 22.9487C27.033 22.9739 26.848 23.3258 26.7281 23.4891C26.0616 24.3982 25.2837 25.1669 24.4447 25.8875C24.4195 25.9105 24.3333 25.8624 24.3228 25.8749C24.2429 25.965 24.1294 26.5913 23.8749 26.1954C23.7593 26.3043 23.6542 26.4216 23.5385 26.5306C23.4692 26.5955 23.2694 26.5892 23.4061 26.7295L23.9759 26.3965C24.1209 26.5515 23.2042 27.1778 23.0718 27.2658C20.7989 28.799 17.849 29.6285 15.1535 29.3332C14.9222 29.6306 14.0392 29.2326 13.7721 29.3499C13.6838 29.3876 13.6397 29.4421 13.5093 29.4023L13.7112 29.3353L13.6081 29.2012L13.2759 29.3395L13.1414 29.2012L13.175 29.3353H13.0068C12.9963 29.2557 12.8155 29.1635 12.7377 29.1363C12.5505 29.0714 12.7881 29.3814 12.6052 29.2682C12.5337 29.2243 12.4727 29.1237 12.4034 29.0693L12.273 29.1991C12.1153 29.0965 11.9807 29.0001 11.802 28.9331C10.7003 28.5142 9.37988 28.3361 8.32229 27.7831C8.20454 27.7203 8.22347 27.5653 8.04475 27.5611C7.65157 27.5527 6.83998 28.0136 6.42788 28.1288C6.32275 28.1581 6.17347 28.1204 6.04521 28.1476C5.77608 28.2084 5.55321 28.4367 5.32613 28.1979C5.32613 28.2649 5.00024 28.577 4.97711 28.5896C4.92454 28.6189 4.82572 28.5267 4.75844 28.5414C4.69116 28.5561 4.67434 28.6922 4.56711 28.753C4.05829 29.0441 2.91449 29.2054 2.31947 29.3835C1.72444 29.5615 1.14624 29.8045 0.559621 30.0014C0.319929 29.3437 1.17778 29.507 1.43008 29.1342C1.07685 29.0169 1.04531 29.2494 0.963314 29.2934C0.866596 29.3437 0.639519 29.3583 0.521775 29.4714C-0.521096 29.153 0.330442 28.9561 0.540698 28.5477C0.660544 28.3131 0.683673 27.9507 0.767775 27.7161C1.2766 26.2876 1.6088 24.6977 2.23326 23.2755C2.3447 23.022 2.36783 22.8691 2.44772 22.6262C2.47926 22.5277 2.63906 22.5361 2.64536 22.4795C2.65798 22.3518 1.67608 20.7577 1.53521 20.4456C0.578544 18.3342 0.261057 15.9296 0.359878 13.6297L0.513365 13.6841L0.561724 12.5593L0.694185 12.6264C0.544903 12.3289 0.814032 12.1928 0.761467 11.8911H1.09788L0.992749 11.6859C1.26608 11.4596 1.22403 11.1915 1.33757 10.8899C1.41957 10.6679 1.64875 10.2762 1.67819 10.0856C1.70342 9.92008 1.62142 9.80697 1.63193 9.72528C1.64034 9.66034 1.97254 9.61217 1.80434 9.41527C1.53101 9.58284 1.55834 9.9138 1.43219 10.1631C1.39854 10.2301 1.29972 10.2489 1.24716 10.3285C1.1988 10.3998 1.17988 10.605 1.16516 10.6176C0.923365 10.8208 1.13993 10.2825 1.15044 10.2343C1.76439 7.66834 4.24331 4.29807 6.4447 2.74176C9.40511 0.645023 13.5661 -0.507028 17.2729 0.215622C17.3402 0.22819 17.3969 0.219811 17.4579 0.192581ZM12.4938 2.06519L12.2246 2.09661L12.3907 2.19715L12.4917 2.06519H12.4938ZM2.89767 12.7269C2.82619 13.4244 2.89767 14.3419 2.89767 15.0666C2.89767 15.1818 2.91239 15.2761 2.76311 15.2342L2.69372 14.6749L2.55916 14.6665C2.64536 15.8688 2.83249 16.9183 3.26562 18.041C3.47588 18.5856 3.79126 19.325 4.02254 19.8256C4.18654 20.1796 4.66383 20.7975 4.74583 21.1159C4.80049 21.3233 4.68065 21.4427 4.71849 21.5998C4.76685 21.8113 5.09065 21.9349 4.90983 22.3203L5.04229 22.2533L3.76813 26.3986C4.66172 26.1577 5.50485 25.743 6.42367 25.6026L6.48254 25.7304L8.56618 25.0015C9.60065 25.477 10.6288 25.9985 11.5834 26.6039C11.6191 26.6667 11.5981 26.7631 11.6654 26.8008C11.8798 26.9202 13.093 27.1925 13.3201 27.1338C13.3895 27.115 13.3432 26.9704 13.3958 26.9998C13.4673 27.0396 13.4631 27.1778 13.5408 27.1966C13.646 27.2218 14.159 27.2595 14.2032 27.1338C14.2683 27.2721 14.262 27.2909 14.4386 27.2679L14.4702 27.1359C14.7183 27.3747 15.183 27.2679 15.511 27.2679L15.2439 26.9348C17.0143 26.9851 18.7216 26.4824 20.2901 25.7116C24.716 23.5394 27.7205 19.5638 27.4556 14.4696C27.3862 13.1353 27.0751 11.8388 26.8543 10.5359L26.7197 10.4919L26.8522 10.3264C26.541 10.1631 26.5452 9.71899 26.3307 9.44041L26.4506 9.22256L26.5831 9.25817C26.3518 8.75756 26.1899 8.28207 25.8745 7.82335C25.7063 7.57827 25.3783 7.4505 25.3741 7.08394H25.2416L25.3089 7.41699C25.2668 7.46307 25.0251 7.28712 24.9788 7.24523C23.978 6.35501 23.1369 5.36215 22.0541 4.54314C21.0428 3.77651 19.8948 3.30521 18.8162 2.87581C18.5744 2.77946 17.8953 2.49878 17.6829 2.49249C17.4537 2.48621 17.1194 2.62027 16.8272 2.60351C16.3919 2.57837 15.9399 2.39614 15.4836 2.40452C14.8865 2.4129 14.0602 2.46945 13.4652 2.50297C13.2171 2.51763 12.8596 2.6454 12.601 2.67473L12.5274 2.53648C12.3361 2.71034 12.212 2.69986 12.0228 2.53648C12.0459 2.72709 11.9345 2.60979 11.9051 2.62655C11.1965 3.06014 10.4333 3.18163 9.62798 3.59427C7.41608 4.72538 5.49434 6.79907 4.37788 8.99425C3.88377 9.96616 2.9986 11.6942 2.89347 12.729L2.89767 12.7269ZM27.0561 10.5548C27.0877 10.4395 26.8059 9.60169 26.7555 9.62055C26.6335 9.66663 26.6629 9.7567 26.7449 9.83001L27.0561 10.5568V10.5548ZM2.83039 19.1093C3.11424 18.9941 2.83039 18.8034 2.77783 18.6547C2.72526 18.506 2.73577 18.24 2.56336 18.175L2.83249 19.1113L2.83039 19.1093Z" fill="black"/>
<path d="M27.0566 10.5548L26.7455 9.82794C26.6635 9.75463 26.634 9.66456 26.756 9.61848C26.8064 9.59962 27.0882 10.4396 27.0566 10.5527V10.5548Z" fill="white"/>
<path d="M2.82967 19.1092L2.56055 18.1729C2.73296 18.2399 2.72455 18.508 2.77501 18.6525C2.82547 18.7971 3.11142 18.9919 2.82757 19.1071L2.82967 19.1092Z" fill="white"/>
<path d="M12.4932 2.06543L12.3923 2.19949L12.2241 2.09894L12.4932 2.06543Z" fill="white"/>
<path d="M10.0676 7.49467C10.1012 7.524 10.0466 7.62035 10.1117 7.61407L10.1496 7.48629C10.6521 7.6392 11.1273 7.26636 11.4763 7.79002C11.7076 8.13773 12.6075 10.5675 12.6769 11.0053C12.7946 11.7321 12.3783 12.2621 11.983 12.8213C11.8148 13.0601 11.4805 13.2026 11.5688 13.5775C11.6151 13.7786 11.9052 14.1933 12.0335 14.386C12.946 15.779 14.1928 17.0462 15.6352 17.882C15.9337 18.0558 16.9724 18.6193 17.2563 18.4706C17.5506 18.1752 17.8008 17.8317 18.0847 17.5259C18.2739 17.3227 18.5304 17.086 18.7323 16.8703C18.8248 16.7697 18.8668 16.5707 19.0329 16.5686C19.2537 16.6943 19.5249 16.6985 19.752 16.7886C20.6119 17.1279 21.5266 17.6788 22.4033 18.0244C22.6388 18.2485 22.8827 18.6025 22.868 18.9314C22.8596 19.099 22.6767 20.0143 22.6199 20.1966C22.6031 20.2531 22.519 20.2405 22.5064 20.2762C22.397 20.5631 22.3823 20.6762 22.1216 20.9087C20.1956 22.6221 18.0489 22.1362 15.8665 21.1915C13.5726 20.1986 12.2627 18.9921 10.6794 17.1342C9.00579 15.1736 7.24595 12.8842 7.75477 10.1465C7.85779 9.5914 8.37292 8.41841 8.83338 8.07698C8.96795 7.97644 9.3443 7.71042 9.46836 7.6392C9.57559 7.57846 9.97507 7.41298 10.0655 7.49048L10.0676 7.49467Z" fill="black"/>
<path d="M26.3828 9.01758C26.3828 9.26265 26.1831 9.26265 26.1831 9.01758H26.3828Z" fill="black"/>
</g>
<defs>
<clipPath id="clip0_65_14930">
<rect width="37" height="37" fill="white"/>
</clipPath>
</defs>
</svg>
